/* XPM */
static char *SO_resized[] = {
/* columns rows colors chars-per-pixel */
"64 64 254 2 ",
"   c #010101",
".  c #0A0606",
"X  c #0B0909",
"o  c #150D0C",
"O  c #161211",
"+  c #1E100D",
"@  c #291615",
"#  c #371C1A",
"$  c #241B0B",
"%  c #352719",
"&  c #3B3119",
"*  c #2E260F",
"=  c #372B28",
"-  c #3A3327",
";  c #3E3433",
":  c #2C2824",
">  c #431F1C",
",  c #452D1B",
"<  c #452724",
"1  c #582B27",
"2  c #453929",
"3  c #55372A",
"4  c #453B35",
"5  c #4A3D35",
"6  c #453C3A",
"7  c #493D3C",
"8  c #473636",
"9  c #573836",
"0  c #683C36",
"q  c #773A36",
"w  c #67322B",
"e  c #4C432B",
"r  c #56452C",
"t  c #4C4236",
"y  c #4D433B",
"u  c #45433A",
"i  c #5C4D33",
"p  c #51453C",
"a  c #534A3C",
"s  c #584839",
"d  c #5A523B",
"f  c #664739",
"g  c #77473A",
"h  c #64563B",
"j  c #705337",
"k  c #58502F",
"l  c #4B3F41",
"z  c #4E4341",
"x  c #474842",
"c  c #524644",
"v  c #544A44",
"b  c #5A4D44",
"n  c #564C49",
"m  c #594E4B",
"M  c #5B5145",
"N  c #55524C",
"B  c #5C524C",
"V  c #595449",
"C  c #5B4E50",
"Z  c #5D5351",
"A  c #5B5950",
"S  c #694844",
"D  c #764B44",
"F  c #62544C",
"G  c #675848",
"H  c #7A5748",
"J  c #615552",
"K  c #665A54",
"L  c #785956",
"P  c #6F4E52",
"I  c #6A624A",
"U  c #77664B",
"Y  c #6C6455",
"T  c #7C6B5C",
"R  c #766856",
"E  c #7A7257",
"W  c #786B61",
"Q  c #7D7465",
"!  c #6D6062",
"~  c #823C3E",
"^  c #87473B",
"/  c #97463C",
"(  c #A7513E",
")  c #884C45",
"_  c #934D44",
"`  c #9D4E4A",
"'  c #9B4C45",
"]  c #88554A",
"[  c #94534B",
"{  c #9C524B",
"}  c #97574A",
"|  c #885A55",
" . c #975B53",
".. c #9C4E50",
"X. c #A34D4B",
"o. c #A94E4A",
"O. c #A2524D",
"+. c #A9534A",
"@. c #BC5D4C",
"#. c #B6564C",
"$. c #A35C54",
"%. c #AA5955",
"&. c #B35152",
"*. c #B95B55",
"=. c #B14F4D",
"-. c #85654C",
";. c #866A56",
":. c #986757",
">. c #86765A",
",. c #947359",
"<. c #96624C",
"1. c #BB624E",
"2. c #B3624E",
"3. c #A86456",
"4. c #B36354",
"5. c #B96558",
"6. c #AE7659",
"7. c #866C64",
"8. c #847364",
"9. c #8A7B6C",
"0. c #877968",
"q. c #977967",
"w. c #897D73",
"e. c #947B75",
"r. c #9B6B6E",
"t. c #BA6B63",
"y. c #A97A68",
"u. c #B17368",
"i. c #C45B4E",
"p. c #CC5E53",
"a. c #C45D53",
"s. c #D35D53",
"d. c #DB5E56",
"f. c #D95E5A",
"g. c #D0584E",
"h. c #E05E57",
"j. c #C2614F",
"k. c #C56352",
"l. c #CB6254",
"z. c #C8685A",
"x. c #D36256",
"c. c #DB635A",
"v. c #DB6B5E",
"b. c #D66759",
"n. c #D1735D",
"m. c #E4635D",
"M. c #EB635D",
"N. c #E8675A",
"B. c #F2675C",
"V. c #E8624F",
"C. c #C66C66",
"Z. c #DB6C61",
"A. c #C87666",
"S. c #D87666",
"D. c #CF7C72",
"F. c #EC6561",
"G. c #E46B62",
"H. c #EC6B64",
"J. c #E76962",
"K. c #F26663",
"L. c #F26A65",
"P. c #F36C68",
"I. c #E7796D",
"U. c #8B8367",
"Y. c #998669",
"T. c #8D8474",
"R. c #958374",
"E. c #938A76",
"W. c #958B7B",
"Q. c #9C8B7C",
"!. c #9A8875",
"~. c #9A927D",
"^. c #9B9378",
"/. c #A4886B",
"(. c #A38C7A",
"). c #A89679",
"_. c #B29878",
"`. c #B88470",
"'. c #B5A07F",
"]. c #9C815D",
"[. c #CF8A74",
"{. c #E98475",
"}. c #F58B7B",
"|. c #A57982",
" X c #988C83",
".X c #9D9282",
"XX c #9D9686",
"oX c #A28E81",
"OX c #A68886",
"+X c #B28885",
"@X c #A49284",
"#X c #A59B8B",
"$X c #AA9D8C",
"%X c #A89985",
"&X c #B49C86",
"*X c #AA9B93",
"=X c #B59998",
"-X c #ABA28B",
";X c #B5A484",
":X c #BAA789",
">X c #ADA393",
",X c #AEA59A",
"<X c #B2A494",
"1X c #B7A998",
"2X c #BBB298",
"3X c #B8ACA4",
"4X c #BCB2A6",
"5X c #C99289",
"6X c #F89787",
"7X c #EB9884",
"8X c #C4A98A",
"9X c #C4B18E",
"0X c #C2AE97",
"qX c #C5B394",
"wX c #C8B69B",
"eX c #DAB594",
"rX c #C7B9A8",
"tX c #C8B9B4",
"yX c #D0B1AF",
"uX c #E4A799",
"iX c #CEC4AA",
"pX c #D6C5A8",
"aX c #D6C9B7",
"sX c #D5CCB5",
"dX c #E7CFB2",
"fX c #DDBFC0",
"gX c #D8CBC5",
"hX c #DDD3C7",
"jX c #DCD0D2",
"kX c #E2D4CC",
"lX c #E6D9C8",
"zX c #E6DAD3",
"xX c #EADDD4",
"cX c #E8DBD8",
"vX c #E9D1CE",
"bX c #EDE1DC",
"nX c #ECE4D5",
"mX c #F2E5DD",
"MX c #F4E8D7",
"NX c #FAF2DB",
"BX c #EEE5CB",
"VX c #EDE5E4",
"CX c #F2E5E2",
"ZX c #F6EAE4",
"AX c #F4ECEB",
"SX c #FAEDEB",
"DX c #F9EEE6",
"FX c #FCF4E4",
"GX c #FCF3ED",
"HX c #FAF6EA",
"JX c #FCF5F3",
"KX c #FCFAF5",
"LX c #FDFCFA",
"PX c #F8F4F4",
/* pixels */
"N v N A V N N Z m N Z Z Z C N N A V B V m m C C m C C n C m b G G G S D G F s 9 ;.L M K R K F m B B F B B m B B F B F B M M V b ",
"A N N N A Z n B m B Z J Z Z A A A V M N N m m m C J P C L ! | L D D g D |  .L q D 7.D f H R Y B F b B B B B Z B M B B m B B m m ",
"B m V m Z Z B B Z B Z Z Z Z C Z J V B M N Y ! T L 7.7.7.| | | | | [ [ [  . .u.) ) -.g D H 7.L V B V B M B B B M V m m C Z J Z m ",
"B m m B Z J Z B J J J K K J N N V B b F L R 7.r.r.r. ..... .$.$. .$. .3.%.` u.:._ q g D | +XR S J M F F M F V V F J Z C C m m B ",
"B m m J m m V Z J z ; = ; n Z B F F P ;.S 3 5 0 D 3. . .$.) g ) $.$.$.$.D D ` [ 0 0 0 f D L c < b v ; u b B M b u ; z Z m B F C ",
"m n m V V Z N N :           ; L P H | =           < 3.$.5.1   # *.%.*._     _ 0                 2 5   . M F B B O   : K m Z J m ",
"m v m b b a G 8   . = 8 @     f  .] #     # 1 <     = t.t.1   # a.&.*.{ .   _ ) # < =     ; 8 = G 8   X M B M M O   = Z m m Z m ",
"n n t s D H ] #   % 3.:. .O   1 %.0     0 t.5.C.D     ~ Z.1   # k.*.1.{     ^ %.*.t. .    +X&X).(.8   X n V M B O   = J m m m B ",
"p i g ^ ' ' %.1   . < 0 ) [ | [ %.<   @ k.1.@.#.C.#   > c.1   > l.i.a.X..   ^ 5.4.*._   . +Xe.r.+Xb   X a v b N O   ; Z n m m B ",
"d ) _ X.o.o.X.^ o       . # | $.3.#   < z.1.j.k.Z.1   # Z.1   > c.p.s.+.    / 5.D.C.[     y.+X+X+XS   .     .       = J m n m n ",
"s  .` ' _ ' _ _ g < +         q 2.@   1 b.k.k.k.f.1   @ Z.1   > V.g.V.#.    / j.C.C...     .+X5XuXP     X . X .     = B v v n m ",
"r D ) _ ) q q w g  . .) 9 o   @ l.>   > m.l.x.j.Z.<   % v.1   > x.g.V.#..   ( l.j.z.{     [ u.`.5XP     u v c c O   : N v m z n ",
"u r f 0 w 1 1 o   9 3.} 5.w   + b.q   . #.m.x.b.D.o   D }.w   @ V.f.M.=.  . +.z.k.l.O.    O.t.3.`.|   . t a c m O   : B z c v m ",
"y t 2 < , 1 q @   o g ] ) +   # b.@.X   @ ( #./ @   . S.}.^     w i.#.>   o k.l.i.l.o.  . O.z.%.u.7.  O H y z V O   = V m n n m ",
"c 7 5 8 % 1 | H .           . ' x.d./ .           . ^ b.S.c.#             q N.S.S.Z.o.    %.a.t.C.D   X q.v y b X   : A z n n n ",
"p y p 5 < S |  .) < @ o @ > ( l.g.g.h.i.w @ + # 1 #.b.l.b.m.d.q # + + > / c.b.{.}.{.C.> % #.z.a.t.[ @ = L a y v : O ; V v c n n ",
"y 5 y 6 9 L | [ $.%.%.3.C.D.k.k.x.s.g.h.M.m.c.N.K.F.c.J.J.f.f.K.J.J.m.M.J.b.x.c.S.I.}.Z.b.z.z.k.5.5.t. .H y u n M M M v M V n c ",
"a 5 5 5 F |  .` {  .%.t.t.A.i.k.p.x.d.d.d.d.m.h.h.m.J.m.m.M.m.m.m.M.M.m.m.c.x.p.l.v.G.l.l.k.k.j.*.4.3. .] S r y M n v a a a c n ",
"y y 4 p L | ....{ { $.D.C.k.i.l.s.s.s.d.h.m.m.m.J.m.J.c.J.G.m.m.m.M.F.F.h.m.m.d.d.d.d.x.l.l.l.k.1.5.t.3.-.;.d a v a M a a a p n ",
"y t 6 f | ......X...$.5.*.i.s.x.s.s.c.m.m.m.m.m.N.J.b.Z.Z.c.c.J.h.M.K.M.m.M.m.h.c.f.f.s.l.l.l.j.1.3.t.u.,.,.I v v v a a a c c p ",
"p 5 p H ) ` ` X.X.{ %.+.@.i.g.c.d.f.m.m.m.m.M.F.J.G.I.6X}.{.S.N.M.N.K.K.M.M.m.d.s.s.s.p.p.j.k.j.1.4.4.3.q.q.U K V b v a v c z a ",
"7 7 b ] _ X.` ` X.%.=.=.@.i.l.x.f.f.J.M.M.K.K.K.H.G.6X6Xn.6X}.H.M.H.F.B.M.V.F.m.s.G.Z.k.n.k.k.j.1.1.2.$. .:.f I M a v c v c z v ",
"p 5 b D _ ' ` ` X.&.=.=.#.@.i.p.x.m.J.m.M.K.K.P.P.P.{.6X{.7X6XH.M.M.K.M.N.M.M.m.g.v.{.z.S.z.i.j.j.@.2.3. .-.r U U.d v v n n v z ",
"4 8 s D _ _ [ X.X.o.=.=.( [.n.@.f.m.M.M.M.B.K.L.H.P.P.}.6X6XI.H.M.M.B.B.N.V.V.M.d.G.6XZ.S.S.j.j.1.@.1.2.}  .g 0.).i B m m V n c ",
"6 7 S ) _ { } { X.o.*.C.( A.z.@.c.m.M.m.h.M.B.F.F.H.P.H.H.L.L.P.K.K.K.B.B.V.h.h.m.c.Z.p.b.S.l.l.1.@.1.%.+.<.g ,.9X>.G m m B m c ",
"6 8 S ] _ } [ { X.o.*.C.+.S.{.l.d.m.M.M.M.N.V.F.P.L.H.P.P.P.P.L.K.K.K.K.B.B.M.K.M.M.N.c.s.p.l.j.@.@.1.2.$.$.g U eX).9.Y Y F n m ",
"l 9 S ) ) _ [ ` ..o.&.D.#.#.z.a.d.M.F.M.F.K.M.L.B.L.P.P.P.P.L.B.K.K.K.K.B.K.K.K.K.F.J.m.f.x.p.p.1.@.1.2.4.4.^ j 8XwXrXtXXXY B a ",
"6 8 S ) _ _ { { o.o.&.C.#.o.@.p.d.M.M.K.K.F.B.H.B.B.L.H.L.H.I.H.J.F.K.K.F.F.F.K.H.F.M.m.c.s.s.p.i.i.1.2.1.5.<.f /.pXaXMXnX4XW V ",
"6 8 S ) _ ' ` X.X.&.&.&.a.a.a.Z.d.M.M.K.F.F.H.H.H.B.B.P.I.N.v.v.v.G.J.M.H.H.B.H.B.N.N.N.c.x.p.g.i.i.i.j.#.2.3.^ ,.qXpXBXKXHX,XY ",
"x 8 0 ) ) ' ` ` X.&.&.=.a.*.a.f.f.h.f.m.J.H.H.H.H.H.B.N.I.z.1.{.{.I.Z.G.N.G.N.G.v.l.z.n.{.{.S.l.j.@.@.a.@.#.#. .] &XdXNXPXPXnX X",
"; 8 9 D ) ` ` ` =.&.&.&.*.a.f.f.f.Z.m.J.H.H.H.G.v.v.n.[.6X[.6.{.7Xt.t.C.C.C.C.C.A.A.t.t.[.[.5X[.6.4.4.*.*.+.#. .H ,.dXNXPXKXPXhX",
"l 6 8 D _ X.` X.=.&.&.=.a.a.a.f.f.b.Z.Z.Z.Z.Z.b.n.l.k.1.[.[.6.`.[.`.`.+X5X5X5X`.`.`.`.y.y.6.6.6.3.<.}  .3.3.3.:.] ;.sXNXJXPXPXAX",
"6 y 8 D _ O.{ X.o.&.&.&.a.*.i.k.j.[.n.j.j.[.n.[.[.{.uXeXdXeXeXpXdX:Xr U :XwX8X(.Y.Y./.'._._.`.,.-.<.,.:.} ,.q.q.;./.dXDXJXKXJXJX",
"2 t 2 g ^ { O.` O.&.&.&.*.5.S.{.n.2.n.[.[.[.[.'.dXMXNXFXNXBXpXiXpX:Xh >.0XwX0X:X/.U.).:X8X'.'./.,.,.,.,.j j :.-.] (.MXFXKXKXLXLX",
"4 2 2 s j _ { X.o.o.&.O.%.t.[.6.2.6.].`.eXeX'.).dXKXKXKXGXDXsXiXpXqXY._.wXpXeX%X].U.].>.E -.E U -.-.H -.-.U -.j H q.lXFXKXKXLXLX",
"x 6 - r g ^ _ { X.`  . . .3.6./.[._.j ].eX9X;XwXMXKXKXKXJXGXhXrXiXqX:X:X'.!.i & & & & 2 , k >.>.]./.,.U j ;.-.f j q.aXFXKXKXLXLX",
"N x u 2 f ^ ^ } ` _ [ ] :.y.8XpXdX9X].'.9X'.'.sXFXLXLXLXLXHXmXiXiXqX2X;XU & * & e % - M 2 >.wX9X'.'.].i r h U ] j >.sXHXHXKXLXLX",
"x u x 2 9 g ^ } ) H ] y./.'.9XdXdXpX9X9X9X'.'.lXAXLXLXLXLXKXHXhXsXqX).h & r & & : * e Y e Y.9X'.'.).j r U h j ,.,.j 1XlXFXKXLXLX",
"x u x 8 3 g g j H /.:X8X).U.h E ^.9XeX9XqX'.:XlXnXKXLXLXLXLXHXnXdX4XE * e I E k * - I d E :X:X:X:X).h >.).U 3 j ,.,.'.iXHXLXLXLX",
"u u u t 3 w j ] H H 0.>.V e * $ * e E ;X9X:XwXsXnXHXLXLXLXLXPXDXnXiXA * k U.-X^.E E E ^.pXwX:X:X'.>.>.:X&XU i r ,./.9XrXVXLXLXLX",
"; x 4 a F i U r , k >.r * 2 2 * * * * e U.2XiXhXvXSXLXLXLXLXJXHXAX4Xp F p U ^.~.).-XiXBXsXqX).).q.E Y.).'.U.].-._./.'.pXMXKXLXLX",
"6 l t M R E r * E :XqX>.* e h & $ * e & & -XlXnXMXDXJXLXLXLXPXJXDX4XW ,X3X@X1XaXhXMXFXlXiX1X:X0X).Y.q.2X2X'.Y.'.eX9XpXBXFXHXLXLX",
"7 7 2 G U.h , i '.:X9X9XE * k E I d e & $ Q aXnXmXDXJXLXLXLXLXJXSXkX=XyXhXbXHXHXKXKXKXFXBXiXiXiX&X!.-X:X2X'.'.pXdXpXiXBXFXLXLXLX",
"z z t Y U r , r U.Y._.wXsX).I U.U.E I h I Q aXBXmXCXJXJXJXJXJXJXSXSXmXvXmXHXKXLXKXKXKXHXZXlXsX2X%X:XwX;XqX9X9XpXpXwXsXBXHXLXLXLX",
"y t a I I a e r I /.).Y._.pXpXrX;X<X2XwXT T hXnXbXCXJXJXJXJXSXJXJXJXJXJXKXKXLXLXLXLXLXHXZXlXsXiXwX2X^.U.'.'.9XpXpXpXlXBXHXKXLXLX",
"y t a M k e i i r k k k ;.>.Y.).wX:X_.wX1XiXMXnXbXAXJXJXAXJXJXJXPXJXLXLXJXLXLXLXLXLXLXPXHXnXnXsX4X~.Y.U.Y.'.pX9X9XsXdXMXHXLXLXLX",
"u t y a & e I d e r k ;.>.!.).&X2X&X'.iXMXFXMXzXbXCXJXJXSXJXSXJXJXJXLXLXLXLXLXLXPXPXPXAXnXnXsX4X^.^.U.E E ).^./.9XsXhXNXHXKXLXLX",
"4 t t y - e d I h r h U >.!.(.0XpXlXBXNXFXHXDXmXcXCXCXcXCXSXSXSXJXJXLXLXLXLXLXLXPXAXAXAXzXsXrX,X-X-X).U.U U./.:XpXiXdXFXHXKXLXLX",
"7 y y t u a E U.U.h r h U U !.dXMXNXNXFXDXGXSXCXjXbXjXyXvXvXCXCXDXGXLXLXLXLXLXLXPXPXAXVXcX4X>X>X#X#X-X-X).).;X0XwXrXBXFXHXKXLXLX",
"y c y 5 a d E U.E U h h G ).rXBXMXmXmXmXDXGXAXVXgXjXtXyXfXfXfXfXzXZXLXLXLXLXHXZXAXAXAXVXVXsX,X>X2X>X-X>X3XrXrXrXrXaXMXHXKXKXLXKX",
"y z t y d R ^.Y.U 2 e R oX$XrXBXMXmXAXSXJXPXPXcXyXyXyXfXyXyXfX=XtXJXKXKXHXAXbXDXVXVXjXjXgXtX,X,X>X>X>X2X1X0XyX1XwXlXmXKXLXKXJXJX",
"l l p y d Q ^.^.U k k E oX-XiXsXkXcXJXPXPXJXLXAX=X=XyXyXyX=Xr.7.vXGXAXZXVXbXzXgXtX4XtXgXaX4X3X,X,X1X>X,X<X1X*X#XyXxXGXKXLXKXJXJX",
"l l y t 2 a Y G r 2 r I e.~.1XsXzXSXJXLXLXLXLXLXtX! |.+X|.r.P yXbXnXzXgXgXiX,X1X,X>X>X3X4X,X*X,X,X>X1X0X0XtXXXXXtXbXSXJXJXLXJXJX",
"6 6 5 6 M G I K G G F Y 8.E.2XlXzXVXVXVXbXVXAXPXVX|.P ! P | =XjXhXgXtX4X3X>X$XW.W..XXX-X*XXX>X>X>X-X@X%X<X@XE.>XaXmXSXJXJXJXJXGX",
"8 6 c m N V J W U.T.T.W.-X,X4XsXjXcXcXVXcXcXbXcXjXtX|.P P | =XtX4X3X3X3X-XT.Q 9.E.~.XX-X).-X%X-XXXR.(.$X<X~.~.3XkXZXSXJXJXJXGXGX",
"z z c c c z m Y W.XX~..X#X-X<X4XaXhXjXzXcXcXjXgXjX3X=X|.l P |.=X*X*XXXw.8.W 9.W.Q.@X@X#X@XQ.(.!.U.Q.oX#X9.@XrXhXZXSXJXJXSXJXJXJX",
"n c c n c m ! ! U.XXXXXX-X>X#X$X,X4X4X3X3X4X4X3X3X3X*X XG a 8.8.W 7.T R 9.R.oXoXoX%X%XQ.7.8.0.!.OX<X.XU.E.3XkXDXJXJXJXGXSXSXSXAX",
"6 l c c n c m n K T. X#X#X$X$X-X>X>X>X>X>X>X-X*X@X(.e.;.L L K L R 7.7.R.(.oX@X@X.XW.R.0.T 7.e.@X$X(.T 9.<XhXmXGXJXJXJXSXZXCXCXCX",
"6 8 7 c c n n l c Y w.W.XX#X#XXX$X>X#XXXXX.XW.T.9.7.8.8.8.9.8.7.9.e.!.(.@X%XoXR.0.8.9.T.0.e.Q.e.T L 8.$XiXzXCXGXGXSXSXSXAXCXCXCX",
"; 8 l l 6 8 6 z l x K T.XX#X#X#X#X#XXXXXXX X XR.R.9.e.!.R.!.Q.(.W.W.(.@X(.R.9.8.w.E.E.W.R.XX8.d G T Q.3XaXlXmXZXDXCXmXxXbXcXbXCX",
"; 8 8 ; 8 8 ; 7 7 7 m J Q T.T.E. XT.Q  XW. X X.XQ.Q.(.%X@X(.oX.X.X.X(.9.7.T T 0.W..XW.W.!.R a B U R.$XrXaXhXxXxXCXxXxXxXvXbXbXbX",
"l c l z 7 6 4 7 l n z y c M d I T. XT.Q w.w.8.w.R.R.oXOX@X(..XXX~.9.8.T T L K R.~..X9.I d t K R Q ~.>XrXsXhXnXxXzXxXxXzXcXCXxXcX",
"l z l l 7 l l l l c 7 7 t 6 y a Q  X X Xw.Q W L L T 8.w.9.e.Q w.T T T Q L F S Q T.W t - t F T Q E.XX-XrXiXgXlXxXkXvXkXzXzXzXxXkX",
"l l l l 6 7 z l c 7 l y x t a a Y w. X X Xw.w.8.8.W ;.W Q Q E Y E Y I M t 2 5 b b < = v F R 0.T.^.^.-X3XtXaXaXjXjXkXkXkXhXlXgXgX"
};
