/* XPM */
static char *ceac817d943f4e5fef4239d97b52a592q49pxUPNJuYQz8Dv[] = {
/* columns rows colors chars-per-pixel */
"64 64 240 2 ",
"   c #010001",
".  c #0B0407",
"X  c #03030B",
"o  c #0C0B0D",
"O  c #16080A",
"+  c #1B150D",
"@  c #040714",
"#  c #0C0D12",
"$  c #110E12",
"%  c #180A13",
"&  c #0D131A",
"*  c #131214",
"=  c #14151A",
"-  c #191719",
";  c #1B1A1C",
":  c #260B11",
">  c #25171C",
",  c #231C1D",
"<  c #27211E",
"1  c #011229",
"2  c #151B23",
"3  c #1B1D22",
"4  c #231D22",
"5  c #2F1F22",
"6  c #331E20",
"7  c #1B2328",
"8  c #1D232A",
"9  c #0D2733",
"0  c #232325",
"q  c #2A2424",
"w  c #24252B",
"e  c #2B252A",
"r  c #24292C",
"t  c #2C2A2D",
"y  c #322B2D",
"u  c #382A2A",
"i  c #34312D",
"p  c #242B32",
"a  c #252A34",
"s  c #2C2D33",
"d  c #322D32",
"f  c #392E32",
"g  c #2D3438",
"h  c #2E343A",
"j  c #343233",
"k  c #3A3334",
"l  c #33353B",
"z  c #38383A",
"x  c #3B3A3D",
"c  c #4A2C2C",
"v  c #532D2A",
"b  c #473738",
"n  c #433D3B",
"m  c #573838",
"M  c #36403E",
"N  c #48413D",
"B  c #50473C",
"V  c #2A3746",
"C  c #343B42",
"Z  c #3A3C44",
"A  c #433E44",
"S  c #583F44",
"D  c #394147",
"F  c #3B444C",
"G  c #3A4754",
"H  c #394F57",
"J  c #44444A",
"K  c #494748",
"L  c #4C4B4C",
"P  c #564848",
"I  c #524B4C",
"U  c #444B53",
"Y  c #4B4D53",
"T  c #464D5A",
"R  c #4A5357",
"E  c #575050",
"W  c #585454",
"Q  c #54555B",
"!  c #555B5C",
"~  c #5B5B5D",
"^  c #654B4C",
"/  c #6C4F4C",
"(  c #675759",
")  c #785958",
"_  c #68635D",
"`  c #4C5965",
"'  c #535B67",
"]  c #535D64",
"[  c #5A5D63",
"{  c #615D61",
"}  c #5C6364",
"|  c #56666A",
" . c #5B646C",
".. c #506670",
"X. c #586876",
"o. c #676466",
"O. c #64646A",
"+. c #636A6B",
"@. c #6A6A6D",
"#. c #76686A",
"$. c #746F6E",
"%. c #646C73",
"&. c #696D75",
"*. c #6C7374",
"=. c #6A767C",
"-. c #777578",
";. c #747B7C",
":. c #865953",
">. c #8D635D",
",. c #906E6A",
"<. c #86797A",
"1. c #997A75",
"2. c #A17570",
"3. c #009700",
"4. c #3B9D45",
"5. c #629A6F",
"6. c #8A807D",
"7. c #AD867B",
"8. c #B58678",
"9. c #677B86",
"0. c #737D82",
"q. c #787B83",
"w. c #847D83",
"e. c #688288",
"r. c #6B848E",
"t. c #74838B",
"y. c #7A8588",
"u. c #7D908E",
"i. c #6D8992",
"p. c #778C95",
"a. c #7A959C",
"s. c #7B959C",
"d. c #7C97A0",
"f. c #7D9BA3",
"g. c #888689",
"h. c #838C8D",
"j. c #948A89",
"k. c #838D92",
"l. c #878C93",
"z. c #998D90",
"x. c #849395",
"c. c #899497",
"v. c #84949B",
"b. c #8B949A",
"n. c #8B9A9C",
"m. c #979698",
"M. c #B48982",
"N. c #B0938E",
"B. c #89B39C",
"V. c #ADA29C",
"C. c #829CA3",
"Z. c #8699A4",
"A. c #8C9DA2",
"S. c #959DA4",
"D. c #A89EA1",
"F. c #84A0A6",
"G. c #8CA1A4",
"H. c #85A3AA",
"J. c #8BA5AB",
"K. c #8DA9AE",
"L. c #93A2A4",
"P. c #93A5AB",
"I. c #9BA5A9",
"U. c #9BA5AB",
"Y. c #93A9AE",
"T. c #96B8AA",
"R. c #8DA7B0",
"E. c #8DABB2",
"W. c #93ACB3",
"Q. c #95ACB6",
"!. c #9BAEB4",
"~. c #95B1B6",
"^. c #9CB1B6",
"/. c #99B5BA",
"(. c #9DB4BA",
"). c #ABA6A7",
"_. c #B5ACAC",
"`. c #A6AEB5",
"'. c #A2B2B7",
"]. c #A2B5BC",
"[. c #AAB6B9",
"{. c #A4B9BE",
"}. c #B6B7B9",
"|. c #C6978A",
" X c #C09890",
".X c #C9A293",
"XX c #D3A89D",
"oX c #C8ACA7",
"OX c #D7B4AA",
"+X c #D3B6AD",
"@X c #E4B7A9",
"#X c #A8C1BF",
"$X c #CFC4BF",
"%X c #EAC5B6",
"&X c #F4CCBE",
"*X c #9CBBC1",
"=X c #A5BBC2",
"-X c #AABAC4",
";X c #AABDC4",
":X c #B6BEC3",
">X c #C2BEC1",
",X c #AAC3C7",
"<X c #ACC1C6",
"1X c #ADC2C9",
"2X c #B5C1C5",
"3X c #B3C5CB",
"4X c #BAC6CC",
"5X c #B5C8CD",
"6X c #BAC9CE",
"7X c #B7C7D1",
"8X c #B6C9D1",
"9X c #BCCCD3",
"0X c #BFD0D7",
"qX c #C7C9CB",
"wX c #D5CDCA",
"eX c #C1CED4",
"rX c #CECFD3",
"tX c #C3D1D6",
"yX c #CDD2D4",
"uX c #C4D3DA",
"iX c #CAD6DC",
"pX c #CCD9DE",
"aX c #D6D8DB",
"sX c #ECD6CB",
"dX c #F3D2C5",
"fX c #CEDBE1",
"gX c #D3DEE3",
"hX c #DADEE3",
"jX c #D5E1E6",
"kX c #DAE2E6",
"lX c #D7E3E8",
"zX c #DCE5E9",
"xX c #E4E1E3",
"cX c #E1E6EB",
"vX c #E4E9ED",
"bX c #E9ECEE",
"nX c #E6ECF1",
"mX c #E9EEF2",
"MX c #EDF2F5",
"NX c #F3F5F7",
/* pixels */
"gXgXzXkXkXkXkXcXkX2X;.Q $.j.0 ; K - y n y L E K N ~ g.-.}.NXNXNXMXmXmXmXnXvXvXnXvXzXzXzXlXlXlXlXjXgXgXjXgXgXgXgXgXgXjXlXgXkXkXgX",
"hXgXkXkXkXkXkXcXaXm.@.L i = 0 o z + q I I y I z n I @.z._.xXNXNXMXmXmXmXnXvXvXvXzXzXzXzXlXlXlXlXjXgXgXgXgXgXgXgXfXfXgXjXuXgXkXgX",
"hXkXkXkXkXkXkXzXrXm.{ E $.; *   n y > N _ K < 0 N i   g.qXaXNXNXMXmXmXmXnXvXvXzXzXzXzXlXjXzXjXlXjXfXgXgXfXfXfXgXgXgXjXjX9XjXjXjX",
"hXkXkXkXkXkXkXzXqXD.o.E K j ,   n K + b W _ - t y j j g.).wXNXMXmXmXnXnXnXvXzXzXlXzXzXkXjXjXjXjXgXpXfXfXfXfXfXfXgXgXgXfX4XlXjXjX",
"hXkXzXkXkXkXkXzXqXg.6.W N * q * q E , i P ( k q q K x o.z.>XNXMXmXmXnXnXnXvXzXkXjXlXzXjXjXgXgXgXfXpXpXfXfXfXfXfXjXgXgXeX3XzXjXkX",
"hXzXcXzXkXkXkXkX}.}.wXK   ; . , > N i ; n E I $ i K n ( g.).mXMXmXnXnXnXvXzXzXjXjXjXzXjXgXgXfXfXfXpXiXpXpXfXfXfXgXfXjX2X4XzXgXgX",
"hXzXcXcXkXhXzXgX}.+Xj.  ; - o o , i n $ < n n * y W L E ( ).hXMXnXnXvXvXvXzXlXjXgXjXzXjXgXgXfXfXiXiXiXiXiXiXpXiXpXfXjX].9XjXfXgX",
"hXzXcXcXkXhXkXhX$X_   t * $ $ o = q i k k y i * y z t , #._.xXmXnXvXzXzXzXzXjXgXgXgXjXgXfXfXfXfXiXuXpXiXiXiXiXuXiXfXpXZ.uXgXpXfX",
"gXcXvXvXkXgXkXhXm.B j - - o $ * o ; q P I q 0 * ; . , I z.).aXmXnXcXzXzXzXzXjXgXfXgXjXfXfXfXfXfXuXuXiXiXuXuXuXuXuXgX6X9.eXgXpXfX",
"gXcXvXvXkXaXzXaXm.$.k = ; * * # - , 0 E W +   o ; k n #.j.<.yXmXvXzXzXzXzXlXgXfXfXfXgXfXiXiXpXpXuXtXuXuX0XuXuXuXuXgX!.X.eXgXfXfX",
"gXvXvXvXkXpXzXqXm.$.y ; * * # o 3 o j I n J x 0 , k n ~ E m.hXnXvXvXzXjXkXjXgXfXfXfXfXiXuXuXiXiXuXeXeXeX9XuX9XuXuXuX9.a.fXpXfXfX",
"gXvXvXvXgXiXkXyX$.% , * * * a w ; * x L Y -.;.;.~ l x e s }.hXvXvXvXzXkXgXgXgXfXfXfXfXiXuXuXuXiXtX9X9X9X9X9X9X0XpX-X..-XgXpXfXfX",
"hXvXvXvXhXiXhXhXqXm.} U C s j s - $ W { R O.-.g.*.+.J g } aXcXkXkXgXiXgXkXgXpXiXiXiXiXiXuXuXiXiXeX9X9X9X9X9X9XiX5X9.9.9XpXpXfXgX",
"hXvXvXvXgXiXhXhXvXrXh.0.Q Z J a -   Q @.J O.O.@.&.&.R ~ -.[.g.! U F D  .A.5XfXuXuXuXuXiXuXuXiXuXeXeX6X6X6X6X9X5Xp.X.v.uXiXfXgXgX",
"zXvXbXvXpXiXgXkXvXm.0.b.&.l l j o 2 Y { Y @.@.[ O.%.] m.m.*.    0         1 v.uX0X0X9X0X9XuXtX9XeX9X4X5X5X9X;Xr.X.X.'.pXiXpXfXgX",
"cXmXbXvXpXiXgXzXcX}.%.0.q.l s l 3 g Y ! Y ~ O.O. .X.] m.m.`.V V p.[.-Xn.U     A.0X9X9X9X9X9XtXuXuXeX9X8X3XW.9.X.=.=.6XiXiXiXfXgX",
"cXmXbXcXpXiXgXvXcXaXl.b.q.s s s 7 g U Y Y o.~ o.%.%.R q.rXyX  V a %.].fX9Xk.@   !.uX9X9X9X0X9X].!.P.A.Q.p.X.9.9.X.].iXeXiXiXfXgX",
"vXbXmXcXiXuXgXnXbX:Xl.b.q.Z s = 2 Z R Y J [ ! [ ' ' F y.}.2XC X D 1 X p.3X9XI.X ` 3X9XiX5Xv.=.' ' ` X.X.X.=.=.| y.tXuX9XiXpXfXgX",
"cXvXbXzXuXuXpXmXbX[.0.b.l.Z 3 l 2 j ` T F `  . .` F Z =.R }.rXV   U F H 9.J.].v.  S.eXI.G 1 H ' X. .X...X.=.| =.[.uXuXtXiXfXfXgX",
"kXcXbXjXtXuXfXyXj.).k.y.%.l w Z w 3 Y ` T ` ` ' T ` G %.I.oXoX;X .@ F T ..p.v.9.1 0.4Xu.0. .G G ` | ..X.X...p.3XuXuXiXuXpXfXfXgX",
"hXkXvXaXuXtXfX).. m.k.%.Y = w g a = C T ` ` ` F ` =.` q.S.j.,.1X<Xv.H V G X.0.X.9.F (.9X8X1X!.P.t.` ` X.9.Y.9X9XeXuXpXuXpXfXfXjX",
"hXkXcXpXeX9XfXI.c h.t.%.J 2 3 0 7 a j U G ` ` G  . .U =.%.1.M.<X1X8X=XC.r.9.X.p.;X' p.8X3X3X5X9X3X].P.(.5X9X6X6X9XuXpXiXiXiXfXjX",
"hXkXcXiXeX9XiX[.b g.v. .J s 2 3 g g l C Z G T X.X.' C Q F 1.N.3X1X3X1X;X{.(././.,Xv.| 3X3X3X1X1X1X;X-X1X3X5X6X6X9XuXiXpXiXiXfXjX",
"kXkXcXiXuX9XuX2X( -.t.T l C g # l l l F Z F  .=...C 1 O.~ ) _.1X1X3X1X=X(.W.~.~.=XY.G ^.1X<X-X;X;X].].-X<X5X6X6X9XuXiXpXiXiXfXjX",
"hXkXcXuX9X9X8XeX$.$.l.C & a Z V 3 C a C C ' %.] r t   _.<.m }.8X3X<X1X;X].~.~./.^.(.' A.<X=X{.;X;X{.{.;X;X3X4X5X9XtXiXiXiXuXpXgX",
"hXzXzXtX9X8X;XeXz.w.`.Y   & 2 C a g g a l ' G X   @ v wXj.( }.9X1X;X<X=X(.W.^.(.^.].t.x.;X].{.=X=X{.{.=X-X<X<X;X2X3X6X6XtXiXgXgX",
"hXzXzX9X8X5X].[.m.-.`.I 6 k * - 3 2 3 * r p 5 z #.m / $Xj.z._.5X3X<X<X].(.^.{.^.^.^.G.A.'.].].].].!.'.].].<X{.'.{.{.[.[.2XpXgXgX",
"hXkXjX5X3X1XW.'.m.-.`.o.#.( f 4 .   > e . , b #.N.2.2.+Xj.z.m.'.3X;XI.P.u.y.k.n.L.Y.^.y.L.c.P.Y.c.!.^.c.L.b.!.!.c.L.;XB.3XiXfXgX",
"hXkXaX5X3X=XK.[.g.w.S.q.#.^ c > 4 . A j.^ m m :.M..X8.oXz.m.).`.3X!.Y } } y.} } *.n.].Q ~ y.y.*.[ k.L.L +.Q h.b.L +.(.4.#XuXpXgX",
"hXkXiX3X;X].K.L.g.g.g.-.I ^ m P K q K V.N.oXM.>.1.oXM.+XD._.).[.3X!.J [ 5.!.x.=.=.A.].;.;.I.x.*.;.v.G.*.q.+.h.n.+.y.^.4.{.0XiXfX",
"kXkXtX1X=X^.J.L.m.g.g.O.L ( #.( n d Q _..XdXOXXXoX).j.z.m.).D.[.3X!.k } Q y.k.;.*.A.].;.c.} y.-.L n.^.y.l.} h.n.} y.^.4.T.9XuXpX",
"zXhX9X;X].!.J.[._.;.g.-.J W ( I u T Q N.OXdXsXOXsX+X#.$.j.g.z.[.1XY.x ! ;.Y.u.} } A.{.~ } L.y.! @.x.'.+.;.+.x.n.} y.T.5.T.9XuXpX",
"kXhX3X=X^.!.K.`.<.;.q.A Y E I k e 0.O.V.%X%XsXOX%XdX1.$.z.o.z.}.;XP.K [ =.Y.t.*.} c.].&.+.n.y.+.+.b.A.~ *.O.y.c.~ q.B.5.B.9XtXiX",
"kXhX4X:X-X].!.S.W @.g.s Z A f q t ' Q +X%X@X%X&XXXXXN.6.j.Q w.[.=XP.+.;.} t.y.h.q.Q !.+.*.} u.y.+.n.P.} ;.*.+.;.O.y.B.3.B.9XtXpX",
"cXkXgXiXuXtX3X4Xz.[ g.w d l k q q  .{ +X@X|.OXdXOX|..X1.<.[ #.I.].(.^.^.Y.K.^.].{.^.(.].{.'.!.!.'.^.].^.].].{.{.{.<X;X{.,X9XuXfX",
"cXkXaXeXeX4X:X[.<.@.g.l d d x O Z  .( +X&X|.M.dX%X8.7.,.#.` j.`.(.^.(.^.K.W.J.n.G.A.A.P.L.P.v.v.x.L.G.P.Y.!.L.P.3X3X3X3X9XtXiXgX",
"zXgXeX9X3X-X].!.S.{ l.Y t Z x   Q 9.P OXdX.X>.@X&X8.) <.#.G w.[.Q.!.^.Q.J.W.G.y.y.p.t.c.x.A.A.J.x.L.k.!.P.L.n.b.3X5X6X6X0XtXiXfX",
"uX9X3X;X].!.!.(.S.~ g.Q a x d w e G E XX%X|.8.|.%XN.^ o.o.' q.I.Q.W.!.W.J.E.J.v.J.K.G.P.!.Y.G.J.G.!.!.(.'.!.'.].3X6X6X9XuXtXpXfX",
"9X-X].].W.W.!.W.I.g.j.[ s Z e d y 4 > 2.:.|.XX8.OXM.S o.Q 0.a.P.R.K.Y.W.J.J.J.J.J.W.J.E.~.Y.G.a.J.W.(.].{.=X-X;X1X5X6XeXuXuXfXgX",
";X].!.W.J.J.P.Y.J.n.m.[ Z x l x f > +   #.XXOX|..XM.P -.D X.G.J.J.J.Y.!.J.J.J.F.C.R.J.J.K.H.F.a.C.C.K.(.].].{.;X1X5X9X9XuXiXfXgX",
"(.!.K.C.a.f.C.F.C.v.h.o.A x j d 0 ; . 4 <.,.1. X X,.K #.F 9.K.J.K.J.W.Q.J.E.E.C.H.J.J.a.f.a.a.C.a.a.A.^.(.(.].-X<X3X6X9XuXiXgXfX",
"W.J.f.p.i.a.F.C.W.[.@.@.l s A t 3 $ 4 y P ( P 1. X) L #.& b.3XF.K.J.W.Q.W.K.W.W.H.(.{.W.!.Y.P.W.!.A.2X4X:X!.^.{.=X1X5X9XuXpXjXgX",
"H.a.i.r.r.a.C.a.2X:X} @.s z x d d e P #.,.) P ) 7./ A E   m.vXQ.H.J.K.W.W.E.W.E.H.(.<X5X3X<X3X{.3XP.].6X3X].!.].=X<X5X9XtXpXjXkX",
"d.i.9.r.p.a.a.Y.jXm.  Q x x d q f > u m m / m P >.P n x   b.nXkXJ.H.E.W.Q.Q.W.H.f.E./.W.W.J.(.Q.W.a.C.].^.!.!.!.{.;X3X9X9XiXkXzX",
"p.r.r.e.i.a.C.jXqXR   l j l e > > : : c >.>.m u ( N K 0   %.2XzXuXC.W.~.~.~.W.H.f.H.E.W.~.W.J.E.R.a.J.W.W.!.^.!.].;X3X9X9XuXkXzX",
"p.i.r.9.p.i.eXqX! ;   z t s 4 d z f ^ 1.N.XX7.: f n k X = D G.].nX9XH.~.~.~.W.H.H.H.E.~././.W./.~.K.W.W.Q.!.!.(.].=X3X8X9XtXhXkX",
"r.9.9.r.e.].mXg.  0   y f 3 4 4 d e y ^ :.2.>.b 0 n t X s @ 0.;XeXlX;XK././.~.H.H.H.R.W.(.].~.(.(.W.W.Q.!.!.W.(.(.].1X8X8XuXhXkX",
"9.9.9.r.;XbXqX0 w ; X y b - - 4 4 $ O O : 6 v q k f - 2 s r 9 Y.9XeX9X/.~.=X~.H.H.H.R.E.W.~.K.W.(.!./.!.^.Y.W.^.(.(.;X8X<XiXjXkX",
"9.e.a.3XMXyXl o 0 o # s b ; 2 3 , f b / :.v > > y q * a p 0 7 t.iXjXpXuX=X=X/.H.f.f.E.E.E.E.f.f.~.Q.(.(.W.J.!.^.!.(.;X1X(.9XgXkX",
"i.C.3X2X[.l.  0 - o $ 8 d q - = t A ^ ,.,.:.u 4 , ; & Y t ; s R P.iXpX[.{.=X~.H.f.H.~.H.R.Q.H.f.J.W.(.].W.J.^.(.!.].;X;XQ.1XiXgX",
"p.5X[.L.l.;.3 - = - o 8 8 e 3 3 s J ( ) ,.>.k y 4 - C }   ; t ] S.eXeX[.t.(.E.H.H.R.E.~.R.R.H.C.H.J./.(.Q.W.(.!.W.(.;X3X].;XuXpX",
";XjX[.h.m.L j 0 - 3 X 3 p # - t t A K P ) P k y 4 @ R C   3 t Y ;.b.u.=.| G.W.H.E.H./.,X~.~.H.H.E.E.^.(.Q./.].W.W.(.=X8X;X;X9XuX",
"n.L.n.}.c.  J w # - o & a C w w t d x k n f d t * D ]   $ = r Q @.h.c.x.G.n.W.R././.=X/.R./.{././././.(.^.(.=X!.W.(.=X9X5X1X9XuX",
"] 9 u.I.[ t x 3 - * o X p =.l $ t f y f k k f l s R F   = - M L Y %.t. .H | K.Q.*X,X=X/.~.*X3X,X(.(.(.(.(.(.].!.W./.;X9XuX9X3XuX",
"a.I.h.} } s j j e   * X 8 8 p   - k f y j k   U J D 2 o o 7 D z Y *.e.H u.{.J./.;X=X=X/.~.~.=X=X~.(.=X=X].].(.!.W./.3XeXiX9X1X9X",
"!.vXNXaXg.s 2 s ;   * . 2 2 8 a 2 ; t e q # 2 g U F   * * 0 z R  .;.e.n.gXjX;X~.=X=X;X=XE.~.(.(./.=X<X{.(.]./.!.!.=X8XtXpXeX1X3X",
"aXbXbXbX[.m.l   l o o . 2 2 8 8 a 2 - 0 # w 8 C Q 8 o o - 3 U | R } !.nXkXfXpX5X(.(.{.(.~.~.=X=X=X<X;X{.(.].(.(.=X;X9XuXiXtX3X8X",
"aXrXqX}.}.}.-.O.U z   o 2 8 2 = 2 2 2 8 2 8 @ Y F g   - 7 g U | g y.^.3XMXzXfXeX9X=XW.Q.^.(.=X=X(.{.,X{./.].(.].;X1X9XtXeX9X3X9X",
").O.g } I.}.g.L D +.g   ; 8 - # 2 = # & 8 2 3 l F p   - p F l # l } t.A.eXpX3X3X4X6X<XJ.^.{.=X(.(.(.,X{./.].].].;X3X9X9X9X5X,X1X",
":Xq.y.b.m.2Xm.r   R ] * o 7 * . # $ - 2 8 8 s 8 g X * 0 g l   J &.  I.eX:XiX7X(.].Y.tX9X=X=X<X{.=X=X<X=X(.].].{.1X8X9X8X3X3X1X,X",
"}.-.F x j ; $.K   = R g   - o o $ * 2 ; # Z w   ; X * t g X   Y g.L u.eX4X].-X!.{.;X6X6XeX3X;X;X<X<X1X;X{.=X{.;X1X5X9X5X5X3X;X1X",
"I.S.l # I.@.; s # = Y Y   - * - 2 = r p Z D   7 *   M x ; J L ;.-.Q b.`.[.Z.^.J.(.=X6X6X[.;X9X1X;X<X1X<X=X=X=X;X;X5X5X5X5X3X8X3X",
"}.[.U ! L.-.z l   z W L ; * 3 ; 3 = g g D g g s   * x s L o.! y.*.l &.%.l.S.Z.p.~.J.{.5X{.^.!.3X<X=X1X=X{.=X].].-X9X4X9X5X9XiX9X",
"yXq.Y } J L 3 * ; Q Q x t o s p 2 7 g Z C U R   = 7 ! ~ ~ Q | =.o.C [ g g ;.t.p.J.C.W.{.!.Y...A.5X;X,X(.~.].^.^.{.3X;X;X-X3XeX5X"
};
