/* XPM */
static char *c5fd4b6032264bbceed2217e4bd10daaMy1dcti13InEo6Gv[] = {
/* columns rows colors chars-per-pixel */
"64 64 246 2 ",
"   c #030000",
".  c #0B0100",
"X  c #0B0A0B",
"o  c #140202",
"O  c #1B0303",
"+  c #1D0B0B",
"@  c #180908",
"#  c #1A1617",
"$  c #1A100F",
"%  c #240505",
"&  c #2B0405",
"*  c #240708",
"=  c #240B0B",
"-  c #2A0A0B",
";  c #290807",
":  c #330304",
">  c #3A0506",
",  c #340B0B",
"<  c #3B0A0B",
"1  c #3B0709",
"2  c #241414",
"3  c #2C1212",
"4  c #2A1C1B",
"5  c #241A1A",
"6  c #37191A",
"7  c #370F0F",
"8  c #292425",
"9  c #352828",
"0  c #3B3737",
"q  c #3B2F31",
"w  c #281F20",
"e  c #4C0405",
"r  c #430B0B",
"t  c #4C0C0D",
"y  c #430606",
"u  c #520B0C",
"i  c #5A0A0A",
"p  c #550607",
"a  c #480F11",
"s  c #481617",
"d  c #551818",
"f  c #65090A",
"g  c #780707",
"h  c #6F0F10",
"j  c #6B1616",
"k  c #791617",
"l  c #780E10",
"z  c #4B1F21",
"x  c #6A1F21",
"c  c #432C2C",
"v  c #472727",
"b  c #582A2A",
"n  c #423434",
"m  c #433C3B",
"M  c #4B3838",
"N  c #583838",
"B  c #4F302F",
"V  c #652425",
"C  c #772625",
"Z  c #6A3C3B",
"A  c #703636",
"S  c #5C201F",
"D  c #57403E",
"F  c #4F3F41",
"G  c #733F41",
"H  c #4A4747",
"J  c #524343",
"K  c #544C4C",
"L  c #5B4849",
"P  c #555353",
"I  c #5B5554",
"U  c #5D5A5A",
"Y  c #595757",
"T  c #5A504F",
"R  c #664949",
"E  c #774949",
"W  c #635C5C",
"Q  c #6D5C5C",
"!  c #675454",
"~  c #765758",
"^  c #644E51",
"/  c #755F61",
"(  c #656263",
")  c #6A6363",
"_  c #6D6B6B",
"`  c #696768",
"'  c #736463",
"]  c #746C6C",
"[  c #7C6C6C",
"{  c #7C6362",
"}  c #78716F",
"|  c #716F71",
" . c #757373",
".. c #7B7474",
"X. c #7C7C7C",
"o. c #7B7878",
"O. c #6F6F71",
"+. c #89090A",
"@. c #871818",
"#. c #941617",
"$. c #83211E",
"%. c #882627",
"&. c #873838",
"*. c #993334",
"=. c #AC3636",
"-. c #C13939",
";. c #9A3F41",
":. c #894748",
">. c #865A5B",
",. c #975859",
"<. c #904E4E",
"1. c #A84646",
"2. c #AF5252",
"3. c #886868",
"4. c #936B6B",
"5. c #9A6769",
"6. c #896F70",
"7. c #837C7C",
"8. c #8B7D7C",
"9. c #877575",
"0. c #997777",
"q. c #A36D6D",
"w. c #A76667",
"e. c #A67879",
"r. c #B77474",
"t. c #AE6E6E",
"y. c #955E61",
"u. c #C75555",
"i. c #CA4849",
"p. c #C97A78",
"a. c #D97A7A",
"s. c #D06B6A",
"d. c #ED7575",
"f. c #8D817F",
"g. c #7F7F81",
"h. c #857F80",
"j. c #B77F80",
"k. c #848484",
"l. c #8B8485",
"z. c #8B8788",
"x. c #8C8B8C",
"c. c #8C8887",
"v. c #928D8D",
"b. c #9B8787",
"n. c #918F90",
"m. c #949394",
"M. c #9A9595",
"N. c #999798",
"B. c #9C9B9C",
"V. c #9B9997",
"C. c #91908E",
"Z. c #A38C8C",
"A. c #A88787",
"S. c #B88787",
"D. c #A59494",
"F. c #A29D9E",
"G. c #AD9C9B",
"H. c #A79596",
"J. c #B39D9D",
"K. c #B89696",
"L. c #ABA19F",
"P. c #9E9EA0",
"I. c #A19FA0",
"U. c #BC9FA1",
"Y. c #A4A3A4",
"T. c #AAA5A5",
"R. c #A9A7A8",
"E. c #ACABAC",
"W. c #A8A8A8",
"Q. c #B2A3A4",
"!. c #B1ADAD",
"~. c #BDA8A9",
"^. c #AEB0AF",
"/. c #B1B1AF",
"(. c #B1AFB0",
"). c #B8AFB0",
"_. c #B4B3B3",
"`. c #B9B5B6",
"'. c #B9B7B8",
"]. c #BCBABB",
"[. c #B7B7B9",
"{. c #AFB0B1",
"}. c #C78787",
"|. c #D48B8B",
" X c #D59697",
".X c #CA9594",
"XX c #E98989",
"oX c #E79797",
"OX c #F99A99",
"+X c #F18B8C",
"@X c #DA9EA0",
"#X c #C6A8A9",
"$X c #D7A7A6",
"%X c #C1BEBE",
"&X c #C8B8B8",
"*X c #D8B6B6",
"=X c #CDADB0",
"-X c #E6A6A7",
";X c #FBAAAA",
":X c #E5BABA",
">X c #FEBCBC",
",X c #F7B6B6",
"<X c #EFB0AE",
"1X c #C2C1BF",
"2X c #F3C0BF",
"3X c #C1BFC0",
"4X c #CFBFC0",
"5X c #D3BEC0",
"6X c #C4C2C3",
"7X c #C9C5C5",
"8X c #C9C7C8",
"9X c #CCCACB",
"0X c #C7C7C8",
"qX c #D1CDCE",
"wX c #D7C6C6",
"eX c #D1CFD0",
"rX c #D4D3D3",
"tX c #DAD5D5",
"yX c #DAD7D8",
"uX c #DDDBDC",
"iX c #D9D1CF",
"pX c #E5C7C7",
"aX c #FBC8C7",
"sX c #FFD0CF",
"dX c #E2DDDD",
"fX c #E8D7D7",
"gX c #F9D7D7",
"hX c #EFCFD0",
"jX c #EFE0DF",
"kX c #E1DFE0",
"lX c #E4E2E3",
"zX c #EAE3E3",
"xX c #E9E7E8",
"cX c #EDEBEB",
"vX c #E8E7E7",
"bX c #FFE2E2",
"nX c #F1EDEE",
"mX c #FEEBEB",
"MX c #F3E2E2",
"NX c #F1F0EE",
"BX c #F2EFF0",
"VX c #F5F3F3",
"CX c #FBF4F5",
"ZX c #F9F8F6",
"AX c #FAF7F8",
"SX c #FEFCFC",
/* pixels */
" .o.g.k.x.C.m.m.P.P.Y.Y.Y.W.W.^.^.E.^.E.E./.{._.{.^././.^.^._.^.^./.{.E.E.E.E.E.E.W.W.Y.Y.Y.Y.P.P.P.P.N.N.m.m.C.x.x.x.k.k.g.g.X.",
" .o.g.k.x.C.m.B.B.P.P.W.W.W.W.^.^.^.^.^._.W.W._./._._._._.^.^./.^./.^.E.{.E.E.E.W.R.Y.W.Y.Y.Y.P.P.P.B.m.N.m.m.m.x.x.k.x.k.g.g.X.",
" .X.k.x.C.m.N.B.P.Y.Y.W.W.^.^.^.^.^.^.[.k.P {.]._._._._._._._._._.^.^.^.^.E.E.E.W.E.R.R.W.W.P.Y.P.P.P.P.V.m.m.m.m.x.x.k.k.g.g.X.",
"X.X.k.x.C.m.B.P.P.Y.W.W.W.W.^.^.^._._.[.Y 0 ].k./._._.`._._._._._._._._.^.^./.E.E.E.E.R.W.Y.W.P.P.P.B.B.V.N.N.m.m.x.x.x.k.g.g.X.",
"X.g.k.x.m.N.B.P.P.W.W.W.^.^.^.^._._._.[.O.m.B.9 B.].[._.'._._.'.[.)._._._.(.{.(.!.E.E.E.R.R.T.Y.Y.Y.I.P.B.V.m.m.C.C.x.k.k.k.g.X.",
"X.g.x.C.m.P.P.Y.W.W.^.^.^.^.^.[._.[._.1Xh.m.(   U k.'.'.'.].'._.[._.`._._._._.(.(.(.E.E.R.R.T.Y.Y.P.P.P.B.V.V.m.m.C.x.x.x.k.k.X.",
"g.k.x.m.N.P.P.Y.W.^.^.^._.^.[.[.[.[.].B.8 .   m.B.H [.'.].'.'.].[.[.'._._._.(.(.(.(.E.E.R.E.R.R.Y.Y.Y.P.B.B.V.M.m.C.C.x.k.k.g.g.",
"g.x.C.m.B.P.P.W.W.^.^.^.[.^.[.[.[.[.3XN.  9   ..].Y.].].].].].'.'.[.'.'._.`._._._.(.{.!.!.E.R.R.W.Y.Y.P.I.B.V.V.m.m.C.x.x.k.k.X.",
"k.x.m.m.B.P.Y.W.W.^./.`.`.[.[.'.'.].%XI.. 9 + 0 !.6X].[.%X].].].'.'.'.'.[.`.`.)._.(.(.(.!.E.E.E.R.Y.T.I.I.P.B.N.m.m.C.x.x.k.k.g.",
"k.x.m.B.P.Y.W.E.^.^./._._.].].].%X%X3X}   0 9 # l.%X].N.N.6X].].%X'.].].[.[.`.`._._._.(.(.E.E.R.R.T.T.I.I.B.B.N.m.m.C.x.x.k.g.g.",
"x.C.m.B.Y.Y.W.^.^./.].].[.].].1X`.7X).w @ 9 9 . ( T.` H 8 _.6X].].].].'.].'.'.'.[._._.).(.(.!.E.R.R.T.Y.I.I.N.N.N.m.C.C.x.x.k.g.",
"x.m.B.P.Y.W.E._.W.^.B./.].1X].( n Q.Q . 6 9 3 n H 9       E.0X].3X%X%X%X].].'.'.[._.[._.(.{.!.E.R.R.R.Y.I.I.I.N.B.m.m.x.x.k.k.g.",
"x.m.P.P.W.W.^._.F.( I /.1X1X1X9.o & & : 3 z O ] 5 . 5 #   E.0X1X3X3X%X].].].].'.[.[.`._._.).(.E.E.E.R.R.Y.Y.B.F.B.m.m.C.x.k.k.g.",
"x.N.B.Y.W.E.^.].f.m Q.G.).).1X&X~ & s : , % n 8.W . o . . B.8X6X3X3X3X3X3X3X3X].'.`.'.`._.(.(.(.E.E.E.R.T.I.I.F.B.m.m.C.x.x.k.k.",
"m.V.P.W.W.^./.].C.I &X[ + { 1X1X~ : s , : B 9.k...` ] F 7.K 6X6X6X6X3X3X3X].].].'.].[.[.[.)._.(.!.!.R.R.Y.Y.P.B.B.N.m.m.C.k.k.k.",
"m.P.P.W./._._.1XV.. L n N v K.#X: y t r : E 9.7.h.( 9 K V.P ].0X6X6X6X6X3X3X3X].].].'.'.[._.(.(.(.!.E.R.W.W.P.P.B.N.m.m.x.x.k.k.",
"V.P.Y.W.^.[.[.1XM.. * B Q M z d y u e y t : F l.' H l.E.I v.9X0X0X6X6X6X3X3X3X].3X%X].'.[.`._.(.(.E.!.E.R.Y.I.P.P.N.M.n.n.x.k.g.",
"B.Y.W.^.^.[.].1XV.o 6 R Q ^ 1 e i e e u t : / h.O D 9.7XL.`.9X7X0X0X6X0X0X6X0X3XM.].3X'.[.[.[._.{.!.E.E.R.W.Y.I.P.N.M.m.n.x.x.k.",
"B.Y.^.^._.].].1XG.@ , N / ! S e p p p e u 1 0.Q - O c V.`.9X8X8X8X8X9X{._.P.O.3XR...E.3X'.'.[._._.(.!.E.R.W.T.P.P.B.N.M.x.x.k.k.",
"P.W.^.^.'.].].0XL.M s s ! Q V u i i e S y 1 [ ' % 6 4 . %XqX9X9X8XqX{.8 m q   m E.].m.F.R.%X[.)._.(.(.(.E.R.Y.Y.I.N.N.n.n.x.x.k.",
"Y.W.^._.].].1XqXV.^ b < J ~ A p f p b 0.>.6 h.l.c * O L qXeX9X9X9X8XH     # ( 0   l.3XY.k.m.3X[._.[.{.Y.W.W.W.P.P.B.N.N.n.x.x.k.",
"Y.^._._.].1X].E.6.^ < b L ~ G u j p >.b.b.' h.b.b.N O @ `.rXeXqXrX[.  8 h.).].3X6XY.m.qXm.  m.[.].R.H   H g.R.Y.P.B.B.m.m.x.x.k.",
"W.^._.].1X8Xc.. ^ ~ > E ~ ^ E u h p 3.v.h.h.z.v.[ 9 o I.tXeXeXqXrXn.  [.tX9X9X8X0X8X(.E.^.k.X H U 5   # Y.P.N.R.Y.P.N.N.m.x.x.k.",
"E.^.`.].1X9XH.+ B s 1 Z >.! >.S f i 4.v.v.z.n.} J [ ( qXyXeXeXrX3Xg.0XrX9X8X8X8X6X0X%XP.[.eXk.    X   ( {.^.R.Y.Y.P.B.N.m.x.x.k.",
"^._.].1X1X9XZ.% s r r >.6.R ~ x f j 0.n.x.x.v.W l.m.8.qXrXrXrXuXk.x.yX9XeX9X9X0X8X0X0XB._._.Y   8 5   I._.W.E.W.Y.P.B.N.m.n.z.k.",
"^._.].1X1XqXb.& d u t >.0.E E A f C h.n.x.x.v...z.c.o.rXyXrXuX9X  Y.rXeXeX9X9X9X8X8X0X].m.k.W W #   ( '.^.E.E.Y.Y.P.B.N.m.x.x.k.",
"[.].1X6X0XiXD.; d e e V >.4.Z :.h j j.v.x.C.x.n.c.` v.dXyXrXuXN.  ].yXeXeX9XrX9X9X8X0X8X6Xk.Y.6XN.g.(._._.E.E.R.Y.I.B.N.m.C.x.z.",
"[.].1X6X8XiXK.; y G &.u s <.<.&.%.f 0.n.v.v.v.v.c.) Q.dXyXkX0X  Y rXrXrXrXrXrX9X9X9X8X0X7XF.B.6X6X3X].[._.(.E.E.W.Y.P.B.m.C.x.k.",
"[.].0X0X9XrX#X; < <.q.a j j 1.C g h e.m.v.v.b.) b.7.Q.zXdXqXm     Y.uXrXrXrXeXeXeX9X9X0X7X0X6X6X].].[.[._._.E.E.W.P.P.N.m.m.x.x.",
"].1X0X9X9XuX&X; , E S.E i l k @.+.l q.A.Z.Z.Z.! { { ! 8.8.#   V.O.  {.uXrXyXrX9XeX9X9X0X0X0X6X].3X].].[._._.E.E.W.Y.P.B.m.m.x.k.",
"].6X0X9XrXuX1X6 , E Z.6.u h l +.+.g k t.t.5.y.1 > : * o . H 7XlXkXk.  n.g.z.9XrXeX9X9X9X8X7X0X6X3X].].[.'._.^.E.W.Y.P.B.m.m.x.x.",
"1X0X9XrXrXrXjX6.: E D.Z.q.&.g +.+.+.f f u u e d d a ; Q F.tXzXyXuXuXO.        ].yX9XrX9X8X8X0X6X6X3X].]._._._.E.W.Y.P.P.m.m.x.k.",
"6X0XeXrXyXyXkXG.: b b.D.K.y.g #.+.+.@.l f C ,.t r : v fXcXkXdXkXuXuXuXE.` ` 0 P rXrX9XeX9X8X8X0X6X%X].].'.`.).E.E.Y.I.N.N.n.n.z.",
"0X9XeXrXuXkXzX~.: s Z A.H.f.f g g g f f p &.w.y b % [ zXdXlXlXlXlXkXuXlXuXyXuXg.B.dXrX9X9X9X8X0X6X1X6X].'._.(.{.R.R.I.P.N.m.x.z.",
"0XeXrXyXdXdXcXU.: V < 0.K.0.t <.y.b e.,.f f : f.A.. L.nXlXlXlXlXlXkXuXuXuXuXuXyXX.`.eXeXeX9X0X8X6X0X].].].[._.(.E.R.I.I.N.n.x.z.",
"9XeXyXuXdXkXMX9.: V < e..XR b q.e.~ #XA.t t A.wX] . 9XnXlXxXlXlXlXkXuXlXuXuXuXkXE.V.eXiXeXeX9X0X0X6X6X3X'.`.[.(.E.R.I.I.N.M.x.k.",
"eXeXyXuXuXzXH.& z y e.4.y.d 3.8.8.Q Q.&XZ 0.wXwXK M zXcXzXxXxXvXlXlXlXlXkXkXuXuXeX9XyXrXqXqX9X9X8X8X3X3X].'.`.!.(.R.Y.B.N.n.x.z.",
"rXrXuXlXvXfXB 7 > E :Xb t E f.f.8.] `.qX1XwXwXQ.o v.VXcXcXcXxXxXxXzXdXdXuXuXuXuXyXtXtXiXiXiXqX9X7X7X3X3X%X'.`.).!.R.Y.I.B.m.x.z.",
"rXyXuXlXxX`.R v % S.sX< a >.7.f.7.7.7XwX8XwXK., * wXVXxXcXcXxXzXMXMXzXjXfXfXdXfXfXfXiXfXpXiXiXwXwXwX&X4X&X=X&X=X!.T.Y.I.N.m.n.k.",
"rXuXvXrXh...~ & % 0.$X, B 4.f.f.8.9.6X9X9X&X< > N MXmXnXnXnXnXmXwX*X*X2X*X*X*XpXpX#X#X#X~.U.U.#XK.#X*XK.J.J.D.h.Z.#XT.P.B.m.n.k.",
"uXuXcXY.Y c.^ ; : E e.z Q 9.9.9.8.6.wXqXeX=X, z % U.CXNXNXmXgXgXsX2X>X>X>X,X<X,X2X:XpX2X2XwX2X$X$X-X-X X#X#XK.#X.XS.K.V.N.m.x.k.",
"uXlXvX[.O.k.^ & < b Z b 9.f.[ R 0.6 Q.eXtXH.: b & O iXZXNXmXq.,X-Xr.p.C r.,.C p.|.,.sX6.1XjX$XV x p.k j @XA.Z $X<.d 3.H.H.m.n.k.",
"uXlXNX^.| k.' B > r > E 0.Q f.b V < H.tXiX! ! 4.% v K dXZXmX,.;Xs.XX>X;XaX$Xq.2X;X;X2X5.pXhXq.p.$X-XoXXX-XU.K.$X}.r.{ J.B.m.n.k.",
"lXvXNXm. .k.l./ & d > E >.z 0.G b E 5XfXG.! A.F % v . l.SXbX*.+X*.+Xa.C 2X:X.XsXC p.,Xq.fX*Xt.p.y.|.x ,.@XG 3..X<.V 4.Q.N.m.x.k.",
"lXcXcXx.o.k.z.I % s > G 5.< - % % 0.fXfXQ.4Xb.o 6 M m K mXgX2.u.u.XXs.-XgX#X$X<X<.p.OXf.bX*Xt.oX2.r.t. Xj.:.,.}.C A K.G.N.m.x.k.",
"xXcXBXm.g.f.k.L % s > a 5.< f.gXK.= D.!.eXwXc * = ^ 9 8.SXaXs.s.a.XXa.aXbX.X-X}.;X|.|.r.2X2X,.oXp.t.}.:Xw. Xt.r.w.,.K.Y.N.m.x.k.",
"cXVXVXm.X.g.f.( % r a > E N J.pXZX&X. 9.fX!.Q 6 * N . M.AX:X}.oX|.oX$.%.gX.X$XS.gXf.a.C E 2Xr.C p.t.V <.q.*Xq.>.p.4.b.T.N.m.z.g.",
"xXAXvXk.k.f.o.[ * , < < r v ; . 3.J.* Q !.!.6.+ O c . D.AX*X;XsX2X2X;X;XsX2X>X>XsX,X;X;X;X2XOXOX-XoXOXOX@X-X|..X Xq.0.T.V.m.x.k.",
"cXSX0XO.n.g.Y 9.9 & , , < & , B - o J.f.Q.L.T O O n . v.AX@Xa.=.-.-.i.i.#.s.OX%.p.oX@.d.u.@.d.@.|.|.@.=.*.+.*.*.*.,.4.G.M.m.z.g.",
"VXSX6Xo.x.g.P h.F O 7 , & G E % - B J.n iXQ.. 9 o D   ).AX$XoX2.u.u.i.u.i.s.OX&. X|.*.+Xs.2.a.&.}.r.*.1.1.1.*.:.;.5.3.J.D.n.x.g.",
"VXSX8Xo.n. .F ) 6.2 3 7 ; Z.G.[ N c o b._.J O 3 O T   uXSXCXCXCXCXmXmXmXmXbXbXbXbXgXgXgXsXhXfXhXpXpXpX:X*X*X*X=X#XQ.Q.I.B.n.z.g.",
"AXSX[.o.n.o.( } h.Q o 6 O 8.!.!.G.3 M &X} . 9 O $ I   ].SXSXSXSXSXSXSXZXZXZXVXVXBXBXcXcXcXkXkXuXuXtXtXeX9X6X].'.(.!.R.P.m.n.k.g.",
"SXAX .z.n.z.U W h.9.@ 3 . 9.!.T.Q.L O f.c O 3 O n I     1XSXSXSXSXSXSXZXAXVXAXVXBXBXcXxXxXlXkXkXuXyXeXeX9X6X1X]._.E.W.P.N.C.k.g.",
"SXuXX.X.N.h.o.# ( m.M @ 2 ] E.).v.o 6 % % = O o W W $     O.m.m.6XcXSXSXAXAXVXVXBXBXnXxXxXlXlXkXuXyXrXeX9X0X%X]._.^.W.P.m.m.k.X.",
"SXP._ ( M.( z.K 9 z.. + . f.L.H.L O , * ; - O 9 } Y   5   # P 0     k.rXSXSXAXAXVXVXnXcXxXlXlXkXuXyXrXeX9X6X6X]._.^.W.P.m.x.k.X.",
"yX  H 0 l.k.m.n.` N.7.. @ D ' @ O 3 * ; ; = o n W _ K   P o.P ( k.o.X   [.SXAXAXVXVXnXnXcXvXlXkXuXuXrXrX9X8X6X]._.^.Y.P.N.x.k. .",
"_ Y o.0 ] m.m.N.m.P.!.. 9 o O = 3 % ; ; ; 3 o T m ] c.0 h.k.B.N.N.N.N. .Y ZXSXZXZXVXVXBXcXvXvXlXkXuXrXrX9X0X6X]._./.W.P.m.x.g.o.",
"K (  . .0 ` N.M.N.N.F.. 3 ; - ; ; - ; ; ; = o ' n ..m.l.P.m.....] Y z.N.m.NXSXZXZXAXVXBXBXcXvXlXkXuXyXrX9X9X6X]._.^.W.P.m.x.g. .",
"K $ ` o.( 0 N.F.] K ] o = ; ; = & ; ; * - O T o.9 I N.F.m.8     w D X.7.o.VXSXSXAXVXVXBXBXcXvXlXkXuXyXrXeX0X6X]._.{.Y.B.m.x.g. .",
" .( ` o...H h.c.. @ W o = * ; ; ; * ; - % = ] _ X K B.F.U . 4 + w q H 0   yXSXlXSXAXAXVXBXcXvXvXkXkXuXrXeX8X6X]._.E.Y.B.C.k.X.O.",
"O. .o._ ` | ) I   . ' q o 3 * ; * % * = o T o.0   k.Y.7.  5 O + @ . 8 ' . O.VXSXSXZXVXVXVXNXcXvXlXuXuXrXeX0X6X].{.^.P.N.n.k.g.O.",
" . .o. . .] ' @ w   ! H . 2 O * * * * * O ] [ 5 . ] T.( . 5 @ + + o q c.  ` 9XAXSXZXSXZXVXNXcXvXlXkXuXyXeX0X6X]._.^.Y.B.x.k.o.` ",
"O.X. .g.o.I 2 @ 5 . P L . 2 + % * * = O 4 ..) . . ` v.+ O @ + o $ o   X.X.  ` rXZXVXSXZXVXNXcXvXlXlXuXrXrX0X0X]._.E.Y.N.n.g. .` ",
"X.O.o.o.X.Q o = # . K W . 2 O + * @ * + o ' J . o ] n o + 3 . J v.f.I m.C.0   9XNXZXSXZXZXNXNXcXvXlXuXyXrX0X1X].{.W.P.m.x.g.O.` "
};
