/* XPM */
static char *_f6befb2462146ca84637d3b38cebfefA9kutc8CcHYfAyDR[] = {
/* columns rows colors chars-per-pixel */
"64 64 244 2 ",
"   c #010102",
".  c #0B0202",
"X  c #050807",
"o  c #090907",
"O  c #030609",
"+  c #0B0708",
"@  c #040A0B",
"#  c #0A0C0C",
"$  c #140202",
"%  c #1C0203",
"&  c #170608",
"*  c #120E0D",
"=  c #1A0C0C",
"-  c #03100F",
";  c #0E100F",
":  c #12100E",
">  c #18130F",
",  c #040D12",
"<  c #030A14",
"1  c #0A0E11",
"2  c #160F10",
"3  c #031213",
"4  c #0C1214",
"5  c #06131B",
"6  c #0B151A",
"7  c #021B1D",
"8  c #0B191A",
"9  c #131313",
"0  c #1A1613",
"q  c #161917",
"w  c #1B1916",
"e  c #121618",
"r  c #18171A",
"t  c #151A1B",
"y  c #1C1C1B",
"u  c #230202",
"i  c #2C0101",
"p  c #240B0C",
"a  c #2C0C0C",
"s  c #340203",
"d  c #3C0304",
"f  c #340B0B",
"g  c #3A0909",
"h  c #31110E",
"j  c #231313",
"k  c #2A1715",
"l  c #231A15",
"z  c #231E1B",
"x  c #2B1E1B",
"c  c #331414",
"v  c #391A1A",
"b  c #00201F",
"n  c #1E211E",
"m  c #25211E",
"M  c #2B211E",
"N  c #36241E",
"B  c #051921",
"V  c #161E23",
"C  c #042425",
"Z  c #1C2525",
"A  c #232322",
"S  c #2A2524",
"D  c #2B2826",
"F  c #222729",
"G  c #262A2A",
"H  c #2C2C2B",
"J  c #332624",
"K  c #3B2623",
"L  c #342A25",
"P  c #3A2A25",
"I  c #332C2A",
"U  c #302F2F",
"Y  c #3C2C2A",
"T  c #393027",
"R  c #35312D",
"E  c #3C332D",
"W  c #263131",
"Q  c #2C3331",
"!  c #343433",
"~  c #3B3433",
"^  c #383938",
"/  c #3B3B3B",
"(  c #430404",
")  c #4B0505",
"_  c #460708",
"`  c #4C0708",
"'  c #440B0B",
"]  c #4B090A",
"[  c #530405",
"{  c #5C0303",
"}  c #520708",
"|  c #5A0709",
" . c #530A0B",
".. c #5C0B0C",
"X. c #491819",
"o. c #591212",
"O. c #640202",
"+. c #6C0303",
"@. c #680708",
"#. c #630B0C",
"$. c #6A090B",
"%. c #730303",
"&. c #7A0304",
"*. c #760A0C",
"=. c #6B0F10",
"-. c #700F12",
";. c #691617",
":. c #761415",
">. c #44221D",
",. c #7C211E",
"<. c #472927",
"1. c #522928",
"2. c #43332C",
"3. c #4B362C",
"4. c #52372C",
"5. c #433534",
"6. c #433934",
"7. c #4A3833",
"8. c #443C3A",
"9. c #4B3C3C",
"0. c #533C33",
"q. c #563A38",
"w. c #642623",
"e. c #6B3C34",
"r. c #793331",
"t. c #44413E",
"y. c #4C423D",
"u. c #53443C",
"i. c #5B443C",
"p. c #5A483A",
"a. c #63453C",
"s. c #66483B",
"d. c #764737",
"f. c #2C3840",
"g. c #3D3F43",
"h. c #3E4243",
"j. c #364949",
"k. c #344B4B",
"l. c #444443",
"z. c #4C4443",
"x. c #484A47",
"c. c #4B4B4A",
"v. c #524643",
"b. c #534A45",
"n. c #5C4B47",
"m. c #534D4B",
"M. c #5B5045",
"N. c #5B534C",
"B. c #445859",
"V. c #535353",
"C. c #5B5552",
"Z. c #575959",
"A. c #5D5D5C",
"S. c #674B46",
"D. c #64564C",
"F. c #6A5448",
"G. c #74584C",
"H. c #645B53",
"J. c #635D5B",
"K. c #6B5E59",
"L. c #745D54",
"P. c #68635B",
"I. c #756359",
"U. c #515B64",
"Y. c #765F60",
"T. c #576969",
"R. c #696967",
"E. c #736A64",
"W. c #756B66",
"Q. c #6D7372",
"!. c #737875",
"~. c #7D7D7D",
"^. c #830405",
"/. c #8D0304",
"(. c #860809",
"). c #940202",
"_. c #9C0303",
"`. c #98090B",
"'. c #881D1C",
"]. c #961718",
"[. c #A60506",
"{. c #BA0304",
"}. c #AE0F13",
"|. c #A51515",
" X c #B9191A",
".X c #94241E",
"XX c #932726",
"oX c #983A3A",
"OX c #B22E2E",
"+X c #C60000",
"@X c #D10307",
"#X c #844B47",
"$X c #85584B",
"%X c #93524F",
"&X c #895A51",
"*X c #B15050",
"=X c #88675A",
"-X c #9A6659",
";X c #A16659",
":X c #876865",
">X c #946E67",
",X c #82726A",
"<X c #907871",
"1X c #987877",
"2X c #A76E67",
"3X c #A5766A",
"4X c #AE7873",
"5X c #C07878",
"6X c #968278",
"7X c #AA8778",
"8X c #B58D76",
"9X c #B98679",
"0X c #C28878",
"qX c #7B8D8D",
"wX c #878888",
"eX c #9D8783",
"rX c #99918E",
"tX c #8E9292",
"yX c #979696",
"uX c #959A9A",
"iX c #A78986",
"pX c #B78A85",
"aX c #A7928A",
"sX c #BA9587",
"dX c #A29B99",
"fX c #BA9A96",
"gX c #BDA598",
"hX c #98A0A0",
"jX c #A7A7A7",
"kX c #B4ADAA",
"lX c #B7B8B8",
"zX c #C99488",
"xX c #CCA79A",
"cX c #D4A69B",
"vX c #E0B499",
"bX c #CDB8AF",
"nX c #C8C1BF",
"mX c #DAC9BE",
"MX c #E5C9BC",
"NX c #CEC7C4",
"BX c #E8D2C7",
"VX c #E7DAD3",
"CX c #EEE0D4",
"ZX c #F8F3F2",
/* pixels */
"9 e e 1 o           % u $               %   . $     .               $     . &   o .   $   $ . .     $       $   . $     . O O O ",
"4 6 4 #   # A e # *     3 7   .   3 z     . 3   3 U b C ~ 9.! ~ 6.D 3 z C     z O 3 X     @ C @ $ 3 @ .       w       .   O O   ",
"1 4 1 O #           :.:.O.( |.( =.[.u   /.@ ) w.5.h 1.).,.Z .X).  d XX  %._. .  p ).{ d ].O.% +.3 ( +.@ :.`.(   :.#.{   . O O   ",
"# @ @ #   / ~.Z.l.C ).+X*X2X+Xv d *XT.%.@X+.#X_.1.K.%.*X|.j. X*XqX*X+XY.4X+X-.A.i OX'.(.).oX1XXX  #XXX  ^._.'.B.).{.f   & O O   ",
"X X X #   H tX/ wXjX:Xw.iX1X). .  1XjX%XiXaXdX).1XlXi 2XfXuX%XoXjX#Xr.iX:XpX) lXjXpX:.<.).<XjX5X[ kX1X  -XoX( lXeX#X  $ . O O   ",
"            /   ~.uXtXZ.lXwX3   ! kX<X  uXtXtX  jXlX~.!.hXlXj.  wX  k.uX~.wX% jXtXjX<.M   Q.jXB.Q.kXjXS wXj.  wXjXuX  A   O O O ",
"          X A   h.X D y R.~.~ l E 5.    9.$ K K b.  z.9.i c.l   / =   H.wXd ( S.. q.+. .  R     V.w 8./ / J 2 / S m.  #   O O   ",
"              @   #   S N 2.u.v.m.c.l.l.Y b.z.b.$ b.z.x.c.A c.V.c.l.V.5.  b.D.S.L.S.S.S.x.l.A.V.                    9     O O   ",
"            O @ e   x.K.H.u.Y I ^ l.H D ~ 5.8.9.v 9.z.8.5.5./ l.l./ 9.9.<.9.4.n.q.S.r.s.c.! c./ A @ y 1 e # @ 4 e w   O O O O O ",
"              4   / W.L.F.2.L n *       i ( s i s s i u i %         i ( ) ) d ( O.%.(.e.N.K       @ O @ O O O O     O O O O O O ",
"            #   5 b.K.I.i.y D A H q w y c  .' f s f f f g a 4 9 e 4 ' ] _ ....' ' *.'.S.H.D.G O # O O O O O @ @ O @ O O O O O O ",
"        X #   ! / I.I.v.I D S / / 9 w y k ) ( s s i s s d i # # 9 9 d _ _ ` ..;.` d -.S.P.L.y.  1 @ O O     O O @ @ @ O O O O O ",
"      X # , / z.b.J.C.8.R S D l./ y y e j ' s g d d s s s s # # @ 0 ] ( _ _  .o.-.#.X.J y.I.L.I   3 @ O O   O @ O @ @ @ @ O O   ",
"      #   / W.n.N.C.m.N.6.z t.C./ H D S t ' ] s d ( d g d d 9 # @ & d ( _ _ } =.;.*.;.Z k 6.S.p.H 4 @ @ O     O O @ @ @ O O O O ",
"X   O   G J.x.x.A.K.J.V.H I / ~ t G A I I g ..] s d d d d s + @ @ % s d s ( _ | ;.@.w.m.y.L x p.N.^   # O O O O O @ , @ O O O O ",
"O   #   x.l.^ P.E.C.! q.L.S.a.o e S I z n X.{ #.d d d ( _ d & @ @ a ( d d d _ ` o.$.>.8.n.y.z 4.F.G # @ O O   @ @ 3 4 3 @ O O O ",
"@ # #   H / J.<XW.y.7XvX7X>Xd.O w m H I 3 X.| .. .g d d ( _ a @ 3 f ) ` _ d d } ..$.<.G P E P N s.R   # @ # 9     1 4 , 3 , O O ",
"1 1 # e   h.dXaXL.b.CXCX8X=Xw @ 0 M R I A k ..}  .d d _ ( ` c 4 @ f ) ` ) ` _ _ | #.K R ! S M P 3.E   4 @   l.l.z @   @ 4 3 , , ",
"4 4 # 1 y   R.aXI.Q.ZXCX7Xx w 9 9 l D I A * ] #. ._ ( ( _ _ f e 4 g ( ( d _ ` ] ` ) x S R A e l P 0 E m   , H.E.t.  6.I < t 5 8 ",
"1 4 # @ # , . D.E.yXZXmX$XS.e : w : 9 m y z ]  . ._ ` ` d ` g 3 0 s s d s d _ ` _ g @ 0 S D z 9 l x 6.E R y.I.I.L.I.H.G 3 6 5 8 ",
"@ # # # #   H ! * lXZXdXsX0.3 : w w # 9 q y o.| ..} d ] _ d ' 3 x -.[ d d s s d ( f 4 # 9 D m # l L I 2.b.I.G.G.6X,X/ , 4 5 5 5 ",
"O O O O @ @ @ !   kXnXgXgX3.z : 0 0 0 # e t ' ..#.| _ ( _ d s e * ) $.d ` _ ( ' d u e 0 e A m # 0 S J 3.F.I.i.s.=X8.9 @ 4 < 5 5 ",
"      X O @   y l dXbXBX=Xa.: 0 0 l z y w t a ) ..} _ _ d ( d 4 j u | `.g ]  .....c   e y D D w # M J P 7.K k 3.u./ w   4 < 5 5 ",
"        X O @ e   R.NXmX$Xv q w l z z m z q a d ] ` ` ` _ ( _ & = ( d [.+.  _ d } v t # 9 A R m 9 z w # o * M 4.S.N.b.~ O , @ < ",
"        X O @ t   rXVXgX&X>.w z M x x M m Z c ( ( ( ` ` _ s d p % ( (.^.&.u d s d = y 0 4 e S A # 0 9   # 0 z P s.G.M.l.G   @   ",
"      X O @ @ ,   NXVXsX=X1.y   x x x S D D K ( d ` ) } ) ) ( . i . /.).+.s ( ( d = @ 9 # w 0 y 9 X 9 X X : w M 2.s.F.D.G O O   ",
"  X X O O @ # 1   nXgXd.4Xi.$ P     0 x J H 2.#.( ]  .| %.%.&.( % s %.&.[ d d _ d 9 9 w # w w e e # o * # * m R 2.0.0.H.H.  # O ",
"X O O @ # # @ #   6XG.  4.8.E.s.d.N # x K H Y -.[ g _ | ^.%.+.[   s %.%.} g ( ( s 3 # # 9 9 w 0 0 9 9 # w m * m R 3.p.u.P.!   4 ",
"O O O O @ # @ 9   E.<X    n.iX  xX>X  J K 5.~ ;.{ d ` } @.O.{ i i O.+.^.( d ( d p @ o # # # 9 w z @ 9 # > L L z D 2.4.u.I.b.  9 ",
"O O O O O @ @ 4   6XD.    7.1X=XxX-X  l L 5.~ w.O.} ` @.^.+.[ +.).[.+.| d _ d d p @ o # # # e 9 9 0 0 # 9 L L m M 2.2.2.v.m.<   ",
"X X X X X X #   l.eX  8 1   bXMX9X-X  M M L ~ X.{ } } @.)./.) %.[.{.%.% ` d ( ( p @ # # # # # e ; z 0   9 T L * z 3.u.E M / y   ",
"X           w   ,X3X  D @ $ mXBX0X$X  l x J ~ 1.{ _ #.*._.).) [ O.^.) d ` ( _ d = ; * # 4 : 0 : w M A   > 7.L 0 z 0.0.5.M A 9   ",
"X           z   iX$X  x   #XMXCX9Xe.y 0 l Y ~ 3.{ | | $.[._.d ( ( % i ) } _ ` d : # # # ; 0 w # K u.R   z ~ E M P S.F.8.D 9 O O ",
"            >   fXe.  l   L.cXbXzX#X  l : J 8.Y ) | #.*.[./.$ d ( ( `  .} ` ) ' 9 e * # 4 e 4 @   H.^ < # y R I 0.D.N./ e O O O ",
"          e   x.fX$ 7 =   5.zX2X2X&XK @ 0 w I S d } | $./.^.) @.} _ | | } ` ) g 4 z 9 ; 4 1 @ y   P.H.  ; t./ / p.N.C.m   O O O ",
"          D   wXfX  D 4   7 pX;X1.4.4.0 w : e q s } } ) *./.^.+.( ) | } _ ) ) f t 0 # @ @ @ , t   x.W.  m D A y.b.c.I     O O O ",
"          y   R.pX  y $   . xX9Xd D l M z # # @ s ) | | (.[.^.[ d  .) _ ` d ( a 8 0 ; y t     4 O W !.w       R X     # X   O   ",
"            $   4.X.  S.F.7XBXbXw.n 0 w z @ X @ a } | $.$.^.%.d ( ` ( d d s ( j @ # # 4 y A t   4   !.l.  9 +     o o X     O   ",
"              o       y.9.K.eX4X-XY @ e 9   X   & ` ` [ [ | ) s _ ( d ( } ( d =   X O     4 G F y   R.A.  0     X X       X     ",
"              X :   z v.E.C.S I s.a.  9 @   X X # & p c j p & $ p & j v c & & .   O           t Q 6 / A.  :           X         ",
"            X X   #   / >X=XS.! y L 0 @ @ X X X @ @ 4 3 @ @ @ @ @ @ 4 3 @ @                 O     Z / R.  9               O     ",
"  X X   X   X O O # 1 3 u >X-Xi.J.y 9 @ @ # X X X o # + * * # # o # # + + . .                       e !.Z.  e   X X             ",
"X O O X X X X O # # 4 e   fX9X%X7Xb.  #   X X X # X @ 4 4 -     @ 4 @ O                 @ 1 4 t Z G 4 y Z.G     # X             ",
"X X X O X X X O @ # 1 y 5 i.7X-X&XG.  w   X X # @ $ p j p u $ $ a = $ $ $ $ .     @ e e t 4 4 e y Q h.h.F l./     # X           ",
"  X X X O O O O O # 4 4 S   G.sXa.a.J A w X 9 * @ p ( d d d i ` _ s s s s s $   e t t e 4 , @ O     @ Q l.t h.! q   9 X         ",
"      X X O O O O @ 1 4 m   >XxXF.0.K 3 e # 9 # e j d d s i _ _ i s s s s s + 6 t 6 4 @ @ @ @ @ @ 1     4 4   Z U./   1         ",
"          X X O O # # e e B :X$X$ z y w 9 # # # t * ( d i d ) i s s s s u % w t ,   O 4 4 @ @ O @ O @ V G W e   B.Q.g.  @ O     ",
"          X X O # # @ 9 < m.n.x z e y A A 9 # o     s s s  .s i s s d   [ ,.W @ O U ! y @ @ @ @ @         4 4 X   h.U.F     O   ",
"          O O O O O O 1 O 5.u.A D A w z w   9 # X X u u  ._ i s s d   :. X'.7 * l.t.4   1 e 4 @ O @ @ @ @ O O @ 1   8 f.F @     ",
"  X O O O O # O X X # # O A I A e e e # # 9 # 9 # @ s [ ` i s s d   :. X|.(   H !   @ w t # @ 4 3 3 3 , @ @ @ , , 6     V V @   ",
"O @ @ # # # # @ X O # # # @ y A 9 # # # e 9 0 9 + @ _ $.i s s d   -. X`./.o.C A 3 V V 1 1 6 8 4 , @ @ O O O   O O O ,     O < O ",
"# # # # # 1 4 1 # # # @ O @ 1 t t e 9 4 e O     X @ g ) i s d   | }.`.&.O.~ W V Z r @ 8 V 6 3 @ @ O O   O O   O       O O       ",
"# # # # 1 4 4 4 4 1 # @ @ # @ @ @ @ @ @ O       O @ v ( i s i ` `._.$.{ *.Y C w X 3 V 6 @                                       ",
"# 1 4 1 4 4 4 4 4 1 # # # # @ X X O O O O       @ t y i d . %.(.^.%.[ +. .8 #   6 6 @                                           ",
"# 1 1 1 4 4 4 4 1 1 4 4 # # O X O @ X O O       # t 9 s u { ).+.+.{ | [ g O   3 4                                               ",
"# # # # # 4 4 4 1 1 1 1 # # O X @ # O O         4 e O i u ^.&.@.( [ ( d u O @ O                                                 ",
"# # # # # 1 4 4 1 # # # # @ O O # # # O X O   O 4 @   i i O.O.{ d d d s u @                                                     ",
"# # # # @ # 4 4 1 # # # @ O O O # 1 1 @       @ 4 @   % u X.X.f i u u u $                                                       ",
"@ O O O O @ # 1 1 # # # O   O # # 1 4 #       1 O @     3 7 B 3                                                                 ",
"O O O X X @ # # # # @ O O X X # 4 4 4 # X   @ #   4   O 5 O ,                                                                   ",
"X X X     X O O @ # # O @ # @ 1 4 4 4 @     @     @   @ ,                                                                       ",
"        X       O @ # # # # 1 4 4 4 1 X     O         O                                                                         ",
"                  O O # # 1 # # 4 4 #                                                                                           ",
"                    O @ # # # # 4 1 O                                                                                           "
};
