/* XPM */
static char *_a30757d91be4db5def8726fa0f9323eFLwze2OZY1ALHpnO[] = {
/* columns rows colors chars-per-pixel */
"64 64 251 2 ",
"   c #030002",
".  c #0A0202",
"X  c #04040A",
"o  c #0B040B",
"O  c #0C0B0C",
"+  c #060906",
"@  c #150907",
"#  c #0B0A13",
"$  c #130C14",
"%  c #0C1518",
"&  c #181618",
"*  c #13120E",
"=  c #280607",
"-  c #350507",
";  c #231618",
":  c #2D1311",
">  c #2F261D",
",  c #181923",
"<  c #0E1821",
"1  c #241D26",
"2  c #391E25",
"3  c #1B242B",
"4  c #1C2931",
"5  c #282528",
"6  c #342929",
"7  c #2B2B33",
"8  c #252B34",
"9  c #342C32",
"0  c #2A343A",
"q  c #393739",
"w  c #39322D",
"e  c #1F271C",
"r  c #47050A",
"t  c #451519",
"y  c #59151A",
"u  c #4C0D0F",
"i  c #770B13",
"p  c #741719",
"a  c #6C0C10",
"s  c #4F1E24",
"d  c #48292C",
"f  c #46393A",
"g  c #523131",
"h  c #692826",
"j  c #782627",
"k  c #703437",
"l  c #5D211D",
"z  c #4E433B",
"x  c #75463B",
"c  c #393C44",
"v  c #453E44",
"b  c #5B3C44",
"n  c #693D42",
"m  c #3A4349",
"M  c #37454E",
"N  c #494749",
"B  c #564A48",
"V  c #56524C",
"C  c #474B53",
"Z  c #544D56",
"A  c #4B5458",
"S  c #545254",
"D  c #58585A",
"F  c #4D544B",
"G  c #654849",
"H  c #784847",
"J  c #67574C",
"K  c #665B59",
"L  c #755856",
"P  c #72524E",
"I  c #59625E",
"U  c #67635B",
"Y  c #76675C",
"T  c #78715F",
"R  c #595A64",
"E  c #4C5463",
"W  c #655D63",
"Q  c #73586B",
"!  c #5A6467",
"~  c #5E6972",
"^  c #646B6D",
"/  c #6C6B6B",
"(  c #686666",
")  c #736C6B",
"_  c #776866",
"`  c #73736D",
"'  c #7A746A",
"]  c #686C74",
"[  c #697277",
"{  c #737473",
"}  c #7C7A75",
"|  c #7D7B7A",
" . c #777577",
".. c #746E72",
"X. c #36453E",
"o. c #870B14",
"O. c #980A14",
"+. c #8E0C13",
"@. c #AA0611",
"#. c #B42317",
"$. c #8C1A22",
"%. c #882529",
"&. c #933033",
"*. c #B2332E",
"=. c #A51B2A",
"-. c #D01B0C",
";. c #D23419",
":. c #EB3218",
">. c #FB361B",
",. c #F12A13",
"<. c #D23A2C",
"1. c #EA3826",
"2. c #FE3C2A",
"3. c #FB3824",
"4. c #FA3D33",
"5. c #ED382E",
"6. c #89493C",
"7. c #B14937",
"8. c #DC442A",
"9. c #CE4738",
"0. c #FC4229",
"q. c #E84535",
"w. c #F94636",
"e. c #E74C33",
"r. c #933D44",
"t. c #89544B",
"y. c #90504D",
"u. c #A95648",
"i. c #B95655",
"p. c #AF4F4A",
"a. c #8D6457",
"s. c #B36758",
"d. c #8B5C62",
"f. c #836666",
"g. c #84766D",
"h. c #837D7B",
"j. c #867A76",
"k. c #956F6E",
"l. c #AA6967",
"z. c #B3776F",
"x. c #D75546",
"c. c #CB564D",
"v. c #E95448",
"b. c #CE6758",
"n. c #EE6E58",
"m. c #CD716A",
"M. c #EC746F",
"N. c #D53746",
"B. c #798278",
"V. c #88837B",
"C. c #95857C",
"Z. c #938873",
"A. c #A8897D",
"S. c #B18876",
"D. c #D08A79",
"F. c #EE8B75",
"G. c #6D7581",
"H. c #7C7C82",
"J. c #767B86",
"K. c #857D83",
"L. c #BD7F80",
"P. c #DA7E83",
"I. c #7A8488",
"U. c #6C8182",
"Y. c #838284",
"T. c #8B8A84",
"R. c #898788",
"E. c #948A87",
"W. c #98958B",
"Q. c #878B92",
"!. c #948D91",
"~. c #8B9698",
"^. c #9C9B9B",
"/. c #989696",
"(. c #8C9089",
"). c #A78788",
"_. c #B98C87",
"`. c #A5968B",
"'. c #A49B98",
"]. c #B99991",
"[. c #9CA19B",
"{. c #A9A59A",
"}. c #B4A79A",
"|. c #B6A894",
" X c #989BA2",
".X c #A69CA3",
"XX c #98A5A6",
"oX c #AAA4A3",
"OX c #ACACAC",
"+X c #A6A7A6",
"@X c #B4ABA7",
"#X c #B8B4A9",
"$X c #B4ABB2",
"%X c #AAB3B3",
"&X c #B9B7B6",
"*X c #ABAEAF",
"=X c #CE928E",
"-X c #D2A796",
";X c #F5A994",
":X c #C7A8A4",
">X c #C6B8A9",
",X c #C2BAB8",
"<X c #D7B1AE",
"1X c #EEB6B1",
"2X c #ED948E",
"3X c #BCC0B9",
"4X c #C8C4B9",
"5X c #D5CAB8",
"6X c #DCD3BB",
"7X c #DAD3B9",
"8X c #CFC4AC",
"9X c #E5CAB7",
"0X c #E2D7BD",
"qX c #F8C8B5",
"wX c #C6BDC2",
"eX c #E0BFC8",
"rX c #BBC4C6",
"tX c #C9C7C7",
"yX c #D4CBC9",
"uX c #DAD5C5",
"iX c #D8D7D7",
"pX c #CBCFD0",
"aX c #E3DBC3",
"sX c #E4DDCB",
"dX c #E9D9C9",
"fX c #FED6C8",
"gX c #E5D9D9",
"hX c #FAD9DA",
"jX c #ECCBC8",
"kX c #E9E2CA",
"lX c #EAE4D9",
"zX c #F4E7D8",
"xX c #F8EAD3",
"cX c #DCD8E1",
"vX c #E4DDE2",
"bX c #DBE4E2",
"nX c #E4E3E4",
"mX c #ECECEB",
"MX c #E9E6E7",
"NX c #F7EAE7",
"BX c #F9F4EB",
"VX c #F5EBF2",
"CX c #F4F4F4",
"ZX c #FBF5F4",
"AX c #FDFBF5",
"SX c #F6FCFB",
"DX c #FDFDFC",
"FX c #F6F7F7",
"GX c #ECF0F2",
"HX c #DFE0D0",
"JX c #B1B5C0",
/* pixels */
"8X}.{.{.T.T.T.' U E.#X5X0X7X0X0X7XkX6XsX{.V.} q ( ` /   oXiX4X#X[.#X'.,X5X5X9X-X;Xn.;.8.fXZXBXAXAXBXAXNXiX{. .I.[ I.J.J.J.c 0 XX",
"8X{.{.{.T.` ` B K >XdX5X6XaX0X7X0X6X5XW.z ( W.)  ./ S O Y.{.'.OX(.T.) ) Z.A.S.2Xn.e.:.8.fXAXAXAXBXAXBXNX4X{ B.^ ~ G.G.I.c % I.%X",
"4X@X'.oX(. . .N B >XlXuX6X0X0X6XaX8X`.K z } (.+XD N 7 , N 5 9 / Y./ ^.U @ a.F.b.8.w.>.e.fXAXDXAXAXBXBX&XV.U { D ! [ J.A # A &XI.",
"#X,X'.W.Y.| V.S 6 ) #XkXdX5X7X0XuX7X#X/.!.&X(.D   5 # 1 C ( D N ..q m ' S.2Xn.<.5.2.>.8.fXAXAXZXBXlX4X` ( / ^ ! ^ J.] # 0 +X~.| ",
"W.}.j.K B z f 5 U ( (.uXlX5X8X8X}.@X} ` V.U O   7 , X C ] c 0 R 7 5 * |.qX7.-.w.3.3.,.8.fXAXAXAXMXpX/ F B.! ! ! J.[ 8 % Q.^.^ iX",
"V.`.V.' / D D D } { U V.5XsXaXaXg.f   5 c *   5 X 7 , c 7 X   o 7 & * <X;X<.4.>.3.3.,.8.fXAXZXZXMX/ N ! ^ D ^ [ G.c X [ XX^ OXDX",
"'.}.#X{.T.B.` { } { D ` }.5XaXaXV..   ;   5 q &   X X q c & 1 5   + ; _.F.<.3.2.>.2.>.e.fXAXNXlX{.& D ! A ^ ~ [ C < m  XI.~.DXZX",
"{.{.tX#X(.W.T.} ` ` V.oX4X7XsXaXW.5 O   $ D D h.^.) f 5 O   v Z V _ k.z.c.q.3.2.>.3.>.8.fXBXzXuXq m ^ D ! ~ A M 4 8  XI.{ bXDXAX",
"/.{.4X@X[.(.{ V.V.&X4XuXkXuXkXkX{.@ O 1   N (.( W.4XuX@X@X( O N E.}._.m.n.e.1.3.>.0.,.8.fXzXuX` O ^ D C ] R M 8 3 J.I.A pXDXFXDX",
"#X{.&XoXW.(.| / V.5XsX6XkXkX7XaXuX) . $ 6 /.4X,XK T 5XzXkXsX@XE.`.P k s.n.e.1.2.>.>.,.e.qXzX{.+ I A S R R C 8 3 ~  XC &XDXAXDXFX",
"`.@X&XoXY.T.h.U `.5XNXaX5XkXkX6XzXT.. & * '.lXlXaX8X7X6X5XkXlX5XA._.y.&.n.w.,.,.,.>.1.9.fX>XO N ! m S A m m 0 E XX^ I.DXDXDXDXSX",
",X'.} ' K V f d L f.`.0XkX0XaXkXsX` 5 9   V 4XaX6XkX0XkXxXaX6X5XS.z.m.c.<.1.w.3.>.3.#.;X-X* 7 ^ m A A m 0 8 C ~.I.D mXDXCXFXDXDX",
">X,XE.B ; f d = L :X|.>XzXuX6XuXW.& * ( oXE.W.5XaXkX6XkX0X8XaX9X-Xs.n.v.1.,.2.3.0.;.b.1Xg   ^ C C E c c 0 c J. XA &XDXAXDXCXDXFX",
"@ ' @X_ 2 L b = : 5XdX>X`.' V.h.B 6 O . {.BXuX#X>X7X6XaXaX6XkX9XD.b.v.;.w.0.3.w.;.n.qXx * 5 7 A A m 3 4 0 [ *X] ^.DXFXDXFXDXFXFX",
"J Y Y G d G d d.k.>X>X}.V   9 .. .S N / #XuXkXkX|.8X5XdXzXkXkXqX2X-.4.w.>.:.w.<.7.;X_.@ & X m A A 3 3 3 A  X^.H.FXDXFXDXmXDXDXDX",
"V.g.z t d g = ).jXdX>X}.W.B 9 C ( B v /.#XsXlXaX6X>X7XkXuX6XxXfXF.-.4.2.>.1.v.9.F.qXj.  6 X C ! m # 8 c ~.*X( vXAXDXDXFXDXmXDXFX",
"(.j.n s d 2 > B ].dXdXuX5X{.K N 6 f B _ ) / #XgX4Xh.3XuX#XaXkXfXn.-.w.2.:.e.9.7.9X4XU   ;   C A X 3 0 { tX( 4XAXAXAXDXDXDXSXSXFX",
"{.E.s k f.f f 5 6 :XjXkXkXuX#X' C.z g _ V     !.'.e B.W.W.NXxXqXF.-.3.:.3.w.7.z.>X#XD   * * S 7 % 0 A &XT.& gXDXAXDXDXDXDXSXFXFX",
"| ' G G g.) D B = :X0XdXxXkXuX4X>X}.E.K D S o   . f f V.kXuXuXqXn.-.2.2.3.3.<.b.G (.S   > @ ; & X 8 %X&Xe 6 lXDXAXDXDXDXDXSXFXFX",
"W._ J V  .| K _ : C.dXaX6XxXkXkX>X}.}.E.( D q c 9 . ) j.z Y |.D.v.:.0.0.3.5.n.i.P ) { 5 o & 6 X , &XOXD & V iXZXAXDXDXDXDXSXFXFX",
"z.=Xj.'  .| R.W w f @XzXdX0X6X6X5XY w  ...7   & q 6 T.N > P t.b.v.:.>.:.3.q.7.k B ^ Q.0 + 7 q 9 ^.%X(.| q N &XDXAXAXDXDXDXDXSXSX",
"y l.].C.` { | ( W q z W.dXdXsXsX5XW.@ o # X # , O & /.h.Y z.m.*.q.:.0.:.e.9.y L ( ^ N % & 3 3  .+X{ &XV.  f &XDXDXDXDXDXDXDXSXSX",
"$.j k.`./.Y.W Y.( ( 5 & `.jX5X#X4XW.* $ $ # # % *   4XE.k.;X9.5.4.3.0.:.e.7.a.,X[.I 7 ^ [ M 3 7 w /.V.O   ) CXFXDXDXDXDXDXDXDXDX",
"p h s J ' { |  .I.D V 5 G _ B V ( D   X o 7 q 5 O + 4XlX9X;Xv.5.2.2.3.w.x.6.`.pX*X^.N H.I.M S ) w   +   / lXFXDXDXDXDXDXDXDXDXDX",
"k g g K q q ( Y.Y.R.) 6 . .     .   O # o o . .   . &XdXqX;X8.2.2.>.3.5.c.= #XpXOX'.$ 7 A ! } j.( E.&XgXlXDXCXDXDXDXDXDXDXDXDXAX",
"G B K j.h.} h. .| K 6 N f 6 N 1 1 &     $ o & V f V 4XdXqXF.;.3.>.2.q.x.u.].pXrX%X+Xv Z 4 D E.}.sXAXmXDXDXAXDXFXDXDXDXDXDXDXDXAX",
"v R.&XV.V.j.(./.K 6 f ) ) ( c # $ o # $   & ) Y./.&XtX].D.c.1.2.>.0.<.m._.j.pXpX*XN Z & D F V.BXlXHXAXAXGXFXDXDXDXDXDXDXDXDXDXDX",
"U oX4XK g.' h.T.R.K h.R.( D & o # &   o & @ 5 z ,XlX>Xa.s.x.w.3.0.8.p.-XV.X ! ~.{ & q o ,XyXsXBX&X| iXDXDXDXFXDXDXDXDXDXDXDXDXAX",
"_ '.>XJ C.C.V.W.T.h.) ..6 1 f 1 X o $ W  .& . w yXsX:Xt.p.v.4.2.1.9.=X}.O 8 # C ( q 5 !.gXAXAXsXT.(  .iXDXmXDXmXDXDXDXDXDXDXDXAX",
"G ).9XL z L Y ' | h.K.W o V R.v O X 5 W K f B V ' :X-Xu.9.q.5.w.*.m.:XK % ! 0 ^ D Y. .B j.AXMX` { R.D | 4XAXDXDXDXDXDXDXDXDXDXAX",
"x P :XL t k.`.j.h.| E.K . ` ^.N   $ . . q ` V.V.> S.=X7.q.w.q.9.s.=Xj.m ~ C [ Q.H.( N . #XMX!.S  .Y.c F (.CXmXDXDXDXDXDXDXDXDXAX",
"a.u t.t.u z.`._ ) R.} /.V ) oXS o $ K K.| /.#X}.A.1Xm.&.v.v.x.u.-X{.q ] R E J.^ S K @ G ZXOXA ! ~. .X (.pXFXDXDXDXDXDXDXDXDXDXAX",
"k.s h k j y.k.T.) T.B.!.( N /.( 9 D K.K./ {.4X8X8X=XD.u.y.u.x k.,XS ^ J.E ] J.c + w y.z.@X| m U. .5 S +XGXDXFXDXDXDXDXDXDXDXDXFX",
"d.k h p i p H C.`.V.` Y.( 5 D / Z N 1 o O   6 #X>Xg 6.r t._.C.,XR ^ Q.~ R [ v $ = a.m.s.L S ! ^ X q &XMXDXDXDXDXDXDXDXDXDXDXSXSX",
"t.j p i i a y g d.}.V.( h.N q 6 9 ;   o f . w }.L = r 7.i.6.5XT.D J.I.] J.D + d z.i.u.l.g.( C X c R.iXFXDXSXDXFXDXDXDXDXDXDXSXSX",
"%.i o.+.o.i y : - f.W.T.j. .Y.f @ & & . ; $ f.f.u y.c.p.&.-X>XS I.Q.Q.J.( 1 @ t.c.c.l.f.) D 1 7 Y.pXFXDXDXFXDXDXDXDXDXDXDXDXSXSX",
"@.O.O.O.o.i x f.t d d.).@XoX'.E.w O & 5 & . L k 7.x.x.c.-X<XV Q.I.J.Q.Y.0 * t.D.u.u.d.K { C % ] +XmXDXDXDXDXDXFXDXDXDXDXDXDXSXSX",
"@.@.@.O.+.i t.].H - t d f.'.W.#XoXV     e > l.b.9.q.*.D.<XU | G.G.~.^.S + B =Xc.u.a._ ] c # N OXVXDXCXFXDXDXDXFXDXDXDXDXDXDXSXSX",
"@.@.@.O.O.o.&.d.d.- t = . z E.g.V.@Xj.f F Z.D.v.w.#.F.-X_ A I.G.E I.H.$ % C.=Xy.k._ W 7 X C OXyXDXDXAXDXDXFXFXDXDXDXDXDXDXDXAXFX",
"O.O.O.@.O.$.&.l r y - d } ` j.K . Y ].:X`.-XF.9.;.x.-X`.F I.C ~ Q.! D v ( J r d.K I m X c ^.,XAXAXAXFXAXCXDXDXFXDXDXDXDXDXDXAXFX",
"&.o.O.O.+.i j k u y - f.E.V.E.'.>X].z.y.t.s.M.x.c.D.}.X.H.J.~ XX~.[ H.W f . ; 5 v v + + /.W.W.}.AXDXAXDXCXDXFXDXDXDXDXDXDXDXFXDX",
"r.&.i +.$.a y.t.u u - G Y.oX,XyXzX].S.l.6.&.b.b.l.<XA U.J.] I.Q.^.Q.[ c `.j.m M 7 1   } K.w J Z.V.ZXDXAXDXDXDXCXDXDXDXDXDXDXFXFX",
"&.&.i &.&.a y.t.u r t = 6 j.,XyX`.: H l.z.=Xz.k.'.^ ~ J.J.C ~ Q. .R R D }./.J.E 5 : x =X'.@X|.Z.@ @XDXZXAXGXDXDXDXDXDXDXDXDXDXFX",
"k y i $.$.a h l.k = t g g ; K /.B   : s x _.:X/.c c J.I.^ % A ^ R X C (.W.B.] Z f - s.u.jXAXsX#XB ' AXAXDXDXFXFXDXDXFXDXDXAXDXFX",
"H y p i i i a l.l.t : g J v Z &   & * d Y `.tX!   R  .] 4 M C G.Q.  N ` B.~.R Q d 6.x.9.zXBXAXuXE.V MXDXAXDXDXDXDXDXFXFXDXFXAXCX",
"H j i o.O.+.a r.t.- = G f $ N q X 5 q N W.&X .X 5 Z Z 5 C ~.[  XR & w K I I...b l b.;.e.fXAXAXyX'.j.iXDXCXCXSXFXDXDXFXDXDXFXDXAX",
"j %.o.o.+.o.r k _.P = d d 6 9       S { OX^.5 o 7 0 % C *XH./.D   O g )._ D A ; p.e.1.v.fXAXNXlX@X`.'.NXDXDXDXDXFXDXFXDXDXCXDXAX",
"i %.&.$.%.&.y H <X_ = b f 9 6 w 6 & 9 Q.&XR q Z N 5 m %XQ.R.v & 6 ; a.=X)...% N i.v.v.*.fXNXDXCX4X{.E.NXAXnXnXDXMXFXmXCXVXMXZXCX",
"p j r H y.t k g G B . @ . $ D   { N C ~.~ A m c X 5 ^  . .R   f _ a.y.%.l.k.F T.a.$.x.*.D.gXZXCX^.V wXE.mXtX$XVXtXGX$XtXhXE.FXSX",
"a k k.G L f.g K E.W / V.....F  .N ( ~.c G.A 8 I.Q.5 S R.!.D 7 j.k.t.s.s.l.n D D k.=Xp.p A.@XoXoXV.T.$X!.!..X@X,X$XVXjXk.z._.AXSX",
"p z.NXE.'.VXh.tXZX$X+XgXZX.X4XAXN Q.pX< G.c  XGXFX X/.FXiX| H.ZX<Xt qXNXeXj.W / vXVX1Xg.bXGXtXK.gX/..XMXI.bXmXtXK <XP.$.O.%.<XDX",
"a =XZXoX,XZXY.iX.X  * iX&X  nXmX/ ^.mX3 [ , rXpX3XnX$XcXR q /.DXjX: lX@XCX.X. '.VX^.nXOXpX*XiX@XmX+X^.CX~.mX+XMX&XhXi.=.N.O.<XAX",
"a =XhX&XpXvXR.pX$X&   pX&Xo yXmX/.R.MXc I.c JXiX^.^.OXvXN # +XmXgXf mX^.bXR.= k.CX%X@X$XcX%XVXR.vXOX&XmX/.MX/.mX&XhXy.o.=.$.1XBX",
"p L.gXtXpXvXQ.iXVX$X. tX,X/ &XiXOX(.iXC [ , *XcXN $ /.DXpXZ &XiXgXZ vXGXpXB y.h yXiX; E.VX XcX$XmX^.+XMX!.MXwXpX%XDXjXp.o.&.hXDX",
"p =XgXpXyXgXR.iX&XN   MX+X( nXiX#X^.nXS H.c pXiXiX$XtXiX{ v pXiXvXh.iXiXvXd.p.p.J SX$X.XvX+XnX(.vX&X+XbX+XiXoXvX&XBXfXp.&.P.NXFX",
"a =XyXpXyXyXR.iX.X  O tX&XH.mXmX4X/.nX  ^ I.3XpX,XtX^.nX  o iXMXCX .MX!.gX<X$.M.jX+XMX/.vX XnX^.mX'..XmX/.iXOXiX&XNX-Xj p.1XAXFX",
"a =X,XiX,XyX^.iX,XD   iX+X%X&X^.iX+XnXD R.| tXiX,XyXoXiX( N nXY.gX+XMX+XlX-X$.M.zX+XiX#XiX&XiX^.CX| Y.CX^.MX*XnX,XhXm.$.p.2XNXDX",
"p =X}.&X,X&XV.#XmX@X. ,XtX XrX^ iX^.MXnX!./.!.lXnX@XW.CXiXoXpXN iX$XpX+X>X-X=.c.fXzXjXY gXvXwXH.MXmX'.iXR.iXGX&X$XNXy.&.j y 5XAX",
"i j G ) B 6 U {.W.{.B N & & N ^ C # ( | | D O D { S V (.'.{  .W H.R S | W.z.=.#.i.z.y.h ].$X*XXX*X*XT.&X'.@X$XOXCXAX:X_._._.gXDX",
"%.y _ .XG : }.HXlX5X>XJ N Q.q ] Y. .oXK ` | { oX/.!.^.oX!.^.| /.Q.H.N h.@X_.m.b.i.m.p.m.=X,XpXtX&X*XtX,XgXDXMXDXDXFXDXNXBXDXFXDX",
"y k j.E.G : }.aXdXdXdX}.j.$XC K.&X/.+XyX^.,X&X!.Y.Y.'.OX) ,X!.!. .!.h.h.oXE.<Xz.z.-Xj ;X<XtX$XOX$X$X&X*XiXFXDXVXZXZXFXDXDXGXSXSX",
"k d.K.j.k - ].dX6XdX6X>XE.,X..R.oX/.^.tX'.!.&XK.5 / '.&XT.&X' T.V.W.@XoX$XR.yX`.A.=Xj 2X:XyX&XwXVX@XpXDXDXFXDXFXDXDXGXDXDXGXDXSX",
"G _ Q.K.s r =X0X0XaXkXuX{.R.f v '.,Xh.} tX&X/.q N R.(.T./.{.{.uXuX#X@X'. .D E.A.i.M.<.c.).yXiXrXFX$XiXFXFXDXDXDXGXFXDXDXFXDXDXAX",
"K Y.Q.( t h <XfX0XaXuXzX#XO   . /.4Xw #XyX&X6 N N { &X&XyX}.sXsXlXkX4XW.Z V _ =Xi.<.x.c.hXDXCXSXDXDXCXDXDXDXDXFXSXDXFXDXDXAXDXBX"
};
