/* XPM */
static char *_5c6a5c48cd44d42b0c427627eef68a71CZdU0yaVBgE1OPI[] = {
/* columns rows colors chars-per-pixel */
"64 64 256 2 ",
"   c black",
".  c #010101",
"X  c #020202",
"o  c gray1",
"O  c #040404",
"+  c gray2",
"@  c #060606",
"#  c #070707",
"$  c gray3",
"%  c #090909",
"&  c gray4",
"*  c #0B0B0B",
"=  c #0C0C0C",
"-  c gray5",
";  c #0E0E0E",
":  c gray6",
">  c #101010",
",  c #111111",
"<  c gray7",
"1  c #131313",
"2  c gray8",
"3  c #151515",
"4  c #161616",
"5  c gray9",
"6  c #181818",
"7  c #191919",
"8  c gray10",
"9  c #1B1B1B",
"0  c gray11",
"q  c #1D1D1D",
"w  c #1E1E1E",
"e  c gray12",
"r  c #202020",
"t  c gray13",
"y  c #222222",
"u  c #232323",
"i  c gray14",
"p  c #252525",
"a  c gray15",
"s  c #272727",
"d  c #282828",
"f  c gray16",
"g  c #2A2A2A",
"h  c gray17",
"j  c #2C2C2C",
"k  c #2D2D2D",
"l  c gray18",
"z  c #2F2F2F",
"x  c gray19",
"c  c #313131",
"v  c #323232",
"b  c gray20",
"n  c #343434",
"m  c #353535",
"M  c gray21",
"N  c #373737",
"B  c gray22",
"V  c #393939",
"C  c #3A3A3A",
"Z  c gray23",
"A  c #3C3C3C",
"S  c gray24",
"D  c #3E3E3E",
"F  c #3F3F3F",
"G  c gray25",
"H  c #414141",
"J  c gray26",
"K  c #434343",
"L  c #444444",
"P  c gray27",
"I  c #464646",
"U  c gray28",
"Y  c #484848",
"T  c #494949",
"R  c gray29",
"E  c #4B4B4B",
"W  c #4C4C4C",
"Q  c gray30",
"!  c #4E4E4E",
"~  c gray31",
"^  c #505050",
"/  c #515151",
"(  c gray32",
")  c #535353",
"_  c gray33",
"`  c #555555",
"'  c #565656",
"]  c gray34",
"[  c #585858",
"{  c gray35",
"}  c #5A5A5A",
"|  c #5B5B5B",
" . c gray36",
".. c #5D5D5D",
"X. c gray37",
"o. c #5F5F5F",
"O. c #606060",
"+. c gray38",
"@. c #626262",
"#. c gray39",
"$. c #646464",
"%. c #656565",
"&. c gray40",
"*. c #676767",
"=. c #686868",
"-. c DimGray",
";. c #6A6A6A",
":. c gray42",
">. c #6C6C6C",
",. c #6D6D6D",
"<. c gray43",
"1. c #6F6F6F",
"2. c gray44",
"3. c #717171",
"4. c #727272",
"5. c gray45",
"6. c #747474",
"7. c gray46",
"8. c #767676",
"9. c #777777",
"0. c gray47",
"q. c #797979",
"w. c gray48",
"e. c #7B7B7B",
"r. c #7C7C7C",
"t. c gray49",
"y. c #7E7E7E",
"u. c gray50",
"i. c #808080",
"p. c #818181",
"a. c gray51",
"s. c #838383",
"d. c #848484",
"f. c gray52",
"g. c #868686",
"h. c gray53",
"j. c #888888",
"k. c #898989",
"l. c gray54",
"z. c #8B8B8B",
"x. c gray55",
"c. c #8D8D8D",
"v. c #8E8E8E",
"b. c gray56",
"n. c #909090",
"m. c gray57",
"M. c #929292",
"N. c #939393",
"B. c gray58",
"V. c #959595",
"C. c gray59",
"Z. c #979797",
"A. c #989898",
"S. c gray60",
"D. c #9A9A9A",
"F. c #9B9B9B",
"G. c gray61",
"H. c #9D9D9D",
"J. c gray62",
"K. c #9F9F9F",
"L. c #A0A0A0",
"P. c gray63",
"I. c #A2A2A2",
"U. c gray64",
"Y. c #A4A4A4",
"T. c #A5A5A5",
"R. c gray65",
"E. c #A7A7A7",
"W. c gray66",
"Q. c #A9A9A9",
"!. c #AAAAAA",
"~. c gray67",
"^. c #ACACAC",
"/. c gray68",
"(. c #AEAEAE",
"). c #AFAFAF",
"_. c gray69",
"`. c #B1B1B1",
"'. c #B2B2B2",
"]. c gray70",
"[. c #B4B4B4",
"{. c gray71",
"}. c #B6B6B6",
"|. c #B7B7B7",
" X c gray72",
".X c #B9B9B9",
"XX c gray73",
"oX c #BBBBBB",
"OX c #BCBCBC",
"+X c gray74",
"@X c gray",
"#X c gray75",
"$X c #C0C0C0",
"%X c #C1C1C1",
"&X c gray76",
"*X c #C3C3C3",
"=X c gray77",
"-X c #C5C5C5",
";X c #C6C6C6",
":X c gray78",
">X c #C8C8C8",
",X c gray79",
"<X c #CACACA",
"1X c #CBCBCB",
"2X c gray80",
"3X c #CDCDCD",
"4X c #CECECE",
"5X c gray81",
"6X c #D0D0D0",
"7X c gray82",
"8X c #D2D2D2",
"9X c LightGray",
"0X c gray83",
"qX c #D5D5D5",
"wX c gray84",
"eX c #D7D7D7",
"rX c #D8D8D8",
"tX c gray85",
"yX c #DADADA",
"uX c gray86",
"iX c gainsboro",
"pX c #DDDDDD",
"aX c gray87",
"sX c #DFDFDF",
"dX c gray88",
"fX c #E1E1E1",
"gX c #E2E2E2",
"hX c gray89",
"jX c #E4E4E4",
"kX c gray90",
"lX c #E6E6E6",
"zX c #E7E7E7",
"xX c gray91",
"cX c #E9E9E9",
"vX c #EAEAEA",
"bX c gray92",
"nX c #ECECEC",
"mX c gray93",
"MX c #EEEEEE",
"NX c #EFEFEF",
"BX c gray94",
"VX c #F1F1F1",
"CX c gray95",
"ZX c #F3F3F3",
"AX c #F4F4F4",
"SX c gray96",
"DX c #F6F6F6",
"FX c gray97",
"GX c #F8F8F8",
"HX c #F9F9F9",
"JX c gray98",
"KX c #FBFBFB",
"LX c gray99",
"PX c #FDFDFD",
"IX c #FEFEFE",
"UX c white",
/* pixels */
"p.C.f.m.Z.S.g.P.A.Y.{.D.U.H.Q.F.C.R.m.A.I.E.0.g.).n.c.A.k.Q.Z.j.k.n.F.D.P X.` X.[ 3.Y X.] <.E ;.[ ) =.y.-.*.0.@.t.1.7.6.|  .,.;.",
"8.p.k.F.y.a.z.Y.).F.z.C.J.E.W.(.S.P.C.C.D.A.a.m.W.v.h.x.p.Q.J.N.h.D.E.B.^ O.E P W | U [ ~  .U } ) ~ | &.{  .1.=.<.X.*.,.] / #.:.",
"f.N.E.^.e.B.Y.A.V...n 1.x.I.m.P.V.m.V.B.A.k.b.Z.H.m.l.f.0.P.V.v.v.J.G.<.P ( K D ^ ! ) { E I U T ~ _ | | [ X.-.4.@.{ %.1.o.] ;.r.",
"g.).XX~.k.!.N.|   O     p x.(.U.I.N.S.C.H.s.Z.z.C.F.G.B.d.R.A.Z.n.V.b.X.Q Q J T { P o.X.( L ..) Q | *.o.+.%.@.5.%.:.7.4.#.O.1.t.",
" .I.`.Q.N.h.H 1 5 w y # : v a.{.R.Z.c.h.n.0.n.0.k.A.F.M.d.P.N.J.n.v.V.i.3.} P _  .Z | | [ Q 6.=.^  .2.X.| $.} 1.#.w.r.*.} X.*.,.",
"K B.]..Xv.! O O -     & 0   B 0.B.U.v.c.A.b.~.A.L.E.J.Z.c.K.h.A.K.M.Z.m.,.} R &.,.K _ ` _ E >.+...o.w.O./ #...3.] 3.2. .| $.,.q.",
"` F.oXW.' a @ > X 5 6   = p r   O.T.Z.K.J.D./.T.R.I.B.F.K.U.6.y.R.C.B.v.W ( ~ >.y.( ~ _ _ Q } ( $...j.<.( ;.%.2.X.;.$.+.;.=.2.b.",
"=.L._.4.@ - 7 + + # X 7 & 1 : y % w.9.s.>. ...{ #. .` 5.k.f.K K V.B.D.D.K [ / O.t._ U ' | |  .[  ._ n.r.] 1.&.%.w.5.%.:.5. .X.z.",
"$.H.A.~ ; :   i i r U . 3 1 3 q 8 .   # :     #   .   = h 0 7.1.m.(.).x.I ' X.^ w.3.Q ' / X.W [ | { ;.j.&.e.0.#.1.%.-.@.o.| o.z.",
"U ~.d.r   B L M v 0.c.B . t w * w u d 8 * 8 i , j J +.S B G x < A.[.}.b.S U | o.:.:.^ ` Q ' Y ' } } 4.d.%.:.6.<.%.+.,.<.2.=.+.s.",
"c I.&.@ % 3.L.&.r. X1XD.C ; 9 q o 9 ) ;.! I [ } T =.f M + t.+.i.D./.(.b.D G (  .` O.( / T ^ R { { ) ;.5.<.$.5.6.,.#.&.O.$.&.*.x.",
"t +.C # x V.$XA.#X$X9X#Xr.  7 a u 2 e I [ J h f G ^ 7 3 g q &.k.G.I.L.b.Y K Y E Y [ ( R T ^ ( X.' T [ X.r.;.3.1.>.@.o./ ( { $.n.",
"- 3 6 O H K.oX.X>X-X'.C.5.. r *   6 0 T P.'.j.w.  @   X Z X A :.R.^.!.C.R H T ( E  .{ I E / ]  .! ~ [ ] y.*.%.>.X.X.%.] ) '  .s.",
"% X 8 o H J.#X>X>X>Xc.b.3.f q < i e @ g g.D.7.2.(.g.1 B } v.G 8.].$X@XG.K S ' <./ &.-.R ^ ~ ] ` W -.=...8.#.] >.&.$.&.` ( { @.k.",
"= > r = V w.'.'.)._.c.~.I.S : d - r j 7   q a.fXUX{.m v V.^.{ -.'.+X{.B.I ! *.8.T ;.w._ ] ! [ _ X.d.=. .9.9.' =.3.=.#./ ] %.>.c.",
"O , < ; h H v.f.7.m.W./.>XS & 9 q : 5 7 D @XUXlXmXeXg [ u.w._ f.W.W.D.d./ *.3.-.A *.s. . .!  .[ 7.m.{ _ i.C.o.+.%.O.%.O.<.9.>.e.",
"O : X a l > E G.B.@.R.XX6X4.  i q , i 6 D pXDXSXlXhXY o.7.G.Z %.M.m.U.g.n &.I U T ' X.2.! { X.,.2.......3.g.7.<.o.@.<.5.a.e.-.k.",
"+ < O > a g Q t.Y.4.D.XX(.} - > r 5 z 4 3 pXjXAXJX5X[  .z.L./ s.U.Y..XM.A ^ A / ~ / ] O.Q ) } o.*.]  .| :.r.<.>.#.o.;.>.4.<.&.f.",
"# 4 0 , 8 d P g.`.V.S.1Xu.6 1 g 8 9 f 5 X c.fXLXPX*X;.c.o.B.k <.-X(.[.B.@. .J / %.} O.} } } &.X. ._ O.O.-.6.*.:.-...-.&.O.o.#.d.",
"% @ 7 5 t j P P.9X).<.,XJ.a 6 r 2 q 6 i q 7 fXDXaX*X] Q ! C.4 z.$XJ.U.N.w.#.Q ` 6.$.<...*.@.7.-.] _ =.:.<.3.$.;.:.X.>.*.| | %.j.",
"q - , : d m x *.W.%X3. X~.m 2 9 5 9 3 z k   /.oX&XrXd.$ V.c.  -.S.x.U.A.>.Q ! X.;.+.<.} +...6.-.' _ >.4.5.2.o.&.-.%.3.>.%.@.=.n.",
"  4 7 & y Z n G } XXv.l.7.w < v 8 > 8 d 8 y / <.8XfX8XW :.:.2 F R.A.T.J. ./ ..]  ...=.| ' | >.$..._ *.<.3.,.} +.&.,.5.:.4.;.%.Z.",
"% v a 5 s N K I U g.j.w.r.V 6 u e = 9 e 5 g f *.gX0XuXl.N b.M.~.wX$X}.!.R o.5.` [ O.#.#.) #.*.X.:.[ O.%.>.:.{ +.@.8.1.@.w.>.| A.",
"S.b.U x v 4 : o g ' _.*X).I 1 p s 4 q t c $ F S.1XyXhXH. XNXsXCXzXdXqXXXk ^ t.&.] @.X.*.^ -.@.] q.....O.-.>. .%.O.e.;.{ e.:.( Z.",
"%X+X[ Z J q [ B   F f.j.p.{ u w p 7 w p s ; _ b.-XhX8X@XnXyXrXlXhXyXaXvXL.X.4.%.) 0.p.) @.{ ..{ %...{ o.&.&.#.#.:.4.-.:.*.1. .f.",
"Q.`.S.>.! s { q.~ t k S @.g < c k s d g z $ X.D.OXaX0XoXzXaXpXlXfXbXiXyXpXz.I ,.W $.*.] :.=. ._ =.@.O.*.,.<.<.1.1.4.&.%.@.,. .g.",
"/.R.+X8.A q F k.4.u.8.1 r v M 8 a g a p n   2.]._.wXrX XdXhXgXlXpXmXjX0XPX;XY [ ] O.` X.1.q.O._ @.o.o.$.&.$.%.=.6.3.X.} { =.} f.",
"$X/.$Xi.] G J  .|.eX>X} w s h s r g r 9 z   7.-XR.5XsX|.eXlXjXhXiXaXmXdXxXcXn.N o.=.` o.+.r.#.( o.....X.} ) ( ' 8.2.[ ( ( $.[ f.",
"*X*X1X|.'.D.d.K eXbX*Xu.5 k 8 j d v y 9 j   >.3XI.>XzXXX7XlXgXdXaXyXhXmXpXvX4XW W +.| o._ 9.*.^ $.+.+.+.| ) ^ ) 0.4.| _ ) %.| l.",
";XqX6X9XyX=XoX^ j.jX2Xw.  W c 8 s l i i x < O.9XP.#XnX$X4XjXsXfXfXzXwXmXVXhXyXV.K ) o.%...7.2.] +.X.X.@.+.| [ } 6.6.@. .{ =.X.b.",
"8X8X3X4X7X#X*X&...*X0XC.o N f j i s i j k y F $XL.}.MX;X5XjXaXlXjXlXsXzXCXvXiX2X@.Q { #.=.=.1...{ _ `  .O.X.} { -.1.$.+.} &. .c.",
"qX-X0XuXiX1X&X6.%.*XtXg.  s g a k g f c u q 1 Z.K._.MX,X6XhXaXvXjXeXDXkXtXHXnXeXl.W W ' %./ +.{ [ / / { O.X.{ ] ..=.@.O.] +.' h.",
"wX1XuXuX4XfX*X#.n.jXwXK.  N y k c j s n d u   P.U.).lX9X:XzXqXxXdXfXgXgXgXgXhXjXz.A [ ....` ` [ ` ` ' } X.o.| ] / $.` [ } X.Q V.",
"0X>XwXfXiXjX0XP.1XuXqXT.  v M s v x k N l k o V.S.P.sXpX2XaXbXeXfXgXhXjXkXlXzXxXK.v ( /  .}  .X.( ) ` [ } | { [ =.T ( -.R ' @.x.",
"6X,X6XdXjXpXrXwXnXrX+Xa.- j c g d g g z f l + 3.I./.yXqX#X.XKXwXaXsXfXjXzXvXnXmX~.u ] ' -.O.[ _ ^ ( _ ` ` ' [ } { !  .X.G _ ..1.",
"4X9X9XiXlXrX6XjX0XqXA.G a d 4 b y i s s u j @ Y y.'.tX<X+XB.nXhXyXyXiXdXlXvXnXnX).q [ ( O./ E Q ^ ( _ _ ) ` {  .E +.o.) { Q G i.",
"=XtXqXqXxXdX8XpXXX@Xk.f h d 6 j g s l h a z , z v J.yX4XeXx.=XBXdXaXiXaXfXhXgXdX(.s W K Y S K ] / ( _ ` ' [ | ..o.{ ' ` *.~ O.;X",
").,X,X>XaXhX0X0X-XU.N.E g k n e x a x z d z 0 r s v.rX4XfXA.D.SXMXcXjXgXgXsXyXqXR.G J E ~ K K _ ) ( ( ` } .... ...Q X.K W f.:XjX",
"~..XOX$X6XwX7X7XrXY.F.>.J B B p x w j z d h p 0 J >.=X-XqX!.6.tXFXVXbXcXcXzXfXuX`.@.f F E T G T _ ^ ~ ` X.+...] T ! %.J 2.2XJXyX",
"XXXX+X=X1X2X4X0XuX XC.3.%.J t B v 0 h v h k z r C n E.&X7X+X[ !.GXZXMXNXCXCXMXcX8Xt.  > y N C T _ ~ Q _ O.#..._ W Q [ =.qXmXtXaX",
"|.oX X7XiX8X0X>XuX5XK.4.' I b j j t t s f x z w ; v l.^.:X}.<.h.jXsXFXeX).tXUXVXbXqX*XQ.u.+._ R i n G } @.o.+.P 5.s.5.`.7XzXNXyX",
"Y.*X1X1XXX_.3XyX8X5X$Xd.L f i b z p a h h x z r 1 R j.4.T.1Xe.i.w.8X).7.S.Q._.vXJXGXUXKXxXgXkXdXgXH.8.S H ..^ h.A.r.%.>XbXrX8X0X",
"}.`.l.1...+.d.v.).B.G.%.f 7 7 f k u s k h l z u $ E _.R.,X0X6.V.H.<.e ^ `.}.L.z..X@X5XfXBXUXUXGXUXJXSXE.v.S.s.|.x.=.[ 5XBX2X:XtX",
"/ T A { 6.r.k.a.5.l Z a r k h i g w u h f h k a 4 C .X#X@XoX:.B.g.} +..X^.x.+XW.H.^.%X2XqXNXKXbXnXGXxXfXyX3X#XS.%.$.@.-XsX4X8XiX",
" .X.$.d.p.@.*.2.:.q a 9 i t i 4 m i i j f f g i u c [.$XW.)...A f { ) t.G.n.P.c.I.XX8X2X$XqXVXDXnXaXfXzX@X/._.y.&.1.:.%XuXqXeX8X",
"0.8.,.w.;.^ :.j.=.C F z g & B T T x f z h f d y a p C.}.l.>.d + - Q K X.C.B.D.^.b.l.x.v.S.XX0X9X9XgXUX[.;.P.P.f.7.:.O.-XzXeX6X1X",
"y.s.8.q.8.6.v.Z.e.] N i x : 7.T._ n a k j h g u j u J Q c > + t u 3 7 K ;.9.s.c.i.%.} %.i.W.&X&XfXzX5X) Q ].E.h.2.<.,.8XvX6X<X3X",
"8.s.;.'  .h.>XaXzXU.A < f X 7.P.( l e s j l l d 6 V 9   7 i 9 e 9 y j f G #.-.,.O.{ X.O. .7.W.<XdXnXP.9.B.B.c.A.-.k.A.kXgX:X,X4X",
"v E ( L c e.fX5XzX}.Z 0 u q ) 2.] m p p v x s H a z k d a 0 7 a w s u r D =.:./  .X.~ *.$.-.s.8X7XK.OX^.H.h.[.8.,.p.3X4X@XZ.N.C.",
">.N Y U.}./.2X*X8X:X,.Z i k u.T.t.+./ u 0 B f a j d 7 4 y u q t 6 u a i V [ ..Q P ~ E O.{ ;.i.'.0XXXB.U._.f.!.o.@.r.yX8Xm.M.W.x.",
"r...i.9XuX:XqX1X2XyXT.>.F ^ P.].M.Q U d 9 M h C r p 0 5 e r t g w f z c Z E _ ( G E / $.' 3.p.M.=X:XH.A.!.J.G...5.N.<X>X~.,X!.;.",
"%.c.=X9XOX:XjXtXpXhX<X^.z.D.-X`.`.#.4.| V D a b v Z n g j d y s g z n B S L ! ` ) ^ ' ;.` 2.t.u.L.~.2XS.j.oXC.5.-.+X7X-X$X&Xh.C.",
"] g.2XsX2X7XuXeXbXfXiXfXuXhXMX7Xb.D.3Xg.p r t x f l p r z M c c x k l v B F Y ^ +.~ E #.~ $.3.w.x.h.<X(.u.`.R.a.5.!.).].{.W.y.+X",
"! u.,XeX3XeXeXrXkXuXsXvXbXbXmXxXMX4XXXg.( Y A k j D V p r u f M l j j z N H Y E +.( P { Q +.:.t.C.p.Z.OXJ.V.-Xd.d.9.B.[.~.R.Z.^.",
"$.b.<X=X@XwXeXfXtXpXaXtXuXyXeXkXhXxX8X~.[ ; 4 g t j y , 1 1 % O w s k l n G I L ] o.W ^ Q &.&.6.n.f.r.D.W.m.2Xp.s.l.oX).b.k.J.'.",
"F.N..X2XeXuX1XhXqXjXfX8XaXjXrXxXaXUXkXgX8XS.#.1 F l r U F.-XP.1.% 0 f d h B S B E -.) I T &. .@.6.y.g.o.n.K..Xy.|.*X].;.a.n.S./.",
"#X#X-X,X;X1XwX7XtX9X0XiXdXpXpXgXpXhXGXSXcXMX|.Y H g o.*XsXpXkX<XC.x q h V k P n Z { 4.*./ ` | Q ..O.k.V.U.b.G.C.5X:X,.;.6...z.S.",
"|.`.-X}.OXwX>X6X0X8XwXaXdXuXyXaXvXxXAXMXlXKXlXG.x @.!.5X9X8X8XqXbXe.2 Z m S u D ! Y R I S L W P ! ,.Z._.5X4X+XL.+XA.U ^ =.[ w.D.",
".X].2X~. XiXXX<X3X7XtXsXaXrXrXiXMXbXFXAXjXxXtXW.i t.9X7XiXnX5XrX4X,X4.& 7 ! ) x b s n R Q R T K U k.(.>XjXBX:X~.`.k./ L ) Q ..x.",
"|.+X;X).@XwX&X1X,X6XtXpXuXtXiXgXlXhXCXKXVXbXaX*Xw.K.iX&X#XpX<XdXeX*X;XB...  , E R H Y ^ Y K I K W J.XX8XrXyX~.R.J.n.r.( I P P e.",
"}.*X'.*X5X,XtX7X,X7XeXrXeXiXjXvXAXkXaXdXuXrXeX9Xm.f.0XdX-X6X,XsXxXpX<X8XY.Q.| . v n J W ! _ ! V E z.Q.qXiX>Xx.v.x.t.p.*.| T m 3.",
">XoXP.tXsX%XgX4X1X7XqX0XwXaXzXbXVXfX9X5X4X:X-X,XV.&.E.aXrXyX6X5X2X3XlXxX*X9X:Xf.k p s x G ] ] F K ..i.-XzX:Xs.1.c.;.,.q.y.' x %.",
"#Xy.q.7XaX-XiX3X1X7X0X9XwXdXjXgX3X8X0XiXkXdXiXjXlX).K.'.+X;X<X>XpX>XsX;XwX:XjX5XQ.f.+.L l n T / L Z } M.$XR.e. .9.,.;.7.p.$.K | ",
"M.f L '.6X3XrXwX1X7X0X9XrXdXdXtX<X0X0X9XeX6X4XyXyXzX9X3X9X>X:X<X&X:XoXuXuXeX%XuXaX8X7XoXw.L F ~ ! b Y ..a.5.1.] P 3.5.O.-.<.+.{ "
};
