/* XPM */
static const char *MTAwMF9GXzMwMTI1NzE1Nl9sQTI1Zmw0UTAzd2JKeGowTHVyTzFIenlZQ3dIbjBNTw__[] = {
/* columns rows colors chars-per-pixel */
"64 64 242 2 ",
"   c black",
".  c #010101",
"X  c #020202",
"o  c gray1",
"O  c #040404",
"+  c gray2",
"@  c #060606",
"#  c #070707",
"$  c gray3",
"%  c #090909",
"&  c gray4",
"*  c #0B0B0B",
"=  c #0C0C0C",
"-  c gray5",
";  c #0E0E0E",
":  c gray6",
">  c #101010",
",  c #111111",
"<  c gray7",
"1  c #131313",
"2  c gray8",
"3  c #151515",
"4  c #161616",
"5  c gray9",
"6  c #181818",
"7  c #191919",
"8  c gray10",
"9  c #1B1B1B",
"0  c gray11",
"q  c #1D1D1D",
"w  c #1E1E1E",
"e  c gray12",
"r  c #202020",
"t  c gray13",
"y  c #222222",
"u  c #232323",
"i  c gray14",
"p  c #252525",
"a  c gray15",
"s  c #272727",
"d  c #282828",
"f  c gray16",
"g  c #2A2A2A",
"h  c gray17",
"j  c #2C2C2C",
"k  c #2D2D2D",
"l  c gray18",
"z  c #2F2F2F",
"x  c gray19",
"c  c #313131",
"v  c #323232",
"b  c gray20",
"n  c #343434",
"m  c #353535",
"M  c gray21",
"N  c #373737",
"B  c gray22",
"V  c #393939",
"C  c #3A3A3A",
"Z  c gray23",
"A  c #3C3C3C",
"S  c gray24",
"D  c #3E3E3E",
"F  c #3F3F3F",
"G  c gray25",
"H  c #414141",
"J  c gray26",
"K  c #434343",
"L  c #444444",
"P  c gray27",
"I  c #464646",
"U  c gray28",
"Y  c #484848",
"T  c #494949",
"R  c gray29",
"E  c #4B4B4B",
"W  c #4C4C4C",
"Q  c gray30",
"!  c #4E4E4E",
"~  c gray31",
"^  c #505050",
"/  c #515151",
"(  c gray32",
")  c #535353",
"_  c gray33",
"`  c #555555",
"'  c #565656",
"]  c gray34",
"[  c #585858",
"{  c gray35",
"}  c #5A5A5A",
"|  c #5B5B5B",
" . c gray36",
".. c #5D5D5D",
"X. c gray37",
"o. c #5F5F5F",
"O. c #606060",
"+. c gray38",
"@. c #626262",
"#. c gray39",
"$. c #646464",
"%. c #656565",
"&. c gray40",
"*. c #676767",
"=. c #686868",
"-. c DimGray",
";. c #6A6A6A",
":. c gray42",
">. c #6C6C6C",
",. c #6D6D6D",
"<. c gray43",
"1. c #6F6F6F",
"2. c gray44",
"3. c #717171",
"4. c gray45",
"5. c #747474",
"6. c gray46",
"7. c #767676",
"8. c #777777",
"9. c gray47",
"0. c #797979",
"q. c gray48",
"w. c #7B7B7B",
"e. c #7C7C7C",
"r. c gray49",
"t. c #7E7E7E",
"y. c gray50",
"u. c #808080",
"i. c #818181",
"p. c gray51",
"a. c #838383",
"s. c #848484",
"d. c gray52",
"f. c #868686",
"g. c gray53",
"h. c #888888",
"j. c #898989",
"k. c gray54",
"l. c #8B8B8B",
"z. c gray55",
"x. c #8D8D8D",
"c. c #8E8E8E",
"v. c gray56",
"b. c #909090",
"n. c gray57",
"m. c #929292",
"M. c #939393",
"N. c gray58",
"B. c #959595",
"V. c gray59",
"C. c #979797",
"Z. c #989898",
"A. c gray60",
"S. c #9A9A9A",
"D. c #9B9B9B",
"F. c gray61",
"G. c #9D9D9D",
"H. c gray62",
"J. c #9F9F9F",
"K. c #A0A0A0",
"L. c gray63",
"P. c #A2A2A2",
"I. c gray64",
"U. c #A4A4A4",
"Y. c gray65",
"T. c #A7A7A7",
"R. c gray66",
"E. c #A9A9A9",
"W. c #AAAAAA",
"Q. c gray67",
"!. c #ACACAC",
"~. c gray68",
"^. c #AEAEAE",
"/. c #AFAFAF",
"(. c gray69",
"). c #B1B1B1",
"_. c #B2B2B2",
"`. c gray70",
"'. c #B4B4B4",
"]. c gray71",
"[. c #B6B6B6",
"{. c #B7B7B7",
"}. c gray72",
"|. c #B9B9B9",
" X c gray73",
".X c #BBBBBB",
"XX c #BCBCBC",
"oX c gray74",
"OX c gray",
"+X c gray75",
"@X c #C0C0C0",
"#X c #C1C1C1",
"$X c gray76",
"%X c #C3C3C3",
"&X c gray77",
"*X c #C5C5C5",
"=X c #C6C6C6",
"-X c #C8C8C8",
";X c gray79",
":X c #CACACA",
">X c #CBCBCB",
",X c gray80",
"<X c #CDCDCD",
"1X c gray81",
"2X c #D0D0D0",
"3X c gray82",
"4X c LightGray",
"5X c gray83",
"6X c gray84",
"7X c #D8D8D8",
"8X c gray85",
"9X c #DADADA",
"0X c gray86",
"qX c gainsboro",
"wX c #DDDDDD",
"eX c gray87",
"rX c #DFDFDF",
"tX c gray88",
"yX c #E1E1E1",
"uX c #E2E2E2",
"iX c gray89",
"pX c #E4E4E4",
"aX c gray90",
"sX c #E6E6E6",
"dX c #E7E7E7",
"fX c gray91",
"gX c #E9E9E9",
"hX c #EAEAEA",
"jX c gray92",
"kX c #ECECEC",
"lX c gray93",
"zX c #EEEEEE",
"xX c #EFEFEF",
"cX c gray94",
"vX c #F1F1F1",
"bX c gray95",
"nX c #F3F3F3",
"mX c #F4F4F4",
"MX c gray96",
"NX c #F6F6F6",
"BX c gray97",
"VX c #F9F9F9",
/* pixels */
"    $ $ #                 # $ #               # 4 $ # : #     $     # 1 $ # : 1 # # #       # #                   $ $           ",
"  $ $                     # #                 $ 4 # # $ # $ $ 6 w r 4 6 1 : w 6 1 1 $ 1 # : $                   # # #           ",
"# # #                                 #   $ : 1 $ w w w g r a l v A C 4 a w 4 $ $ 1 1 1 4 1 #                   # #             ",
"#                             #     $ $   1 r r n l l n n v Y A n C C l a a a 6 : 6 4 6 4 :   #                                 ",
"                  # #     $ : : $ # 1 1 1 1 6 l n G G G } ` A A Y n v A v l r 6 6 6 6 6 : : 1 :                                 ",
"                # $ #     $ : $ : : # 1 4 g l n ( 8.-.( X.} Y G n n A v g l r r 6 : 4 1 4 : 6 : $       # #                     ",
"#             # $       # # $ # : $ $ 4 g A 6 L &.d.a.9.9.-.8.O.O.1.( Y l l n g w w 4 6 6 4 $ $ : # # # $       #               ",
"            # #     # $ $ : 1 : # 1 4 r g C 1.8.1.d.c.h.N.N.I.d.9.y.&.O.} g a v g a r w 6 : $ $ # : 1 :                         ",
"          $ $ #   # : : # $ 1 $ 1 4 : w A Y O.9.8.d.D.I.'.I.'.!.I.!.D.M.9.( L A n g g a 6 4 4 1 $ : : :                 $       ",
"        $ $ #     $ # # $ $ # : 1 4 a v A ( -.9.y.!.!..X1X+X=X1X1X6X-X).I.M.8.C n n r $ 4 4 w 4 6 1 $ : #             $ $       ",
"      # $ #     # # # #   : 1 : # : v ( X.-.d.N.N..X%X2XyXrXyXaXjXrX7X7X-XY.M.G L Y v 6 1 6 w 1 1 : $ 1 $   # $ 1 : $ #         ",
"      # #         $ $ # : 4 4 : : : v X.O.O.M..X+X-XyXaXjXxXxXxXbXxX7XrXrX%X).y.O.L a 4 4 1 1 4 # # $ 1 $ # $ : 1 4 :           ",
"                  : $ # r 6 $ : : r L G &.h.c.+X7XyXVXbXbXbXbXmXmXxXyXyX6XrX+Xc.O.A w r 6 6 4 : # # # : $ : : : 1 1 #           ",
"                # $ : $ 6 1 1 4 1 l L ` 1.h.).+X7XbXmXmXbXbXmXbXjXjXjXaXjXaX%XN.O.X.v C g r : # # #   : $ : 1 4 6 1 #       #   ",
"                  $ $ # 4 1 4 w 6 A ` -.4.d.%X7XrXmXbXmXbXmXmXxXjXjXjXaXaXrX7X!.h.O.A n g 4 : #   # # : $ : 6 r 4 : #           ",
"#               $   # : 4 : : 4 r w L 9.D.I.!.=XrXmXxXbXbXbXbXmXxXmXxXjXyX6X+XR.M.O.L n r r : # # # # $ : 4 w 6 1 4 $           ",
"    #   # $   # # # $ $ 6 1 1 6 1 1 ( 1.N.!.+X2XrXjXxXjXxXbXmXbXmXbXbXxX7X7X+XD.c.-.X.g a 4 $ $ $ $ : # : : 4 6 4 : # #       # ",
"        # # $ 4 : $ $ : : $ 4 4 : r 1.9.J.R.=X1X-XrXxXyXbXxXbXmXmXbXxX2X%X%XR.Y.J.d.&.A g r : 1 : : 1 1 $ $ 4 6 4 1 #       # $ ",
"      # # : 6 6 6 # $ 1 : 1 : 1 $ G &.h.I.R.'.R.).%X2X7XrXyXrXmXxXyX=X=X'.I.D.M.h.c.8.Y l r 1 1 6 4 4 4 $ $ 1 1 4 6 1 # $ $ #   ",
"      #   4 r 4 6 : # 1 4 : : : 4 ( O.1.a.J.!.D.Y..X'.+X1X=X1X-X%X'.I.D.a.O.c.y.1.a.4.A g 4 : $ r r 6 4 #   1 4 1 w 4 : 1 : #   ",
"        $ 4 6 6 w : 1 : : $ $ 1 a L } 1.&.9.M.d.D.h.h.I.J.N.Y.J.J.h.-.L a l ! ! C X.( C l a 4 4 a a 4 $ $ # 1 4 1 w 6 1 1 $     ",
"      $ 1 4 4 w 4 : : 1 : # 4 : w w ` X.} ` ( } } O.! &.9.y.9.8.y.8.! C G C C n ( &.( n r 6 1 4 a a : # : $ : 1 : w r 4 $ #     ",
"    # 1 4 6 w w : # 1 1 : $ : $ 6 g A Y n v r r a n w L y.1.a.9.8.8.Y L L v v L X.O.} v r r w 1 6 a 4 : $   $ 1 # 4 6 1 $ $ #   ",
"  $ $ : 4 w g w # 1 4 1 : #   # g v A X.! C v r g v g n X.&.y.N.d.4.&.A n g a A ( ! Y a 6 l r   4 r 1 : $ $ $ : 1 : : : $ #     ",
"  #   : r l l 4 # 1 6 4 1 $ $ $ w v ( } L A A a a l G L ! 8.c.M.d.-.X.G n l v n A ! } ( w l 1 $ : 6 g : 1 $ $ # #   $ 1 : $ #   ",
"      1 g C g 1 $ : w 6 : $ $ 1 v n Y ( Y G r w r r A A ( y.I.).9.&.&.L g v w 4 $ 1 n ( v # 4 $ : a a 1 $ # : $ #   $ 4 : # #   ",
"      w g l g 4 # 6 g r 1 $ $ : C ( X.Y l 1 1 1 4 w l g A &.!.-Xy.L X.} A g : $ # $ $ v g 4 6 $ $ w w 6 6 4 1 #     # 6 1 # #   ",
"      a n l r : 1 r r 6 1 : : $ C X.` n #     # 1 a C Y ( 8.'.-XM.A X.} C w 4 4 1 4 v ! G : : 1 : : n r 6 6 $ : #   $ r 4 $ #   ",
"    $ w v l 1 1 4 : w w 1 1 : 1 L -.L l r 4 : 1 r w v Y O.D.=X7X.Xa.X.G v 4 4 4 1 g l G X.L 6 1 # 4 C g 6 : : :     1 a 6 : #   ",
"  # 1 w r r 6 1 # : w r 1 : 1 w ` M.9.v v w 6 4 4 w n ( y.Y.-XjX%Xh.-.n v w : w 4 a l v 8.8.a 1   $ A v w 6 : $     4 a r 1 #   ",
"  # 1 w a a r # # 1 6 6 1 : 6 w 1.'.D.&.A : 6 4 $ l ` -.a.N.=XxX%Xa.9.( G g r 6 1 6 l v c.M.a # # 1 A A w 4 : $ # # 4 a g 4 $ # ",
"  # : 1 g r : $   # w r 1 1 6 r ` R.'.h.} g 4 1 4 C 4.8.O.y..XaX1XM.X.( X.Y l a g w A X.N.D.C   1 1 C G a 4 1 :   # 1 a g $ #   ",
"  # $ 6 a w $ $   $ w w : 1 r 6 l h..XI.O.C 6 a n &.J.d.` &.D.%X'.d.( &.y.O.( L l g v -.h.9.a # 1 # n G v a 1 $ #   4 l g 6 $   ",
"  $ 1 4 r 6 :     : w 6 6 4 6 : C X.1.4.( n a A -.R.R.d.! ! O.4.&.Y Y 1.M.y.a.G a a 1 Y } G 1 :     g G l 6 : # # : g n a 6 :   ",
"  $ : 4 4 4 : #   1 a r w 4 4 : g C n G C w w Y a.+X'.9.` } Y v G l G 8.N.d.9.! r 4 w G L v 1 # # : 4 v A 6 $ $ : $ g l 6 : $   ",
": 1 $ 6 1 : $ # $ 1 r 6 1 : : $ # w w g a $ 4 A 9.'..XM.} L l w g a L a.Y.R.M.4.g a l n g 6 6   # : a C n r 1 : $   6 r 4 $     ",
"4 : : 4 1 # $   : 6 w 1 1 : # 6 a 6 # $ 6 6 g g O.I.!.9.! a r 1 6 6 v -.R.).D.&.a a a a 4 1 1   #   r L A 4 1 :     1 1 $ $     ",
": : $ 1 $ # #   1 w w 1 : : : r r 6 : $ : 1 w w } d.M.O.a r g w 6 a a L I.R.8.( L r r 6 : $ # # # : 4 n Y v 6 #     : $       # ",
"$ : $ 1   #   $ w r 6 : $ $ 1 4 6 r 6 : 1 1 w l &.a.R.d.} O.( w 4 L ` O.!..X4.} A w a w :   : # $   r n ` ! 6 $     : 1 #     # ",
"# # $ $     # 1 a v a $ : $ 4 w r 4 1 : : 1 6 v -.d.'.R.d.y.1.` A 8.I.'.-X+Xa.Y l r r 4 $ : : #   # 4 n ( G a : $   $ 1 # # $ # ",
"          # $ 4 r l 6 4 : $ 4 w r a w # # 1 6 g L 1.J.).J.c.d.-.! O.d.D.Y.Y.4.L C 6 1 $ # $ : #   $ 4 C Y ! r : # # $ : # : #   ",
"          # $ 1 r n r $ : $ 1 4 w w 4 # # 6 r r l ! h.c.c.4.` r g 1 C ( ( 8.X.` C 6 : $ # $ : : : : 4 a Y Y w 1 $   1 4 1 #     ",
"        : #   1 a n 6 : : $ : 6 w 1 : $ # 4 6 6 a ( 8.&.v 6 $ v g n w v g L ` Y l 4 # # # $ 1 1 4 1 $ a G C v w 1 # 1 1 1 #     ",
"      # $   # 1 a g : 1 $ $ : 4 w 1 1 : $ 1 4 4 r ( -.Y   r v A n A g r 6 n v A v 6 # #   # w a 1 # $ 6 l A l 1 1 : 6 4 $ #     ",
"    : $     $ 1 g g 1 $ # # 1 : 1 4 1 $ # 1 1 1 n Y n a # : $   l G 1 # $ 6 r n v 4 $ $ #   r v 4 $ $ 1 l A g r 4 : 6 6 : #     ",
"    #       $ 6 l v 4 : # $ 1 1 4 4 : $ $ 4 : 1 l n 6 1 $ $ # l ` -.n   # # 6 g a : $ $ $ $ a a w : $ # a v a w 4 $ 6 6 4 #     ",
"#         # 4 a C l 1 1   : : 6 r 4 : : 1 1 : 1 a g r : $ : : l 6 6 g $ $ : 4 6 r : $ # : : g n a # :   6 A g 1 # # w r 4 #     ",
"  #       $ 4 v Y a 4 1 # 1 4 w r 1 : $ $ 1 $ $ a a 6 1 $ # $   1 1 1 : $ 1 : 6 4 # # # $   r Y n : : 1 1 a a w 1 # 1 w 1 $     ",
"          : a G L v 6 $ $ 1 4 g g 1 $ # # : $ # r w : $ $ # # 4 6 $ : $ $ 4 6 r 6     # $   l L L w # 1 : g l 4 1 $ $ : 1 $     ",
"1 } $     1 g C ` l 4 : # 4 4 g l 4 1 $ $ : : # w w 6 1 : $ : 4 $ $   $ 6 : r r $ #       : n } ! r 1 $ 4 v n 4 $ $ : : : #     ",
"g &.      $ a L L a 4 # # 1 a l a 4 : $ # : $   4 r w w   w 4       $ w : r n 6 : # # : $ : r } } l 1 w 4 4 r r 6 # $ : : : #   ",
"g X.  #   $ l G G l : # $ : r Y n 6 4 #   # : # $ r r l v 4 g g r v v # 4 L Y a $ # $ : : : 4 C ( n 1 w : 6 w r 6 # : 1 $ : $   ",
"r O.4   $ 1 g C L w 1 $ $ $ l L l w $   # $   # # : C ! ( v $ w w 6 w g ( } C 4     # # $ : 4 a Y C 6 $ $ w a g 4 1 1 4 4 :     ",
"r &.:   : 4 r n v w 1   :   L Y g : : $ # $ 1 # $   a L ` ! v a v C ! O.} G w $       $ : : 4 r C G a w 6 : w a r 6 6 6 6 4 $   ",
"r &.      1 r l l r # :   # Y ( l 4 : $   # : $ # # # a L G Y ! ! } &.G g 4 $     $ # : : : 1 6 n L a 6 4 # 4 a r 6 6 w 4 4 4   ",
"4 L 1   1 $ 6 r r 4 $ $   w G G a 6 4 $ # # # # $ # $   : a l v a v g 4 1 $ # # # $ # # : : 1 w g C n 4 4 : $ w 6 6 4 6 4 6 6   ",
"6 } 1   : : : 6 4 6 :   $   Y ` g w 1 : $   $ : : 1 1 $   $   # : # $ : #   $ $ : :   1 4 : : 1 1 ! ( a 4 : : 6 r 1 $ 1 4 6 :   ",
"1 O.1   # : w 6 4 1 $ # #   ! ( v a 4 1 $   : 1 : $ : $ # $ $ # # # # $ # # $ $ : $ # 1 4 : 1 $ g ! } 1 4 : 1 a 1 # # # # #     ",
"a O.$   : 1 1 6 4 1 $ :   4 Y ( n 6 1 1 $ $ # 1 6   # : 1 : : $ # # # # # # $ : $ # # 6 4 1 6 1 g &.( 1 6 1 1 r :               ",
"4 ` :   1 : $ : 1 4 $ $ # : C &.n r 6 $ w :   1 1     $ #   # # #       # $ : :     # r w 1 4 4 g O.} w w $ 6 r 6 #             ",
"4 &.:   # $ 4 1 6 w 1 : $   v ! A g r w 6 #         #     # # #       # # 1 4 : # $ # 6 w w w w l } X.# 1 1 1 r w $         # # ",
"w &.1   : 6 : 6 r w 6 4 $   l l A g 6 w 1 :           # : 4 : #         # 4 w 1 1 :   1 w a r a v Y L a w : 4 w g 1         $ $ ",
"w O.:   $ : 1 6 w r w 4 #   1 C ` n l w 1 4           # : $               $ 4 1 : #   1 a l w 4 g G L w 4 4 4 n n r     # # #   ",
"# 6     # 4 6 6 r g g a $   1 v C n l a g a           # $                   # 1 $     $ v L n w l L Y w 4 w w v n g   # $ $     "
};
