/* XPM */
static const char *Q2FwdHVyZStkJUUyJTgwJTk5ZSVDQyU4MWNyYW4rMjAyMy0wNi0yOCthJUNDJTgwKzAwLjM2LjI4[] = {
/* columns rows colors chars-per-pixel */
"64 64 48 1 ",
"  c black",
". c #040404",
"X c #0B0B0B",
"o c gray6",
"O c #111111",
"+ c #151515",
"@ c #1B1B1B",
"# c #1E1E1E",
"$ c #202020",
"% c gray14",
"& c #282828",
"* c gray18",
"= c gray20",
"- c #343434",
"; c #3A3A3A",
": c #3C3C3C",
"> c gray26",
", c #464646",
"< c gray29",
"1 c gray30",
"2 c #515151",
"3 c #555555",
"4 c #5A5A5A",
"5 c gray36",
"6 c gray38",
"7 c #646464",
"8 c DimGray",
"9 c #6C6C6C",
"0 c #717171",
"q c #747373",
"w c #747474",
"e c #797979",
"r c #7C7C7C",
"t c #808080",
"y c gray52",
"u c #888888",
"i c gray56",
"p c #909090",
"a c gray59",
"s c gray60",
"d c gray61",
"f c #A0A0A0",
"g c #A7A7A7",
"h c #A9A9A9",
"j c #AFAFAF",
"k c gray69",
"l c #B4B4B4",
"z c #B9B9B9",
/* pixels */
"oXooooXooooOooooooOO++++++O+@++OOOO+@$#$&%$$$%%$###$$+@%%@+@#@@#",
"OooooooOOoOOOoOOOO+++@@@@@+@@++O+++@#%&&&%%%%&%$#$%&$#$&*%$%&$#$",
"oXooooOOOOOO+OOO+++@@@@@@@@@@@++@@+#$&*==&&&&&%&$%*=*&&*===***%%",
"ooooooOOO+++@+O+@++@#@@@@@#@@#@O##@$&*-;-*=**==&&*==*&&-;**=-&&*",
"+OooooO+O+@@@@+@@@@@@@######$$#+##@$&=;;==--==**&*-=&%&:,--=;**&",
"+OOOOoOO+@@@@+@##@#####$#$#$%$$@@##%*-::;;;;;;===;:-*&*>3;;-;=-&",
"+OOOOOO++@#@##@#$$$$$$$$$%%%%$#@$$#&=:>>::::>:;=*$##@@$35;:::--=",
"@++++O+@@###$#@#$$$%&&%%&*&%%&&$%%$*>,<>:,,,,>=@+;,:>=.:4:,>,>:-",
"##+@@+@$###$$$##$%%%*******&&*=$%**;<<1>>,,,,=O@%307861 $:,,<<>-",
"%#+@@+@$$$$$%*$%&***==***=====-%*-;,<<1,1<,<-    1ytr82O %<<1<<>",
"%$+@@@@$%%&&*;&==**=-=-===--;--%*:<<111,,11-o#><<88412- O :21<1:",
"&%#@###%&&**=;&*---;:;;:;--;:;-%=1<,211<<,=@Owy7006$ ++.O *31<1:",
"*&$##$#%&=**--&#%&*&&&&&&$$$$$#+>214421<>=%O3w##17y4$+XOo %3221>",
"==&%%$#%%*=--;*OoooOO.@*&@O+@$#&1125631>*=%*7$ $ 7sy< @OO *43311",
"*=%&&$#$**==-;=@+++++O$-=#++++$:,221<;;&*&+4:   *uae=&>&o ;531<<",
"*-%$&%#$*=--;:;@.ooOOo+$$+O+OO::>11507; = >y=O;6yyi0@1,=+o=4422>",
"-;&%**$#*--;;;-@ooooOO+@@OO+#:,->6ydjjfia8:uiyppu56>>6$*@+%354>-",
";:=&**&$&=-;:,2= OOOOOO@@++O:<-:tfjjkhjkgu5eyyte438=+=@#O+=55<-,",
"-;-&***&*-;>,14: ++OO++++@O=<*4ajkkhjkkjga7paapaur2O$*$@+O>7,-<6",
";:;*=*=#$&&**=;*+++++@@+@+&,:rgjjkjjkkkkgdpddddsy:@o%%&OO#>,&779",
">,>*-=*#X$%&%*;*@@@@@@@@@+-1pkjjgjhgjklkhjjjjhgfsa8$&*$#$o&*>w7e",
"&%%*--;%X@##$$#+@@+@@@#$+;0sljjkhjggklkkllkjjjjjhy&;:=*,t7 -0r9r",
"   *---%+@##%&&*==*&====*0jkjkjjhfgjkllkklllllklh8@&$&32is2;8rwr",
"OOO%*&%#@##$%&*--;:=*$$$,6jzlkkjjfgkjklkjlllllkld1;=;:8t2au14ert",
"OO+++++@@@@#&=*:;$&;,*+,3<7fklkjhfjlhkkkklzlllkkf73;:<5y<8g87ttt",
"OOO++@@+@$%*-,;::@$;<-<673$*2rdffdklhlkjkllzllkgs8,%#:5twXtge0ww",
"OOO++@@$*&->;-%=<#$=<600w9,%  #7adklgkjhklkklllha8;$@;8ysw*yi888",
"+++@O+$;<3<,=@#=2& ,9wertyr72: 6fskkfjkhkllkkllkd5-*%,5rsgptfwqw",
"+@@+-<<>52&,-O#&1*20weryyyyyyr90fajkdgzkjkllkkht2:<;4559tfkzf0we",
"+@@=>37>:X >;O@ 1700wrtyyyyyttt0dshjdhjlkjkllkgr<79,y0980yuywt0e",
"+O$;><,& @ :: @,700wrttyyuyyuyu0sdghgjhgkkkklzzl0e73948,%O0uapwr",
"+$:>22:- + ;:$5000eryyyuiippippepddhhhjgfkkjjjjkpr2<9t95640sdaer",
"O;<18*;: @X%17990wrrtyuuuiiiipprifsjjkllhgkjjjhhgau9yfsfda6usseu",
"#:<<3 =>.+ ,9990erytyyyuuuuipppyrgayssgkkhhhjkkkkkjhhhkjgd0esaer",
"&31,& &> $3000erttyyyyyuiiiipasiwssdhfghjkjjjjklkjjhjjgffyyeipew",
":81:@ %:=70090wetttyuyuiippasdsiipiaghhhhjkkkkjkjhjjhhggpwurit0e",
",81:ooo18990werrtyyyuiiiiipapptpeuaafhjjhjjhkjhjjjjhhhgsuuue9859",
"<8<= .,8880ettttyuuuipippppaadfgeuusghjjjhjhhhhhhhhhhdaiuiu99877",
"39<%+<7889wrtttyyuuuipippasfudlkkpidfghjjjjjhhhhhhhhgsappai84999",
"28,*,47etyyyyuuuuuuiiiiasdsfuthsissssfhhhhhhhhjjjjhgfsppupp77780",
"<6>;15yppapasssddfffdffgggggfappdfpsdfhhhhgghhhhhggfsisssppuiu87",
"23;,<0rtiuiaaasssdfdggggghfggjhhggdidgghhggfgfffggfspspdgdfgffae",
">2-<5w0eytipipappaasddfffddffghfdgfpidhhgggggfffgfdapuiffdffdddd",
"%:=28090eruuiipppaapsssddadfdfhsafdpudhhggggffffgfsputpsdpsdssss",
"*3;159wwertyuyuipaaaaapapsdfsdgdypsishhggfffdffffdaiutisaiaaappp",
"%1&<90900werttttuiupiuippssspsfdytisffggffdssddfddsiuyppiiiiipap",
"+<==11148weerrttyuytyyupasaaupddueuadddffddssssdassaiytipuipapii",
" ;;%,;=*;13346789we00989tppprusay0tupsddddsapasspppaiwtpiiiiiutt",
".o%&%%=*#@#$%%&*-;;;;;;-:30r0tppi0ryipasdspiiiapippiuwtpppiuuuyy",
"X+##@%-=&%%&&****==*===--*&=4ruipeetuuupapiuuipuiapiy98w00098864",
"X+@@@@%#+++@#$%%%%%%%&&&*=*%2etyur8eyyyuuiyrruuyyiiut9-&&&&&%$##",
"oO@++%%o .. . ...X...XoooO@X,9ryyr6wrrryytewtuyrtyytr6&%&****&%%",
"XX++O+O.XXXXXXXXXXXXXXX...X -7wrtw49errrre09rue0rrrrr4XXoXXXoXXo",
"X $+X..XXXXXXXXXXXXXXXXXXXo *49we82790we0987ww99wwwe0, oXX......",
"X $+XXXXXXXXXXXXXXXXXXXXXXo *,5905<466787547888899985;.XXXXXXXXX",
"XXOoOoXXXXXXXXXXXXXXXXXXXXo *:2783<124544235876777651* oXXXXXXXX",
"XXoooXXXXXXXXXXXXXXXXXXXXXX $-:2431<<2332<236433431<:@ XXXXXXXXX",
"XXXoXXXXXXXXXXXXXXXXXXXXXXX $-*:222<,,<,>,<122112<,>=oXXXXXXXXXX",
"XXXXXXXXXXXXXXXXXXXXXXXXXXX.@*-&:,<<,>:::::,<,>>:;::% XXXXXXXXXX",
"XXXXXXXXXXXXXXXXXXXXXXXXXXX.+%=&%-:>:;-=--:>>:>::=*&+.XXXXXXXXXX",
"XX.OO.XXXXXXXXXXXXXXXXXXXXX.O$**$%-;;-=**=:,:-::;=&$OXXXXXXXXXXX",
"XX.oOXXXXXXXXXXXXXXXXXXXXXX.O%&*&%&--===*;>,;---==&@XXXXXXXXXXXX",
"XX.oOXXXXXXXXXXXXXXXXXXXXXX.+&***&%--*==-:>:;==-==&+.XXXXXXXXXXX",
"XX.o+oXXXXXXXXXXXXXXXXXXXXX.+*&&***=-===-;>;;---==$OXXXXXXXXXXXX"
};
