/* XPM */
static const char *dmludGFnZS1jcmVlcHktcGhvdG9zLTI5[] = {
/* columns rows colors chars-per-pixel */
"64 64 240 2 ",
"   c black",
".  c #010101",
"X  c #020202",
"o  c gray1",
"O  c #040404",
"+  c gray2",
"@  c #060606",
"#  c #070707",
"$  c gray3",
"%  c #090909",
"&  c gray4",
"*  c #0B0B0B",
"=  c #0C0C0C",
"-  c gray5",
";  c #0E0E0E",
":  c gray6",
">  c #101010",
",  c #111111",
"<  c gray7",
"1  c #131313",
"2  c gray8",
"3  c #151515",
"4  c #161616",
"5  c gray9",
"6  c #181818",
"7  c #191919",
"8  c gray10",
"9  c #1B1B1B",
"0  c gray11",
"q  c #1D1D1D",
"w  c #1E1E1E",
"e  c gray12",
"r  c #202020",
"t  c gray13",
"y  c #222222",
"u  c #232323",
"i  c gray14",
"p  c #252525",
"a  c gray15",
"s  c #272727",
"d  c #282828",
"f  c gray16",
"g  c #2A2A2A",
"h  c gray17",
"j  c #2C2C2C",
"k  c #2D2D2D",
"l  c gray18",
"z  c #2F2F2F",
"x  c gray19",
"c  c #313131",
"v  c #323232",
"b  c gray20",
"n  c #343434",
"m  c #353535",
"M  c gray21",
"N  c #373737",
"B  c gray22",
"V  c #393939",
"C  c #3A3A3A",
"Z  c gray23",
"A  c #3C3C3C",
"S  c gray24",
"D  c #3E3E3E",
"F  c #3F3F3F",
"G  c gray25",
"H  c #414141",
"J  c gray26",
"K  c #434343",
"L  c #444444",
"P  c gray27",
"I  c #464646",
"U  c gray28",
"Y  c #484848",
"T  c #494949",
"R  c gray29",
"E  c #4B4B4B",
"W  c #4C4C4C",
"Q  c gray30",
"!  c #4E4E4E",
"~  c gray31",
"^  c #505050",
"/  c #515151",
"(  c gray32",
")  c #535353",
"_  c gray33",
"`  c #555555",
"'  c #565656",
"]  c gray34",
"[  c #585858",
"{  c gray35",
"}  c #5A5A5A",
"|  c #5B5B5B",
" . c gray36",
".. c #5D5D5D",
"X. c gray37",
"o. c #5F5F5F",
"O. c #606060",
"+. c gray38",
"@. c #626262",
"#. c gray39",
"$. c #646464",
"%. c #656565",
"&. c gray40",
"*. c #676767",
"=. c #686868",
"-. c DimGray",
";. c #6A6A6A",
":. c gray42",
">. c #6C6C6C",
",. c #6D6D6D",
"<. c gray43",
"1. c #6F6F6F",
"2. c gray44",
"3. c #717171",
"4. c #727272",
"5. c gray45",
"6. c #747474",
"7. c gray46",
"8. c #767676",
"9. c #777777",
"0. c gray47",
"q. c #797979",
"w. c gray48",
"e. c #7B7B7B",
"r. c #7C7C7C",
"t. c gray49",
"y. c #7E7E7E",
"u. c gray50",
"i. c #808080",
"p. c #818181",
"a. c gray51",
"s. c #838383",
"d. c #848484",
"f. c gray52",
"g. c #868686",
"h. c gray53",
"j. c #888888",
"k. c #898989",
"l. c gray54",
"z. c #8B8B8B",
"x. c gray55",
"c. c #8D8D8D",
"v. c #8E8E8E",
"b. c gray56",
"n. c #909090",
"m. c gray57",
"M. c #929292",
"N. c #939393",
"B. c gray58",
"V. c #959595",
"C. c gray59",
"Z. c #979797",
"A. c #989898",
"S. c gray60",
"D. c #9A9A9A",
"F. c #9B9B9B",
"G. c gray61",
"H. c #9D9D9D",
"J. c gray62",
"K. c #9F9F9F",
"L. c #A0A0A0",
"P. c gray63",
"I. c #A2A2A2",
"U. c gray64",
"Y. c #A4A4A4",
"T. c #A5A5A5",
"R. c gray65",
"E. c #A7A7A7",
"W. c gray66",
"Q. c #A9A9A9",
"!. c #AAAAAA",
"~. c gray67",
"^. c #ACACAC",
"/. c gray68",
"(. c #AEAEAE",
"). c #AFAFAF",
"_. c gray69",
"`. c #B1B1B1",
"'. c #B2B2B2",
"]. c gray70",
"[. c #B4B4B4",
"{. c gray71",
"}. c #B6B6B6",
"|. c #B7B7B7",
" X c gray72",
".X c #B9B9B9",
"XX c gray73",
"oX c #BBBBBB",
"OX c #BCBCBC",
"+X c gray74",
"@X c gray",
"#X c gray75",
"$X c #C0C0C0",
"%X c #C1C1C1",
"&X c gray76",
"*X c #C3C3C3",
"=X c gray77",
"-X c #C5C5C5",
";X c #C6C6C6",
":X c gray78",
">X c #C8C8C8",
",X c gray79",
"<X c #CACACA",
"1X c #CBCBCB",
"2X c gray80",
"3X c #CDCDCD",
"4X c #CECECE",
"5X c gray81",
"6X c #D0D0D0",
"7X c gray82",
"8X c #D2D2D2",
"9X c LightGray",
"0X c gray83",
"qX c #D5D5D5",
"wX c gray84",
"eX c #D7D7D7",
"rX c #D8D8D8",
"tX c gray85",
"yX c #DADADA",
"uX c gray86",
"iX c gainsboro",
"pX c #DDDDDD",
"aX c gray87",
"sX c #DFDFDF",
"dX c gray88",
"fX c #E1E1E1",
"gX c #E2E2E2",
"hX c gray89",
"jX c #E4E4E4",
"kX c gray90",
"lX c #E6E6E6",
"zX c #E7E7E7",
"xX c gray91",
"cX c #E9E9E9",
"vX c #EAEAEA",
"bX c #ECECEC",
"nX c #EEEEEE",
"mX c gray94",
"MX c gray96",
"NX c #F6F6F6",
/* pixels */
"g 0 # = 5 t N g x j ! =.z.7Xp.! [  . .$.O.] ] [ ] / ! I A A A V N j g j j a t t t 0 0 9 9 9 5 9 = a j g t , , 9 , g j 9 = a , = ",
"t 0 & , 0 j V t j j ! 3.C.eXp.H ] ] ! ]  .[ ] ] / / T H A A V N N j g g g a t t t 9 0 t t = a = a A x g N 0 5 = 0 t a g 5 t 5 = ",
"9 9 & & 5 a g = N N H O.h.;Xp.I ] $.O.] [ ] ] / / ! T H A V V N x j g g g a t t t 0 9 0 5 9 5 0 A A N x O.= 9 , 5 t t t 5 0 0 , ",
"a t = = = 9 9 = j x N ! $.U.u.T / 9.3.[ ] [ [ / / ! I H A V V N x j g g g a t t t 0 t , 9 9 5 N ! $.] / / 9 9 5 & t 5 = = 5 9 = ",
"g 0 & = = , 5 0 t j V ]  .n.p.T ! $. ./  .$.O.] ] ! I H A A V V N x j g g a a t 0 0 0 0 5 9 V T  .O.O.] I , 9 0 = 5 = 5 5 , 0 & ",
"a 9 # = = , = t t g x / ! q.h./ ] ] T !  .O.O. .] ! T I H A A V N N x j g g a t 0 t 9 0 5 N I 1.! $./ A 5 N a 5 5 & = 9 5 t A 9 ",
"a 0 & = , t 5 t t t a I x [ p.! [ [ / ]  .[  .O.] ! T I I H A V N N x x j g a t t 0 t = N / / q.O.$./ x t g t 5 5 = 5 , 0 g I N ",
"0 0 & & , j t 0 t a x ] x ! u.T ] [ ] [ [  .O. ./ ! T T T H A V N N x x j g a t t t 0 j I =.O.$.[ $.! j t a 0 9 & , , , j 9 g I ",
"0 t # , = 0 t 5 0 g x T j I q.T ] [ ]  .[ $.O.[ ! ] H I ! A N H N V V x N g g t a 9 t ! T 3.$.=. .$./ g t g 9 = 0 5 = t t t 0 9 ",
"a a & , , 0 0 , t t g g   N 3.[ [ ]  .$.O.O. ./ ! T ! T A H I N A N j V j x g a 0 a H O.3.1.=.=.=.O.T t 0 0 0 9 9 9 , = 9 t 0 9 ",
"5 9 # 5     5 = a 0 g , # A =.T O. .$.$.$.$.O.[ A t I ! I H N H A j H V x x g j t H [ 1.9.=.=.1.! H I T & 0 j 5 & , 5 & 0 0 , 5 ",
"= 0 0   T =.  t j g 0 N A t I / / O.O. .O.[ I H =. .  A I A I N a N x x V j N 0 A [ 3.=.1.3.1.=.  I I x # g a 5 9 , 9 , 9 5 , x ",
", a t A ] / ! =.3.$.q.z.3. .t ! N  .[ ] [ H a j $.u.u.T T V N j , N N x j x a A  .[ h.$.9.9.$.T H / h.z.T g H 9 9 = 9 0 5 , = x ",
"= = & x j & 9 N A ! I T N T I V t / [  .] 0 # & 1./.&X1.j I A g 0 N V A I j g [ u. .p.=.1.9./ V N 3.].W.=.g j   N N g 0 5 t a I ",
"= = =   , g 0 g V A H V j g V t V ! / / T , T 3.n.|.+X9.N V I 9 j H t O.x.I [ ] z.3.q.3.=.u.I V N u.n.D.9.N j x / 3.O.T ] O.! / ",
"t g A j 5 5 9 0 a g g V ! O.! N T I ! ! H   =.D.W.H.E. .A H A 9 j V I H.|.p.=.9.9.3.u.1.3.3.V t  .u.p.p.3.H ! V  .n.u.[ u.u.[ ! ",
"9 / O.V # , 5 9 9 t , a / x.u.! ! I ! ! N   N x.W.+X].3.A H H 0 t N u.XX;X;Xp.z.9.q.q.3.3.3.N t ! x.n.n.u.g O.I / C.z./ ! [ ] / ",
"= T O.= = , t 9 0 0 0 V I D.C.I I / ! T A & ! ] D.&XW.3.H T I   a a x.XXiXtXU.u.p.9.p.1.=.u.  j / x.h.x.3.V $.[ A O.] V j N / / ",
"#  .1.0 & 5 5 , 5 t 5 N H C.x.O. .T H ] !   O.9.n.].x.I I V A $.x 0 q.+XXXXXh.p.q.1.9.q.3.q.u.H.n.q.x.h.p.]   t j 0 N N g x V I ",
"# ] O.t & & # # 5 a 9 g N H.D.! ! I ! T N   [ h.XXD.q.! T   O.z. .  3.E.E.x.W.p.p.q.q.q.O. .p.&X7X].C.C.+XU. .x x 0 x t = 5 5 t ",
"9 V A j a N x N j x 5 9 I H.D.] A I H ! =.=.z.p.W.W.1.u.q.[ ! p.u.  U.x.].E.n.z.q.1.u.1.] O.T x.3X&X3X&X3X1Xx.] 3.9.! N V H V 5 ",
", , , t 9 x g N N I j a !  .] / N I a 1.x.u.z.x.q.p.q.3.x.z.V p.3./ ;XW.].1X].9.h.3.p.x  .O.$. .z.3XiX3XW.u.] T x H x g j x j g ",
", # , # =   # & = N T j 5 = ,   a x   O.h.p.C.C.z.H.h.p.z.1.H p.q.I W.7X&XXX;Xu.p.3.u., $.$.3.=.[ W.H.q.$.] ] ] x   = = & &   = ",
"& , = = & 5 , 0 9 H I j a t 0 5 g j   O.u.h.n.n.C.H.n.p.n.$.A 1./ =./.;X3X|.1XH.z.9.q.p.$.=.3.3.q.$.1.O.$.O.=.] H   & t , 9 0 5 ",
"= = = = = , , 5 9 j N a t 0 0 , a N   A p.q.u.C.n.z.x.x.H.q.= H N 9.XX&X3X3X3X].3.] h.XX=.=.=.9.$.1.q.9. .O. . .! I V & 5 = , , ",
"= = = = = = , 5 9 t g t t 9 0 5 t A   V H.H.q.x.D.C.C.n.U.=.A ! ! / U.;XeXXX|.+X] j [ ;XXXO.q.1.$.O.=.[ 1.$.O. .]  .! 3.j   , , ",
"= = = = = = , , 5 0 g 0 0 9 9 , g H # N E.XX3.h.n.C.x.x.U.z.x T ! H p.&X7Xp.U.E. .T   /.iX1.9.1.=.$.=.1.[ / ] O.U.h./ D.! 5 , & ",
"= = = = = = = , = a N t 9 9 9 = x V # V H.].q.z.H.C.D.u.W.E.N T ] j 3XiX3Xq.H / ! T ] ]./.$.9.3.=.1.=.[ [ I x.3X3Xp.H ] I j & , ",
"& & = = = = , , , a x t 0 9 0 , g N   H H.E.q.n.U.H.x.p.z.x.T T / V iXcXeX3.T / / A 9.&XC.] 1.=.3.3.3.1.[ ! /.1Xp.H H V I A   = ",
"& & = = = , , , 5 5 0 9 0 9 9 5 0 V   A E.H.q.n.n.W.h.n.z.p.I ! / ! iXNXzXO.! ! / A q.&Xp.  j 5 j ] ] O.[ ] u.C.1.j H V N H   9 ",
"= = = = , , , , 5 , 5 5 0 9 9 5 0 N   x C.H.n.H.C.H.C.x.U.=.x I T  .tXmXhX] T T / N z.;X$.u.H.x.u.9.O.V H H 9.W.p.x H H N T   , ",
"= = = , , , , , 5 9 t 9 t 0 9 , t g & g u.U.|.|.+X|.W./.U. .V ! A 3.iXzX7XT / T ] V x.].q.+X;XtXhXhX3X].W.p.] D.u.g A N N !   5 ",
"= = = = , , , 5 5 9 9 0 0 0 0 9 t j 9   I q.x.D.E.E.W.+XU.I N ! V h.hXcXeXV ] ! ] g x.W.C.XX1XeXzXtX1X&X+X/.h.C.9.x A N V A   , ",
"= = = , , 5 5 5 , 9 9 0 9 9 0 9 0 x 0   N q.p.z.h.n.x.x.x.5 I T x h.zXNX+Xa  .! ] t h./.W.&X7XiXeX7XtX3X|.].D.D.1.g ! a ! j # 5 ",
"= = = , , 5 5 5 , 9 9 9 t 0 9 5 0 A x   A h.x.z.U.z.C.n.x.I A / x n.cXhXH.x / / ! 0 u.E./.eXeXiX7X3XeX1X]./.D.n. .N a V T   = & ",
"= = = = , , 5 5 5 0 t t a a 9 9 t A A    .x.n.h.n.z.C.n.D.[ 0 / 0 E.iXzXU.0 I T T 9 9.U.].zX1X1XhXiX7X;X+XW.x.n.[ ! ! ! 0 & 5 , ",
"= & & = = , 5 5 5 9 a a t t 9 0 t A j & q.z.z.p.x.D.C.x.H.3.  V 9 U.tX&Xp.j I A A   1.H.;XbX3XzXzXiX7X1X&XE.n.x.j 0 V t # 5 = & ",
"= = = = = , 5 5 9 , t t 0 t 9 9 t A 5 j z.n.h.p.h.x.U.D.n.p.&   0  .XXq.N V I t j   3.D.eXiX;XeXhX7X1X1XXXE.C.3.# ,   = 9 = , = ",
"= = = = = , 5 5 9 , g g t a 9 , 0 V   / x.x.z.p.z.x.U.n.C.h.U.3.g =.!   g t 9 9 0   $.H.iXtX1X3XhX1X+X;X+XU.C.$.  t 5 , = , & 9 ",
"= & & = = , , 5 , 0 T I t 0 9 0 a N   1.n.h.x.q.z.x.E.x.C.n.n.3.g /.;X/ T V H N q.T $./.eX7X1XtX7X;X|.&X&XC.h.3.= & , = , 5 & 0 ",
"= = & & , 5 , , 9 , I I 0 0 0 9 t 0 , q.z.z.z.9.x.x.D.z.C.9.  N t |.7X3.! ! x h./.x.9./.7X7X1XhXeX1X+X;X+Xh.p.z.a & , = , ,   g ",
"& & = = = , , 5 , g ! A 0 9 , 5 9 & j z.h.x.p.3.n.n.n.n.C.T ! ! N z.eX&XH T / 9.x q./.E.cXtXeXtXtX|.XXeXW.q.u.D.j & , = , ,   j ",
"= # = , & & , , = g ! A 9 5 5 , 9   T x.h.C.q.q.x.x.C.h.x.I [ ! A I 1X|.0 T / j x [ /.;XbX7X7XiX7XXX&X3Xh.1.q.C.H # 5 = = ,   N ",
"0 & & = & & = = & = 0 t = = 5 , 9   O.z.u.n.1.p.n.n.h.x.x.A I ! I j h.p.j T V V I T U.eXiXeXeX3X3XXX|.&Xu.O.1.H.I   9 5 5 , # V ",
"t = & , = = , = , =   # , 5 = 5 = t 9.z.p.h.$.z.x.x.z.p.q.A I / I N O.n.A A V N H [ |.1XiX;X1X7X1XXXXX;Xn.9.C././   0 , = = = H ",
"5 = = , = = , , 5 9 a 0 5 5 , 9 # V 9.q.p.h.O.x.h.h.n.9.z.H I ! A H j j a H H ! A q.1X&XeX1X3X3X&XXX;X3XD.n.+XW.O.  0 = = = , A ",
"= = = , = = = , , 5 A x , , 5 5   ! u.9.q.u. .x.x.z.1.n.C.a T ! / x t = 0 V V H I 9.|.iXtX1X&X3X+XE.+X3XD.x./.W.$.  0 , 5 , = t ",
", , = = , = = , , 5 j t 5 9 , t   =.U.n.u.q. .n.n.u.9.C.! a ! T H A j N j V I T ! D.1XtX1X;X&X1XXX].&X&XC.C.E./.9.  ,   & = , 5 ",
", = = 5 5 , , , , = A N 5 9 9 9 = t 3.n.] A 1.D.D.9.3.O.  j I I H V 9 9 0 N T !  .W.tXeX3X&X+X1XW.&X].;XC.x.W.E.p.A N t = & , & ",
", = = , , = , 5 = 5 H A 5 , = 5 5 ,     # ] n.x.H O.z.1., g H ] T A a a t N T H $.+X1X3X;X&X&XXXU./.|.1XD.x.C.C.x.I ! I V a = # ",
", = = = = = = , 9 = t 0 5 0 5 5 9 9 a t 9 q.=.A    .D.q.  t A T H A a g a N T H z.;X;XeX+X&X+X+X|.|.].+XC.n.H.U.x.A V A N g # 9 ",
"= = = , , , , , , , t 9 , 5 , 5 5 = 5 t t !  .A # O.n.9.V t t V I N & & 0 N I N q.1X1X&X|.;X].|./.+XW.|.D.x.W.D.H.] A V x a & a ",
", = , , 5 5 5 5 & 5 a 9 = 5 9 0 t g t   9 9.z.x   / H.3.V H j x A x t 0 t x H j V E.+X1X|.XXXXE.W.+XE.|.U.h.H.C.h.T V x V 5 5 j ",
", , = = , , , , 9 5 9 5 9 g g a 0 g 9 ] t =.9.  O./ z.$.  x g j x g T I j V H a j & ] U.].+X/.&XU./.].XXH./ x x , g g a j T V t ",
", , , , = = , , 9 9 a a 0 t g j g = A 1.  3.1.] C.9.x.=.$.h.$.0 N a V j j H N t N T   5 9.C.z.q.|.].E.].W.] j V g a , a g ] T ] ",
"= 5 9 9 5 , 5 5 9 9 a t , 5 N ! j    .I   =.! z.XXh.1.9.D.C.x.0 a x H t x V 0 g g 5 [ U.1.3.O.  W.W.u.x.H./ V V A j j 9 N / T V ",
", 5 9 9 9 5 5 9 , , = g x 5 j g   V =.9 a O.I p.tXD.O.D.3X+Xh., 0 V 9.N t j j / x 0 h.E.H.p./ = O.3.[ 1.1.9.I x V V x t t A V H ",
"& , 5 9 0 0 0 t 9 a t j x a t 0    .T & j / / A C.z.h.U.7X7Xh.0 x A h.A j   p.x.] / n.U.E.n. .9 =.=.[ q.z.p.N A A N g t 9 9 , t ",
"= , 5 9 0 t t a j x a t 0 t a 5 N O.= N T [ q.A x I x.z.9.C.D.j a / z.g x & x./.A / 3.h.C.D.x. .9.T # A  . .! H A x j t t T / t ",
"= 5 9 9 0 0 0 a a j N H V g j =  ./ # g t  .z.A / ! p.x.H t  .j g g T t a t H ] #  .p.n.z.u.p.p.q. .V A x x H / T T j # V =.O.! ",
"= , 5 9 0 0 0 t j j x A V x j V [ V & ] 3.$.x.j A I j p.x.9.T 9 a g x 9 g j I I   $.p.H.H.u.9.p.u.q.] I T V g g x H I & H 1.] ] ",
", 5 5 9 0 0 0 t a g g N V V 9 ] ! = 5 N T q.p.T T [ ] T 9.x.=.# t H T 9 5 t H I g 1.h.U.C.h.u.3.q.q.T A T A T V 0 9 H = A 1.! g ",
", 5 9 9 0 t t a g j j V A x g [ A j H I g O.q.u.] ! ! T 0 O.!   0 t I x 0 x A V a 9.E./.x.h.z.p.p.$./ g N H H I ! A N   [ =.j a ",
"= 5 9 0 t a g j x x V I I 0 T T 0 I [ [ [ /  .9.$.!  .I g g N t 5 ! ] g a V H ! 0 z.E.x.n.x.9.h.q.p. .g N g j N A I A   [ =.N t "
};
