/* XPM */
static char *EA_resized[] = {
/* columns rows colors chars-per-pixel */
"64 64 246 2 ",
"   c #000000",
".  c #0B0908",
"X  c #181415",
"o  c #120D0D",
"O  c #271C1D",
"+  c #2C2528",
"@  c #33262C",
"#  c #332A2D",
"$  c #38282A",
"%  c #2E2D34",
"&  c #332D32",
"*  c #392E36",
"=  c #343135",
"-  c #3A3435",
";  c #353439",
":  c #3B353B",
">  c #3D3A3D",
",  c #3E3936",
"<  c #2F3035",
"1  c #49372E",
"2  c #4D3B33",
"3  c #43353C",
"4  c #433C3C",
"5  c #4C3D3B",
"6  c #443736",
"7  c #553B36",
"8  c #47302B",
"9  c #633C3D",
"0  c #4C413D",
"q  c #47413C",
"w  c #54433C",
"e  c #59453C",
"r  c #5D4A3D",
"t  c #554438",
"y  c #644A3E",
"u  c #61463A",
"i  c #3D3C42",
"p  c #433D42",
"a  c #483C42",
"s  c #683E43",
"d  c #3F4045",
"f  c #454144",
"g  c #4B4343",
"h  c #4C454A",
"j  c #4B474A",
"k  c #534542",
"l  c #5B4541",
"z  c #544A43",
"x  c #5B4B44",
"c  c #51464A",
"v  c #534C4B",
"b  c #5A4D4B",
"n  c #594448",
"m  c #56524E",
"M  c #5C514B",
"N  c #5B5047",
"B  c #554C53",
"V  c #5C5453",
"C  c #5E5A55",
"Z  c #5A5558",
"A  c #4F4F50",
"S  c #624D44",
"D  c #634D4B",
"F  c #684947",
"G  c #655245",
"H  c #64534C",
"J  c #6B554B",
"K  c #6C5A4D",
"L  c #6C5347",
"P  c #745A4E",
"I  c #71564A",
"U  c #6D4D51",
"Y  c #625653",
"T  c #6B5552",
"R  c #645954",
"E  c #6C5B53",
"W  c #635C5B",
"Q  c #6A5D5B",
"!  c #60565B",
"~  c #715D54",
"^  c #745D5A",
"/  c #795857",
"(  c #784A4E",
")  c #66615D",
"_  c #6C625C",
"`  c #6A6057",
"'  c #746255",
"]  c #74635B",
"[  c #7A655A",
"{  c #7C6A5C",
"}  c #796458",
"|  c #76624E",
" . c #635D63",
".. c #6B6562",
"X. c #6D6965",
"o. c #686564",
"O. c #736662",
"+. c #7C6662",
"@. c #746964",
"#. c #7B6B63",
"$. c #736C6A",
"%. c #7B6D69",
"&. c #7C6168",
"*. c #76716E",
"=. c #7C726C",
"-. c #7C7066",
";. c #7C7472",
":. c #7A7777",
">. c #746C74",
",. c #5F5A62",
"<. c #825559",
"1. c #816B5D",
"2. c #81665A",
"3. c #8D5C62",
"4. c #826D63",
"5. c #866967",
"6. c #96666B",
"7. c #847165",
"8. c #83736B",
"9. c #89756B",
"0. c #8B796E",
"q. c #86776A",
"w. c #966D72",
"e. c #847A74",
"r. c #8D7C73",
"t. c #847C7B",
"y. c #867875",
"u. c #927E75",
"i. c #987979",
"p. c #91736B",
"a. c #A66E72",
"s. c #AC777D",
"d. c #A7797C",
"f. c #B4767C",
"g. c #BB6F77",
"h. c #8B817C",
"j. c #87847A",
"k. c #93837C",
"l. c #958479",
"z. c #AA837F",
"x. c #8F7D83",
"c. c #AD7B81",
"v. c #A57E81",
"b. c #B37D83",
"n. c #B97D84",
"m. c #8C8582",
"M. c #888587",
"N. c #9C8B84",
"B. c #958886",
"V. c #9A918B",
"C. c #978D94",
"Z. c #9C9698",
"A. c #A98786",
"S. c #BB8186",
"D. c #B38489",
"F. c #BB848A",
"G. c #B48A8C",
"H. c #BA8A8D",
"J. c #B38385",
"K. c #A4948C",
"L. c #BB8C92",
"P. c #A59996",
"I. c #B89495",
"U. c #B2928F",
"Y. c #ABA19C",
"T. c #B3A198",
"R. c #9D9AA2",
"E. c #A69EA3",
"W. c #B89BA0",
"Q. c #ABA6AA",
"!. c #B3ABAC",
"~. c #BBA9A9",
"^. c #B3ACB3",
"/. c #B6ABB3",
"(. c #BAB5BA",
"). c #B3AFB3",
"_. c #C6878D",
"`. c #C78C93",
"'. c #CC949A",
"]. c #C79697",
"[. c #D4979C",
"{. c #D28C94",
"}. c #D3A59F",
"|. c #C89AA2",
" X c #DA9DA4",
".X c #C6A5A7",
"XX c #D4A3A3",
"oX c #D7A8A8",
"OX c #DAB4AC",
"+X c #C6B9B9",
"@X c #D5B9B8",
"#X c #CFADB1",
"$X c #E8AAB2",
"%X c #E3B0B0",
"&X c #DBC5B9",
"*X c #E4C9BB",
"=X c #BCBAC4",
"-X c #C2BDC3",
";X c #D4BCC0",
":X c #E5B3C1",
">X c #C8C4CA",
",X c #D7C8C8",
"<X c #CACAD7",
"1X c #D6CED7",
"2X c #D7D5D9",
"3X c #D4D2D4",
"4X c #E6CEC5",
"5X c #EAD2C5",
"6X c #ECD5CB",
"7X c #EEDBD4",
"8X c #E7D8DA",
"9X c #F1DED6",
"0X c #EDD3D0",
"qX c #E7E2DE",
"wX c #F6E3D9",
"eX c #F1E0CF",
"rX c #DAD8E2",
"tX c #D0D7E6",
"yX c #E3DEE4",
"uX c #E7D9E5",
"iX c #EBDFF3",
"pX c #DCE1E9",
"aX c #E4E1E6",
"sX c #EAE3E5",
"dX c #E5E4E9",
"fX c #ECE5EB",
"gX c #EDEAED",
"hX c #E8E9E7",
"jX c #FBEBE4",
"kX c #F2E5EA",
"lX c #F3EBED",
"zX c #FAEEEB",
"xX c #F5E6E5",
"cX c #FCF1EE",
"vX c #EFEDF1",
"bX c #EEE4F2",
"nX c #F1E6F2",
"mX c #F3ECF2",
"MX c #F7EEF3",
"NX c #F5F2F3",
"BX c #FBF4F4",
"VX c #FCF9F6",
"CX c #F6F4F9",
"ZX c #FBF6F9",
"AX c #FDFBFB",
"SX c #F6F9FA",
/* pixels */
"BXzXlXxXxXkXxXuXuX9X0XuXuX1X8X8X,X#X}.OX*X*X*X*X*X&X&X*X*X5X6X5X5X*X4X*X4X6X7X7X7XwX9XwXwXwXeXwXwXjXjXwXjXjXcXcXcXcXBXcXcXzXzXjX",
"BXcXzXlXkXkXkXxXxXuXuXuXuX8X0XuX,X@X].].oX*X*X*X&X*XOX*X4X5X5X5XeX*X*X*X5X6X6X7X7X7XwX9XeX7XeXwXwXcXjXjXjXjXcXcXcXcXcXBXBXBXcXzX",
"VXcXMXzXnXzXkXkXkXuXuXuXuXuXuXuX0X:X%X X[.}.OXOXOXOXOX*X&X4X5X5X*X5XeX*X&X4XjX7X7XxXwX9X7XeXeXjXcXcXjXwXjXcXcXVXcXcXVXBXBXBXBXzX",
"VXBXMXBXzXzXzXnXkXiXuXuXiX1Xa @ - $ * $ O p.}.].}.z.$ O P.6X5X4XeX*XT O o + X.0XwX*.# - - = - 4 , &XcXjXjXcXcXcXVXVXVXVXZXZXVXcX",
"VXcXVXVXBXcXMXMXnXbXdXiXiX1Xo             5.oX[.OXy     b 4X&X4X6X4     .     V jX-               ~.cXjXjXcXcXcXBXVXVXZXZXZXVXBX",
"VXVXAXVXVXVXMXMXnXnXbXbXiX1XX   x.x.i.i.w.].oXXX}.$     X |..X@XT.  X P.@X$.    +X~.i.x.+   $.#X!.wXcXjXjXcXcXVXVXZXZXVXVXZXZXBX",
"VXVXAXVXZXZXZXCXmXmXnXnXnXrXX   +X:X$X$X$XXX'.oXz.  X O   i.XXXXN.  X @XjX9XC v ~.@XXX%X$   P.BXcXcXjXjXcXcXcXVXVXZXZXZXVXZXZXVX",
"VXAXAXAXAXAXZXZXCXnXnXbXCXrXX    .&.<.<.5.'.'. XL   J U   7  X[.`.o   o g t.,X0X#XW.|.XX$   x.xXqXwXcXcXcXcXcXVXVXVXZXZXBXBXZXVX",
"AXAXAXAXAXAXAXSXCXCXnXvXCXrXX             J.'.'.O   d.c.  X `.'.|.5.        . %.|.`.|. X$   B.9XsXjXzXzXzXBXcXBXBXBXBXBXBXBXVXBX",
"AXAXAXAXAXAXAXSXCXCXCXCXCXrXX   4 a 6 6 7 F. Xi.  o H.H.X   5.[.`.$XJ.b +       d.'.'. X$   i.4XqXlXzXzXzXcXMXBXMXBXBXZXBXBXBXVX",
"AXAXAXAXAXAXSXAXZXZXCXCXSXdXX   !..X'.`.`._. Xs   . o o .   4 XXv./ a.[.`.w.X   U {.{. X$   w.@X,XxXzXcXBXzXBXcXBXNXBXNXcXBXVXVX",
"AXAXAXAXSXSXSXSXZXZXCXCXAXdXX   /.|.`._.`. X'.O   .   . .   . ].U   O `._.[.8   s {._.[.@   w.#X&XxXzXzXBXcXcXBXBXBXBXBXBXBXBXVX",
"AXVXAXAXSXSXSXSXCXZXCXCXAXdXX   o.Q U U F c.c.  o v.D.D.A.X   5.i.    2 3.9     3.{._.{.@   6. X.X,XhXzXMXcXcXZXBXBXSXBXBXBXBXBX",
"NXVXAXVXVXSXSXVXBXZXSXCXZXdX.             n b   6  XU.H.XXw   + I.1           $ n._._.'.O   3.{.I..X8XlXzXcXMXZXVXVXBXBXBXBXVXVX",
"NXBXVXAXVXVXBXBXBXSXCXCXZXlX>. . .c a a a 5.^ 3 i.|.A.d.J.u.4 k z.z.F $ O $ 9 f.n._.H._.U 8 6._.`..X0XuXMXMXMXBXVXVXVXVXBXBXCXVX",
"cXBXVXVXSXBXSXBXBXSXZXCXCXZXAXAXMX;X|.$X#XXX|..XW.U.i.9.p.G..XI.z.z.f.a.g.g.g.g.n.n.D.H.`._.n.S.F.I.#X8XzXlXzXBXZXAXVXBXSXBXBXZX",
"lXcXBXBXVXZXBXNXSXSXSXSXvXNXhXxXqX&XI.W..XW.~.I.x.i.p.7.1.p.A.U.G.d.s.a.a.g.g.n.b.b.J.H.D.n.n.F._.].#X8XxXlXzXBXBXZXVXVXZXBXBXZX",
"gXlXNXZXVXSXSXNXhXSXNXNXNXvXNXNXhX3XW.K.~.#X#X~.i.B.0.2.2.2.4.A.U.H.D.n.b.c.s.b.s.a.s.b.s.n.n.n.F.'.#X8XkXlXzXMXBXVXBXBXBXBXBXBX",
"fXlXMXNXNXSXNXNXSXSXNXNXvXNXvXgXhX2X(.K.P.+X!.Q.m.N.7.| 2.| G I A.L.L.n.b.f.f.b.s.6.a.w.6.b.n.F._.].@X8XkXkXlXlXBXBXBXZXBXZXBXBX",
"fXkXMXlXBXBXSXNXvXvXSXvXvXhXhXhXhX2X+XP.K.P.~.N.@.8.K J y y r e ^ A.L.n.b.c.s.b.b.<.( ( <.a.H.F.H..X,XuXjXlXlXBXmXBXBXBXBXBXBXBX",
"bXkXnXMXNXBXNXNXvXNXNXvXvXhXhXqXqX,XP.u.k.%.O.T x b S l w w l l F &.G.H.b.c.c.c.n.3.F s 7 ( G.L.U.G.;XuXuXkXlXlXcXBXBXBXBXBXZXBX",
"bXfXbXnXlXNXNXBXvXNXvXvXgXhXqX3X(.P.$.x T D k b D D b l a x U U F s w.L.D.c.c.c.b.A.3.F L / 5.c.d.8.P.,XuXkXlXlXlXlXNXBXBXCXZXZX",
"iXfXnXnXlXmXgXNXNXvXhXpXpX3X+XQ.;.` S k l T T T E ^ E n l J [ 2.^ n / D.G.D.D.J.c.J.i.T / 5.5.^ &.&.y.Q.3XkXkXgXNXlXBXNXBXBXBXBX",
"bXbXnXnXnXnXlXhXhXhX2X&X).K.u.#.E r l x D ^ ^ T ^ 5.+.S 7 J 4.7.4.T D i.I.G.G.G.G.A.B.^ n y.u.^ ^ +.+.t.(.sXhXlXvXNXmXNXNXNXBXZX",
"bXiXiXiXiX8X1X,X(.~.P.B.t.8.+.^ H z H T E T T H ^ 5.9.P e r [ 9.7.1.I [ U.].G.U.i.i.N.+.U u.y.5.5.#.@.%.P.2XfXgXgXNXNXNXcXNXCXZX",
"uXiXrX-X/.W.V.B.y.8.%.@.@.#.~ x z S J E Q S x l H } 7.q.J t / 9.7.1.1.} ^ 2.5.5.5.r.N.r.r.N.i.8.8.8.8.@.M.-XdXfXgXgXvXNXmXNXNXBX",
"rXuX-Xx.y.>.+.] ] ^ ' [ ] T l w x S H H E K S H S K { 9.2.I } 9.7.1.1.5.~ F K ^ #.u.K.N.N.y.T Y ^ 8.h.q.;.!.hXfXgXvXvXNXmXMXBXBX",
"rXrX/.y.O.] ^ ~ ~ T J H K x w l b H S H +.] E E [ 1.#.9.7.7.7.9.7.1.2.1.[ E E +.{ 0.K.N.E l w 5 n O.-.#.] C.2XhXgXvXvXvXmXmXCXmX",
"<XrX-XC.5.&.^ } ] ~ S l x z l S T H x l ~ #.+.] ] ' G J K ] 7.9.5.2.} } ' P E ' -.l.K.-.M _ *.*.k n E ] O.m.=XfXgXgXgXnXmXmXNXBX",
"-X1X1X-XP.>. .$.%.^ S l x x x J T S l x H ^ ~ K r 2 2 1 1 2 H 4.9.4.} } } ~ E ] -.N.l._ =.m C j.$.n %.r.y.t.!.yXlXgXlXvXmXmXNXmX",
"<X<X<X1X-XE.x.e.O.R b l x S x H H l H ~ ~ ~ K 2 2 G x 5 2 t 6 G 7.7.[ ' [ ~ K ~ { l.q.;.*.m C X.x.b y.l.8.e.P.2XgXfXgXlXlXNXmXmX",
"<X1X1XtXrX-XE.x. .D b l x x x x l z H E E ' ] H E q.H 0 z Y l 6 H 7.4.' ~ ' ~ E ' j.j.j.j.C :.o.*.b B.u.@.*.C.>XfXfXgXlXlXmXmXmX",
"=X<XtXtXtXtX=XC. .V b b z l l l w l S H K J K ' -.#.r 0 ` X.Q 2 2 ' 0.{ ~ ~ P E | { e.j.V.X.) ) C ` j.{ ] *.m.(.hXfXkXgXgXlXlXnX",
"=X=XtXtX<X<X<XR. .v k k l k k e S S K ~ ` K K K ' ' r 0 X.e.=.b 1 t [ [ G J K J I K K { V.j.m r ) X.` | ] -.j.).sXhXfXfXfXgXgXgX",
"=X<XtXtXtXtX=XM.B g 4 5 g 5 5 w D J G E ' | K K ` K G z M %.j.R 1 2 t u r S J J L I y u | j.-.K N N G ' ] $.*.Y.2XkXhXhXfXhXhXgX",
"=X=X=X<XtXtX=X>.h g g k 0 5 5 l T ' K r G K | K E K K J N M -.` 5 2 1 2 e u L L I | P y r -.7.y r H ` ' { _ *.Y.2XsXfXgXfXfXdXdX",
").=X=X=X=X<XR.,.h q q a 5 5 l H ^ [ 4.} G y K K K K L G J G ` ' r t t t t r y F y 2.| y y I } { { { } ' | #.h.P.>XhXdXdXdXdXyXdX",
").=X(.=X=X=X>.,.a 3 6 6 3 5 x T ^ ' ' 7.-.| | { ' K K L K | | ' K t t t t t e y y <.P y y I } 7.q.q.1.' ' @.e.m.(.8XfXyXdXaXdXrX",
"^././.=X=XC. .B v g g v b b Y E K J G J { 7.{ | G r G G K | { } K r r r t 7 t u y 2.2.y y I ' 7.q.0.0.7.{ ] _ =.P.3XdXhXaXrXrXaX",
"^.Q.=X/.Q.>.,.Z V V W Q Q Y ^ ^ ~ K r 2 r r y r r r K } } { { } K K y u t 7 u u y y I P y P | 7.q.0.l.0.-.' ] -.B.>XaXfXdXaXaXaX",
"Q.^.^.Q.C.,.B B a 4 g V Y M Y Q S H ~ #.7.7.1.} { { { 1.7.1.} ' | ` G y r t 7 u y I P 2.P 2.7.| { q.l.l.0.e.r.j.k.!.2XpXdXdXdXdX",
"Q.^.^.R.>.a B B k a g g g c b M x 7 S ^ 7.9.0.0.{ 4.7.1.7.7.[ ' | G r y K J t 7 t y 2.P y l.z.| K { q.l.l.l.y.=.%.M.).2XpXdXpXhX",
"Q.Q.!.x.! c a Z Z Z B A b b b z b b E ' ' ~ ' [ { 7.9.7.' | K J N r r r | q.7.r 8 u <.I P U.T.j.{ l.K.z.l.r.;.#.$.:.R.=X2XpXdXhX",
"Q.Q.P.>.c a c B V ! V z j v v b V H T ' ^ E ' ' #.9.0.0.l.0.0.q.{ | K K ' 0.A.0.t t L y 7.T.T.l.{ q.N.K.K.K.K.K.P.P.Z.Q.>XpXpXdX",
"E.E.x.! a a a a c ! !  .C C V W R Q ] O.#.#.#.8.9.u.u.r.0.l.r.7.| G G G ' q.k.V.q.r w l h.Y.Y.V.h.k.V.P.P.K.K.l.:.j.j.M.R.<XtXhX",
"R.E.:.a a p a a B Z v V Z V Z W ! Q @.+.#.8.y.r.u.0.y.i.u.l.r.9.-.' K K ~ -.h.k.k._ 5 Y m.P.Z.Y.K.V.K.K.K.N.l.h.=.:.*.X.t.).3XpX",
"R.x. .a 3 a a p a h A Z ,.$.$.$... ...O.+.8.9.u.u.y.y.r.u.r.y.0.q.=.-.-.8.e.e.e.e.O.v W t.B.Z.Z.P.V.K.K.K.N.j.j.e.j.:.*.:.M.=XtX",
"R.x.! * @ p a a Z Z  .Z Z B C ! Y Q T Q $.9.y.y.0.y.8.8.8.r.q.#.-.{ { #.#.=.=.#.X.W z C =.m.V.V.Z.Z.V.V.l.j.-.-.=.j.j.*.o.o.Q.3X",
"R.x.,.a h B a a a a a i h B ,.,.) .. .Q ! ^ %.8.q.9.e.q.8.8.8.8.8.8.=.=.=.=.=.@.) V g v ..j.m.C.V.V.V.V.l.-.` ` ` $.@.X...C M.<X",
":.>.B a * % @ @ * : d d h B B a j g b R .._ ] 8.y.y.=.#.@.+.#.=.=.@.@.-.=.%.$...C v z m C X.:.m.m.B.B.B.j.] ] @.-.-...R v m :.=X",
"B B a @ @ @ % @ : : i % % % i i j A V C W R b V ] @.%.8.%.O.] O.@.@.@.@._ ) V V V V C o.$.$.;.j.m.m.m.B.j.` _ ] @.@.` R m j o.R.",
"3 * * % % @ @ % % % % % % i i i f j j g g g b b V Q O.$.$..._ _ _ _ _ _ C m m C W ` ..X.*.;.:.t.j.m.B.j.=._ ` _ _ R C M q j A j.",
"* 3 * * @ @ @ @ % i + % i % i i ; % < > p 4 a k V Y Y ....O.@...) ) ) C V V C ) _ ..X.$.*.:.t.m.m.M.h.j._ _ ] @.` V M g q b m o.",
"3 * * * * @ @ % % % i i i i i i < < ; > > 4 5 g 5 3 v R Q  .X.@.X.X.) W ) ) ..) o...$.$.;.:.t.j.m.j.j.*._ _ _ ` R Y x 5 z b V Z ",
"3 3 3 3 * * * * % % i i i i i i i d > > f q 4 5 3 3 4 z M R W ..X.X.) ) ) ..o...o.o.X.$.*.;.:.j.j.e.*._ _ _ ` R R b k l b Y Y V ",
"* 3 * * * * * * i i % % + % % i ; i j p > h c g c g 4 q g k v V ) ) ) ) ) ) ) ) ) X.X.$.$.;.:.:.:.*.X._ ` R M R N w w b D Y Y b ",
"* 6 * & & = * = i % i i i i i i d i i d d p 4 g q 4 4 0 q f q f v V C C ) W W ) ) ) X.X.X.*.$.*.*.$._ _ ` C m m z 0 w H E H b M ",
"3 * & # * * i = % % % % % % % % < = % < ; & # # = # = - 4 4 q 4 4 g z m C V C C C ) ) ) ..X.$.@.$.X._ ) ` m r r 0 0 z R Q H z H ",
"3 : - & & - : ; i % % + % % % i ; ; % < % # + + @ # = - = - , , , , 4 q g z A m C C C ` ) ......) ` C N z r q 0 0 t H ` E M z R ",
"p > : = & & = ; i % i i % % i % ; i ; < % = - = # = - - 4 - , 4 , - - = - 4 q g v m C C ! W Q R M m m z z z r r t z R R H x z E ",
"p : : : < & & = & i i p i i i p p d d p > i g h 4 4 - - f f > > q > , , - - , , , q q t m C m m z 0 z z w z N N N H K R H z N ` ",
"4 > > : < % % < * * i p a a h a f f f j g p h h g f f q q g f q d 4 4 4 , , , , - - , q q 0 0 0 z z 0 w 0 r N m J R R R N w R ] ",
"i i > > ; * ; < ; * i a j a a B h p p p > 3 : : p > > , , f f f , 4 q q q q , , q q q q q 0 q w z z N r z N N R R K R R z w R [ ",
"> i > > * i ; ; ; ; i i i a a i p : - - = : - = - > - ; ; , , > > , > > , , q , , q q q q q q j z 0 r m N M N N M N N N w N ` [ "
};
