/* XPM */
static char *d3890c0c5e284792f2208458998e7fdf6VHNgWp1NQbTSDTo[] = {
/* columns rows colors chars-per-pixel */
"64 64 249 2 ",
"   c #0B0100",
".  c #080103",
"X  c #120400",
"o  c #150902",
"O  c #1C1206",
"+  c #0D0915",
"@  c #140D16",
"#  c #1B131C",
"$  c #18111A",
"%  c #24180D",
"&  c #261819",
"*  c #341A1B",
"=  c #362A1C",
"-  c #312719",
";  c #1D1823",
":  c #231B25",
">  c #241E2A",
",  c #271C26",
"<  c #331F21",
"1  c #2C232C",
"2  c #2B242F",
"3  c #34282B",
"4  c #2C2532",
"5  c #342B33",
"6  c #3A2E34",
"7  c #362D38",
"8  c #3D3136",
"9  c #3D333B",
"0  c #3D3124",
"q  c #473A2B",
"w  c #44373B",
"e  c #4E3532",
"r  c #633027",
"t  c #57483A",
"y  c #4D4235",
"u  c #70493B",
"i  c #3D3743",
"p  c #453A43",
"a  c #473B45",
"s  c #4D424B",
"d  c #4D4245",
"f  c #53454C",
"g  c #554849",
"h  c #554A52",
"j  c #594C55",
"k  c #5C525A",
"l  c #5B5144",
"z  c #664846",
"x  c #66544C",
"c  c #66575A",
"v  c #775A58",
"b  c #73514C",
"n  c #79675C",
"m  c #6F6858",
"M  c #685C64",
"N  c #7C5E60",
"B  c #786767",
"V  c #796C73",
"C  c #766C72",
"Z  c #885855",
"A  c #965546",
"S  c #886A57",
"D  c #94775B",
"F  c #896854",
"G  c #A96B57",
"H  c #B77B5D",
"J  c #AE6750",
"K  c #876B68",
"L  c #887367",
"P  c #967968",
"I  c #887678",
"U  c #937C7C",
"Y  c #997D7B",
"T  c #977A74",
"R  c #9A6F6E",
"E  c #AA7668",
"W  c #B6786A",
"Q  c #AA7773",
"!  c #C67F71",
"~  c #9C8368",
"^  c #9D827C",
"/  c #9B8374",
"(  c #8E8576",
")  c #A5886B",
"_  c #B7846B",
"`  c #A8926C",
"'  c #B4986F",
"]  c #A78A78",
"[  c #B88879",
"{  c #AD9576",
"}  c #B39D73",
"|  c #B3957B",
" . c #B6987B",
".. c #BCA47B",
"X. c #BAA57C",
"o. c #B6815F",
"O. c #C6886B",
"+. c #C88978",
"@. c #C8937B",
"#. c #D5967A",
"$. c #C8A77F",
"%. c #967E81",
"&. c #8A7C81",
"*. c #948182",
"=. c #9B8384",
"-. c #9D8A8B",
";. c #9B8887",
":. c #9A8F8C",
">. c #A28584",
",. c #A48A85",
"<. c #A58B8B",
"1. c #A98C87",
"2. c #AB9488",
"3. c #B89A86",
"4. c #A58C91",
"5. c #AC9493",
"6. c #AA9798",
"7. c #B49B9B",
"8. c #B49995",
"9. c #B78987",
"0. c #BDA28B",
"q. c #BCA786",
"w. c #BBA599",
"e. c #ACA497",
"r. c #B49DA1",
"t. c #BAA7A5",
"y. c #BDB4A9",
"u. c #C89A87",
"i. c #D39988",
"p. c #C89B96",
"a. c #CB8D84",
"s. c #C3AC84",
"d. c #C4AC8C",
"f. c #C6A38A",
"g. c #D7A48C",
"h. c #C8B28C",
"j. c #C7AA96",
"k. c #D8A996",
"l. c #CBB493",
"z. c #CDB49B",
"x. c #CAB798",
"c. c #D3BC9C",
"v. c #D9B59A",
"b. c #E3A689",
"n. c #E4A998",
"m. c #E8B898",
"M. c #E9B38F",
"N. c #C4ACA8",
"B. c #D6ACA6",
"V. c #CCB4A4",
"C. c #CCBBA3",
"Z. c #CDBBAB",
"A. c #C7B5A9",
"S. c #D3B4A3",
"D. c #D3BCA4",
"F. c #DBBDA4",
"G. c #D3BCAC",
"H. c #DAB7A8",
"J. c #CCB8B4",
"K. c #D2BDB3",
"L. c #D7BDB8",
"P. c #C5AEB1",
"I. c #E3B9A6",
"U. c #E6B8AF",
"Y. c #E09F83",
"T. c #D4C19E",
"R. c #E7C29F",
"E. c #CDC1AB",
"W. c #D6C2A3",
"Q. c #DBC3A5",
"!. c #D4C2AC",
"~. c #DBC4AC",
"^. c #DDCAAB",
"/. c #DCC8A6",
"(. c #CDC2B3",
"). c #CDC4B9",
"_. c #D5C3B4",
"`. c #DAC4B3",
"'. c #DDCBB3",
"]. c #D5C3B9",
"[. c #DBC5BA",
"{. c #DCCBBC",
"}. c #D6CABC",
"|. c #DED0BE",
" X c #E3C3AC",
".X c #E2CDAE",
"XX c #E6C5A7",
"oX c #E4C5B3",
"OX c #E3CCB3",
"+X c #ECCBB4",
"@X c #E3CCBC",
"#X c #EAC7BA",
"$X c #F2CBB7",
"%X c #E5D2B5",
"&X c #E5D2BB",
"*X c #EAD5BC",
"=X c #ECD9BD",
"-X c #EBD3B6",
";X c #F3D5BB",
":X c #F1CBAC",
">X c #DBCCC3",
",X c #D8C7C2",
"<X c #DDD1C4",
"1X c #DAD3C8",
"2X c #E2CEC4",
"3X c #E3CDCA",
"4X c #EBCDC4",
"5X c #E4D4C3",
"6X c #EAD5C3",
"7X c #ECDAC4",
"8X c #E3D3CB",
"9X c #EDDCCB",
"0X c #E8D8CA",
"qX c #F1DDC4",
"wX c #F1DDCC",
"eX c #F6D6C6",
"rX c #EBD4D2",
"tX c #ECDCD3",
"yX c #E7DAD4",
"uX c #F2DCD3",
"iX c #F7DDDA",
"pX c #F4CCC9",
"aX c #F4E2CC",
"sX c #F9E5CE",
"dX c #F4E4C8",
"fX c #ECE2D3",
"gX c #EBE3DA",
"hX c #F4E4D3",
"jX c #FAE5D5",
"kX c #F5EAD4",
"lX c #FAEAD4",
"zX c #F4E3DC",
"xX c #FBE5DB",
"cX c #F5EBDB",
"vX c #FCEBDC",
"bX c #FCF2DD",
"nX c #FCF1D6",
"mX c #EEE1CA",
"MX c #FBE6E2",
"NX c #F6ECE4",
"BX c #FDECE3",
"VX c #FDEEEA",
"CX c #F6E4E1",
"ZX c #FEF2E3",
"AX c #FDF3EB",
"SX c #FEF9EE",
"DX c #FFF8E5",
"FX c #FEF5F1",
"GX c #FFFCF3",
/* pixels */
"G.Z.V.A.Z.Z.K.(.Z.K._.K.K.K._._.K.`.[._.[.5X>X].,X1X(.|.}.<XE.|.5X'.}.|.}.<X|.1X|.(.1X<X}.'.5XE.W.!.~.!.!.E.E.!.W.C.W.Q.D.!.E.C.",
"V.V.V.Z.G.A.A.N.Z.Z.K.K.K.K._.[.[.2X{.[.{.(.K.8X}.(.}.1XE.(.7X{.|.}.mX|.}.<X|.(.}.1X(.|.7X|.!._.~.!.!.!.(.!.!.!.~.c.T.c.z.C.(.E.",
"G.G.G.H.G.G.K.G.Z.Z.K.(.K.K._.[.G.`.K.{.5X>X2X>XgXyX9XmXkX|.|.mX&XaX<X|.1XkXfXgX0XDX5X5X}.|.!.^.^.!.!.!.!.!.!.!.W.v.XXXXF.D.!.E.",
"j.V.S.S.V.V.S.G.G._._.]._._._._.`.@X[._.,X5X}.m t q y 0 t |.{.n q = n mX(.q q t t y y }.5X5X_.!.~.~.`.`.!.!.D.c.XXT.:X.XXXQ.!.x.",
"H.H.S.v.z.B.H.G.F.L.`.`.}._._._.@X@X@X[.K.>X_.o . = = - y |.t X q = o y y.- = . . - q (.|.&X`.!.!.~.oX`.!.D.~.XX:XR.R.R.v.XXQ.D.",
"k.v.oX$XeX$X XS.H.G.G.`._.}.}._.[.G.[.2X_.{.<Xo y fXNXgXfXmXo 0 mXDXx t fXbX1X% 0 cX9X5X_.{.`.~.~.~.~.`.~.~.OX+X:XR.R.R.m.c.F.v.",
" Xv.u.3.f.v.+XeXoXoX`.`._.{.}._.2X@X{.5X{.].>XO O t y y ( mXl . . t ] fX}.).fX% - hX1X5X9X&X!.`.`.~.~.~.oXOX+X:XR.M.R.m.M.v.v.z.",
"v.j.u.3.u.k.k.z.;X-XoX~._._._.{.L.6X`.K.<X}.>XO X 3 - O m fXfX( q . . y fX1X1XO 0 9X}.|.{._.@X!..XQ.~.oX-X$X:Xm.R.M.m.M.f.g.v.XX",
"F.S.[ [ f.u.k.v.k. X;XeXoXG.`.{.`.@X`.5X,XK.8XX y cXgXNXfX).m e.cX1Xl . t.yX1XO 0 fX}.}.7X'.G.~.oX~. X+X+XI.v.m.M.M.#.$.#.$.R.R.",
"k.g.3.) u.g.g.g.k.I.oX$XeX4X@X[.@X&X[.`.{.5X1XO % y.:.( y.).. % :.).- . >X1X1X% = fXfX&X{.{.&X&XoXOX$X$XI.v.n.M.#.M.#.#.O.R.R.T.",
"H.j.j._ _ f.u.i.g.g.k.I.#X$X4X#XoX[.{.[.>X{.y.- . . O . . 1X:.. . . o ( yX1XyX. q }.<X0X[.!.`.D.-X$X:X:Xv.v.n.b.M.#.#.o._ v.c.W.",
"H.H.S.| E a.i.g.n.k.I.I.U.#XeXsX4X[.@X`.2X<X8Xt.e.e.y.y.y.).1X).e.:.(.1X1X).fXJ.y.fX5X9X&X#XqXeXsX$XI.I.I.m.b.Y.#.#.o.o.$.v.D.G.",
"G.H.S.j.[ E u.g.n.n.n.I.I.U.#XpXxXwXwX@X{.).1X1XgXgX1X1XgX1XyX1XgX1XgX1XNXGXgXZXSXSXxXZXvXvXvXsX:Xv.k.k.n.g.i.#.#.O.H _ k.Q.D.G.",
"N.`.H.I.u.E W +.i.i.i.i.k.k.B.H.oXwXvXjXAXSXAXAXgXSXgXSXGXGXgXGXNXNXGXGXNXAXGXSXzXvXDXDXbXbXaXI.n.g.g.g.Y.i.#.#.#.H H ' v.~.G.(.",
"Z.L.K.U.B.+.G E +.a.i.n.n.k.I.I.#XjXxXwXcXZXNXAXGXGXGXGXgXGXGXGXGXGXNXGXGXNXVXAXNXzXZXxXwXsX6X~.g.k.k.k.n.b.M.#.O.J _ $. XC.(.Z.",
"Z.V.K.Z.U.p.E W ! ! a.a.i.g.B.U.L.wXjXZXZXBXNXGXGXSXGXGXGXSXGXNXSXGXGXAXAXAXAXVXSXfXvXZXvXwXoXF.u.f.i.#.Y.M.b.O.O.J O.g. XC.E.(.",
"B.K.Z.V.C.!.j.[ a.n.n.U.U.n.U.B.rXtXxXxXBXAXAXAXAXSXGXGXGXGXGXGXFXFXFXAXVXBXVXBXZXBXvXxXvXjXwX#Xz.u. .u.+.W J J ! #._ k. XC.Z.(.",
"B.V.Z.C.Z.`.H.j.9.! ! a.a.a.B.B.rXiXcXCXBXAXAXAXAXFXGXSXGXGXGXGXGXFXAXNXBXBXBXxXxXxXvXjXjXjXuX9XF.j. .W G A A J H ! +.k. XD.E.E.",
"G.G.!.Z.!.`.L.I.%.W Q ! a.p.B.,XyXzXCXMXNXAXAXAXAXFXGXGXGXGXSXAXGXAXAXAXBXBXBXvXvXBXBXvXjXuXwXwX7XoXk.u.+.! H A J ! @.k.Q.T.E.T.",
"G.H.!.!.E.D.L.oXp.Q ! i.p.B.#XpXiXzXCXCXMXVXAXAXAXFXFXFXSXFXAXAXAXAXBXAXZXBXBXvXvXBXvXxXjXhXwX0X7X$X#XoX$Xm.+.G H #.k.m.D.E.E.C.",
"H.D.C.E.!.!.`.oXU.9.p.B.B.4X6XhXiXCXMXVXVXVXVXFXAXFXFXGXGXAXAXAXAXbXNXbXZXxXkXvXvXvXvXxXvXvXjXhX4X6X4X#XI.v.u.)  .f.v. XD.D.C.C.",
"G.H.C.!._._.`.`.#Xp.p.B.U.4XuXzXCXCXMXMXMXMXVXAXAXAXFXFXAXAXNXAXNXbXbXDXZXvXvXBXxXvXvXvXvXvXvXjXjXiX7XoXH.S.f.] [ u.c.W.D.!.E.C.",
"D.!.!.!._._.K.G.#XB.p.B.3XrXzXxXMXxXMXMXMXBXMXAXNXZXDXSXNXNXNXDXbXnXkXbXvXxXhXjXjXvXvXBXvXvXvXxXvXxX0X5X6XOXD.0.d.0.W.E.x.!.D.C.",
"z.Z.!.Z.G.`.`.`.L.H.7.V.pXrXMXcXMXCXBXBXBXvXBXVXNXbXNXSXNXNXbXbXbXkXsXlXaX5X{.2X6XuXvXvXvXbXZXZXBXZXZXBXlXkXaXaX7X!.'.~.C.W.C.C.",
"V.Z.G.K._.}.`.L.[.K.H.,XrXiXMXBXxXjXxXAXxXhXvXhXxXcXvXbXkXmXfXkXnXdX0X!.x._.5XtXtXvXhXvXbXvXDXvXAXAXDXZXDXbXnXbXnXnXkX^.E.T.x.y.",
"Z.V.A.Z.Z.Z.G._.L.K.L.3XxXVXCXzXtXwX0X6XhXjXhX7XkXlXvXlXkXdX5X&X!.Q.x.j._.9X9XhXvX|.hX>X_.wXlXZXBXZXZXZXbXbXbXbXbXkXmXkX%XE.E./.",
"[.G.A.G.K.K.K.[.L.L.L.rXMXMXCXiX9XuX@XG.K._.{.wX9XsXnXlXkXdX}.x.d.q.0.D.`.G.j.e.n L t x A.ZXDXvXvXvXbXZXDXbXbXbXnXkXkXnXkX_.y.x.",
"N.N.A.A.J.K.].L.K.].3XiXMXCXiXMXxX6X2XL.A.0.2.w.&XaXnXlXdXmX!.0./ ~ 2.3./ L n y % X o L ZXvXlXZXvXvXcXkXcXbXcXkXkXkXnXkXkXdXE.} ",
"A.}.[.].K.L.K.J.K.,XtXNXMXuX3X2XN.2.t.N.8.8.2.] G.0XvXlXaXwX#XC.0.f.P t t b B x % X L hXZXjXdXbXlXlXaXaXaXkXkXkXaXlXkXdXkXnX%Xw.",
"I ^ 5.8.w.N.Z.K.,XyXzXMXMX3X7.T K K K b t K 1.N.K.6XxXjXjXjXwX6X`.S.u r S n v n m 2.iXBX5XkXvXmXsXaXqX0XwXaXaXjXkXhXaXaXdXlXdXmX",
"x x x x g g b B >XyXzXzXzX3X8.n K K N * X * z L.[.rXxXxXxXvXxXjXZXz.e t P n T y.tXGXtXhXxX&X9X7X7XqXqXqX6X7X7XqXaX0X9XkXaXaXkXbX",
"d q w w e e z I >XiXCXyXtXuXJ.1.c v x < & o e L.rXiXMXBXvXBXvXxXsXL.j.@X2X2XAXBXMXzXvXfX9XkX&X*XqXqXqXqX*X*X#X*XqX7X7XqXkXaXaXnX",
"3 3 1 w 6 4 N P.3X,X,X3XrX,XL.,XJ.7.4.I M V -.r.iXCXFXVXMXAXCXZXxXeXuXvXjXxXZXBXZXvXhXaXaX7X*X&XOX7X;X%XQ.W.W.W.'.*XqX7XqXwXkXkX",
"1 4 , * 6 a K 7.,X,XL.,X3X3X3XrXiXrXVXVXCXCXCXCXMXiXMXMXAXZXcXvXxXwXhXbXBXbXZXcXcXcXjXaXdXdX=X=X*X;X*XOXQ.T.c.c.W.^.%X7XdXaXjXxX",
"# , , @ 9 K &.%.J.J.J.J.,X3XrXMXiXiXMXCXCXCXiXrXrXMXAXMXxXxXjXxXcXwXhXZXZXZXbXhXhXhXkXaXqXqX=X;X-XOX.XXX/.T.T./.%X'.=XmXaXaXjXvX",
"# # , # 7 M V %.P.P.t.t.L.3XrXMXVXVXFXVXVXVXMXiXMXMXMXMXBXBXxXuXxXhXxXvXvXbXxXfX7X6X&X&X*X*X-X.X/.c.c.c.T.T./.^.-X*XdXdXaX7XaXlX",
"# @ > # 7 j j &.t.t.t.r.J.pXrXiXiXVXVXFXFXFXMXrXiXiXiXiXMXpXeXwXhXxXZXZXZXcX9X5X{.`.W.!.Q./.T.T.l.h.q.h.l.T.T./.^.%XqXaX0X0XaXvX",
"+ @ ; @ 4 a a K 6.r.t.r.P.3X3X3XrXiXCXMXCXVXMX3XL.pXpXpXU.#X$XH.{.hXBXvXvXcX0X5X{.!.C.x.c.c.l.h.s.$.X.h.h.l.T./.^.%XqXmX6X6XkXZX",
"+ @ + + > 7 a h &.r.r.r.r.P.J.B.J.3XrXVXVXMXiXB.P.U.k.p.n.U.I.3.[.wXhXfXjXkX5X|.'.^.W.c.l.l.$.X.X...s.h.h.T.T./.^.=XmX*X*XfXxXZX",
"+ + + + ; @ ; 7 V %.r.6.%.5.r.r.t.J.L.rXCXiXrXB.%.9.p.n.W u Z 9.wXBXxX9XwXfX|.`._.^.~.T.l.$.X.X...$.h...$.T.T.T.^.&X7X&X0XvXZXZX",
"+ ; ; + ; ; ; ; M r.r.4.4.4.4.4.r.r.J.3XrXCXCXL.Z Z Q ! u r Q eXjX0X5X6XhXkXwXaX&X~.W.Q.T.$.X.$...$.X.X.X.q.l.W.|.!.~.mXbXZXbXZX",
"$ + + > 4 4 4 4 k :.6.4.4.4.4.%.6.r.J.,X,XrXrXL.%.Q Z Z A Q n.pX#X~.Z.Z.!._.'.&X&X*X.Xc.h.h.h.$...} ` X.X.d.T.^.'.'.&XkXZXZXZXZX",
"i > > 4 i i i p C *.:.:.6.4.6.7.r.r.L.,XL.L.L.P.p.%.Z r Z p.B.p.j.j.V.G.'.@X&X7X=X%X.Xc.h.X.X.X.} } X.X.l.T.^.'.%XmXkXbXZXZXZXDX",
"i i i i 7 a a p k &.-.:.4.4.4.4.4.5.N.P.r.r.r.9.p.%.Q Z Z a.a.p.V.D.oXOXOX'.'.`.-X.XT.c.h.X.} } ' } ..h.T.W.'.OX7XkXbXDXZXZXZXZX",
"i s s i 4 4 7 4 3 C :.6.6.t.t.5.5.7.t.N.P.t.t.r.9.%.%.Z K [ 1.3.3.3.0.3.3.3.0.x.~.^.W.q.q.h.X.` ` } $.T.c.c.~.&XmXvXDXAXbXNXDXbX",
"i i i s p 7 w h C *.:.t.t.5.<.^ 1.1.5.6.6.r.5.5.p.%.Q b z S R { 3.3.0.0.0.x.G.^.D.T.T.q.q.q.X.X.} ..h.h.z.D.&XkXvXvXbXcXbXbXcXcX",
"h i s k k k M C M h g L ;.;.5.7.5.5.1.4.6.8.4.<.%.%.K u b b L / ] | | 3.0.q.d.q.x.q.3.q.q.} } q.s.s.h.T.Q.OXaXvXvXcXcXbXbXcXcXgX",
"C M M C C M s 9 4 y d h c I 6.<.<.1.>.%.4.4.%.%.%.K r z v z b b D D E ) | 0.0.3.| q.q.q.X.} } } l.d.h.T.*XdXsXkXlXxXcXbXbXkXgXkX",
"M C V C h a a a M a 4 & w M I &.*.*.-.:.;.;.%.%.Z v v Z K L L L S D D ) )  . .' { X.h.} ` ` ` } q.x._.=XaXbXvXaXjXlXhXkXhXhXhXfX",
"M M k h a j h j p 7 5 a 7 , a &.V *.-.-.<.=.%.Y K I T T T P P ) { { | {  .u.3.'  .` ` ` ` } { ` 0.!.mXfXaXkXlXjXkXaXaXaXhXqXaXdX",
"j j h k M j a p 4 p p 1 $ : 9 f I U *.%.%.*.=.%.Q >.<.<.,.] ,.3.|  .3.|  . .' ) ) ) ` ~ ~ ~ X.q.E.*XkXnXdXaXkXhXhXaXwX9X9X9XmXaX",
"a a k M M a a p a p , , # $ > 7 M V *.%.U %.=.%.,.%.>.1.1.1.] { ] ] ] ) ] ) ~ D D D ~ ~ D ` h..X&X7XdXaXjXlXaXdXwXdX9X7X7X7X7X9X",
"a a a M M a a j s 5 1 8 1 + . 1 < j I ;.>.%.%.%.%.%.T Y ] ] ^ / ] ] ) / ~ D D D F D ) `  .x..XdXqX7XqXdXjXlXaXqX7X*X7X5X7X7X5X7X",
"a a a j M a a a 9 9 7 1 1 : # o @ 3 c K &.%.%.%.%.%.Y Y T T / ^ ] / P D F F F v F D  .l.Q.-X=XqXmXaXaXaXaXaXqXdX7X7X=X7X7X7X7X7X",
"h a i j M a a p p 7 1 2 1 1 ; $ & & 6 a B I %.>.>.>.>.>.Y T T ] P L S S F v F S D / l.XX.X%X&XdXdXkXaXaXaXdXaXdX7X7X=X=X*X7X7XqX",
"a a 4 a k a a p 1 3 6 1 : # $ $ & @ # e M I I I %.Q Y U T T L T P L S L D P ] | | | z.W.~..XOX*XsXaXqXaXsXsXdXdX=X|.&X%X'.&X*X7X",
"w 6 w w a j * a 2 , 1 5 , : : ; ; @ @ 9 m I I U T U T Y T T T T P / / ] / ] { ] | d.D.z.z.C.%XdX&X7XdXsXdXdX=X=X=X%X^.^.'.%X=XdX",
"6 6 5 6 a f 4 a 9 2 , 1 : : : ; ; @ O 9 M I I U U %.^ ^ Y Y Y Y ^ ] 1.] ] 3.3.3.0.j.z.D.F.'.&X6XqXqXsXsXdXdX=X=X.X^./.^.^.&X=X7X",
"p a 6 6 p a a a w 5 , > ; : : # # @ @ 5 c I I %.%.=.=.>.>.>.,.>.,.,.1.] 2.3.0.f.f.0.l.F.@X&X#X&XwXwXsXsXdX=X=X%XT.T./.W.^.%X%X&X",
"g c w w a a a a 9 2 > 1 > : : # @ $ @ : h V *.&.%.=.;.<.>.,.1.>.1.2.2.| 3.3.0.d.3.d.z.~.^.~.'.5X7XwXdXdXqX-X%X.XT.T.T.T./.^.%X&X",
"w g w w p p j a 7 1 4 4 > : > ; + ; @ $ p V *.U *.;.>.>.>.<.<.<.2.2.8.8.0.j.d.j.l.z.Q.OX'.~.'.5X4X7X6X*X=X.X/.T.W.h.h.T./.^.%XdX",
"1 w w 3 5 w a a a w p 4 > > > > ; > $ @ 5 k I *.;.;.<.<.<.5.5.8.5.8.0.j.j.j.z.c.c.c.c.Q.OX%X&X6X5X@X4X&X'.^.W.T.T.h.q.T.^..X-XdX",
"3 w w 3 5 5 a a a a i 7 4 4 4 > ; > & @ : 8 c *.;.<.<.1.4.6.7.7.8.0.7.j.z.z.D.F.XX/./.Q.OX*X7X5X5X@X#X%X.X/.T.T.T.T.h.x./..X%X%X",
"5 8 f 8 w p k a a p 7 i i 7 4 > 2 ; ; $ @ # d U =.;.<.5.5.8.7.w.w.w.j.j.z.c.W.+X-X=X;X%XOX&X*X6X6X5X@XOX/.T.T.q.T.T.h.l.Q.%X'.x."
};
