/* XPM */
static char *cover3__3__resized[] = {
/* columns rows colors chars-per-pixel */
"64 64 228 2 ",
"   c #010101",
".  c #090807",
"X  c #0C0C0B",
"o  c #070707",
"O  c #110E07",
"+  c #13120E",
"@  c #1A150C",
"#  c #141413",
"$  c #1B1A15",
"%  c #1C1C1B",
"&  c #191712",
"*  c #0D0C10",
"=  c #221D19",
"-  c #281917",
";  c #321E18",
":  c #1F211A",
">  c #24231D",
",  c #2A241B",
"<  c #29261A",
"1  c #33231B",
"2  c #312A1F",
"3  c #342419",
"4  c #1F1F20",
"5  c #221F21",
"6  c #252422",
"7  c #2A2622",
"8  c #2C2A24",
"9  c #2D2C2B",
"0  c #272824",
"q  c #332C23",
"w  c #3C2B23",
"e  c #312E29",
"r  c #3B2A24",
"t  c #353126",
"y  c #35322C",
"u  c #3B352B",
"i  c #3D392E",
"p  c #3A3327",
"a  c #353432",
"s  c #3A3632",
"d  c #3D3B34",
"f  c #3E3D3B",
"g  c #383639",
"h  c #2F302F",
"j  c #402D25",
"k  c #44332A",
"l  c #47372B",
"z  c #423D33",
"x  c #4C3E33",
"c  c #423E39",
"v  c #453B34",
"b  c #513D34",
"n  c #454135",
"m  c #4B4234",
"M  c #44423C",
"N  c #4B453B",
"B  c #4D4A3E",
"V  c #534234",
"C  c #53443A",
"Z  c #534B3D",
"A  c #5B4A3C",
"S  c #58473B",
"D  c #5D513F",
"F  c #444342",
"G  c #484641",
"H  c #4C4B43",
"J  c #4C4C4B",
"K  c #474A48",
"L  c #524D42",
"P  c #5D4C40",
"I  c #514F4A",
"U  c #555245",
"Y  c #5A5344",
"T  c #55534B",
"R  c #5A554A",
"E  c #5D5A4E",
"W  c #5F5946",
"Q  c #555553",
"!  c #5D5B52",
"~  c #5C5C5A",
"^  c #575855",
"/  c #4E504F",
"(  c #614F43",
")  c #645C4C",
"_  c #665849",
"`  c #615E52",
"'  c #6B5E52",
"]  c #66604D",
"[  c #656255",
"{  c #6B6355",
"}  c #666459",
"|  c #69665A",
" . c #6C6A5D",
".. c #6A6856",
"X. c #736B5C",
"o. c #76675A",
"O. c #6E6C61",
"+. c #686866",
"@. c #716E62",
"#. c #7C6E63",
"$. c #757265",
"%. c #7A7265",
"&. c #767469",
"*. c #79756A",
"=. c #7D796D",
"-. c #7E7C71",
";. c #7B7C7B",
":. c #757573",
">. c #816F63",
",. c #847569",
"<. c #837B6C",
"1. c #847969",
"2. c #827E73",
"3. c #887D71",
"4. c #967B6F",
"5. c #7F8076",
"6. c #858175",
"7. c #8B8374",
"8. c #8D8876",
"9. c #868379",
"0. c #8A857A",
"q. c #8D897C",
"w. c #87887E",
"e. c #928B7D",
"r. c #928879",
"t. c #8C8674",
"y. c #7F8284",
"u. c #848583",
"i. c #8D8C82",
"p. c #8B8C8C",
"a. c #938D82",
"s. c #938B85",
"d. c #8F908C",
"f. c #959285",
"g. c #999286",
"h. c #94938A",
"j. c #9B958A",
"k. c #9D998D",
"l. c #9B9987",
"z. c #939594",
"x. c #9C9B93",
"c. c #9C9C9B",
"v. c #989794",
"b. c #8E9393",
"n. c #A29B8D",
"m. c #A19E95",
"M. c #B99B8F",
"N. c #9EA09F",
"B. c #A5A296",
"V. c #A4A39C",
"C. c #AAA79C",
"Z. c #9DA0A0",
"A. c #A4A5A4",
"S. c #ABABA3",
"D. c #AAACAA",
"F. c #B4AEA3",
"G. c #AEB1AD",
"H. c #B3B1A5",
"J. c #BBB1A6",
"K. c #B4B4AB",
"L. c #BAB5AA",
"P. c #BCB9AD",
"I. c #ADB3B4",
"U. c #B3B5B4",
"Y. c #B7B8B6",
"T. c #BCBCB4",
"R. c #B4BABA",
"E. c #BCBCBB",
"W. c #B4B5B8",
"Q. c #AAAFB4",
"!. c #C4A698",
"~. c #C1BBAF",
"^. c #C3BDB3",
"/. c #C8BCB4",
"(. c #CCB0A5",
"). c #BEC0BD",
"_. c #BFC1B4",
"`. c #C4C1B5",
"'. c #C3C4BC",
"]. c #CBC6BA",
"[. c #CCCABE",
"{. c #C8C3B7",
"}. c #D3CABD",
"|. c #EAC6B7",
" X c #F1CBBA",
".X c #BBBEC1",
"XX c #BCC1C2",
"oX c #C3C4C4",
"OX c #CBCBC3",
"+X c #C5CBCB",
"@X c #CBCCCC",
"#X c #C4C6C6",
"$X c #D2CEC3",
"%X c #CED0CB",
"&X c #C7D1CF",
"*X c #D5D2C6",
"=X c #D4D3C9",
"-X c #D9D6CA",
";X c #DDDACE",
":X c #D8D4C7",
">X c #CCCFD1",
",X c #CDD3D4",
"<X c #CFD4D9",
"1X c #CFD8D8",
"2X c #D2D4D4",
"3X c #D3D9D4",
"4X c #DEDCD2",
"5X c #D3D6DA",
"6X c #D4DBDC",
"7X c #DADCDB",
"8X c #D8D5D0",
"9X c #E9D4CA",
"0X c #E2DED2",
"qX c #F2D1C4",
"wX c #DDE2DE",
"eX c #E5E2D6",
"rX c #E6E3DA",
"tX c #E9E5DA",
"yX c #ECE8DD",
"uX c #F7E6D6",
"iX c #D9DEE0",
"pX c #DCE2E2",
"aX c #E6E6E3",
"sX c #F3EEE4",
"dX c #F4EDE5",
"fX c #FAF3EB",
"gX c #F6F1E8",
"hX c #FFFFF3",
/* pixels */
"I.Q.Q.I.I.^ f y.R.D.I.D./ K A.Y.U.E.Y.+.9 6 9 +.Y.E.U.).Z.K K K J J J +..X6X2Xu.K Q Q Q Q ^ ~ I V.$X^ Q oX0X=XsXK.I O.OX$X$X$X$X",
"I.I.I.U.I.#   4 U.I.U.Z.    N.E.R.U.9           9 D.Y.).h.              # I.aXK                 9.$X    ^.dX0XfXh.  * [.:X$X$X$X",
"W.I.I.R.I.%     ;.E.U.A.X   A.Y.).f     # f %     g ).).z.    # % $ *     f aX+.* 6 &     % > # v.=X    ^.gX0XfXv.  % [.:X$X$X$X",
"W.W.I.R.U.%     0 R.U.A.o   A.#Xp.    F R.oXE.J     u.@Xz.  o c.Y.I.U.F   # XX<XoX@Xz.  o Y.3X0XdXOXo   ^.fX0XgXv.  $ OX:X$X$X$X",
".XR.I.).I.%       y.oXZ.o   A.+X/   & W..XU.E..X%   F @Xz.    c.E.K.oXp.  o R.5X#X8Xc.  X .XaX0XgX@Xo   ^.gXeXfXj.  $ [.-X*X$X$X",
"R..XR.I.I.%   *   9 oXA.o   A.oX9   K #XW.E.W.#X^   6 oXz.    D.@XoX%X+.  # oX2XOX2Xc.  o /.0X9X9X/.    ~.uX9XdXv.  % OX:X:X*XOX",
".XXXR.R.XX#   ~     b.U.o   A.E.%   +.#XY.E.W.@X:.  # R.c.    ~ +.+.^ *   F pX@X@X2Xc.  o ^.aX}.|.M.o   = 7 , 8 %   $ OX*X*X*XOX",
"XX.X.X.XXX%   z.g   g U.o   D.Y.#   :.@XE.E.^.#X;.  X U.c.              # E.5X>X+X2Xc.  o .XtXe.4.(.o               # [.-X*X*X$X",
"XX.X.X.X.X%   c.p.    u.#   A.E.&   +.@XR.E.E.#X;.  * U.c.    5 #     K .X7X2X>X@X2Xm.  . OXC.C S g.X   b _ R O.M   $ OX-X*X*X$X",
"XX.XoXXX.X%   b.&X6   9 #   A.+X6   ~ @X^..XE.@X+.  % oXc.    A.Y.a   & A.7X<X2X@X8Xc.  X x.) P D 7.X   !.qX XhXm.  $ OX-X*X=X:X",
"XXXX.XoXoX%   b.1Xy.      o A.2XF   0 #X.XE.E.@X9   a >Xv.    A.@XD.o   9 iX5X2X>X2Xc.  . Z V D D <.*   M.|.(.fXh.  % $X-X:X:X=X",
"#X#XoXoXoX4   z.+XXX4       D.8X;.    :.7X>X5Xu.    :.5Xv.    D.oX@X~     v.aX2X@X2Xc.    p S ) ) <.X   M. X|.gXs.  $ OX-X:X=X*X",
"+X+X#X#X.X5   z.+X>X;.    o D.+X.X%     Q u.~     X Y.2Xc.  o A.#XoXW.*   h wX2X@X8Xc.    m _ ] _ 7.X   M.|.9XfXf.  % $X;X-X=X:X",
"#XXX+X+X+X%   z.>XoX#X%     D.OX>XZ.              z.>X@Xc.    D.@X^.2X+.    d.aX@X7XV.    m D ) W 0.o   J.9X9XdXi.  + *X-X-X=X:X",
"+X+X+X+XXXg * Z.,XXX2X;.o 6 D.OX^.2XA.a X   . h c.8X#X>XA.$ = D.E.A.m.m.9 + J 3X@X4X:.  X m W _ _ n.9 # OXgXyXsXv.X y *X-X-X=X=X",
"#X+X+X+X+X+X#X+X+X>X@XE.2.K.,XOXoXoX2X2XU.A.K.>X2XOX@X@XE.U.K.V.v.0.O.-.V.c.c.T.=XA.P B Z Z ) ] D {.fXaXsXsXsX4X;X-X;X;X-X-X-X-X",
"&X+X&X+X&X>X>X&X@X@X,XE.9.=.'.2X>X+X'.#X2X8X@X@X@XOX'.V.V.B.k.a.g.g.2.@.=.@.U -.d.} ..E D D { X...[.gXgXgXgXsXwX;X0X0X;X;X-X-X-X",
"&X>X&X+X&X+X&X+X&X+X&X+Xc.{ ;.^.2X@X@X#X#X#XOX@X).V.x.d.m.k.l.g.e.g.0.@. .@.T ! ` O.X.U D ) ] ] X.-XtXtXyXsXyX;X0X0X0X;X;X;X-X-X",
">X>X&X&X&X&X>X&X@X,X>X@XA.@.R %.K.2X>XoXU.D.S.j.9.0.f.k.l.g.f.e.r.t.7.%.} } ] L Z $. .R B W ) _ =.0XrXeXeXeXeX0X0XeX;X;X;X;X;X;X",
">X>X<X&X,X&X>X<X,X<X,X,XK.3.' X.=.m.S.v.s.2.@.' $.6.q.e.e.8.t.8.t.t.7.=.X.! R z u E [ B n B Y Z r.;X0XrXeXeXeXeXeX0X0X;X;X;X;X;X",
",X,X1X,X,X<X,X,X%X<X<X,XoXx.*.%.$...} $.3.&.H L [ $.6.7.t.t.t.7.3.7.1.1.%.) U i t U U N n N Z Y a.:XeXeXeXeXeXeXeX0X0X;X;X;X;X;X",
",X1X,X,X,X,X1X1X,X,X<X<X@XK.9. .} E B ! @.} i n E  .6.6.1.t.t.7.7.t.8.<.%.` H n i n N i q t B Y 7.^.0XeXeXeXeXeXeXeX0X0X0X0XeX;X",
"<X5X,X5X,X1X,X1X5X<X<X5X,XU.u. .E B B Z E R u v Z } =.6.7.7.8.8.8.r.8.7.*.{ Z B n p < O X O < z ` B.:XeXtXeXeXeXeXeXeX0XeX;X;X0X",
",X<X<X,X1X1X,X1X,X,X2X2X+XD.*.} T n z n N N v n m ] %.%.7.6.7.e.e.r.e.7.<.X.R B p &     X O O 2 N X.l.].wXeXtXeXtXeXeXeX0XeX0X0X",
"5X<XiX<X,X6X1X,X1X5X2X5XXXb.O.! F 6 & & 0 u a n B U  .=.3.0.8.r.8.8.e.e.8.$.[ Z <   o + 0 d 8 @ t p n E 6.L.eXeXtXtXeXeXeXeX0X;X",
"5X<X<X<X6X3X6X6X6X5X5X,XG.:.` B 0 X X X * $ > u B B ..6.0.0.8.7.7.7.e.e.r.1.X.Z .   o . X : U $ < p 2 2 2 N 9.*XeXeXtXeXeXeXeX0X",
"<X<X<X1X5X5X5X7X5X5X#XA.&.^ U u # % 6 & * o + > n U ..7.0.q.0.7.6.8.e.e.e.6.%.M   X . . o o y < < m i i u t n l.-XeXeXeXeXeXeX0X",
"1X<XiX6X6X6X6X5X5XU.&.T B z u > a g 4 # $ $ X + y R O.8.0.e.r.3.7.8.e.e.f.8.6.z . . o       0 $ @ Z n 2 l N n ..`.eXeXtXeXeXeX0X",
"5XiX6XiX6X6X6X5XD.` c v u y < > ~ % # * # 4 # & > B $.0.i.f.e.q.r.e.e.e.g.a.a.Z @ +       X < O < B u i n n n n C.tXeXyXeXeXeX0X",
"6X6X6X6X6X,X,XR.+.f s c d i 2 0 ^ X * * * # : : + n &.i.f.f.f.a.e.a.0.a.g.l.g.X.< : & o . $ @ @ M N N L B B n i 8.}.eXyXtXeXeX;X",
"iX6X6X6X6X1X,Xb.K c c F v v d $ y X X X o X 4 > + i -.j.k.k.l.j.j.l.g.g.j.g.k.8.p < < $ & $ < U E ! } E U U U n $.}.eXyXtXeXeX-X",
"<XiX6X6X6XwX,Xp.F F G f 9 c N % : $ o X o % 8 > & y 6.B.x.l.l.k.k.n.n.n.j.a.a.n.&.B N i y U  .$.=.=.*.@...U U Z W _.eXtXyXeX0X-X",
"6X6XpX6X6X7X,X:.M M M a 9 8 d g : $ $ X $ 8 8 $ # c j.m.j.j.g.g.n.l.n.n.n.n.g.f.l.f.6.=.=.2.6.9.8.9.6.=.$. .} ` E C.0XeXtXeX;X-X",
"6X6X6X6X6X5XE.~ f c d a 9 6 6 t h 4 : $ : > 0 8 e *.m.x.g.n.g.g.g.g.a.s.s.g.g.g.h.j.j.a.i.q.e.8.9.9.6.=.=.*.%.} { L.eXtXtXeX0X:X",
"iX6X6XwXiX6XD.G d c c y 8 0 > > 0 8 9 8 y d R ! @.h.x.k.j.k.j.g.s.r.s.e.e.a.a.g.g.a.f.j.j.h.e.8.9.6.<.-.=.&.&.%. .k.eXtXeX0X-X:X",
"iXpX6X6X6X<Xc.G M n M y 9 8 0 6 < 8 u f T ..6.q.f.j.j.j.j.j.g.g.r.r.4.q.e.s.a.a.a.e.f.f.j.f.e.8.6.=.=.&.$.$.%.*.&.q.*XtXeX0X-X:X",
"pXpX6X1X5X@Xp.M d n n c a 0 6 6 0 a H T ! =.f.j.f.f.j.j.g.g.j.s.8.7.3.t.r.t.r.r.e.a.a.f.j.j.f.q.9.<.*.%.O.@.$.&.%.6.`.eX0X0X-X:X",
"pXiXiX6X2X+Xi.N d i d d d 6 6 0 y U [ +.5.a.f.f.f.f.f.f.s.g.g.s.7.3.1.1.3.3.t.e.a.e.i.a.f.l.f.a.q.6.=.&.@. .O.$.$.a.].0X0X-X-X:X",
"pXiXiXiX2XoX;.N c y t 0 6 > > 8 d B U  .6.a.f.f.f.i.j.f.s.s.s.u.3.3.1.1.1.1.4.7.r.e.w.8.i.f.f.f.q.9.5.%. .} } | @.a.:X0X0X-X:X*X",
"pXiXiXpX5X+Xi.M M s 0 > > > 7 0 y K ~ $.0.a.f.f.f.a.f.q.s.s.4.9.3.,.1.>.#.%.>.,.1.7.0.9.9.0.i.q.q.0.=.&.@...} }  .0.[.;X-X-X:X}.",
"pXpXpXpXwX&Xh.M H c y y y y 9 9 g T @.5.i.a.h.f.a.f.f.q.s.r.3.,.,.>.>.>.>.o.o.>.>.>.t.t.6.7.9.0.0.0.6.=.O.O.} [  .6.~.0X-X-X*X}.",
"pXpXwXwXwX,Xc.B d M M n d 0 0 a F | 6.9.e.f.f.a.a.i.q.9.s.3.#.>.o.o.o.' ' o._ _ _ o.>.7.=.6.9.8.0.0.0.6.-.$.} ) | =.H.;X-X:X*X}.",
"1X3X3X3X3X3Xv.B a u i u t 8 y F ^ &.6.9.q.f.f.q.0.0.r.2.3.3.o.' _ _ _ ' _ D ( A D D ] 1.$.=.7.9.9.6.6.6.-.=.O.[ } =.H.-X-X*XOX[.",
",X3X3X3XwX,Xw.G d t t y y i c U } &.6.8.w.w.8.6.3.3.0.2.i.,._ ( P S A P A A A A A A D X.$.5.6.6.-.-.=.6.5.&. .} } %.H.;X*X*X}.].",
"wX4X7X3X3X3Xh.E n 8 8 y d U } @.=.6.9.0.0.9.6.6.6.3.$.=.3.{ _ P A b b b b b V V S V A ..6.6.5.6.&.=.&.=.9.<.| !  .&.C.:X}.}.[.`.",
"wX7XwXwX3X%Xd.[ U i t 8 a ! $.6.6.2.9.9.6.6.6.9.7.2.|  .=.` _ P S b b l k k l b l j V ..6.6.6.5.=.&.=.=.6.8.6.[ ..%.F.=X*X[.[.{.",
"wXwXwXwXwX,Xh. .} U M n n ! =.6.2.6.9.6.6.-.6.9.0.9.<. .( P V k k b l k j j l l 3 3 D %.%.-.6.5.9.=.=.&.@.$.=.&.[ @.B.:X*X}.].{.",
"wXwXwXwXwX2XS.$.O.! U L U  .=.5.6.9.5.=.=.%.=.9.9.u.3.:.' L j ; - j b k j j l 3 ; m ] $.@. .$.=.=.=.$. .[ } %.*. .$.B.`.`.~.~.^.",
"wXrXpXwX3X_.i... .O.} [ } @.5.w.i.0.6.=.5.&.-.9.9.0.9.=.@.} L j ; ; b l r r u ; 2 N [ O.O.[ [  .|  .} [ E } &.%.@.=.H.}.[.`.~.~.",
"wX7XwX3X#XS.:.` } $.$.O. .&.9.q.q.8.6.5.5.7.9.6.6.6.2.=.@.| E N j 1 l k r r r ; t U ] ....! ! ` ! ! ~ [ } | &.&.$.6.F.^.`.`.{./.",
"4X7X3X%XXXG.d.} } $.O. . .5.8.9.9.=.&.=.5.=.&.-.*.&.$.O. .} ` R v r r j ; ; 1 1 p Y ! ! ^ ! ! ! ^ ~ ! | }  .$.*.%.8.H.H.J.J.J.~.",
"=X%X%X*X'.G.i.O.} } .. . .=.9.5.=.$.O.O...[ .... . .O. .} ` ` R x j ; - - = 5 r m R ! ! T U T ^ ^ ~ ~ } ` [ O.$.&.=.H.`.L.L.J.J.",
"@X%X%XOX_.G.i.$.} } ....O.5.6.6.=.$. .[ [ E ! [ }  . . .[ ! E R H k ; - - - - r N L I I H H U ^ ! Q Q ~ R E !  .$. .@._.{.`._.L.",
"[.'.).[.[.).k.&.@.O. . .$.=.6.6.=.&. .[ } [ } ..}  . .} E E T R L v r 5 - - - s x G N G K B B U I H J Q E E } | $.O.M  .`.L._.`.",
"_.[.[.'.&X[.l.=.&.$.$.O.@.$.6.=.=.$.| } [ ` } } } } } ` R U L L G c s 7 @ - q i z z d f d M B H G F I T ! ! ..| $...B K P.L.H.L.",
"'.'._.'.wX[.a.5.*.&.$..... . .=.&.O...! E U U E ` E E R L N M c c d s r = , e i i y g d f f F H G M B U E ` [ | &.O.M a 5.`.P.L.",
"_._._.[.rXY.6.5.*.$.O. .] E ..&.=.$.[ ! U B H B I R U H B N M c v s u e 7 , e u p u a d f M M K K B H T ! ! ` |  .` T 0 # v.L.K.",
"K.H.G.%XwXC.w.-.&.$.$. .] ....@.&.$. .[ E U L B B U L C B B M M v u u y 7 7 8 y u u d d n M M H U T ^ E E ! } O. .U a f 9 T _.F.",
"S.S._.yXtXS.9.5.*.&.@.} ] .. . .$.@.O.| E U B N B U L L B N n v v u u 9 > = , 2 t u d z z n B U R E R R E ] | O. .^ u > y e 6._.",
"L.H.OX;X).k.u.6.*.&.@... . .{ } ` }  .| [ U B B B Z L B L N z z s y 8 , = $ = , 8 y u z z n B R U U R R E } | | T I F h 0 7 y B.",
"S.H.*XL.B.w.;.=.=.*.$.$.$.} ) R R { } } }  .! U U U Z B N x n z t 2 < = = = % > < t t i z n Z R U U R R ` } } T c 9 g g 6 0 5 Q ",
"C.'.[.H.w.5.6.<.=.=.&.$...] ) R } ` ! [ } | ..} ` T Z B m v i t 2 < , > > > > > < 2 t t z B U U U R U ` [ ` } ^ f 6 % 4 0 6 % a ",
"_.wXL.n.0.9.6.<.=.&. .O.{ ] ] { { ` ` E [ ` [ } { ` R Z N m l t q q 2 2 < 2 8 2 2 t t n n Z U R R U E ` } ` T J c h 6 % # % # X ",
"eX[.C.l.9.5.-.=.&.%.$. .} ] { [ ) ` ` E R _ ! } } } ` R U C n z i k t q 8 q e t t t n n Z U R R R R R [ O.| I s 0 h 6 6 6 % % * "
};
