/* XPM */
static char *_0146ea73a4f40ac827d1b8f32a57479X2f7sNddCw5cH8dU[] = {
/* columns rows colors chars-per-pixel */
"64 64 248 2 ",
"   c #060000",
".  c #0A0100",
"X  c #0C0805",
"o  c #120300",
"O  c #150B04",
"+  c #0D0915",
"@  c #140D16",
"#  c #1B131C",
"$  c #181219",
"%  c #1C1206",
"&  c #261A17",
"*  c #29190E",
"=  c #332417",
"-  c #2B241B",
";  c #1D1823",
":  c #231B25",
">  c #241E2A",
",  c #271C26",
"<  c #331F21",
"1  c #2C232C",
"2  c #2B242F",
"3  c #34282A",
"4  c #3A3327",
"5  c #2C2532",
"6  c #342B33",
"7  c #3A2E34",
"8  c #362D38",
"9  c #3D3136",
"0  c #3D333B",
"q  c #463629",
"w  c #44383A",
"e  c #4B3330",
"r  c #633027",
"t  c #4C443B",
"y  c #574538",
"u  c #70493B",
"i  c #3D3743",
"p  c #453A43",
"a  c #473B45",
"s  c #4D424B",
"d  c #4D4245",
"f  c #53454C",
"g  c #554946",
"h  c #554A52",
"j  c #594C55",
"k  c #5C525A",
"l  c #5B5146",
"z  c #66544C",
"x  c #665759",
"c  c #775A58",
"v  c #6D4D49",
"b  c #79665C",
"n  c #6A6157",
"m  c #685C64",
"M  c #7C5E60",
"N  c #786767",
"B  c #796C73",
"V  c #766D6E",
"C  c #885855",
"Z  c #965546",
"A  c #886A57",
"S  c #94775B",
"D  c #896854",
"F  c #A96B56",
"G  c #B77B5D",
"H  c #AD6A54",
"J  c #876B68",
"K  c #877468",
"L  c #967968",
"P  c #877777",
"I  c #937C7C",
"U  c #997D7B",
"Y  c #977A74",
"T  c #9A6F6E",
"R  c #AB7869",
"E  c #B57868",
"W  c #AA7773",
"Q  c #C67F71",
"!  c #9C8368",
"~  c #9D827C",
"^  c #9B8476",
"/  c #8B8277",
"(  c #A5886B",
")  c #B7846B",
"_  c #A8926C",
"`  c #B4986F",
"'  c #A78A78",
"]  c #B88878",
"[  c #AD9576",
"{  c #B39D73",
"}  c #B3957B",
"|  c #B6997B",
" . c #BCA47B",
".. c #BAA57C",
"X. c #B6815F",
"o. c #C6886B",
"O. c #C68776",
"+. c #C8937B",
"@. c #D6987A",
"#. c #C8A77F",
"$. c #967E81",
"%. c #8A7C81",
"&. c #948182",
"*. c #9B8384",
"=. c #9D8A8B",
"-. c #9A8887",
";. c #998F8B",
":. c #A28584",
">. c #A48A85",
",. c #A58B8B",
"<. c #A98C87",
"1. c #AB9488",
"2. c #B89A86",
"3. c #A58C91",
"4. c #AC9493",
"5. c #AA9898",
"6. c #B49B9B",
"7. c #B49995",
"8. c #B78987",
"9. c #BDA28B",
"0. c #BCA786",
"q. c #BAA599",
"w. c #B49DA1",
"e. c #B9A6A5",
"r. c #BAB2A9",
"t. c #C89A87",
"y. c #D39888",
"u. c #C89B96",
"i. c #D2968D",
"p. c #C3AC84",
"a. c #C4AC8C",
"s. c #C5A48A",
"d. c #D6A48B",
"f. c #C8B28C",
"g. c #C7AA96",
"h. c #D7A997",
"j. c #CBB493",
"k. c #CDB49B",
"l. c #CAB798",
"z. c #DBB29C",
"x. c #D3BC9C",
"c. c #D7B69A",
"v. c #E3A689",
"b. c #E4A999",
"n. c #E8B898",
"m. c #E9B38F",
"M. c #C4ACA8",
"N. c #D6ACA5",
"B. c #CCB5A4",
"V. c #CCBAA4",
"C. c #CDBBAB",
"Z. c #C5B6A9",
"A. c #D3B5A3",
"S. c #DCB4A3",
"D. c #D3BCA4",
"F. c #DBBCA4",
"G. c #D2BDAB",
"H. c #DAB9AB",
"J. c #CCB7B5",
"K. c #D3BDB3",
"L. c #D6BDB9",
"P. c #C5AEB1",
"I. c #E4B9A7",
"U. c #E4BBB4",
"Y. c #EAB1A7",
"T. c #E09F83",
"R. c #D4C19E",
"E. c #E7C29F",
"W. c #CDC1AA",
"Q. c #D6C2A3",
"!. c #DBC3A5",
"~. c #D4C2AC",
"^. c #DBC4AC",
"/. c #DDCAAB",
"(. c #DCC8A6",
"). c #CCC4B8",
"_. c #D5C3B3",
"`. c #DAC4B3",
"'. c #DDCBB4",
"]. c #D5C3BA",
"[. c #DBC4BC",
"{. c #DCCCBB",
"}. c #D5CABA",
"|. c #DDD0BD",
" X c #E2CDAE",
".X c #E4C4AA",
"XX c #E3CCB3",
"oX c #E3CDBC",
"OX c #E8C7B6",
"+X c #F2CBB7",
"@X c #E5D2B5",
"#X c #E4D2BB",
"$X c #EAD5BC",
"%X c #ECD9BD",
"&X c #EBD3B6",
"*X c #F3D5BA",
"=X c #F1CBAC",
"-X c #DCCBC3",
";X c #D9C7C3",
":X c #DBD2C8",
">X c #DDD9D1",
",X c #CEC7C1",
"<X c #E3CEC4",
"1X c #E3CDCA",
"2X c #EBCCC5",
"3X c #E4D4C3",
"4X c #EAD5C3",
"5X c #ECDAC4",
"6X c #EBD5CB",
"7X c #EDDCCB",
"8X c #E4D5CA",
"9X c #F1DDC5",
"0X c #F2DDCB",
"qX c #F7D6C5",
"wX c #EBD4D2",
"eX c #E4DDD4",
"rX c #EDDBD4",
"tX c #EBDBD8",
"yX c #F2DDD3",
"uX c #F7DDDA",
"iX c #F3CBC6",
"pX c #EEE2CB",
"aX c #F4E2CC",
"sX c #F9E5CE",
"dX c #F4E4C8",
"fX c #EBE3D8",
"gX c #F5E4D3",
"hX c #FAE5D5",
"jX c #F5EAD4",
"kX c #FAEAD4",
"lX c #F4E3DC",
"zX c #FAE5DB",
"xX c #F5EBDB",
"cX c #FCEBDC",
"vX c #FCF2DC",
"bX c #FCF1D6",
"nX c #FBE6E2",
"mX c #F6ECE3",
"MX c #FDECE3",
"NX c #FDEEEA",
"BX c #F6E4E1",
"VX c #FEF2E3",
"CX c #FCF3EC",
"ZX c #FEFAEE",
"AX c #F9F4E7",
"SX c #FEF5F1",
"DX c #FEFBF3",
"FX c #FFFEF8",
/* pixels */
"C.V.Z.B.C.C.W.W._.C.`.G.B.`.`.`.}.C.}.`.oXG.2X`.oX`.oX{.|.|._.}.'.'.5XW.pX|.|.{.{.3X}.$XoX'.'.W.Q.Q.~._._.W.W.~.Q.x.R.!.Q.~.W.Z.",
"B.B.V.C.C.B.Z.M.Z.C._.`.`.K.B.`.~.8X`.G.`.oXoX4XoXG.{.oXW._.|.:X|./.pX'._.}.{.|.4X`.{.{.'.#X'.'.^.~.~.~.W.~._.~.^.x.x.x.k.D.~.W.",
"A.C.G.G.G.G.G.G.Z.~.K.K.{.G.K.4XV._.}.}.3XK._.K.`.K.{.{.|.}.}.}.|.}._.|.7X}.7X{.:X}.:X#X{.|./.l.^.^.^.G.~._.~.Q.Q.x..X(.F.D.~.W.",
"k.k.A.B.A.B.B.C._.K.G._.]._.<XC.|.:X].|.3X6X6X{.6XoX7X3XpX|.W.pX8XjXpX:X8X{.:X3X7XgX|.7X8X~.}.|.~.^.^.`.~.G.D.D.!..X.X=X.X!.~.l.",
"H.S.A.k.k.N.G.H.L.B.`.oX_._.}.n y ).:Xr.y -.}.7X~ q = q ' jX:XK y = t y K eX}.l t t q b C.gXW.V.~.^.`.^.~.G.!..X=X=XE.E.c..X!.D.",
"g.S.OX+XqX+X.XS..XB._.oX_.].{.4 X n fXq.. K mXz . * t * X K jX4 X 4 = -   / xXO   q = . = }.}.W.^.^.`.^.^.^.XX*X=XE.n.E.n.x.F.c.",
"I.z.t.t.s.S.OXqXOXL.K.`.K.].8X3   O r.).  V :X. q :XZXZ.* * pXt % pXZX:XO 4 fX. t xXmX/ . ^ 3X'.'..X^.^.OXXX=X=Xn.n.n.E.m.c.c.c.",
"I.d.t.2.t.h.h.A.+X*XoX_._.W.{.4 * X 9 Z.X ;.;.  / fXZ.eXb   Z.l X V V l X V fX% 4 8X:XZ.O l 7XC.'.!.^.OX&X+X.Xn.n.n.m.m.p.d.z..X",
"S.z.[ ] d.t.h.z.h.OXqX2XoX[.{.- t P   V   &.5.  ;.>X).:Xn X r.g   O X   / >X>XX 4 fXeXr.. z 5X_.'..X^.OX XI.z.n.m.m.#.@.@.m.R.x.",
"h.h.| ] t.h.t.h.h.h.I.qX2X[.6X= 3 -X-   X / r.X z >XfX>Xt   }.t O eX/   n eX,X; t eXfXq.O J _.#XXXOX*X+X.Xz.b.m.v.m.@.@.` m.n.R.",
"S.h.d.W R d.y.y.Y.Y.h.OXU.iXnX= & CX5.. X / >X- X / r.n X l mXw X ).ZXg   ;.>XX % r.;.- o q.3X.X+X+X=X=Xn.h.h.v.@.@.o.X.) c.F.F.",
"F.A.A.} R +.y.d.t.d.z.U.U.OX+Xe q ].fXl X K fXr.4       t ).eXi X >X,X,X$ X >X- X X X - / 6XoXqXqX+XI.I.I.n.v.T.m.@.X.X.s.c.D.~.",
"A.H.c.g.' R y.d.Y.b.b.b.Y.Y.iXH.wXzXrX].r.:X:XeXeXr.;.,X>X,XfX).r.eX,XBX>X>XeX>X,XfXxXVXZXVXsX0X*Xb.d.h.b.d.y.@.@.o.G ) h.F.G.W.",
"k.~.A.S.t.F ) O.O.y.b.b.N.N.h.U.OXyXyXCXZXmXAXZXAXZXDXZXAXSXFXSXSXAXSXFXDXFXSXFXZXAXVXVXVXaXhXOXz.d.d.d.v.@.@.@.@.G G ` n.Q.C.W.",
"V.~.F.^.z.] F H O.y.i.y.i.N.Y.U.oX0XcXyXfXvXFXfXDXmXDXAXDXFXDXFXCXFXCXDXCXAXSXfXfXfXAXxXhX0XqXH.h.d.h.h.b.v.v.@.o.H ) d..XD._.Z.",
"V.V.G.A..Xh.R E O.Q Q b.i.u.Y.N.OX<XVXxXVXAXfXDXAXDXDXFXDXSXFXAXFXAXFXCXmXFXmXCXZXxXAXjXzXsXoXS.+.d.s.@.T.m.v.o.o.H ) d..XV.W.).",
"B.K.V.B.V.~.g.) i.b.b.Y.Y.Y.Y.A.6XtXzXzXMXCXCXCXCXDXDXZXDXFXFXDXSXDXSXNXNXVXNXMXVXcXcXcXzXhX0XoXk.t.+.t.O.E H H Q o.O.d.!.B.V._.",
"B.A.C.C.C.`.H.g.$.Q Q Q i.i.N.J.6XuXBXxXmXCXCXCXCXZXDXZXDXDXDXDXDXSXCXNXMXMXnXcXcXcXzXzXhXhXyX0XG.g.} ) F Z Z H G o.O.h.OXD.W.W.",
"A.F.~.C.~._.`.U.8.W E W $.i.N.U.rXuXBXmXMXVXCXCXCXSXDXSXDXDXSXAXSXCXCXAXAXMXMXnXcXnXcXcXhXyX0X6X5X.Xg.t.+.O.H Z H Q y.h.!.W.W.W.",
"L.H.~.W.W.G.^.U.u.W Q u.i.Y.2XwXuXBXBXBXnXNXCXCXCXSXSXDXZXCXCXCXCXAXNXVXMXmXcXcXcXMXMXzXgXhX0X7X6X+XOXOX=XY.+.F G @.v.b.F.W.W.l.",
"G.D.V.W.~.~.`.OXU.8.i.Y.U.OX4XyXuXBXnXnXNXNXSXSXSXSXSXSXSXAXCXAXCXvXVXVXVXzXxXcXcXcXcXzXcXcXhXgX2X5X4XOXI.S.t.( ] d.I.F.D.Q.V.V.",
"F.A.C.~._._._.`.OXu.u.N.U.2XyXlXBXBXnXMXnXnXNXNXNXCXSXSXSXAXCXAXAXvXxXVXVXcXcXMXcXcXcXcXcXcXcXhXhXuX4XOXH.A.t.[ | 2.x.Q.D.Q.W.V.",
"G.G.~.~.~._.K.H.OXN.u.J.2XwXhXnXnXBXnXMXMXMXNXNXVXAXCXAXCXmXAXAXvXbXkXvXcXhXgXzXhXcXnXcXcXcXcXcXcXlX6X3X$X#XV.9.a.9.W.Q.l.~.V.V.",
"k.G.G.~.G._.[.`.L.N.7.N.2X6XmXlXnXzXnXNXMXcXnXMXmXxXVXAXAXmXxXvXvXkXsXkXaX3X{.<X4XyXcXcXcXcXVXVXcXVXVXMXkXgXaXdX%X~.'./.V.Q.V.D.",
"B.C.H.K._.].].L.[.H.L.L.wXuXnXnXzXgXzXVXcXgXcXgXzXcXxXvXsXpXpXbXbXdX4X~.B.~.3X7XgXcXgXMXvXcXZXkXVXCXZXVXvXvXvXvXbXbXdX'.W.R.l.r.",
"C.B.M.C.C.C.G.`.`.J.L.2XnXMXBXlXrXyX6X6XgXhXgX7XgXjXkXkXkXpX5X|.^.Q.l.g.}.0X7XgXcX{.yX{._.0XkXVXMXVXVXVXAXvXvXvXvXjXjXjX@XW.R.(.",
"[.C.C.G._.C.K.[.].K.;XwXMXMXnXuXyX0XoXC.K._.[.7X9XsXvXbXjXpX'.l.a.2.9.V.`.C.M.q.b K y z Z.VXZXcXcXcXvXVXAXvXvXvXvXjXjXbXpX/.r.R.",
"M.M.C.Z.J.L.].].J.].1XuXnXlXBXnXhX6X<X_.Z.9.1.g.#XaXkXkXsXpX~.9.! ^ 1.0.! A b t * o X K VXcXkXvXcXcXxXjXbXvXbXjXjXjXjXjXbXpXW.[ ",
"Z._.}.].L.L.K.Z.L.-XtXmXnXyX1X;XM.1.M.M.7.7.<.<.K.7XzXkXsX0XoXB.9.s.L u y c N z * . K gXVXhXpXVXkXkXaXaXgXgXjXjXsXxXjXdXjXbX|.9.",
"K -.4.7.q.M.J.J.;X8XlXMXMX1Xq.Y J J J v y J <.M.G.3XhXzXgXhX0X4X'.V.u q A b z b b 1.gXMX4XaXvXdXsXaX9X7X9XaXaXhXgXjXaXaXjXsXjXpX",
"z z z z g g v J -XrXlXlXlX1X7.c J J M < o * v L.;X6XzXcXcXcXcXhXMXA.r y T b Y Z.rXDXrXgXxX3X7X4X9X9X9X5X4X4X5X5XaX7X7XaXsXaXjXvX",
"d w w e e e v P -XtXlXrXrXyXJ.<.x c z < * o e ;XwXuXnXnXnXcXnXzXhXH.q.oX<X<XCXAXnXlXmXpXaXaX#X$X5X9X9X9X4X&X$X$X9X5X5XpXaXaXaXkX",
"3 6 1 e 7 < M J.1X;X-X1X6X;XL.;XP.w.3.P m P $.w.BXBXNXNXnXZXmXMXcX9XgXcXgXzXVXVXVXcXjXgXdX5X$X#XXX4X%X@XQ.!.Q.Q.XX#X5X5X9X0XgXjX",
", 5 , , 7 a B w.;X;XL.;X1X1X1XtXuXwXNXNXBXNXBXBXnXuXnXNXVXVXlXxXcX7XhXvXMXcXVXxXxXkXhXaXdXdX%X$X%X*X*X XQ.R.D.x.Q./.@X%XdXaXhXcX",
": : : @ e M %.$.J.J.P.J.;X1XwXnXuXuXnXBXtXBXuXtXwXuXNXnXlXcXhXcXhX7XgXMXVXVXMXgXgXaXgXaX9X9X%X*X&XXX X.X(.R.R.(.XX@X#XdXaXaXhXcX",
"# $ > # p m B $.r.P.e.M.L.1XwXuXNXNXSXNXNXNXnXtXnXnXnXnXMXMXcX0XzXlXzXcXcXVXxXpX8X5X#X#X$X$X&X@X!.x.x.x.R.R.(. X&X%XpXsXaX7XaXkX",
"# @ > # 6 a j %.e.P.w.w.J.1XwXuXuXNXNXSXSXSXnXwXuXuXuXnXuXqXiX6XgXMXVXMXcXxX7X6X|.`.~.~.!..XR.x.j.f.p.f.R.f.R.(./.@X5XdX5X3XaXMX",
"+ @ ; + 5 a j M 5.w.e.w.P.L.1XwXwXuXBXNXNXnXnX1XU.iXiXiXU.OX+XU.{.gXcXmXvXxX8X#X'.~.x.l.x.x.j.p.p.#...f.f.R.R.(./.@XpX5X8X4XgXVX",
"+ + + + , p a a %.w.w.w.w.P.J.J.J.1XwXnXNXnXuXN.Y.U.u.N.Y.I.S.t.`.0XgXpXlXgX8X|.'.`.Q.x.j.j.p.#...#. .0.f.R.R.(./.%XpX%X5XaXcXVX",
"+ + + @ ; @ ; 8 B 3.w.3.3.8.6.w.w.J.,XwXuXBXwXN.$.$.u.b.E u C ] yXMXxX7XgXaX|.`.`.^./.x.j.p. ... .p.f.#...R.R.R./.$X5X#X8XxXVXVX",
"+ ; ; + ; ; ; ; m w.w.3.3.3.3.3.w.w.J.1XwXBXuX[.C C T Q u r W uXhX6X3X7XgXgXgXdX#X^.Q.!.R. . .#.#.........0.j.Q.|.Q./.7XvXVXvXVX",
"; + + ; 5 5 5 5 k 3.5.3.3.3.3.$.w.w.J.;X;XwXwXL.8.W C C Z T b.U.OX^.B.B.C._.'.#X#X%X Xx.f.f.f.p...{ ` { ..a.x./.@X'.3XjXVXVXVXVX",
"i > > 5 i i p p m ;.;.3.5.3.4.6.6.w.L.;XJ.L.L.N.u.$.C u C i.Y.u.g.g.B._.`.#X$X5X%X@X Xx.f.......{ { ....j.R./.'.|.5XjXvXVXVXVXVX",
"i i i i 8 p a p k %.;.=.3.3.3.3.,.4.M.P.w.w.w.4.u.$.T C C 8.u.u.k.V.OXXXXX'.'.`.&X XR.x.f...{ { ` {  .f.R.(.'.@X5XjXvXVXvXvXZXVX",
"i s s i 5 6 5 6 6 V ;.5.5.q.e.5.4.7.M.M.P.e.M.w.u.$.T C J W >.2.2.2.9.2.2.2.9.l.^./.(.0.0.f..._ _ { #.R.x.x.^.$XaXcXVXAXvXVXVXmX",
"i i i s p 8 0 h B &.;.e.e.5.,.~ ,.1.3.4.6.5.4.3.u.$.T v v A Y } 2.2.t.s.9.l.G./.Q.x.l.0.0.f.....{ ..f.f.j.D.#XgXhXvXvXxXxXVXvXxX",
"h i a k m k m V m g d P =.-.3.6.7.4.3.3.4.7.3.,.$.$.J v v c K R ' } 2.2.0.9.9.9.l.0.2.0.0.{ { ..p.a.f.R.Q.oXaXcXxXvXxXvXxXxXxXjX",
"B m m V V m s 0 6 w d l x P 5.,.<.<.*.*.3.3.$.$.$.J r u v v z c S S L ( } 9.0.0.} 0.0.0...{ { { j.0.f.R.$XdXsXgXcXcXxXAXvXjXjXfX",
"m B B m a a a a m a 5 , e m P %.%.&.=.=.=.$.$.$.C c c M J K K A S S S ( _ | | } [ ..#.{ ! _ _ ..0.r.(.%XaXvXcXaXhXhXjXjXgXgXgXgX",
"m m k k h j j j p 5 6 a 8 , a %.P $.=.=.=.,.$.U J T P Y L L L ' ' _ [ } | t.| ` | _ _ _ _ { [ _ 9./.pXpXaXjXkXkXgXgXaXaXaX7XaXpX",
"h h h k m j a a 5 p p 5 $ : 8 h P P $.%.$.$.$.$.U :.8.<.<.' >.2.2.} | } | } ` ( _ ( _ ! ! _ { 0.Q.%XjXkXaXdXgXgXaXgXdX7X5X7XpXdX",
"i h k m m a a p a p , , # $ > 8 m P $.$.I $.*.$.:.:.:.,.<.<.' ' ' ' ' ' ' ( ! S S S ! ! S _ f.@X#X5XpXsXsXkXsXdXaXdX7X4X5X7X5X7X",
"i h a m m a j a s 6 1 9 1 + X > < j P =.:.$.$.$.$.U Y U ' ' ^ ^ ' ' ' ! ! S S D D D _ _ | l. XdXpX5X5X0XsXkXaX5X5X5X3X5X5X5X5X5X",
"a a p k m a a a 0 0 8 1 1 & # + @ 3 x J %.$.$.$.$.$.U U Y Y U ' ' ! L S D D D D D S | l.Q.&X%X9XdXpXaXaXaXsXdXdX%X5X%X5X5X4X5X5X",
"a a 8 j m a a p p 8 1 1 1 > # # # & e a N P $.$.:.:.:.*.U Y U ' L K A A D c D A L ( k..XXX&X$X9XdXgXaXsXsXdXdXdX5X5X%X%X%X5X5X5X",
"h a 5 a k p a p 1 6 8 1 : & # $ : @ @ e m P I P $.W U U Y L K Y L K A K K L ( } } } k.F.!.^.XX%XgXdX0XaXsXsXdXpX%X@X#X'.'.#X%X5X",
"p 7 w w a k , a 1 , 1 5 > : : ; ; @ % 9 N P P I I I U U Y Y Y Y L Y ^ ( ' ' } ' [ g.D.k.g.D.$XaX$X9XdXsXdXdX%X%X%X'.(./.}.@X5XdX",
"7 7 6 7 a a 3 a 0 1 1 1 : : : ; # + $ 9 m B P I I U ~ ~ U U U U ~ ' <.' ' 1.2.2.9.g.k.x.!.'.#X$X4X0XsXsXdXdX%X%X@X X/./. X@X%X%X",
"w a 7 7 a a a a w 5 1 , ; : : # ; @ @ 6 m B P I U &.*.:.*.-.:.>.<.<.1.' 1.2.9.s.9.s.g.Q.XXoX#X#X0X0XsXsXdX9X%X@XR.R.Q.Q./.@X#X@X",
"f x p e a a a a 0 1 , 1 > : : # $ @ @ > h P $.I &.*.*.>.:.<.<.,.<.<.1.} 2.2.9.s.0.s.x./.'.^.'.3X5X0XdXdX%X&X@X/.R.R.R.R.(./.@X$X",
"w h w 7 p p j a p 5 6 5 > : : ; @ ; @ $ p B &.U *.*.:.>.,.<.,.<.1.1.2.7.9.q.g.j.j.c.F.'.'.^.'.3X4X4X4X$X$X X(.R.Q.f.a.R.(./.@XpX",
"1 w w 3 8 e a a p p 8 5 > > > > ; ; ; + 6 x P &.-.-.,.<.,.3.4.4.7.7.7.g.g.g.k.x.x.x.D.!.XXXX#X5X<X$XoX#X@X/.Q.R.R.f.0.R./. X&XdX",
"3 7 p 3 5 6 a a a p i 8 5 5 5 > ; > & @ ; 9 x &.-.=.,.,.4.4.6.6.7.2.q.g.g.k.c.!.(.(.!./.XX$X5X3X$X<XoX$X/.(.R.R.R.R.f.j.(.@X@X@X",
"7 w d w w p k a a p 8 i i 8 5 > 2 ; ; $ @ # a I -.=.<.3.4.6.6.q.q.q.q.k.A.c..X X&X*X*X@XXX#X%X3X2X#XoXOX(.R.R.p.R.R.j.j.Q.@X/.l."
};