/* XPM */
static char *d5a1c7ab1d6d46d5d06e83d78dad3df2uXkgSy0MP40lyAAA[] = {
/* columns rows colors chars-per-pixel */
"64 64 252 2 ",
"   c #060000",
".  c #0B0100",
"X  c #0E0805",
"o  c #130400",
"O  c #160905",
"+  c #1B1508",
"@  c #0D0915",
"#  c #140D16",
"$  c #1B131C",
"%  c #18111A",
"&  c #261917",
"*  c #29180F",
"=  c #2A2417",
"-  c #1D1823",
";  c #231B25",
":  c #241E2A",
">  c #271C26",
",  c #331F21",
"<  c #2C232C",
"1  c #2B242F",
"2  c #33282C",
"3  c #2C2532",
"4  c #342B33",
"5  c #3A2E34",
"6  c #362D38",
"7  c #3D3136",
"8  c #3D333B",
"9  c #3F3830",
"0  c #3D3527",
"q  c #44383B",
"w  c #4D342F",
"e  c #633027",
"r  c #5B4439",
"t  c #4E4639",
"y  c #70493B",
"u  c #3D3743",
"i  c #453A43",
"p  c #473B45",
"a  c #4D424B",
"s  c #4D4245",
"d  c #53454C",
"f  c #554849",
"g  c #554A52",
"h  c #594C55",
"j  c #5C525A",
"k  c #5B5148",
"l  c #664846",
"z  c #66554D",
"x  c #66575A",
"c  c #775A58",
"v  c #73514C",
"b  c #6B635A",
"n  c #79655D",
"m  c #685C64",
"M  c #7C5E60",
"N  c #776767",
"B  c #796C73",
"V  c #776D6E",
"C  c #885855",
"Z  c #965546",
"A  c #886A57",
"S  c #94775B",
"D  c #896854",
"F  c #A96B57",
"G  c #B77B5D",
"H  c #AE6750",
"J  c #876B68",
"K  c #877468",
"L  c #967968",
"P  c #887678",
"I  c #937C7C",
"U  c #997D7B",
"Y  c #977A74",
"T  c #9A6F6E",
"R  c #AA7668",
"E  c #B6786A",
"W  c #AA7773",
"Q  c #C67F71",
"!  c #9C8368",
"~  c #8D8275",
"^  c #9D827C",
"/  c #988677",
"(  c #9D907F",
")  c #A5886B",
"_  c #B7846B",
"`  c #A8926C",
"'  c #B4986F",
"]  c #A78A78",
"[  c #B88879",
"{  c #AD9576",
"}  c #B39D73",
"|  c #B3957B",
" . c #B6987B",
".. c #BCA47B",
"X. c #BAA57C",
"o. c #B6815F",
"O. c #C6886B",
"+. c #C88978",
"@. c #C8937B",
"#. c #D5967A",
"$. c #C8A77F",
"%. c #967E81",
"&. c #8A7C81",
"*. c #948182",
"=. c #9B8384",
"-. c #9D8A8B",
";. c #998986",
":. c #9A908B",
">. c #A28584",
",. c #A48A85",
"<. c #A58B8B",
"1. c #A98C87",
"2. c #AA9589",
"3. c #B89A86",
"4. c #A58C91",
"5. c #AC9493",
"6. c #AA9798",
"7. c #B49B9B",
"8. c #B49995",
"9. c #B78987",
"0. c #BDA28B",
"q. c #BCA786",
"w. c #BAA69A",
"e. c #ADA69B",
"r. c #B49DA1",
"t. c #BBA6A5",
"y. c #BDB7AB",
"u. c #C89A87",
"i. c #D39988",
"p. c #C89B96",
"a. c #CB8D84",
"s. c #C3AC84",
"d. c #C4AC8C",
"f. c #C6A38A",
"g. c #D7A48C",
"h. c #C8B28C",
"j. c #C7AA96",
"k. c #D8A996",
"l. c #CBB493",
"z. c #CDB49B",
"x. c #CAB798",
"c. c #D3BC9C",
"v. c #D9B59A",
"b. c #E3A689",
"n. c #E4A998",
"m. c #E8B898",
"M. c #E9B38F",
"N. c #C4ACA8",
"B. c #D6ACA6",
"V. c #CCB4A4",
"C. c #CCBBA3",
"Z. c #CDBBAB",
"A. c #C6B5A8",
"S. c #D3B4A3",
"D. c #D3BCA4",
"F. c #DBBDA4",
"G. c #D3BCAC",
"H. c #DAB7A8",
"J. c #CCB8B5",
"K. c #D2BDB3",
"L. c #D7BDB9",
"P. c #C5AEB1",
"I. c #E3B9A6",
"U. c #E3BCB4",
"Y. c #ECB3A8",
"T. c #E09F83",
"R. c #D4C19E",
"E. c #E7C29F",
"W. c #CDC1AA",
"Q. c #D6C2A3",
"!. c #DBC3A5",
"~. c #D4C2AC",
"^. c #DBC4AC",
"/. c #DDCAAB",
"(. c #DCC8A6",
"). c #CDC4B8",
"_. c #D5C3B4",
"`. c #DAC4B3",
"'. c #DDCBB4",
"]. c #D6C4BA",
"[. c #DBC5BA",
"{. c #DCCABB",
"}. c #D4CABC",
"|. c #DFD1BE",
" X c #E3C3AC",
".X c #E2CDAE",
"XX c #E6C5A7",
"oX c #E4C5B3",
"OX c #E2CCB3",
"+X c #E2CEBB",
"@X c #ECCCBB",
"#X c #E9C7B7",
"$X c #F2CBB7",
"%X c #E5D2B5",
"&X c #E4D2BB",
"*X c #EAD5BC",
"=X c #ECD9BD",
"-X c #EBD3B6",
";X c #F3D5BB",
":X c #F1CBAC",
">X c #DCCBC4",
",X c #D9C5C2",
"<X c #DBD4C9",
"1X c #CFC8C0",
"2X c #E2CEC4",
"3X c #E3CDCA",
"4X c #EBCDC3",
"5X c #E5D4C3",
"6X c #EAD5C3",
"7X c #ECDAC4",
"8X c #E4D2CA",
"9X c #EBD5CB",
"0X c #EDDCCB",
"qX c #E4D9CB",
"wX c #F1DDC5",
"eX c #F1DDCB",
"rX c #F7D6C6",
"tX c #EBD4D2",
"yX c #E4DDD3",
"uX c #EDDBD4",
"iX c #EBD9D8",
"pX c #F2DCD3",
"aX c #F8DDD9",
"sX c #F4CCC9",
"dX c #F4E2CC",
"fX c #F9E5CE",
"gX c #F4E4C8",
"hX c #ECE2D3",
"jX c #ECE4DB",
"kX c #F5E4D3",
"lX c #FAE5D4",
"zX c #F5EAD4",
"xX c #FAEAD4",
"cX c #F4E3DC",
"vX c #FBE5DB",
"bX c #F5EBDB",
"nX c #FCEBDC",
"mX c #FCF2DD",
"MX c #FCF1D6",
"NX c #EEE1CA",
"BX c #FBE6E2",
"VX c #F6ECE4",
"CX c #FDECE4",
"ZX c #FDEEEA",
"AX c #F6E4E1",
"SX c #FEF2E3",
"DX c #FDF3EB",
"FX c #FEF8EF",
"GX c #FFF8E5",
"HX c #FEF5F1",
"JX c #FFFCF3",
"KX c #FFFEF8",
/* pixels */
"G.Z.V.A.Z.Z.K._.Z.Z._._.Z.K.]._.oX[.K.2X2XK.>X].>X].>X).{.{.].[.'.*X_.'.*X'.{.|.{.5XW.'.7X~.`.D.D.~.^._.W.W.W.Q.Q.D.Q.Q.Q.~.W.A.",
"V.V.V.G.G.A.A.N.J.Z.K.K.Z.K._.[.`.L.[.[.L.3X].3X].].[.uX[._.7X'.'.{.%X'.'.<X|.~.'.'.qX6X~.OXwX^.^.^.G.~._.W._.~.^.c.F.c.x.C.~.W.",
"G.S.G.G.G.G.G.K.Z.K.K.K._.K._.[.6XV.{.5X{.>X].<XhX5X5X}._.bX|.7X*X|.7X7X5X=XhXhXzX|.'.'.7X*XC.Q.^.^.^.~.~._.Q.!.Q.c.XX!.D.D.~.W.",
"z.V.S.S.V.S.V.D.W._._._._._._.].L.`.tXK.K.8X>X/ N x w.qX).( / |.5XA./ y.).~ K ~ ~ y.NX&X~.7X~.~.^.^.^._.~.~.G.c.!.XXXX:XXX^.Q.x.",
"H.H.S.z.z.S.S.L.G.^._.`.]._._._.[.{.{.Z.0X>Xt . O +   ~ bXX * NXNX( O ~ '.+ .     . N hX{.&X{.D.Q.`.`.`.Q.~.^.^.:X:XE.E.F.!.^.F.",
"j.v.oX$XrX$X XS.H.G.G.`._.].}._.{.{.[.8X>Xt.. k jXA.= t bX* = <X<X2.X / }.  z bX_.0 O w.hX~.Z.|.`.^.^.^.^.^.%X$X:XE.m.E.m.v.F.v.",
"U.v.f.u.f.v.#XrXoXoX`.`._._.}.'.[.{.].}.5X<X&   k ~ ).<X<X+ 0 |.hX2.  :.<X  b hXhX;.X ~ nX&XZ.'.^.^.^.^.oX#X:X:Xm.m.m.E.M.v.v.z.",
"n.j.u. .u.k.k.v.;X$XoX`._._.'.}.[.`.2X5X].{.y.t       ~ hX+ = <XyX:.X :.1X  b yX<Xe.o V 8X'.&X~.'.^. XoX@X-XXXm.m.m.M.M.s.g.v.XX",
"I.v.[ [ f.u.k.v.k. X;XsXoXK._.+X{.+X{.5X>XA.6.).1X:.+ + yX+ = yXhX:.X :.1X  b yXyX:.X / 0X5XZ.|..X^. X$X#XI.v.m.M.M.$.#.#.M.E.R.",
"k.j.3.) u.g.g.g.k.m.U.$X;X6X+X{.`.L.{.[.>Xe.  z jX).= + <X0 X y.hXb X e.1X  b yX<X2 X A.5X_.{.`.oX#X-X$XXXv.M.m.b.M.#.#.' M.v.R.",
"S.k.j._ _ f.u.i.g.k.v.I.$X$X@X+XK.eX}.[.8X8Xt X X X X V jX:.X       9 <X).    X   . V zX2X5X+X^.$X;X:X Xv.k.k.b.#.#.O.o._ v.R.!.",
"G.S.c.9.R @.i.g.k.n.I.I.U.#XrXaX6XeXG.+XK.J.<X~ b b :.<X<X<Xe.V V ;.).yX1X~ :.P :.y.hX7X{.'.`.rXrX:XXXI.Y.m.b.b.M.#.o.o.$.v.F.G.",
"S.H.H.j.[ R i.g.n.n.n.Y.n.Y.$XsXaX9X4X4X8X>XiXjXyXjXjXyX1XyX<XjXyX<XjXyXVXVXDXFXFXGXCXmXSXSXmXfX;Xv.g.k.n.g.#.#.#.O.o._ k.XXD.Z.",
"A.L.H.H.p.F E +.a.i.i.n.k.B.B.H.@XvXvXlXnXJXjXjXFXVXjXjXKXKXjXJXGXbXVXDXKXKXVXKXhXDXDXmXxXlXlX Xn.g.g.k.i.i.#.#.#.G G O.v.~.K.W.",
"V.K.K.U.B.[ F F +.a.i.i.k.k.I.H.oXeXaXSXtXvXJXJXKXJXJXKXKXVXJXKXJXJXJXJXDXVXVXDXCXDXlXnXSXrX`.#Xg.k.k.k.n.b.M.#.O.H _ f.!.C._.A.",
"G.Z.K.H.U.k.W R Q +.a.i.i.k.n.U.@X4XSXvXDXCXJXVXVXJXVXKXFXKXJXDXJXFXDXJXDXDXDXjXnXCXbXnXxXlX`.^.u.g.u.#.T.M.b.O.O.H O.g.XXC.).W.",
"B.K.C.V.Z.Q.j.[ a.n.n.Y.Y.Y.H.B.tXcXcXnXCXDXDXDXDXFXJXFXJXJXJXJXHXHXDXDXCXCXZXCXCXCXnXxXvXlX0X@Xz.u. .u.+.Q H H Q O.O.g.H.C.W.).",
"V.Z.Z.C.Z._.H.j.%.Q Q a.a.a.B.B.9XcXAXnXCXDXDXDXDXFXJXFXJXJXJXFXJXJXHXVXCXCXCXnXnXvXnXvXvXlXpXwXS.j. .E F Z Z H G O.+.k. XD.W.W.",
"H.S.~.Z.~._.`.U.%.Q E W 9.a.B.#XuXcXAXAXBXDXDXDXDXHXJXHXJXJXHXFXHXDXDXDXZXCXCXnXvXCXnXnXlXpXpX0XwX Xk.u.@._ F Z H Q #.v.!.Q.C.W.",
"H.L.~.~.W.~.H.U.p.W a.a.p.Y.,XtXpXAXAXAXCXZXDXDXDXHXHXJXFXFXDXVXDXDXVXZXSXCXnXCXnXSXCXvXlXdXeXeX9X@XoX#X:XY.@.F Q +.k.v.D.Q.W.C.",
"G.D.C.W._.~.`.oXU.9.p.B.H.@X6XpXaXAXBXBXCXZXZXHXDXHXJXJXJXDXDXDXVXSXmXVXnXnXlXvXnXnXnXvXnXnXlXeX5XrX6X#XI.I.u._ [ g.I.F.F.G.C.C.",
"H.D.C.~._.~._.`.U.p.p.Y.U.sXpXcXAXAXBXCXCXBXCXHXDXDXDXHXDXDXVXDXGXmXmXGXDXnXnXSXvXnXnXnXnXCXnXlXlXpX6XoXG.v.f.]  .3.c.Q.C.Q.W.C.",
"G.G.~.~._.~._.L.#XB.p.B.4XtXcXvXBXAXBXCXCXVXCXZXVXDXDXFXDXVXVXGXmXMXbXmXnXlXlXvXlXnXCXnXnXnXnXnXCXlX9X5X6X+XC.0.d.q.Q.W.x.~.D.C.",
"V.D.G.~.G._.`.`.U.J.7.B.4XtXVXAXBXvXBXCXCXBXCXZXVXbXSXGXVXbXbXmXMXxXzXfXgX5X{.2X5XpXnXnXnXmXSXSXnXDXDXnXxXdXdXgX7X~.%X~.C.Q.C.C.",
"V.Z.D.K.].`.`.K.oXL.K.L.tXaXAXCXBXcXvXSXxXcXxXkXvXbXnXmXzXNXhXbXMXgX7XW.z._.5X0X0XnXcXnXnXnXGXnXDXSXFXSXmXmXmXmXzXMXNX/.W.R.x.y.",
"Z.V.V.Z.Z.Z.W.].L.K.L.4XBXCXAXcX0XpX9X6XkXlXkX0XkXxXxXMXxXNX=X&X~.!.z.j.].0X0XkXSX&XkX+X~.pXkXSXnXDXSXSXGXmXmXmXmXzXzXzX%XW.x.(.",
"[.G.A.K.K.K.K.[.L.L.L.iXCXCXBXaX0XpX+XG._.].{.eX0XfXxXMXzX7X'.x.d.0.0.C.`.W.t.w.A N r z A.SXGXnXnXnXmXmXGXmXmXmXmXzXzXMXgX/.W.x.",
"N.N.A.A.J.K.]._.K.].3XaXBXaXAXBXvX6X2XL.N.0.2.w.&XfXxXxXzXNX~.0.! ! 2.0./ A n t + X O K SXmXxXSXnXnXbXzXmXbXbXzXzXMXzXzXMXNXW.2.",
"Z._.].].K.].K.J.J.>XuXVXVXpX3X[.N.2.t.N.8.8.1.] K.7XnXlXfXeX+XV.0.0.L y r v N z + O K cXDXxXNXmXxXxXdXdXfXlXzXzXdXMXzXNXzXMX&X0.",
"K ;.5.8.7.N.J.J.,XqXcXCXBX3Xt.Y J J J v r J <.N.K.5XlXvXlXlXeX6XoXz.y w A n z n n <.cXmX6XdXmXNXfXfX7X0X0XgXdXkXkXkXfXdXdXzXdXNX",
"z z z z l r z J >XiXcXcXcX3X8.c J J M , o * v L.[.tXvXvXvXnXvXlXSXS.w r K n / V.uXJXuXcXvX&X0X7X7XwXwX7X6XrX7XwXdX0X0XdXkXdXbXmX",
"s q q w q w l P >XiXAXuXpXuXG.<.x c z , * o w ,XtXaXBXCXCXnXnXnXaX^.j.#X4X2XDXDXnXcXnXNXNXkX&X=XrXwXwXwX*X&X&X&XwX7X7XNXfXdXdXMX",
"4 4 < w 5 , M J.3X>X,X<XtX,XL.,XP.r.4.J m P %.r.AXAXHXCXCXDXVXSXxXeXpXnXkXvXDXnXSXnXxXkXNX7X*X&XOX6X;X%X!.Q.Q.Q.'.*X7X7XwXeXkXxX",
"> 3 > , 5 p B r.,X,XL.,X3X3X3XtXaXiXZXZXAXAXAXAXBXaXBXBXDXDXkXbXvXeXlXSXnXSXSXbXbXxXlXdXgXgX=X-X*X=X;X.X!.c.D.c.Q./.&X=XgXdXlXnX",
"$ > > # w B &.%.J.J.J.J.,X3XtXBXBXaXBXAXiXAXAXiXtXaXHXBXaXvXlXvXlXuXkXnXSXSXmXlXhXkXkXdXwXgX=X;X-XOX.X^.(.R.R.(.OX.X=XNXdXdXkXnX",
"$ $ > $ 6 m B %.t.P.t.t.L.3XiXBXZXBXHXHXZXZXBXiXBXBXBXvXCXSXvXpXlXlXbXCXnXnXbXhX0X5X&X*X*X-X%X-XXXc.c.c.R.R.(..X-X=XNXfXkX7XdXxX",
"% # : $ 6 p h &.t.t.t.t.L.3XsXaXaXBXHXHXHXZXZXtXaXaXaXBXaXsXrXeXcXnXDXCXmXbX0X9X|.~.Q.Q.!.XXR.c.l.h.s.h.R.h.R.(./.%X7XgX7X6XkXnX",
"@ # $ # 3 p h M r.r.r.r.P.,X3X3XtXAXAXAXAXZXBX3XU.sXsXsX#X$X$XH.'.kXnXnXnXbX0X|.|.~.C.z.c.c.l.h.s.$.X.h.h.R.R.(./.%XNX0X6X5XlXSX",
"@ @ @ @ : u p p &.6.r.r.t.P.J.B.J.3XiXBXZXBXaXP.B.L.p.p.B.Y.Y.3.`.pXkXhXkXcX5X{.'.`.!.F.x.h.s...X.X.s.s.h.R.R.(./.=X7X7X7XdXbXSX",
"@ @ @ # - # - 6 B 4.r.6.%.5.r.r.t.J.L.tXAXaXtXB.%.a.p.n.E y C 9.eXCXnX0XhXNX|.'.~./.^.c.l.s.X.X...$.s.s.X.R.R.R./.&X7X&XqXbXSXSX",
"@ - - @ @ - - - m r.r.4.4.4.4.4.r.r.J.3XtXAXaX,XC C T %.Z e E rXlX9X5X0XkXkXkXgX&X~.Q.!.R.$.X.$.$...X.X.X.q.x.Q.%X~.~.0XmXSXSXSX",
"- @ @ : u : 3 3 j 4.6.4.-.4.4.%.r.r.J.,X,XtXtXL.Q W C C C F Y.U.#X^.V.A.~._.'.&X&X=X.Xc.h.h.h.$.X.} ' } X.h.R.~.%X'.6XzXSXmXSXSX",
"u : : 3 u u i i m :.:.4.6.6.4.r.r.r.L.,XL.L.L.P.p.%.C y C a.B.p.j.z.V.~.oX'.&X7X=X-X.Xc.s.X.X.X.} } X.X.l.R./..X|.NXzXmXSXSXSXGX",
"u u u u 6 p p u j &.-.:.4.4.4.4.%.7.N.P.r.r.r.9.p.%.T C C a.p.p.j.D. X+X+X`.'.'.%X.XR.c.s.X.X.} ' } X.h.R.(.`.%X=XzXmXSXmXGXSXSX",
"u u p u 3 4 4 3 3 V :.6.6.e.t.5.5.8.t.N.t.t.t.r.p.%.%.C A W ] 3.3.3.0.3.3.3.0.x.^..XR.h.q.h.X.` ` } $.R.c.c.^.*XfXbXGXGXmXSXSXbX",
"a p u a i 6 q g B *.:.t.t.5.4.^ <.<.5.6.r.7.5.5.9.%.T v v J Y 1.3.0.f.0.0.x.Q.'.Q.c.R.q.X.q.X.X.} X.s.h.z.D.&XdXxXmXVXbXbXSXSXbX",
"g u a j j j m V m k f P -.;.5.7.8.2.1.4.6.4.4.<.%.%.J l v v K ! ] [ 3.3.q.0.0.q.h.q.2.q.q.} } q.q.d.h.R.^.%XdXxXnXnXmXbXbXbXbXjX",
"B m m B B m a 8 2 q s k x P 6.<.<.1.;.*.4.4.>.>.%.T e l v v v c S S L ) | q.0.3.3.q.q.q.X.} } } l.d.h.Q.*XeXfXzXvXbXbXmXmXbXzXhX",
"m B B m p p p p m p < > q m P &.&.*.-.-.=.=.%.%.C c c C J J K A A S S ! `  . . .| } s.} ` ` { } X.x.~.=XfXmXnXdXkXlXxXlXkXlXhXdX",
"m m j j p h j j i 6 4 p 6 > i &.P %.-.-.-.<.%.U J P Y Y Y L L ] { { | }  .u. .'  .` } ` ` } ` ` w./.NXgXdXkXxXxXfXkXkXNXNXNXeXNX",
"g g g j m j p p 3 i i < % ; 8 d P &.-.%.%.%.=.%.U >.<.4.] ] ] 3.3.|  .| | | ` ) ` ! ! ! ! ` } q.Q.7XzXbXgXdXfXkXkXdXdX0X7X0XgXdX",
"u g j m m p p i p i > > $ % > 6 m B &.%.I %.=.%.1.U >.1.1.1.,.{ ] ] ] ] ] ) ) S S S ` ! S ! h.-X&X7XNXgXfXxXzXgXdXNX0X7X7X0X7X0X",
"u g p m m p p p a 2 < 7 2 @ X > < h I %.>.%.%.%.%.U Y U U ] ^ / { ] / ) L S S D A S ) `  .l..XgXNX7X7XgXkXxXfX7X7X5X7X=X7X7X7X6X",
"p p i j m p h p 8 8 6 < ; ; % # O 2 x J &.%.%.%.%.%.U U U Y ^ ] ] ! L K D D D D D S  .l.!.-X=XwX7XgXdXdXfXfXdXwX7X=X7X7X7X7XqX7X",
"p p u h m p p u i 6 < < 1 ; $ $ % & w p N P %.>.%.1.>.] U L U >.L K A A D c D A L ) z. X.X-X&XwXfXkXfXfXdXgXwXgX7X=X7X=X*X7X7XgX",
"g p : p h p p i < 4 6 3 ; & $ % > O # q m P P P %.W U U Y Y L K L A J S L L ) { | | z.Q.~..XOX*XzXdX7XdXfXzXdXgX=X&X%X'.'.&X*X=X",
"q 5 q i p j > p < < < 3 > ; ; - - + # 7 N P P I I I Y U Y Y Y Y L Y / ) ] { ] | { j.c.z.z.C.%XfX&XwXgXfXgXgX=X=X=X%X(./.'.%X7XNX",
"5 5 4 5 p p 2 p 8 < : < > ; ; - - # # 7 m B P %.Y U =.^ U U U U ^ ,.,.] ] 1.3.3.0.j.z.D.G./.&X6XrXwXfXfXgXgX=X=X%X/./././.&X=X=X",
"i p 5 4 i p q i q 1 > > ; ; ; - $ # # 4 x P P %.%.=.=.,.>.=.>.>.,.| ,.] 2.3.3.f.0.f.l.Q.OX&X&X&X0XeXgXfXgXwX=X%XR.R.Q.Q./.%X-X%X",
"p x i w p p p p 8 < < < : ; - $ % # # ; h B *.~ %.=.=.,.,.,.1.1.1.1.2.3.3.3.0.d.0.f.z./.oX/.'.&X0XeXgXgXwX-X%X/.R.R.R.R././..X*X",
"q h q w q i h p q < 3 3 : ; - - @ - # % i B *.I *.=.>.>.1.1.<.4.2.2.3.8.8.j.j.l.l.z.!.oX'.~.'.&X6X6X6X*X*X.X(.R.Q.h.h.R././.%XNX",
"2 q 8 2 4 q g p p i i 3 : : : : - : - @ 4 x P *.;.-.<.<.4.4.5.5.8.2.w.j.l.j.z.z.c.c.c.!..X&X&X5X+X6X@X&X%X/.Q.R.R.h.q.R./..X%XgX",
"2 7 q 4 3 4 p p p p 6 6 3 3 3 3 - : & # - 7 x =.;.-.<.<.5.5.8.7.8.8.7.j.z.z.v.!.(.(.!.!.OX=X7X6X5X5X+X+X/.(.R.R.R.R.h.x.(.%X-X%X",
"5 7 d 7 q i h p p i u u u 3 3 : 1 - - % # $ p I ;.<.<.1.5.8.7.w.w.w.j.j.S.z.XX.X;X;X=X%XOX&X=X6X4X@X+XOX(.R.R.q.R.R.h.l.!.%X/.x."
};
