/* XPM */
static char *d2b96e29e1464accd72934e8899ab1e5OmhZWH7IiYWhOzMm[] = {
/* columns rows colors chars-per-pixel */
"64 64 256 2 ",
"   c #0B1035",
".  c #171A48",
"X  c #031F48",
"o  c #371D4F",
"O  c #0E2951",
"+  c #312E55",
"@  c #0C3877",
"#  c #353669",
"$  c #31326D",
"%  c #483758",
"&  c #4E366E",
"*  c #653E7E",
"=  c #19466F",
"-  c #33516E",
";  c #3A6870",
":  c #1C455B",
">  c #564D5B",
",  c #50516F",
"<  c #655767",
"1  c #6E5074",
"2  c #5C6978",
"3  c #546972",
"4  c #676877",
"5  c #766675",
"6  c #726B6E",
"7  c #5E5D5E",
"8  c #86777A",
"9  c #886A78",
"0  c #748278",
"q  c #8D867B",
"w  c #1E3D97",
"e  c #543986",
"r  c #14588C",
"t  c #2F548B",
"y  c #376787",
"u  c #266B94",
"i  c #376998",
"p  c #347392",
"a  c #1158B0",
"s  c #3555B0",
"d  c #1970B1",
"f  c #376CA7",
"g  c #3975A8",
"h  c #3876B5",
"j  c #2A6FAF",
"k  c #1F6890",
"l  c #475788",
"z  c #4E4F8A",
"x  c #684B87",
"c  c #6F518F",
"v  c #476987",
"b  c #5A6A87",
"n  c #487689",
"m  c #58758A",
"M  c #467799",
"N  c #587797",
"B  c #4C6C94",
"V  c #667986",
"C  c #657898",
"Z  c #787897",
"A  c #726F8F",
"S  c #574FAB",
"D  c #7C58A6",
"F  c #6951AB",
"G  c #5879A6",
"H  c #4972AE",
"J  c #677AA4",
"K  c #7473AB",
"L  c #3276C4",
"P  c #1465C1",
"I  c #7C67C4",
"U  c #8D4D98",
"Y  c #946B8A",
"T  c #847995",
"R  c #967499",
"E  c #8C6F8F",
"W  c #865BA5",
"Q  c #8763A7",
"!  c #8779A8",
"~  c #9877A6",
"^  c #9473B3",
"/  c #B676AB",
"(  c #A879B5",
")  c #AC74AD",
"_  c #A3709A",
"`  c #8D6DC2",
"'  c #A55EA1",
"]  c #3B89BA",
"[  c #3795B9",
"{  c #2F8CAF",
"}  c #2D8DAB",
"|  c #598898",
" . c #568991",
".. c #668287",
"X. c #79878C",
"o. c #67879A",
"O. c #788795",
"+. c #689697",
"@. c #789697",
"#. c #70A49B",
"$. c #5888A9",
"%. c #5894A7",
"&. c #488BB6",
"*. c #558AB6",
"=. c #4998B9",
"-. c #5796B6",
";. c #4490AC",
":. c #6989A7",
">. c #758AA7",
",. c #6795AA",
"<. c #7697A8",
"1. c #658AB6",
"2. c #6798B6",
"3. c #7799B8",
"4. c #768CB7",
"5. c #59A9B6",
"6. c #67A4BB",
"7. c #79A9B7",
"8. c #69B6B8",
"9. c #77B6B9",
"0. c #74A5AD",
"q. c #7AC2BD",
"w. c #348EC8",
"e. c #4998C6",
"r. c #549AC7",
"t. c #4992CF",
"y. c #6E93C4",
"u. c #58A5C7",
"i. c #54A9D4",
"p. c #78A9C9",
"a. c #66B6C6",
"s. c #76B7C7",
"d. c #79B4D2",
"f. c #6FA9CB",
"g. c #7AC4C8",
"h. c #70C7D1",
"j. c #59C1DB",
"k. c #88878A",
"l. c #8A8695",
"z. c #859895",
"x. c #93918B",
"c. c #A8999B",
"v. c #A98C95",
"b. c #86A69B",
"n. c #93A792",
"m. c #ADAD99",
"M. c #8785A8",
"N. c #949DAC",
"B. c #9689B7",
"V. c #9996B9",
"C. c #8B8EAF",
"Z. c #AB97A5",
"A. c #B697AA",
"S. c #A789B7",
"D. c #B585B9",
"F. c #A894B6",
"G. c #B89AB8",
"H. c #B18CA5",
"J. c #87A7B8",
"K. c #88B8BA",
"L. c #96B8BB",
"P. c #92AAAC",
"I. c #B7B9A8",
"U. c #B8A6B9",
"Y. c #BAB9B8",
"T. c #ABB0B1",
"R. c #C38FB1",
"E. c #C4A5BE",
"W. c #C9B9B8",
"Q. c #CDBBB1",
"!. c #E8BABC",
"~. c #92C4B4",
"^. c #A6C5A9",
"/. c #B7C3A9",
"(. c #A7C6B6",
"). c #B5C5B7",
"_. c #B2D4BB",
"`. c #BFC599",
"'. c #C9C5B8",
"]. c #D7C7BA",
"[. c #C9D8BA",
"{. c #CFCDB3",
"}. c #E7D0BC",
"|. c #D4E8BC",
" X c #EBEBBE",
".X c #C3C19B",
"XX c #9898C8",
"oX c #8D90C8",
"OX c #B89CC7",
"+X c #A991C7",
"@X c #99A9C9",
"#X c #89B8C7",
"$X c #97B7C7",
"%X c #88B7D3",
"&X c #8DADCC",
"*X c #A5A7C6",
"=X c #B8A7C5",
"-X c #A5B7C9",
";X c #BAB7C4",
":X c #A5B7D6",
">X c #AEAFD5",
",X c #AAA6E1",
"<X c #C49CC4",
"1X c #C6A8C4",
"2X c #C6BAC5",
"3X c #D4BCC7",
"4X c #D8A8C5",
"5X c #E4B7C6",
"6X c #89C5C9",
"7X c #97C7C8",
"8X c #95D9CA",
"9X c #96D7D5",
"0X c #8ECED1",
"qX c #A7C6C7",
"wX c #BACAC8",
"eX c #A8D7C8",
"rX c #BBD7CA",
"tX c #AAC9D5",
"yX c #A6D9D6",
"uX c #BAD8D6",
"iX c #B5C5D2",
"pX c #99E4D1",
"aX c #A9E4CC",
"sX c #B7E6CB",
"dX c #AAE6D6",
"fX c #B8E7D4",
"gX c #B8F3D7",
"hX c #BEF5C9",
"jX c #B3D7E3",
"kX c #ACE9E2",
"lX c #92D5E4",
"zX c #C9C6C7",
"xX c #D7C9C9",
"cX c #C7D6C9",
"vX c #D6D9C8",
"bX c #C6D8D5",
"nX c #D6D7D4",
"mX c #CFC8D3",
"MX c #E6C8C8",
"NX c #E5D5C9",
"BX c #EAD2D1",
"VX c #C9E6CC",
"CX c #D7E4CA",
"ZX c #C5F3CB",
"AX c #CAE9D6",
"SX c #D8EAD5",
"DX c #CBF4D6",
"FX c #D8F7D8",
"GX c #DCF2CC",
"HX c #E7E9C8",
"JX c #E7E9D3",
"KX c #E5F5D6",
"LX c #F2F1CE",
"PX c #C5FAE5",
"IX c #D2F5E1",
"UX c #ECF3E1",
/* pixels */
"zX7 9 '.|.;XV.W.qXi 2.9XM.+XY.nX].Z.U.AXdXpXdX6.p K.7Xd.uX XVXqXqXcXHXrXd.#XK. .6.dXpXsXAXU.H.zXvXE.F.C.yX2.i -XW.XXwX[.{.E > zX",
", < I.].xX-X;XcXG &.dXZ T U.mX3XD.A.cXAXgXAX~.-.#X~.s.uXHXvXwX#X#XwXvXHXAXs.6XK.%.6XhXkXAXrXG.A.3XmXY.Q O.jX&.N cX;X*XxXxXI.< > ",
"1 Q.W.W.wX;XzX+.2.tXb 1 1XE.R.R.+X>XJXDXaXaXg.^._.9.uXxXW.).N.i.i.J.Y.W.'.uX9.qXT.q.dXdXFXvX>XS./ <X=X;X1 b jX%.| zX2XwXQ.3XI.5 ",
"'.xXW.mXU.U.z.3.L.b & E.~ U / ( OXvXSXuXdX8XrX_.~.T.E.S.Z.C.i.w.] i.z.Z.S.U.T.~.eXrXpXaXdXCXBX>X( / U _ OX> l tX0.z.U.U.zXQ.].'.",
"|.zXrX=XF.l.z.-XB $ ( < o _ ( oXW.vXyXfXAXAXcXK.^.c.W W Z u.w.$.*.w.u.A Q c Z.^.K.rXVXVXsXyX[.3XXX( _ % 1 ) $ B $X@.k.D.=XiXxX[.",
"cX>X1XU.k.z.J.; $ D e   Y ~ :.E.2X0XyXCXvXSXK.Y.q # e z &.e.$.3.4.$.e.r.z * % q I.#XnXSXAXjX#X2XE.>.~ 9 . e D $ y N.n.x.OX;X-XcX",
"B.;XmXz.b.P.n - x z w Y R b v.T.p.,XzXcXbX~.iXN.% . + &.=.| >.N.N.:. .=.t.+ . % N.zXL.bXnX2X:Xp.T.v.N R Y @ l x - 3 P.b.z.zX2XB.",
"Y.[.+.<.-X; - & y u ~ E 3 l.c.,.>.A.E.mXT.bX7Xd O X g =. ...O.bXbXO.V  .*.g X O j $XrXY.zXE.G.>.:.x.l.b Y Q u y & - y $X<.+.[.;X",
"tX| 2.tXv $ x y ;.C.Q ; X.V.| n T ) E.I.cXtXe.a @ u 2.| 2 2 (.DXDX(...2  .2.i @ a t.yXbXI.1X) Z m  .V.O.- A B.;.; x - v tX,.| iX",
"B &.jX, , D l u +XQ - ! V.g n 5 5 v.wXvXbXh.[ r f :.:.N  .7XSXSXSXVX(.n B $.,.g r [ h.rXvX2XZ.5 4 M g XXZ 3 W S.u t D # l jX&.B ",
"$.yXb % ( e @ ( Q - T oXw.&.:.< q Q.nXSXpX8.} M $.%.*.i J.rXHXCXCXJXrXJ.g G %.$.M } a.pXAXnXI.q < >.;.h XXT ; W ( @ e ( % b kX$.",
"yXZ x OX1 X Y Y ; A XXh -.9.B q I.BXNXIXpX#.G %.0.&.j y.F.3XcXzXcXzX3X*X2.j *.0.%.$.#.8XFXNXBXI.T 3 g.y.L oXA ; E Y . 1 OX1 K 9X",
"C.K =XR o 9 Y v X.XXL y.lXG ! I.MXNXJX[.b.N :.g.-.h M J +X=X2X-X-X;XG.+XK H { =.#X+.V #.[.LX}.MXm.T G lX-.L @XZ v E Y o R 1X! M.",
"B.U.R.U ' ~ m l.V.g =.K.J oXI.5X}.KX[.n.0 k.eX5.{ j - x ` OX-Xd.d.$XOX^ 1 , a } 5.eX@.2 m.[.KX}.].I.oXG 6X&.g V.l.m ~ _ U G.U.S.",
";XxXR./ ) o.c.c. .p >.v M.I.E.!.NX].m.4 ..hXK.{ w.r o c ^ *Xd.e.e.p.:X^ e + r L [ K.hX..4 m.{.NX4X!.I.M.B O.n $.c.v.>.( / R.mXY.",
"xXxXD.( XXU.F.,.n 4 < q m.5X4XQ.R.x.7 6 SX0X&.t.a $ # D *Xp.t.r.e.i.7.@XD & $ j w.w.0XJX0 7 q R.Q.4X5XI.8 , 4 m ,.T.R.oX( H.3XnX",
"nXR.+X,X3XW.&XK A 6 q m.MX!.NXA.9 > 8  X$Xr.-.] i $ z @X3.u.a.$X@Xa.u.3.*Xz $ u ] -.u.6XHX9 > 9 R.BX}.xXI.q 9 A >.&XzXW.,X+XA.MX",
"Z.H.2XmXxX0X@XF.) c.W.MXNXLX].8 % 5 NX).,.N y.-.t z V.:.u.#X>X2X2X>X6X8.1.V.& t -.y.C ,.I. X< > R {.KXMXBXm.c.) F.:X%XxXBX;XA.Z.",
"c.bXNXSX9XyXxX1X1XY.vXvXUX|.n.6 9 }.).z.V <.p.g l B.4.8.~.N.OXxXcXOXN.~.8.1.B.B h &X>.V z.(.}.8 < n.|.JXNXnXI.1XE.'.uX8XSXJXwXv.",
"AXAXDXfXsXCXmXzX(.vXCXDXVXn.6 6 HX).z.2 X.$X&.H ! -.s.^.x.k.xXSXSXzXT x.(.s.6.^ H &.$XX.2 z.).HX8 5 n.[.IXAXnX).2XmXAXsXyXAXbXIX",
"gXdXhXsXVXSXmX(.bXbXaX_.b.m X.HX7X,.V X.$X2.n J 2.g.yXl.6 Q.SXDXGXGXI.6 l.rXd.2.C B ,.7X@.V <.7XGX0 2 b.aXpXrXcXqXbXnXAXsXsXkXgX",
"8XDXpX8XCXbX$XbXyXh.h.#.b z.ZX6Xr.J <.K.6.N C 1.s.uX&XC Q.|.DXZXZXDX|.Q.C &XuXg.1.C G ,.K.>.G r.0XhXz.m #.q.h.yXbX~.nXVXpXdXgX8X",
"gX6Xs.rXrX6XwX$Xe.[ } H O.eX7.[ *.y.&X&.B C 1.%XzX$Xf.cX|.GXVXbXbXVXDXGXwXp.$XzX%X1.b M &.&X2.-.w.K.eXo.M } [ e.$XzXL.uXuXg.6XgX",
"3.5.(.wXK.Y.N.f a r ;.%.7X5.] t.] -.h H J 2.p.>XqX0XVXHXCXmXtX6X6X>XxXHXHXsX9XtX*X%X2.K H h -.h e.[ 5.6X-.;.r a j N.I.L.rX^.%.6.",
"y K.(.b.^.x.+ O = h $.0.-.{ w.j i t i ^ 1.g.wXiXyXFXHXnX1X@Xi.9X9Xi.V.1XBXLXFXeX:X).g.4.B.l t u j w.{ -.,.:.j @ O + x.T.~.(.K.p ",
"9.7XK._.v.- . X k $.,.&.j i r @ # , B.u.g.uX#X8XKX X}.F.` r.7XGXGX7Xt.I F.vXHXKX8X6XuXh.y.oXl # @ = j h ;.%.1.i O . % v.^.q.~.7.",
"6Xs.uXE.D & $ f 2.:.*.j H - $ $ x F.1.8.uX&Xd.VXLX].M.F s oXJXFXKXJXoXH F ^ {.LXVXf.&XuX8.1.V.x $ + - H j $.$.2.g $ & D E.wXs.6X",
"s.bXW.S.Q e H -.N J f *.C x x D XX:.8.(.l.N cXJXBX+XF w S 1XLXIXDXKX1XS s F F.nXJXmXJ x.(.8.,.@XD x x J 1.g N C -.h z W S.xXbXd.",
"uXHXY.Z.Z r.=. .2 n J.V.( ` ^ T.3.u.(.q 6 /.HXNX1XI s F ) cXIXgXgXFX[.) S s ` 1XvXHXQ.6 x.~.6.3.*X^ Q +X*XC.n 2  .=.=.Z c.W.CXfX",
" XcXY.l.u.[ +.m 0 $XcX3XOXOX@Xp.u.#XN.E .X|.AXmXXXr.oX<X[.LXgXS.F.PXKXvX<XoXt.V.xXDX|..XT V.#Xu.7.,X+XOXxXwX~...V  .e.u.z.Y.vX X",
"CXwXJ.i.w.G <.O.(.VXSXxX2X@Xp.t.a.-XOX2XIXDXnXtXi.~.NXGXFXPX*XD D +XPXFXHXJX#Xu.:XCXFXFX'.OX:Xa.r.d.$X2XzXJXAX(.O.>.N w.i.J.rXvX",
"wX9.i.w.*.C.N.rXDXFXCXwXtXd.e.u.-X2XxXSXZXGXfXg.0XKXKXIXgXF.D s s D F.gXIXGXKX9Xg.fXVXZXSXvX2X$Xe.u.p.:XrXvXKXAXrXN.4.*.t.i.7.tX",
"qX#Xi.] -.4.N.rXDXFXvXbX-Xf.i.r.$X3X|.SXAXhXfX6X0XKXKXIXgXXXF s L D F.gXDXKXKX0X6XfXhXDXSXvX3X@Xr.t.d.:XmXcXFXGXcXN.4.-.] i.&X-X",
"cXwX#Xt.L -.:.X.eXAXJXxX;X$Xp.r.a.@XOX2XFXFXAX:Xi.6XJXKXFXPX+XD F +XDXFXSXJX7Xi.:XCXDXFXzXOX-Xa.r.f.6X;XvXSXAXeXO.,.$.w.i.&XwXcX",
" X{.2XP.e.[ | ..V 7XwX].1X+X@Xf.u.%XF.T '. XAXmXXXr.oX1XvXKXPXV.S.gXKX|.1XoXe.V.xXVXHX{.E N.#Xu.f.$XOX=XzXrXyX2 ..| w.e.P.W.[. X",
"sXJXm.Z.C.&.=.+.2 ; &XU.+X` B.@Xp.6.^.x.7 '.LXCX1XI f F / vXKXgXgXFXvX/ F H I =XCXHX{.7 x.^.a.3.:X^ ` D.T.&X3 4 +.=.&.C.A.m.HXsX",
"%XbX].~ W F H =.o.v f y.K x c W XX2.8./.k.C wXJXBXS.S w F 4XJXPXIXGX2XF w F S.mXGXzXC k.(.8.2.@XD x c K y.f b +.-.h D Q ~ ].bXd.",
"#Xs.rX1Xx e $ h -.+.H j H - + # x V.2.9.iX@Xs.VXLX{.! S s oXJXFXKXJXoXs S ! ].LXrXs.@XeXs.2.V.x & + - &.j H :.-.f $ & c 1XuX7.0X",
"7.7X9.).m.+ . O u 1.6.r.d p t = $ z C.6.0XuX7X9XGXHXxXS.K t.0XKXKX0Xt.D S.xXHXKX9X$XuX6X6.B.z + = r i d &.2.$.u O O + c.).7.7XK.",
"y #X_.#./.x.. O @ h | 7.u.d L a u t z C.2.g.wXiXyXKXLXMX=XV.u.9X9Xu.B.1XnXHXFXsXiXzXs.2.4.z t u d L d -.J.| h @ O . c.^.#.(.K.y ",
"0.-.(._.0.I.P.t a d i 2.0X5.{ w.] -.h s >.-.%X=XiX0XVXJXvXzXtXg.g.tX2XvXLXVX0XtX;X%X2.! H j *.] w.} 5.0X2.p d a r N.I.7.wX^.%.6.",
"aXg.q._.bX#XqX:Xw.{ } M o.dX9.[ *.1.%X*.i A -.%XwX7Xd.wXHXFXnXuXsXnXDXKXwXf.7X2Xd.$.A g *.#X2.*.=.K.yXo.M } } w.:XwX#XbX_.9.~.aX",
"8XaX9XyXnXnXK.rXqXj.h.#.m X.DX9X=.G >.8X2.$.A 1.s.bX@XC {. XDXZXZXFXHX].C @XbXh.2.C M 2.7X,.G ;.0XZXX.m +.h.i.yXrXL.bXvX9XpXdX0X",
"dXdXdXdXAX|.[.(.vXfXg.8Xn.7 V KXyX,.4 O.eX2.i J f.g.rXk.7 Q.FXZXDXFX.X7 k.bXh.6.Z B 2.yX@.2 ,.tXUXV 3 n.8X8XuXnX~.cX|.AXdXdXkXaX",
"FXVXZXyXyXSXnX2X(.vXVXAXVXn.7 6 LXI.@.< X.7X*.H M.r.s./.q T zXDXSXzXT q ^.q.-.B.H H 7X@.2 @.I.LX5 4 n.sXDXnXCX^.2XnXSXdXdXDXVXDX",
"U.wXJXFX9XyXnX<X1X/.NXNXSX|.n.7 9 HX/.@.m <.%Xh l V.2.8.^.F.OX}.{.OXF.L.8.,.oXl h %X>.A @.I. X9 7 n.[.JXvX}.).1X<XxXjX8XGXJXwXU.",
"v.G.>XNXCX#X*XOX/ H./.BX}.JX].E % 6 LX/.,.G *.2.t , V.2.8.#X>X3XxX:X#Xa.2.V.z - r.1.N ,./.LX1 > E ].GXBXBXQ.Z./ OX-X#XnXNX>XG.Z.",
"].OX( *XmX3Xp.4.T 9 q Q.NX].BXA.5 % 9 UX7X*.*.] u # x @X2.u.a.$X$Xs.r.3.@X1 # u w.&.-.7XLX6 > 1 R.BX].}..Xv.5 A 1.&XxX3X-X( R.cX",
"nX4XR.S.oXG.Y.%.n 5 > k..X!.4X!.A.E > q FX0X{ t.d = $ D *Xf.t.u.r.i.f.@XD $ = d t.[ 7XKX8 > 8 G.].4X5X`.k.< A 3 ,.L.R.XX( R.3XvX",
"Y.l.R./ ) >.v.c. .M @.l M.I.Q.E.MX{.n.7 0 ZX6X{ L t + x ^ :Xd.t.t.d.@X( x + t w.{ q.DX..7 n.{.MXE.!./.! 3 <.p  .c.v.:.) / D.5X2X",
"( x.U.U / R B v.*Xp [ 6XH oX.X5X!.HX[.n.3 ..dX5.d i - x ` OXL.f.f.$XOX` x - f d 5.dXX.3 n.|.JX].5X/.oXJ ~.[ g @Xl.B ~ ) U =XU.S.",
">.x E.~ o Y E v V ,XL 2.kXG ^ .XNXMXKXrXn.b o.9X5.d h J ( G.Y.:X:XY.G.( J H d u.9XC m n.rXJX5X}.{.~ G lX-.h @Xk.3 R Y o ~ ;X^ M.",
"7X4 1 G.1   R Y - Z XXj f.#X, l.Q.NXxXDXpX#.B -.9.&.d y.OXQ.cXzXiX[.!.V.y.d &.K.*.B #.pXDXBXBXQ.k., 7Xu.L XXZ - Y Y . 1 G.x T yX",
"%.@.V & ( e @ ~ T - Q ,XL w.<.7 x./.NXAX8Xh.;.p $.,.H H &XuXKXvXvXKXrX&Xf G 2.| M ;.a.8XAXNX/.x.< <.&.L +XT - Q ^ @ e ( % b yX$.",
"B M tX, $ Q t u V.W - Z ,Xp M 4 < A.^.CXuXj.[ k f 1.+.m ; 7XAXFXFXhX7X; m :.,.P k { j.sXCX/.A.< 4 p g XXZ - W F.r l ^ $ 3 yX*.M ",
"-XB ,.7Xl $ c B ;.S.A - X.XX .m E / 1X^.vXtXw.a @ u -.o.4 m _.DXDX_.2 V >.%.u = P w.tXvX^.1X/ T n  .*XX.- T +X} v c $ v $X2.N $X",
"=Xn.+.<.-Xv # , p u R E ; T m.$.:.<XE.W.T.rX$Xa O O f =. .0 Z VXbXO...+.=.g O O a -XrX(.Q.E.<X:.%.c.T , E ( k y < = v L.@.+.wXY.",
"V.l.'.z.b.J.n : 1 l w Y R b v.T.p.&XxXnXnX~.wXN.+ . # g =.| :.N.N.:.| =.g # . O N.qXL.cXnXxX@Xp.T.v.N R Y @ t c : v J.b.z.zX2XV.",
"/.l.Y.=Xk.n.P.y $ W e   Y R 1.E.zX#XyXSXnXcXK.I.x.+ e S &.w.:.4.C.$.w.&.S e # q I.K.bXCXSXyX#XxXE.:.R E   e Q $ B P.n.k.=X;X=X_.",
"[.T.wXG.F.k.@.-Xi $ ) 1 o ) ( oX3XCX0XrXAXCXuX9.^.c.x Q l.e.w.*.*.w.e.M.U x m./.7.bXCXAXeX9XnX2XB.( ) o 1 ( $ v @Xb.X.S.=XzXcX[.",
"2Xc.zXzXU.Z.z.,.qX, % OXR U / ) *XBXSXyXyXdX_.eXb.).U.~ A.P.w.w.[ w.P.G.R U.).b._.cXyXdXyXSXnX*X( / U _ G.% z $X<.@.U.G.xX'.xXzX",
"5 8 zXxXzX1XzX+.2.jX2 x 1XOX/ R.S.>XSXAXaXyX9.(.eX0.bXxXc.Y.7Xe.i.$XY.m.xXbX0.qX(.q.pXaXDXJX>X( H.R.OX1Xx 4 jX2.+.'.W.wX2X3XU.9 ",
"> > c.NXzX-X;XrX$.&.yXZ T U.mX3XR.A.cXDXkXaX6X%.K.tX9.rXJX[.wX&X%XwX'.HXuX7.eXK.%.g.aXdXSXrXA.<X3X3XU.! Z 9X&.| _.2X;XwXMXm.7 < ",
").< 8 Q.CXwXF.Y.$XB -.yX^ F.1XBX'.Z.G.DXdXpXaX2.p K.7Xd.cX XcXqX(.cXHXVXd.$XK.;.,.yXpXdXIXU.Z.'.nX2XD.! eX-.B -XwXF.wXnXzX9 7 wX"
};
