/* XPM */
static char *_0146ea73a4f40ac827d1b8f32a57479X2f7sNddCw5cH8dU[] = {
/* columns rows colors chars-per-pixel */
"64 64 248 2 ",
"   c #060000",
".  c #0A0100",
"X  c #0C0805",
"o  c #120300",
"O  c #150B04",
"+  c #0D0915",
"@  c #140D16",
"#  c #1B131C",
"$  c #181219",
"%  c #1C1206",
"&  c #261A17",
"*  c #29190E",
"=  c #332417",
"-  c #2B241B",
";  c #1D1823",
":  c #231B25",
">  c #241E2A",
",  c #271C26",
"<  c #331F21",
"1  c #2C232C",
"2  c #2B242F",
"3  c #34282A",
"4  c #3A3327",
"5  c #2C2532",
"6  c #342B33",
"7  c #3A2E34",
"8  c #362D38",
"9  c #3D3136",
"0  c #3D333B",
"q  c #463629",
"w  c #44383A",
"e  c #4B3330",
"r  c #633027",
"t  c #4C443B",
"y  c #574538",
"u  c #70493B",
"i  c #3D3743",
"p  c #453A43",
"a  c #473B45",
"s  c #4D424B",
"d  c #4D4245",
"f  c #53454C",
"g  c #554946",
"h  c #554A52",
"j  c #594C55",
"k  c #5C525A",
"l  c #5B5146",
"z  c #66544C",
"x  c #665759",
"c  c #775A58",
"v  c #6D4D49",
"b  c #79665C",
"n  c #6A6157",
"m  c #685C64",
"M  c #7C5E60",
"N  c #786767",
"B  c #796C73",
"V  c #766D6E",
"C  c #885855",
"Z  c #965546",
"A  c #886A57",
"S  c #94775B",
"D  c #896854",
"F  c #A96B56",
"G  c #B77B5D",
"H  c #AD6A54",
"J  c #876B68",
"K  c #877468",
"L  c #967968",
"P  c #877777",
"I  c #937C7C",
"U  c #997D7B",
"Y  c #977A74",
"T  c #9A6F6E",
"R  c #AB7869",
"E  c #B57868",
"W  c #AA7773",
"Q  c #C67F71",
"!  c #9C8368",
"~  c #9D827C",
"^  c #9B8476",
"/  c #8B8277",
"(  c #A5886B",
")  c #B7846B",
"_  c #A8926C",
"`  c #B4986F",
"'  c #A78A78",
"]  c #B88878",
"[  c #AD9576",
"{  c #B39D73",
"}  c #B3957B",
"|  c #B6997B",
" . c #BCA47B",
".. c #BAA57C",
"X. c #B6815F",
"o. c #C6886B",
"O. c #C68776",
"+. c #C8937B",
"@. c #D6987A",
"#. c #C8A77F",
"$. c #967E81",
"%. c #8A7C81",
"&. c #948182",
"*. c #9B8384",
"=. c #9D8A8B",
"-. c #9A8887",
";. c #998F8B",
":. c #A28584",
">. c #A48A85",
",. c #A58B8B",
"<. c #A98C87",
"1. c #AB9488",
"2. c #B89A86",
"3. c #A58C91",
"4. c #AC9493",
"5. c #AA9898",
"6. c #B49B9B",
"7. c #B49995",
"8. c #B78987",
"9. c #BDA28B",
"0. c #BCA786",
"q. c #BAA599",
"w. c #B49DA1",
"e. c #B9A6A5",
"r. c #BAB2A9",
"t. c #C89A87",
"y. c #D39888",
"u. c #C89B96",
"i. c #D2968D",
"p. c #C3AC84",
"a. c #C4AC8C",
"s. c #C5A48A",
"d. c #D6A48B",
"f. c #C8B28C",
"g. c #C7AA96",
"h. c #D7A997",
"j. c #CBB493",
"k. c #CDB49B",
"l. c #CAB798",
"z. c #DBB29C",
"x. c #D3BC9C",
"c. c #D7B69A",
"v. c #E3A689",
"b. c #E4A999",
"n. c #E8B898",
"m. c #E9B38F",
"M. c #C4ACA8",
"N. c #D6ACA5",
"B. c #CCB5A4",
"V. c #CCBAA4",
"C. c #CDBBAB",
"Z. c #C5B6A9",
"A. c #D3B5A3",
"S. c #DCB4A3",
"D. c #D3BCA4",
"F. c #DBBCA4",
"G. c #D2BDAB",
"H. c #DAB9AB",
"J. c #CCB7B5",
"K. c #D3BDB3",
"L. c #D6BDB9",
"P. c #C5AEB1",
"I. c #E4B9A7",
"U. c #E4BBB4",
"Y. c #EAB1A7",
"T. c #E09F83",
"R. c #D4C19E",
"E. c #E7C29F",
"W. c #CDC1AA",
"Q. c #D6C2A3",
"!. c #DBC3A5",
"~. c #D4C2AC",
"^. c #DBC4AC",
"/. c #DDCAAB",
"(. c #DCC8A6",
"). c #CCC4B8",
"_. c #D5C3B3",
"`. c #DAC4B3",
"'. c #DDCBB4",
"]. c #D5C3BA",
"[. c #DBC4BC",
"{. c #DCCCBB",
"}. c #D5CABA",
"|. c #DDD0BD",
" X c #E2CDAE",
".X c #E4C4AA",
"XX c #E3CCB3",
"oX c #E3CDBC",
"OX c #E8C7B6",
"+X c #F2CBB7",
"@X c #E5D2B5",
"#X c #E4D2BB",
"$X c #EAD5BC",
"%X c #ECD9BD",
"&X c #EBD3B6",
"*X c #F3D5BA",
"=X c #F1CBAC",
"-X c #DCCBC3",
";X c #D9C7C3",
":X c #DBD2C8",
">X c #DDD9D1",
",X c #CEC7C1",
"<X c #E3CEC4",
"1X c #E3CDCA",
"2X c #EBCCC5",
"3X c #E4D4C3",
"4X c #EAD5C3",
"5X c #ECDAC4",
"6X c #EBD5CB",
"7X c #EDDCCB",
"8X c #E4D5CA",
"9X c #F1DDC5",
"0X c #F2DDCB",
"qX c #F7D6C5",
"wX c #EBD4D2",
"eX c #E4DDD4",
"rX c #EDDBD4",
"tX c #EBDBD8",
"yX c #F2DDD3",
"uX c #F7DDDA",
"iX c #F3CBC6",
"pX c #EEE2CB",
"aX c #F4E2CC",
"sX c #F9E5CE",
"dX c #F4E4C8",
"fX c #EBE3D8",
"gX c #F5E4D3",
"hX c #FAE5D5",
"jX c #F5EAD4",
"kX c #FAEAD4",
"lX c #F4E3DC",
"zX c #FAE5DB",
"xX c #F5EBDB",
"cX c #FCEBDC",
"vX c #FCF2DC",
"bX c #FCF1D6",
"nX c #FBE6E2",
"mX c #F6ECE3",
"MX c #FDECE3",
"NX c #FDEEEA",
"BX c #F6E4E1",
"VX c #FEF2E3",
"CX c #FCF3EC",
"ZX c #FEFAEE",
"AX c #F9F4E7",
"SX c #FEF5F1",
"DX c #FEFBF3",
"FX c #FFFEF8",
/* pixels */
,".Z.W.~.Q.!.R.x.Q.~.W.W._._.~.Q.Q.W.'.'XoX$.}X3.{.{.|.|Xp.WX5.'.'.}._.|.|.{Xo.`Xo.`X2.GXo.`.}.C.}.`.`.`.B.G.`.C._.W.W.C.C.B.Z.V.C"
,".W.~.D.k.x.x.x.^.~._.~.W.~.~.~.^.'.'X#.'.{.{.`X4.|.{.}._.'Xp./.|X:.|._.WXo.{.GXoX4XoXo.`.G.`X8.~.`.B.K.`.`._.C.Z.M.Z.B.C.C.V.B.B"
,".W.~.D.F.(X..x.Q.Q.~._.~.G.^.^.^.l./.|.{X#X:.}X:.{X7.}X7.|._.}.|.}.}.}.|.{.{.K.`.K._.KX3.}.}._.VX4.K.G.{.K.K.~.Z.G.G.G.G.G.G.C.A"
,".l.~.!X.X=X.X..!.D.D.G.~.`.^.^.~.|.}.~X8X7.|XgX7X3X:.{X8X:XpXjX8Xp.W.|XpX3X7XoX6.{X6X6X3.|.]X:.|.CX<._.]._.G.K._.C.B.B.A.B.A.k.k"
,".D.!X..c.E.EX=X=X..!.G.~.^.`.^.~.V.WXg.C b q t t l.}Xe K y t = y KX:Xj ' q = q ~X7.}.- y.rX:.) y n.}._._Xo.`.B.L.H.G.N.k.k.A.S.H"
,".c.F.x.n.E.n.EX=X*XX.^.^.^.`.^.^.W.}.} = . = q   OXx /   - = 4 X 4Xj K X * t * . zXm K ..qXf n X 4.{.]._Xo._.BX..SX.X+XqX+XO.S.g"
,".c.c.c.m.E.n.n.nX=X=XXXO.^.^X..'.'X3 ^ . /XmXx t .Xf 4 OX:XZXp % tXp * *.ZXZX: q .X: V  .).r O   3X8.].K.`.K.LXOXqXO.S.s.t.t.z.I"
,"X..z.d.p.m.m.n.n.nX.X+X&XO.^.!.'.CX7 l O.ZX:X8 4 %Xf V X l V V X l.Z   bXe.ZXf /  .;.; X.Z 9 X * 4.{.W._._XoX*X+.A.h.h.t.2.t.d.I"
,".x.R.m.@.@.#.m.m.n.z.IX XO.^X..'._X5 z ..rXeXf 4 XX>X> /   X O   g.r X nX:.)X>.;  .5.&   V   P t -.{.[XoX2XqXO.h.z.h.t.d ] [.z.S"
,".R.n.m `.@.@.m.v.m.b.zX.X+X*XOXXX#._ J O.qXfXe t ;X,Xe n   /Xe O t.}   tX>XfX> z X.r / X   -X- 3 =X6.[X2Xq.I.h.h.h.t.h.t ] |.h.h"
,".F.F.c ).X.o.@.@.v.h.h.nX=X=X+X+X.X3.q o -.;.r % XX>.;   gXZ.) X wXm l X n.r / X -X> / X ..5XC & =XnXi.UXO.h.Y.Y.y.y.d R W.d.h.S"
,".~.D.c.s.X.X.@.m.T.v.n.I.I.IX+XqXqXoX6 / - X X X -X> X $X,X,X> X iXe.) t       4.rXf K X lXf.] q eX+XO.U.U.z.d.t.d.y.+ R }.A.A.F"
,".W.G.F.h ) G.o.@.@.y.d.b.h.d.bX*X0XsXVXZXVXxXfX,X>XeX>X>XBX,Xe.r.)XfX,X>X,.;.rXeXeX:X:.r.]XrXzXw.HXi.Y.Y.b.b.b.Y.d.y R '.g.c.H.A"
,".W.C.Q.n ` G G.@.@.@.@.v.d.d.d.zXOXhXaXVXVXVXAXZXFXSXFXDXFXSXAXSXSXFXSXAXZXDXZXAXZXAXmXZXCXyXyXO.U.h.N.N.b.b.y.O.O ) F.t.S.A.~.k"
,".Z._.DX..d ) H.o.@.v.v.b.h.h.d.h.HXqX0XhXxXAXfXfXfXSXAXCXDXCXFXCXFXDXFXDXAXDXmXDXfXFXvXfXyXcX0Xo.U.Y.N.i.y.i.y.O H F ].z.^.F.~.V"
,".).W.VX..d ) H.o.o.v.m.T.@.s.d.+.SXoXsXzXjXAXxXZXCXmXFXmXCXFXAXFXAXFXSXDXFXDXDXAXDXfXAXVXxXVX<XO.N.Y.u.i.b Q Q.O E R.hX..A.G.V.V"
,"._.V.B.!.d.O.o Q H H E.O.t.+.t.kXoX0XhXzXcXcXcXVXMXNXVXNXNXSXDXSXDXFXFXDXZXDXDXCXCXCXCXMXzXzXtX6.A.Y.Y.Y.Y.b.b.i ).g.~.V.B.V.K.B"
,".W.W.DXO.h.O.o G H Z Z F ) }.g.GX0XyXhXhXzXzXcXcXcXnXMXMXNXCXSXDXDXDXDXDXZXDXZXCXCXCXCXmXxXBXuX6.J.N.i.i Q Q Q.$.g.H.`.C.C.C.A.B"
,".W.W.W.!.h.y Q H Z H.O.+.t.gX.X5X6X0XyXhXcXcXnXcXnXMXMXAXAXCXCXSXAXSXDXDXSXDXSXCXCXCXVXMXmXBXuXr.U.N.i.$ W E W.8.U.`._.~.C.~.F.A"
,".l.W.W.F.b.v.@ G F.+.YX=XOXOX+X6X7X0XhXgXzXMXMXcXcXcXmXMXVXNXAXCXCXCXCXZXDXSXSXCXCXCXNXnXBXBXBXuXwX2.Y.i.u Q W.u.U.^.G.W.W.~.H.L"
,".V.V.Q.D.F.I.d ] (.t.S.IXOX4X5X2XgXhXcXcXzXcXcXcXcXxXzXVXVXVXvXCXAXCXAXSXSXSXSXSXSXSXNXNXnXnXBXuXyX4XO.U.Y.i.8.UXO.`.~.~.W.V.D.G"
,".V.W.Q.D.Q.x.2 | [.t.A.HXOX4XuXhXhXcXcXcXcXcXcXcXMXcXcXVXVXxXvXAXAXCXAXSXSXSXCXNXNXNXnXnXMXnXBXBXlXyX2.U.N.u.uXO.`._._._.~.C.A.F"
,".V.V.~.l.Q.W.9.a.9.VX#X$X3X6XlXcXcXcXcXcXcXnXcXhXzXgXhXcXvXkXbXvXAXAXmXCXAXCXAXVXNXNXMXMXMXnXBXnXnXhXwX2.J.u.NXO.H.K._.~.~.~.G.G"
,".D.V.Q.V./.'.~X%XdXaXgXkXMXVXVXcXVXVXcXcXcXcXyX4X<.{X3XaXkXsXkXvXvXxXmXAXAXVXxXmXMXnXcXMXNXnXzXnXlXmX6X2.N.7.N.L.`.[._.G.~.G.G.k"
,".r.l.R.W.'XdXbXbXvXvXvXvXVXZXCXVXkXZXcXvXMXgXcXgX7X3.~.B.~X4XdXbXbXpXpXsXvXxXcXzXgXcXgXcXVXzXgXzXnXnXuXw.L.L.H.[.L.].]._.K.H.C.B"
,".(.R.WX@XjXjXjXvXvXvXvXAXVXVXVXMXVXkX0._.{Xy.{XcXgX7X0.}.g.l.Q.^.|X5XpXkXkXkXjXgX7XgXhXgX6X6XyXrXlXBXMXnX2.L.J.`.`.G.C.C.C.M.B.C"
,".R.r./XpXbXjXjXvXvXvXvXAXVXvXcXcXcXZXV.Z z y K b.q.M.C.`.V.9.2.a.l.'XpXjXbXvXsX9X7.[._.K.CXoX0XyXuXnXMXMXwX;.K.].[.K.C._.G.C.C.["
," [.WXpXbXjXjXjXjXjXbXvXbXjXxXcXcXvXkXcXV K X o * t b A !.0.1 ^ !.9.~XpXsXkXkXaX#.g.1.9.Z._X<X6XhXnXBXlXnXuX1.].J.].].L.J.Z.C.M.M"
,".9.|XbXjXdXjXxXsXjXjXgXgXaXaXkXkXVXpXhXVXg K . * z N c y u L.s.9.BXoX0XsXkXzX7.K.<.<.7.7.M.M.1.MX;X1XyXnXmXtX-.L.Z.K.L.L.].}._.Z"
,"XpXjXsXjXaXaXjXgXhXaXaX9X7X9XaXsXdXvXaX4XMXg.1 b b z b A q u.V.'X4X0XhXgXzXhX3.G.M.< J y v J J J Y.qX1XMXMXlX8X;.J.J.M.q.7.4.- K"
,"XvXjXaXsXaX7X7XaX5X5X4X4X5X9X9X9X4X7X3XxXgXrXDXr.Z Y b T y r.AXMXhXcXcXcXcXzX6X;.L v * o < M J J c.7X1XlXlXlXrX- J v g g z z z z"
,"XkXaXaXaXpX5X5X9X$X$X&X4X9X9X9X5X$X#XaXaXpXmXlXnXAXCX<X<Xo.q.HXhXzXnXcXnXnXnXuXwX; e o * < z c x.<.JXyXrXrXlXtX- P v e e e w w d"
,"XjXgX0X9X5X5X#XX.Q.Q.!.QX@X%X4XXX#X$X5XdXgXjXcXVXVXVXzXgXcXgX9XcXMXmXZXnXNXNXBXB.w.$ P m P.3.w.PX;.LX;X6X1X-X;X1.J M < 7 e 1 6 3"
,"XcXhXaXdX%X@./.Q.x.D.R.QX X*X*X%X$X%XdXdXaXhXkXxXxXVXcXMXvXhX7XcXxXlXVXVXNXnXuXnXBXBXNXBXNXNXwXuXtX1X1X1X;.LX;X;.w B a 7 , , 5 ,"
,"XcXhXaXaXdX#X@XX.(.R.R.(X.X XXX&X*X%X9X9XaXgXaXgXgXMXVXVXMXgX7XhXcXhXcXlXnXNXuXwXtXuXBXtXBXnXuXuXnXwX1X;.J.P.J.J.$.% M e @ : : :"
,"XkXaX7XaXsXpX%X&X .(.R.R.x.x.x.!X@X&X$X$X#X#X5X8XpXxXVXcXcXzXlXzX0XcXMXMXnXnXnXnXtXnXNXNXNXSXNXNXuXwX1.L.M.e.P.r.$ B m p # > $ #"
,"XMXaX3X5XdX5X@./.(.R.f.R.f.p.f.j.x.RX..!.~.~.`.|X6X7XxXcXMXVXMXgX6XiXqXuXnXuXuXuXwXnXSXSXSXNXNXuXuXwX1.J.w.w.P.e.% j a 6 # > @ #"
,"XVXgX4X8X5XpX@./.(.R.R.f.f...#.p.p.j.x.x.l.x.~.'X#X8XxXvXmXcXg.{.UX+XO.UXiXiXi.UX1XnXnXNXNXBXuXwXwX1.L.P.w.e.w.5 M j a 5 + ; @ +"
,"XVXcXaX5X%XpX%./.(.R.R.f.0. .#...#.p.j.j.x.Q.`.'.|X8XgXlXpXgX0.`.t.S.I.Y.N.u.U.Y.NXuXnXNXnXwX1.J.J.J.P.w.w.w.w.% a a p , + + + +"
,"XVXVXxX8X#X5X$./.R.R.R...#.f.p. ... .p.j.x./.^.`.`.|XaXgX7XxXMXy ] C u E.b.u.$.$.NXwXBXuXwX,.J.w.w.6.8.3.3.w.3 B 8 ; @ ; @ + + +"
,"XVXvXVXvX7./.Q.|.Q.j.0.........#.#. . .R.!.Q.^X#XdXgXgXgX7X3X6XhXu W r u Q T C C.[XuXBXwX1.J.w.w.3.3.3.3.3.w.w m ; ; ; ; + ; ; +"
,"XVXVXVXVXjX3.'X@./.x.a.. { ` {...p.f.f.f.xX X%X#X#.'._.C.B.B.^XO.U.b T Z C C W.8.LXwXwX;X;.J.w.w.$.3.3.3.3.5.3 k 5 5 5 5 ; + + ;"
,"XVXVXVXVXvXjX5.|.'./.R.j.... { {.......f.xX X@X%X5X$X#.`._.B.g.g.u.Y.i C u C.$.u.N.L.L.JX;.L.w.6.6.4.3.5.3.;.; m p p i i 5 > > i"
,"XVXZXvXvXVXvXjX5X@.'.(.R.f.  { ` { {...f.x.RX X&.`.'.'XXXXXO.V.k.u.u.8 C C T.$.u.4.w.w.w.P.M.4.,.3.3.3.3.=.;.% k p a p 8 i i i i"
,"XmXVXVXvXAXVXcXaX$.^.x.x.R.# { _ _...f.0.0.(./.^.l.9.2.2.2.9.2.2.2.> W J C T.$.u.w.M.e.P.M.M.7.4.5.e.q.5.5.; V 6 6 5 6 5 i s s i"
,"XxXvXVXxXxXvXvXhXgX#.D.j.f.f.. {.....f.0.0.l.x.Q./.G.l.9.s.t.2.2 } Y A v v T.$.u.3.4.5.6.4.3.1., ~.,.5.e.e.;.& B h 0 8 p s i i i"
,"XjXxXxXxXvXxXvXxXcXaXo.Q.R.f.a.p.. { {.0.0.2.0.l.9.9.9.0.2.2 } ' R K c v v J.$.$.,.3.7.4.3.3.4.7.6.3.-.= P d g m V m k m k a i h"
,"XfXjXjXvXAXxXcXcXgXsXdX$.R.f.0.j { { {...0.0.0 }.0.0.9 } ( L S S c z v v u r J.$.$.$.3.3.*.*.<.<.,.5 P x l d w 6 0 s m V V m m B"
,"XgXgXgXgXjXjXhXhXaXcXvXaX%.(.r.0.. _ _ ! {.#.. [ } | | _ ( S S S A K K J M c c C.$.$.$.=.=.=.&.%.% P m e , 5 a m a a a a m B B m"
,"XpXaX7XaXaXaXgXgXkXkXjXaXpXp./.9 _ [ { _ _ _ _ | ` |.t | } [ _ ' ' L L L Y P T J U.$.,.=.=.=.$ P.% a , 8 a 6 5 p j j j h k k m m"
,"XdXpX7X5X7XdXgXaXgXgXdXaXkXjX%.Q.0 { _ ! ! _ ( _ ( ` } | } | }.2.2.> '.<.<.8.: U.$.$.$.$.%.$ P P h 8 : $ 5 p p 5 a a j m k h h h"
,"X7X5X7X5X4X7XdXaXdXsXkXsXsXpX5X#X@.f _ S ! ! S S S ! ( ' ' ' ' ' ' '.<.<.,.:.:.:.$.*.$ I.$.$ P m 8 > $ # , , p a p a a m m k h i"
,"X5X5X5X5X5X3X5X5X5XaXkXsX0X5X5XpXdX .l | _ _ D D D S S ! ! ' ' ' ^ ^ ' ' U Y U.$.$.$.$.:.= P j < > X + 1 9 1 6 s a j a m m a h i"
,"X5X5X4X5X5X%X5X%XdXdXsXaXaXaXpXdX9X%X&.Q.l | S D D D D D S L ! ' ' U Y Y U U.$.$.$.$.$.% J x 3 @ + # & 1 1 8 0 0 a a a m k p a a"
,"X5X5X5X%X%X%X5X5XdXdXdXsXsXaXgXdX9X$X&XXX..k ( L A D c D A A K L ' U Y U.*.:.:.:.$.$ P N a e & # # # > 1 1 1 8 p p a a m j 8 a a"
,"X5X%X#.'.'X#X@X%XpXdXsXsXaX0XdXgX%XX.^.!.F.k } } } ( L K K A K L Y K L Y U U W.$ P I P m e @ @ : $ # & : 1 8 6 1 p a p k a 5 a h"
,"XdX5X@.}./.(.'X%X%X%XdXdXsXdX9X$XaX$.D.g.k.D.g [ ' } ' ' ( ^ Y L Y Y Y Y U U I I I P P N 9 % @ ; ; : : > 5 1 , 1 a , k a w w 7 p"
,"X%X%X@X ././X X@X%X%XdXdXsXsX0X4X$X#.'.!.x.k.g.9.2.2.1 ' '.< ' ~ U U U U ~ ~ U I I P B m 9 $ + # ; : : : 1 1 1 0 a 3 a a 7 6 7 7"
,"X@X#X@./.Q.Q.R.RX@X%X9XdXsXsX0X0X#X#XoXX.Q.g.s.9.s.9.2.1 '.1.<.<.>.:.-.*.:.*.& U I P B m 6 @ @ ; # : : ; , 1 5 w a a a a 7 7 a w"
,"X$X@./.(.R.R.R.R./X@X&X%XdXdX0X5X3.'.^.'./.x.s.0.s.9.2.2 }.1.<.<.,.<.<.:.>.*.*.& I.$ P h > @ @ $ # : : > 1 , 1 0 a a a a e p x f"
,"XpX@./.(.R.a.f.Q.R.(X X$X$X4X4X4X3.'.^.'.'.F.c.j.j.g.q.9.7.2.1.1.<.,.<.,.>.:.*.* U.& B p $ @ ; @ ; : : > 5 6 5 p a j p p 7 w h w"
,"XdX&X ./.R.0.f.R.R.Q./X@X#XoX$X<X5X#XXXX.!.D.x.x.x.k.g.g.g.7.7.7.4.4.3.,.<.,.-.-.& P x 6 + ; ; ; > > > > 5 8 p p a a e 8 3 w w 1"
,"X@X@X@.(.j.f.R.R.R.R.(./X$XoX<X$X3X5X$XX./.!.(.(.!.c.k.g.g.q.2.7.6.6.4.4.,.,.=.-.& x 9 ; @ & > ; > 5 5 5 8 i p a a a 6 5 3 p 7 3"
".l./X@.Q.j.j.R.R.p.R.R.(XOXoX#X2X3X%X#XXX@X*X*X&X X..c.A.k.q.q.q.q.6.6.4.3.<.=.- I a # @ $ ; ; 2 > 5 8 i i 8 p a a k p w w d w 7"
};