/* XPM */
static char *_23bff0a2bd34450dc68ca9272e44570cGP9Q0yNxyhzLq9k[] = {
/* columns rows colors chars-per-pixel */
"64 64 251 2 ",
"   c #0B0100",
".  c #070202",
"X  c #130400",
"o  c #170C04",
"O  c #1A1308",
"+  c #0D0915",
"@  c #140D16",
"#  c #1B131C",
"$  c #191319",
"%  c #251709",
"&  c #241A17",
"*  c #341A1B",
"=  c #29231B",
"-  c #352616",
";  c #1D1823",
":  c #231B25",
">  c #241E2A",
",  c #271C26",
"<  c #331F21",
"1  c #2C232C",
"2  c #2B242F",
"3  c #342929",
"4  c #2C2532",
"5  c #342B33",
"6  c #3A2E34",
"7  c #362D38",
"8  c #3D3136",
"9  c #3D333B",
"0  c #3B342C",
"q  c #443A3D",
"w  c #443738",
"e  c #4C342C",
"r  c #633027",
"t  c #57463B",
"y  c #4A423B",
"u  c #70493B",
"i  c #3D3743",
"p  c #453A43",
"a  c #473B45",
"s  c #4D424B",
"d  c #4D4245",
"f  c #53454C",
"g  c #564948",
"h  c #554A52",
"j  c #594C55",
"k  c #5C525A",
"l  c #5C5344",
"z  c #65554B",
"x  c #665758",
"c  c #775A58",
"v  c #6D4D49",
"b  c #6B625A",
"n  c #77655A",
"m  c #685C64",
"M  c #7C5E60",
"N  c #776866",
"B  c #7A716A",
"V  c #796C73",
"C  c #766C72",
"Z  c #8C5750",
"A  c #886A57",
"S  c #94775B",
"D  c #896854",
"F  c #A96B58",
"G  c #B87A5D",
"H  c #AD6751",
"J  c #876B68",
"K  c #887266",
"L  c #967968",
"P  c #877777",
"I  c #937C7C",
"U  c #997D7B",
"Y  c #977A74",
"T  c #9A6F6E",
"R  c #AA7668",
"E  c #B47867",
"W  c #AA7773",
"Q  c #C67F72",
"!  c #9C8368",
"~  c #9C837A",
"^  c #8E847A",
"/  c #A5886B",
"(  c #B8856C",
")  c #A8926C",
"_  c #B4986F",
"`  c #A78A78",
"'  c #B7877A",
"]  c #AD9576",
"[  c #B39D73",
"{  c #B3957B",
"}  c #B6997C",
"|  c #BCA47B",
" . c #BAA57C",
".. c #B7815F",
"X. c #C5866B",
"o. c #C78977",
"O. c #C8947C",
"+. c #D79A7B",
"@. c #CB926F",
"#. c #C1A97F",
"$. c #E4A47D",
"%. c #967E81",
"&. c #8A7C81",
"*. c #948182",
"=. c #9B8384",
"-. c #9D8A8B",
";. c #9B8788",
":. c #998C8C",
">. c #A28584",
",. c #A48A85",
"<. c #A58B8B",
"1. c #A98C87",
"2. c #AA9589",
"3. c #B89A86",
"4. c #A58C91",
"5. c #AC9493",
"6. c #AB9799",
"7. c #B49B9B",
"8. c #B49995",
"9. c #B78987",
"0. c #BDA28B",
"q. c #BCA786",
"w. c #BAA599",
"e. c #ACA59B",
"r. c #B49DA1",
"t. c #BAA6A5",
"y. c #BDB2A5",
"u. c #C89987",
"i. c #D49A88",
"p. c #C89B96",
"a. c #C98C84",
"s. c #C3AC84",
"d. c #C4AC8C",
"f. c #C8A48A",
"g. c #D7A48C",
"h. c #C8B28C",
"j. c #C7AA96",
"k. c #D7A895",
"l. c #CBB493",
"z. c #CDB49B",
"x. c #C9B799",
"c. c #D3BC9C",
"v. c #D7B499",
"b. c #E5AA86",
"n. c #E7B28C",
"m. c #E3A996",
"M. c #E9B898",
"N. c #F0BB96",
"B. c #F3B78F",
"V. c #C4ACA8",
"C. c #D6ACA6",
"Z. c #C4B3A4",
"A. c #CCB4A4",
"S. c #CCBBA3",
"D. c #CDBBAB",
"F. c #C8B7AA",
"G. c #D4B5A3",
"H. c #D3BCA4",
"J. c #DABCA4",
"K. c #D3BCAC",
"L. c #DABDAB",
"P. c #DAB4A6",
"I. c #CDBCB2",
"U. c #CBB7B5",
"Y. c #D2BDB3",
"T. c #D7BDB7",
"R. c #C5AEB1",
"E. c #E3B9A8",
"W. c #E7B7AE",
"Q. c #D4C19E",
"!. c #D6C2A4",
"~. c #DAC3A5",
"^. c #D4C3AC",
"/. c #DAC5AB",
"(. c #DDCAAB",
"). c #DCC8A6",
"_. c #CBC2B8",
"`. c #D5C3B3",
"'. c #DBC4B4",
"]. c #DDCBB3",
"[. c #D4C4BA",
"{. c #DAC5BA",
"}. c #DCCBBC",
"|. c #D5C9BB",
" X c #D6C9B3",
".X c #E3C3AC",
"XX c #E2CCAE",
"oX c #E7C3A9",
"OX c #E2CDB3",
"+X c #E3CCBC",
"@X c #E8C7B7",
"#X c #F2CCB8",
"$X c #E5D2B5",
"%X c #E5D2BB",
"&X c #EAD5BC",
"*X c #ECD9BD",
"=X c #EBD3B6",
"-X c #F3D6BA",
";X c #F3CBA8",
":X c #ECC09B",
">X c #DBCCC4",
",X c #D7C8C2",
"<X c #DCD2C6",
"1X c #DAD3D0",
"2X c #E2CEC3",
"3X c #E5CDC9",
"4X c #E5D3C3",
"5X c #EAD5C4",
"6X c #ECDAC4",
"7X c #E5D4CB",
"8X c #EBD5CB",
"9X c #E5DACD",
"0X c #EDDCCB",
"qX c #E5D9C1",
"wX c #F1DDC5",
"eX c #F2DDCC",
"rX c #F6D6C6",
"tX c #EBD4D2",
"yX c #EDDBD4",
"uX c #E6DBD5",
"iX c #F2DCD3",
"pX c #F7DDDA",
"aX c #F3CDC7",
"sX c #F4E2CC",
"dX c #F9E5CE",
"fX c #F4E4C8",
"gX c #ECE2D4",
"hX c #EEE4DB",
"jX c #F5E4D3",
"kX c #FAE5D5",
"lX c #F5EAD4",
"zX c #FAEAD4",
"xX c #F4E3DC",
"cX c #FBE5DC",
"vX c #F5EBDC",
"bX c #FCEBDC",
"nX c #FCF2DC",
"mX c #FCF1D6",
"MX c #EEE1CA",
"NX c #FBE6E2",
"BX c #F5EBE3",
"VX c #FDECE3",
"CX c #FDEEEA",
"ZX c #F6E7E4",
"AX c #FEF2E3",
"SX c #FDF3EB",
"DX c #FFFAEE",
"FX c #FFF8E5",
"GX c #FEF5F1",
"HX c #FFFBF3",
"JX c #FFFDFB",
/* pixels */
"K.D.A.F.D.D.Y.Y.D.I.Y.F.Y.{.K.Y.D.}.}.K.4X+X+X'.{.L.{.`.qX X|.|.<X<X|.qX].%X}.}.>X[.9X`.<X}. X X^./.y. X^._. X^._.S.L.L.K.^.H.S.",
"A.A.A.D.K.F.Z.Z.D.I.`.I.`.[.`.{.4XD.F.}.'.T.{.{.+X5X}.4X_.|. X1X<X<X|.qX%X%X+X|.`.gX|._.9X%X^.!.^. X^.$Xy.S. X^.'.D.L.H.z.H.^.!.",
"K.A.L.K.D.K.K.Y.D.Y.Y.`.D.`.`.{.^.4X<X+X[.8X8X'.|.`.}.{.|.MX}.|.<X_.9XqX].'.eX8X7X`.<X<X>X%X<X X^. X X_.%X_.S.H.H.H..X.XH.!.!.S.",
"z.A.G.G.G.A.A.K.D.D.K.|.`.Y.}.|.{.b O . % K [.8Xz e D.4XS.- b gXy = O O % - 4XZ.l X . y y.Z.% % - % O O w.].H.XX.X.XoX#X.X!.^.x.",
"P.P.P.z.z.C.H.L.K.Y.^.}.`._.2X`.l . t B y   c xXt   Z.7X}.  t hXO . B l b A 4Xz . B N . O |.b l o X l l x.^.c.oX;XoX:XoXJ.~.~.c.",
"k.P.oX-XrX#X.XP.L.'.L.'.`.`.<Xy.X w ,XvX9X3 X _.t X ,X>Xy.o z gX& 2 FXgXcXlXxX% = y.FXe.P `.%XkX= = 9X9X X!.=X;X;X:X:XM.v.Q.!.x.",
".Xv.p.3.f.v.#XrX.X@XL.'.D. X}.2.. P uXt.gXN . y.x   D.9Xy.  t vX$ O O o O t AX2.. . O y |.9X_.}.0 O _._.Q.XX-X:XN.B.:X:Xv.v.c.x.",
"v.f.u.} u.k.k.z.#X-X'.].`.].<X2.. C hX_.9XP . t.z   |.9XZ.X l gX= . b b b :.<XhXy.B 0 . X _.}.[.= = |. X%X-Xn.:XB.B.N.n.+.h.c.).",
"P.v.( ' f.u.k.v.k.E.#XrX5X'.K.I.  q yXuXhX3 . |.l o F.vX_.. z uX= 2 HXBXSXAX>X0 B DXHXB X 2.`.0X3 o 7X6X=Xc.n.n.n.B.$.$._ l.Q.Q.",
"v.k.3.` u.g.g.g.v.E.@X#X#X2X+X+Xl   y B y   x gX^ . y ^ y . :.BXO . B B l B <X3 . b B & o y.4X[.- * 0X'.oXg.M.n.$.b.+.@.( n.Q.!.",
"G.j.j.( ( f.u.i.g.k.v.E.@X@X5X8X{.x O X o N |._.1Xb o . o b <X,Xy ; $ & X O _.F.y X . = ^ 4X+X@Xe e L.P.oXn.n.b.$.$.X...( v.c.~.",
"L.P.v.1.R O.i.m.m.m.M.E.W.#XaXeX8XcX{.I.I.>XuX<X_.hX_._._.<X1X1X,X1X1X_.hX|.1XgXgX_.1X<X9X}.+XkXrX@XaX.Xv.M.b.b.b.+.G ..f.v.c.J.",
"G.L.G.j.' R u.i.m.m.m.W.E.W.W.aXiXrX8X2X0X>X_.<X1X|.|.gX1XhX,X1X1X1X1XuXBXDXAXvXBXDXHXSXbXAXkXrX#XP.g.v.g.n.+.@.+.@.G ( k.M.H.!.",
"F.T.P.E.u.R E o.a.i.i.i.g.k.P.W.2XkXSX8XAXSXnXFXDXhXDXhXuXGXHXHXJXBXSXJXAXgXDXHXBXBXBXDXVXbXrXrXW.k.i.O.g.O.O.+.@.G G o.M.E.L.H.",
"U.T.Y.W.C.' F F o.i.i.m.k.m.P.W.T.rXkXeXSXnXgXDXDXDXHXHXJXHXBXHXBXJXJXBXDXDXDX9XvXFXvXBXjXkX#XL.g.i.M.k.N.m.b.+.X.F ( i.E.J.J.H.",
"G.A.Y.D.W.k.W E Q Q a.a.i.k.P.L.@XeXkXVXkXbXDXSXSXHXSXSXHXHXJXHXJXGXGXBXBXVXAXSXBXBXvXAXbXrX+XE.f.i.i.i.i.n.i.+.X.F o.g.oXG.L.H.",
"D.L.S.A.D.K.j.' i.m.m.W.W.m.W.C.8XyXxXbXVXSXAXSXSXDXHXDXHXHXHXHXGXGXSXCXCXVXVXVXAXVXVXbXkXkXeX+Xk.u.O.O.o.Q H H Q @.X.g.E.S.S. X",
"C.A.F.S.^.`.P.j.%.Q Q a.a.p.C.C.7XpXxXZXVXSXSXSXDXDXHXDXHXHXHXHXJXGXGXCXVXVXVXbXcXbXcXkXkXkXiXeXK.j.{ ( H Z Z H G Q o.g..XK.S.^.",
"G.K.K.D.^.`.'.E.W E W Q Q p.C.3XyXxXNXxXNXCXSXSXSXGXHXGXHXDXHXGXGXSXSXSXCXVXVXbXcXVXVXkXkXiXeX8XwX.Xj.u.o.( H H H Q o.v.!.^.^.S.",
"T.L.^.^.^.D.L.@Xp.W a.a.p.W.W.tXpXxXZXNXNXCXSXGXSXGXGXHXDXGXSXBXSXSXAXAXVXBXVXbXbXAXVXbXjXjXeX0X8X#X@X@X@XM.o.F G +.b.E.S.Q.^.S.",
"L.H.S.D.^.^.`.@XW.9.p.C.P.@X5XjXpXZXNXNXCXCXSXGXSXGXGXGXGXGXSXSXFXAXnXAXAXcXkXcXbXbXbXcXbXbXkXjX5X5X5X@XE.v.u./ o.f.E.J.H.!.S.S.",
"H.K.S.^. X`.`.L.W.p.p.W.@XaXiXxXNXNXZXNXNXVXCXSXSXSXGXGXGXSXBXSXBXnXvXAXAXbXbXAXcXbXbXbXbXbXbXkXkXiX5X@XL.G.f.` { 3.c.~.S.^.S.S.",
"K.K.^.^.`.`.`.L.2XC.p.C.3XtXxXcXNXxXNXVXVXBXVXCXBXSXSXDXBXBXBXFXnXlXmXnXbXcXkXkXjXbXbXVXbXbXbXcXVXjX8X5X5X+XS.0.d.q.Q.H.z.^.!.S.",
"A.H.^.D.^.`.'.T.T.C.7.C.3XtXBXxXNXxXNXVXVXVXVXVXnXvXBXFXFXBXvXnXnXmXdXlXsX4X}.2X5XiXbXbXbXnXAXAXbXSXSXbXzXdXsXfXqX^.]. XS.^.S.S.",
"A.G.K.`.`.`.{.T.{.Y.Y.T.tXpXcXVXNXjXxXAXcXjXcXlXzXzXVXnXlXMXgXmXmXfXqX^.Z.^.4XMX0XbXkXVXnXbXFXbXAXSXSXAXnXnXnXnXmXnXlX XQ.S.S.y.",
"G.F.Z.F.D.D.K.`.T.Y.T.aXNXVXZXpXeXiX8X8XjXkXjX0XjXlXbXzXlXMXqX%X/.!.z.j.{.0XyXjXbX}.jX}.Y.eXkXAXAXAXAXAXFXnXnXnXnXlXfXlXqXQ.Q.!.",
"'.D.D.Y.Y.Y.Y.{.{.U.T.tXBXVXNXxX0XiX+XK.Y.`.}.0X0XdXmXzXlXwX].x.d.0.0.S.'.S.j.e.B K t z Z.AXFXbXbXbXnXAXAXnXnXnXmXlXlXmXMX Xy.Q.",
"Z.V.F.F.I.Y.[.T.I.[.3XZXNXNXpXNXcX5X2XT.z.w.2.w.%XdXzXzXdXMX^.0.! ! 2.0.! K n t % X X K AXnXzXFXbXbXvXlXvXnXmXlXlXmXlXlXmXMX^.] ",
"F.[.}.[.T.T.Y.U.U.>XyXBXNXiX3X{.V.2.V.j.8.7.2.` `.5XbXkXjXeX+XS.0.f.L u t c N z % X P jXAXzXsXnXzXzXsXsXjXkXzXlXlXzXlXMXlXmX%Xw.",
"P =.5.8.7.V.U.Y.,XtXxXBXNX3Xt.Y J J J v t J <.V.I.4XkXkXkXkXiX5X'.z.u e A c z N n <.gXnX5XsXnX0XdXsXwX0XwXeXsXjXsXjXdXfXsXlXfXMX",
"z z z z l g v B >XyXxXxXxX3X8.c J J M * X * v T.{.tXcXcXkXbXkXkXAXG.e t T n Y F.yXHXyXjXbX%X0X6X6XwXwX6X6X6X5XwXsX0XeXdXjXsXzXnX",
"d w e w e e j T >XpXxXyXyXyXY.<.x c x < & X e T.tXpXVXVXVXVXVXkXpXL.j.+X4X2XSXAXVXxXbXyXMXjX%X&XwXwXwXwX5X%X%X=XeXqXqXsXsXsXsXmX",
"5 5 1 e 6 4 M R.3X,X,X3XtX,XT.,XU.6.4.J m &.%.r.pXNXGXNXVXDXBXAXzXeXiXbXjXcXAXAXAXbXcXsXsX6X&X%XOX6X-XOX~.~.~.!.OX%X6X6XwXsXjXzX",
"< 4 , , 6 a J r.,X,X[.,X3X3X3XtXpXpXCXCXpXZXZXZXZXpXNXCXCXAXxXbXcXeXkXAXbXAXAXlXvXzXlXdXfX6X*X&X*X*X=X@X!.c.H.c.!.(.$X*XeXsXkXbX",
"# , , @ w J &.%.U.U.U.U.,X3XtXNXpXpXZXZXpXZXpXtXtXpXCXNXjXcXcXcXkXyXjXVXnXAXVXjXjXgXjXdXfXfX*X-X=XXXXXXX~.Q.Q.).OX$X%XfXsXsXjXzX",
"# # , # 7 m V %.R.R.t.t.T.3XtXNXCXNXGXGXZXCXCXtXNXNXVXNXVXVXkXeXcXkXzXbXbXnXvXgX6X4X%X&X&X=X=XXX~.c.c.c.Q.Q.).XX=X*XMXdXsX6XsXbX",
"# # > # 7 a j &.t.t.t.t.R.aXtXpXNXNXGXGXGXCXCXtXpXpXpXNXcXaXaXwXjXbXAXAXVXvXyX4X+X X^.H.~.~.Q.c.c.s.s.h.l.x.Q.).(.%X6XfX0X4XjXbX",
"+ + # + 4 a j M 6.r.t.r.R.3X3X3XtXpXZXCXZXCXNX3XT.aXaXaXW.#X#XL.{.jXBXbXnXzX8X4X].^.S.x.c.c.v.s.s.#.#.s.h.Q.Q.).(.=XwXMX4X5XkXAX",
"+ + + + > i p h &.6.r.r.t.R.U.C.U.3XtXZXCXNXpXR.C.T.p.k.C.W.E.u.'.iXjXyXlXjXqX}.].].~.c.v.h.#.#.| #.#.s.h.Q.Q.).(.*X6X6XqXsXbXAX",
"+ + + @ ; @ # 7 V 4.r.4.%.5.r.r.R.U.U.tXpXNXtXC.%.a.a.C.E u Z 9.eXAXbX0XjXgX+X X`././.c.l.s.#.| #.#.s.s.#.Q.Q.Q.(.%XqX4X6XvXAXAX",
"+ ; ; + ; ; ; ; C 6.r.-.4.4.4.4.r.r.U.3XtXNXpXT.Z Z W %.Z r W rXpX0X4X8XjXjXjXMX%X/.!.!.Q.#.| #.#.|  . . .q.x.!.$X^.^.0XnXAXnXAX",
"; + + ; 4 4 4 4 k :.6.-.4.4.4.%.6.r.U.,X,XtXtXT.%.W Z Z Z H C.aX@X/.A.S.K.`.].%X%X*X=Xc.h.h.h.#. .[ _ [  .h.Q./.$X].qXjXAXAXAXAX",
"i > > 4 i i p p C *.:.6.r.4.6.8.7.r.T.,XU.T.T.R.p.%.Z u Z p.C.p.j.z.A.^.@X].%X6X*X=XXXc.s. . . .[ [  . .l.Q.(.OX%XqXlXnXAXAXAXFX",
"i i i i 7 a a i m V :.4.4.4.4.4.4.5.V.R.r.r.r.8.p.%.T Z Z a.p.a.j.H..X+XOX].].].=XXXQ.l.h. .[ [ _ [ | h.Q.!.(.%XqXlXAXFXnXAXFXAX",
"i a a i 4 7 5 4 3 C :.6.6.e.t.5.5.8.V.V.R.t.t.p.p.%.W Z J W ' 3.3.3.3.3.3.q.0.x./.OX!.q.q.h. .) _ [ #.Q.c.z./.%XsXvXFXFXnXAXAXnX",
"s a i s p 7 9 h C *.:.e.t.5.4.=.<.<.5.5.7.6.6.5.9.%.T v v A Y 1.3.0.0.q.0.x.^./.c.Q.x.q.q.h. . .[  .s.h.z.H.%XjXzXnXnXvXvXAXvXvX",
"h i a k m k m C m h g V <.;.5.8.8.5.4.<.6.5.4.%.%.%.Z v v c K ~ ` { } 3.3.f.w.q.x.q.q.q.q.[ [ q.s.s.h.Q.~.%XeXbXbXvXnXvXBXvXvXvX",
"m m m C C m s 9 3 y f l x P 5.<.<.,.>.%.4.4.%.4.%.T a u c v v z A L R / } 0.q.3.] 0.q.q. .[ [ [ l.d.h.!.=XfXdXlXcXbXvXnXnXlXlXgX",
"m C &.m a a a a m a 4 , w m P &.&.=.;.-.-.=.%.%.J c c Z K K K S A S S / ` } } ] ]  .q. .) ) )  .q.x./.%XdXnXbXsXjXzXlXlXkXjXjXMX",
"m m k j a j k k p 7 5 a 6 , p &.P *.;.-.<.;.%.U J J P Y L Y L ` ] ] { ] } q.O.[ } ) ) ) ) [ ) ) w.^.MXsXsXlXkXzXjXdXsXsXMXeXMXsX",
"h h h k m j a a 4 p p 1 # # 9 s P &.;.%.%.*.=.%.U >.9.4.` ` ` 3.{ } } } } { ( / / / ) ! ! ! [ q.^.qXlXzXsXsXdXkXjXsXsX0X6X0XsXsX",
"i h k m m a a p a p , , # $ 1 7 m V %.%.I %.=.%.>.%.>.1.1.1.,.` ` ` ` ` / / ! ! S S ! ! S ) h.$X%X6XfXfXdXlXdXMXsXMX6X8X6X0X6X0X",
"i h a m m a a a s 5 1 6 3 + + & < j P %.>.%.%.%.%.W Y U ` U ~ ~ ` ` ` ! S S S D D S / ) } l.XXfXwX6X6XMXkXzXdX6X5X6XqX4XqX6XqX6X",
"a a a k m a j a 9 9 6 1 1 ; # @ @ 5 x J &.%.%.%.%.>.U U ~ Y ~ ` ` ! L K D D D D D S } l.~.=X*XwXMXfXsXfXdXsXsXfX*X6X6XqX6X6X6X6X",
"a a i j m a a p p 7 2 1 2 > # $ # & e a M &.%.%.>.=.>.>.U Y Y ~ L K A A D n D D L / l..XOX$X&XwXdXdXdXdXsXfXfXfX6X6X*X*X*XqX6XeX",
"a a 4 a k a a p , 5 6 2 : & # $ & @ @ w m P I P %.U U Y Y L L Y L K S K K L / { { { z.~.~.XXOX5XjXsX0XsXdXdXfXwX*X=X%XOX$X%X&X6X",
"w 6 q q a k * a 2 , 4 5 , : : ; # $ @ 8 N P P I P U U U Y Y Y L L Y / ~ / ` { ` ] j.v.z.x.A.=XsX%XwXfXdXfXfX*X*X*X$X(./.OX=X6XMX",
"7 6 5 6 a a 4 a 9 5 > 1 : : : : # @ $ 8 b V P I U %.U ~ U U U U ~ ` ,.` 1.{ 3.0.0.j.z.H.~.].%X&XrXwXdXdXfXfX*X*X$X(.).(.(.%X*X*X",
"p a 6 6 a a a a q 5 , , ; : : # ; @ @ 7 m V P I %.%.>.>.>.;.,.,.,.,.1.` 1.3.0.0.0.d.l.H.OX+X%X%XeXeXdXdXfXwX*X$XQ.).).).(.$X=X$X",
"a x a e a a a a 7 1 > 1 > : ; # @ $ @ ; f P %.%.%.=.;.>.,.,.<.<.1.2.1.3.3.3.0.d.3.d.G.(.'.(.].4X6XeXfXfX*X=X$X(.Q.x.x.Q.(./.$X%X",
"w g w w p p j a w 4 4 4 > : ; ; + ; $ $ p V *.I =.=.>.,.>.<.<.1.2.2.8.8.0.0.j.l.v.z.!.OX]./.].&X5X5X5X5X%XXX).Q.Q.l.s.Q.).(.$XfX",
"3 a w 5 6 w a a a p 7 7 > > > > ; ; ; + 5 k P *.;.;.<.<.<.5.5.5.8.8.3.j.j.x.z.v.c.c.c.~.OX+X%X5X2X%X%X=X$X(.!.Q.Q.h.q.Q.(.XX=XfX",
"3 w q 3 4 5 a a a a i 7 4 4 4 4 ; 2 & $ : 8 x *.;.-.<.<.5.5.7.7.8.8.w.j.z.z.H.J.).~.~.~.OX&X6X5X5X%X+X+X(.(.Q.Q.Q.Q.h.x.).$X=XOX",
"5 q a 8 w p k a a p 7 i i 4 4 > > ; ; $ @ $ d I ;.<.<.1.5.8.7.w.w.w.j.j.z.G.~.XX-X-X*X$XOX$X*X5X2X2X+XOX).Q.Q.s.Q.Q.l.l.Q.$X].x."
};
