/* XPM */
static char *WE_resized[] = {
/* columns rows colors chars-per-pixel */
"64 64 247 2 ",
"   c #010101",
".  c #0A0504",
"X  c #0D0C0C",
"o  c #090806",
"O  c #120E0C",
"+  c #180903",
"@  c #1B120D",
"#  c #1A1715",
"$  c #28180C",
"%  c #261B15",
"&  c #321C0C",
"*  c #3E2106",
"=  c #372619",
"-  c #22221F",
";  c #262421",
":  c #382C24",
">  c #32302D",
",  c #462609",
"<  c #482C15",
"1  c #4D311A",
"2  c #53351D",
"3  c #583718",
"4  c #54300C",
"5  c #66390C",
"6  c #633D1A",
"7  c #663D16",
"8  c #703E0E",
"9  c #493426",
"0  c #543923",
"q  c #5B3D24",
"w  c #573C29",
"e  c #47362A",
"r  c #603F22",
"t  c #3D403B",
"y  c #6B421D",
"u  c #774518",
"i  c #7E460D",
"p  c #5D412B",
"a  c #5D4026",
"s  c #5C4737",
"d  c #45403D",
"f  c #634125",
"g  c #6B4423",
"h  c #64442C",
"j  c #69472B",
"k  c #6C492B",
"l  c #724C2B",
"z  c #774B26",
"x  c #7C512E",
"c  c #624731",
"v  c #664A35",
"b  c #6C4D34",
"n  c #6B4E39",
"m  c #644D3B",
"M  c #714E33",
"N  c #6D513C",
"B  c #6F5035",
"V  c #745135",
"C  c #7B5434",
"Z  c #73543C",
"A  c #7A563A",
"S  c #7D593C",
"D  c #76583F",
"F  c #564E4A",
"G  c #6B5443",
"H  c #6A5749",
"J  c #755944",
"K  c #7C5C44",
"L  c #745A46",
"P  c #635A54",
"I  c #7E614C",
"U  c #79604C",
"Y  c #7B6454",
"T  c #786456",
"R  c #7E7169",
"E  c #766B64",
"W  c #824C1A",
"Q  c #8B531E",
"!  c #91531B",
"~  c #885528",
"^  c #955B29",
"/  c #855935",
"(  c #8B5C34",
")  c #835B3B",
"_  c #8A5E3B",
"`  c #835633",
"'  c #8D592C",
"]  c #A05E27",
"[  c #8E613D",
"{  c #8F6036",
"}  c #93633D",
"|  c #9A6539",
" . c #9B602E",
".. c #A66A3A",
"X. c #AB6B35",
"o. c #815D43",
"O. c #8C6444",
"+. c #8C6649",
"@. c #86644A",
"#. c #936643",
"$. c #966946",
"%. c #9C6B43",
"&. c #936A4B",
"*. c #9B6E4B",
"=. c #9C6143",
"-. c #9C714E",
";. c #826D5C",
":. c #876A55",
">. c #956D54",
",. c #8B715C",
"<. c #9A7458",
"1. c #A26D42",
"2. c #A96E42",
"3. c #AA7245",
"4. c #A3734D",
"5. c #AB754A",
"6. c #B3794C",
"7. c #B27546",
"8. c #A47653",
"9. c #A67955",
"0. c #AC7A53",
"q. c #A37A5A",
"w. c #AB7E5B",
"e. c #A7745A",
"r. c #B47D53",
"t. c #B37D59",
"y. c #B26B57",
"u. c #836F61",
"i. c #82746C",
"p. c #8B7667",
"a. c #957B69",
"s. c #867A72",
"d. c #8A7C75",
"f. c #897D78",
"g. c #937E71",
"h. c #A67D63",
"j. c #B87A62",
"k. c #C07D65",
"l. c #AE805E",
"z. c #B4825C",
"x. c #BA855C",
"c. c #BA855A",
"v. c #8E827B",
"b. c #92847C",
"n. c #998678",
"m. c #95806F",
"M. c #AC8364",
"N. c #AC856B",
"B. c #A8856B",
"V. c #B38563",
"C. c #BB8A63",
"Z. c #B48B6C",
"A. c #B98A67",
"S. c #BD916D",
"D. c #A78B78",
"F. c #B38E73",
"G. c #B58976",
"H. c #B49174",
"J. c #BC9373",
"K. c #B5947B",
"L. c #BA957B",
"P. c #BD997C",
"I. c #B7997D",
"U. c #C3895B",
"Y. c #CD905F",
"T. c #C38D63",
"R. c #C48C68",
"E. c #C49165",
"W. c #C3936B",
"Q. c #CA956B",
"!. c #CC996D",
"~. c #C99366",
"^. c #CB9C73",
"/. c #C49C7C",
"(. c #CA9E7B",
"). c #C49773",
"_. c #CD9372",
"`. c #CCA17D",
"'. c #C9A17B",
"]. c #D4A478",
"[. c #E1AE7D",
"{. c #8E8583",
"}. c #958A84",
"|. c #9A8D85",
" X c #998F8A",
".X c #938986",
"XX c #9C928C",
"oX c #9E9086",
"OX c #9D9492",
"+X c #A48E81",
"@X c #A3958D",
"#X c #A89689",
"$X c #BC9B84",
"%X c #B79B8A",
"&X c #A29792",
"*X c #A49994",
"=X c #AA9D95",
"-X c #A59C99",
";X c #AA9F99",
":X c #B3998C",
">X c #BBA18C",
",X c #ADA29C",
"<X c #ADA097",
"1X c #B2A49C",
"2X c #B9A598",
"3X c #AFA4A1",
"4X c #B2A6A1",
"5X c #B5A9A3",
"6X c #BCADA4",
"7X c #BCAEA8",
"8X c #BEB2AB",
"9X c #BFB0A6",
"0X c #BEB5B3",
"qX c #C29D83",
"wX c #C69A88",
"eX c #CE9D8E",
"rX c #C4A184",
"tX c #CBA383",
"yX c #C3A38C",
"uX c #CCAA8C",
"iX c #CAA68A",
"pX c #D4AC87",
"aX c #CCAB94",
"sX c #C5A895",
"dX c #D3AB96",
"fX c #CCB19D",
"gX c #D7B395",
"hX c #D9B28E",
"jX c #E4BC97",
"kX c #E4B589",
"lX c #C0AFA4",
"zX c #C0AFA9",
"xX c #C3B1A5",
"cX c #C4B3AA",
"vX c #CBB7AB",
"bX c #D4B9A5",
"nX c #C2B6B1",
"mX c #C6B9B3",
"MX c #CABCB6",
"NX c #D2BFB1",
"BX c #EAC19C",
"VX c #F0C49C",
"CX c #D8C4B9",
"ZX c #D3C1B6",
"AX c #ECC8A9",
"SX c #DDCEC7",
"DX c #E5D1C3",
/* pixels */
"e F  X8XmXvXcXlXxXxXxXxXfXdX$XG.P./.iXwX$XH.Z.w.$.=.$.O.O.O.B.:XK.%X>X>XsXfXsX6XBXvX>XD.#X9XMXvXnXcXnX8X0X0XnXvXcXlXxXxXlXlXxXzX",
"F XXmXMXmXvXcXlXlXxXvXvXyXL.qXK.K.rXiXwXwXZ.M.A.0.4.} ( [ } ) <.>X>X>X2XfXfX6XAXCXsX#X>XxXvXvXmXnXcXnXmXmXmXmXmXcXcXlXcXzXlXxXzX",
"{.nXmXmXmXlXsXlXxX5X:X+XF.8.M.L.D.wXrXL.K.G.h.w.8.0.#.} { / _ V m.>X>XfXsXfXjX2Xn.n.<XmXnX8X9X5X7X5X,X4X7X7X7X6XcXxXlXxXlXlXlXlX",
"0XmXnXmXcXlXMXNXAXT   % h.w.t.n o o w /.V.J.=   w *.. O o o o . o   P gXfX>X>       O F 9XZXv.  O X O O X O X # 2XvXlXlXlXlXlXlX",
"MX0XmXcXvXZXCXbXiX:.    &.x.C.=     @ Z.V.q.o   G >.      .   .     e yX>XX     ; #     F SXf.  o o       .   # 2XvXxX6XlXlXlXlX",
"MXmXmXCXAXbXaX/.E.z.O   b ~.w.O       >.R.@.    <.-.    n O.) C C o.g O.m   # 2XCXSXF     OXMX3X,XOX#   F mX4X6XxXxXxXxXlXlXsXlX",
"MXmXSXDXCXaX/.W.T.T.=   < Y.o.  O @   n !.s   @ A.>.    o.t.0.4.| } ` _ <   O @XSXSX0XP P 5XZX0X8X5X-   P SXcXvXxXxXxXxX6XfX6X6X",
"SXMXSXNXbXrX).Q.~.~.p   @ U.h   = 0   = E.=   : R.&.    9 h p w 1 1 x O.q       ; F R 0XSXSX0X7X5X4X-   P SX6X6XxXxXxXxXxXlXxX6X",
"CXCXCXbXiX/.Q.U.U.~.o.  . 0.=   h x   @ 4.@   v T.&.                S ( 5 ,           X s.ZX0X7X5X5X#   P CXcXcXvXxXxXxXxXfX9X2X",
"CXNXbXbXqXE.T.c.7.7.2..   A O   O.%..   Z o   +.C.+.    = e 1 = & = _ z 5 ~ x 9 = X       XXmX5X4X7X;   P CXcXcXxXxXxXxXxXxX9X9X",
"AXNXfXaX(.Q.T.T.U.6.X.$   %   @ 8.0.%   %   @ w.A.>.    K 6.| ~ ~ } $.) r q j ' ` V s X   P MX4X5X0X;   P ZXxXcXxXxXxXxXxXxXxX6X",
"NXbXaX/.)._.Q.!.~.U.Y.q       9 c.r.w   .   : C.V.>.    A 0.%.-.4.4.4.#.O   $ z z ` &.#   F MX;X3XMX;   P ZXxXcXvXxXxXxXxXxXlX6X",
"vXdXqXW.C.!.!.!.!.Q.!.A   .   b t.5.@.  .   v A.V.&.    w B a b h c Z } <     = h f =     F zX;X5X0X-   P ZXxXcXcXxXxXxXxX6X6X6X",
"fXaX).A.C.R.).^.!.!.!.8.      ~ 5.w.9.o     +.S.V.+.                @ $.l @             $ C a.1X0XSX#   F ZXfX9XxXxXxXvXxXfXfXxX",
"fXaX).A.R._.^.^.!.Y.!.E.w = 9 ..1.t.A.s = : 9.Z.H.<.= : = = = $ = : w ) ` ) * @ O + % 9 l l g p.cXMXF > R vXxX6XxXxXxXxXxX6X6X6X",
"aXrXJ.R.E.Q.].!.~.U.Q.T.Q.U.T.z.0.V.J.J.S.t.0.Z.F.N.l.0.5.1.| { $.M.<.C ` x y 8 C C C ` 6 l l g K m.cXMXxXxXxXxXxXxXxX2XxX6XfX6X",
"aXuX).W.W.).^.!.T.c.E.C.c.c.x.C.l.Z.(.H.Z.M.4.Z.H.B.q.%.( { } } / >.+.C z C y y C C C l y g M l g g p.2X9XxXxX9XxXxX9X6XxXxX9X6X",
"yXyXtXR.E.T.T.Q.!.E.E.c.T.c.x.A.V.<.H.P.F.S.M.Z.H.Z.9.{ ~ { $.$.{ $.+.S S x y y C x K V 3 y k k l x ) +X6XsX6XfXxXcXxX6X9X9X9XxX",
"uXrXqX!.Q.T.U.Y.].!.C.c.c.c.0.z.l.*.M.J.K.F.F.J.H.N.%.' W { *.&.S / [ &.{ 7 y y x A S A j h j b V V @.+X6X6X6XxXxXxXxXxX6XxXxX6X",
"iXiX(.Q.!.~.c.U.!.'.c.z.6.c.0.z.M.[ k h./.qXF.L.$XZ.| ~ u } *.B./ y S <.l 3 7 y l x l @.j a j B Z Z ,.:X2XxXxX9XxX6X6XxXxXxX6XxX",
"iX`.'.Q.^.!.U.T.!.'.C.c.c...3.l.Z.b + 2 e.wXP.P.rXZ.| u u [ M.F.x y S >.y 6 6 C ) l S [ 3 r j M B J n.>X2X9XxX9X9X6X6XxX6X9XxX6X",
"tX`.Q.W.!.].!.E.E.'.C.c.c.l.| l.F.2 # ; $ :./.P.P.P.| ~ ~ l.B.B.+.x S &.k y y S [ I V p 3 3 j B b I m.+X<X2X9X9XlXfX6XxXxX9X6XlX",
"iXtX^.E.E.].].Q.C.!.C.3.z.X.3.-.Z.= ; F # @ >./.I.P.8.~ %.B.F.B.<.l [ &.y 7 y S @.V p a 3 p j h M N U m.+X<XxXxX6XlX6X6X9X6X6X9X",
"tX`.'.Q.E.!.[.].c.E.E...X.z...} Z.2 ; > #   $ h./.P.V.} 5.H.H.Z.<.[ @.V 3 y z +.V 3 r v a j p j M N m.2X9X9X2X9XzX6X6X7X8X6X9X8X",
"rXtX^.!.E.W.[.[.E.c.C.c.....l.| M.J $ E @ .   0 H./.J.M.Z.H.K.B.<.<.V 6 6 6 S +.6 4 V D h h b Z Z m.2X6X6X6X7X6XlXlX6XzX7X7X7X6X",
"(.(.(.!.!.S.].[.].E.c.z.z.......*.h.= > X .   . I /.rXiX/.H.H.m.@.<.V 7 6 g &.C 4 k @.L 6 r Z b Z n.2X6X6X6X6X6X6XzXzXzXlX6X6X6X",
"(.'.(.!.!.W.].].'.].c...7.......' h.@..   . . . k H.>XrX>XH.F.<.<.+.x y y V @.l 3 @.:.I 3 g B D V J :XlX6X5X6X6X6XzXlXzX6X6X6X6X",
").(.'.^.^.W.^.].^.].].C...l.l. .( / M.n .   . * z Z.'.>XuXP.N.l.l.@.k y l S A k x :.:.D 3 k D D V N n.lX6X6X6X5X6XzX7XxXzX7X7X7X",
").(.`.(.^.^.^.[.[.].pX'.z.l.l...{ u / h.Z $ & , 3 M.qXuXhXrXZ.V.l.&.C g V :.S C I ,.:.V 7 k Z I :.K p.6X6X6X7X6X6X7X7X7X7X7X7X7X",
"qX(.'.`.^.^.].[.kXpXhX'.'.C.z...1.' 8 ` B.<.r , A B.rXgXaXtXS.Z.l.&.C l C K V B @.p.,.D 7 g @.p.:.N u.2X6X7X6X6X6X7X6X6X6X7X6X6X",
"(.(.rXtX^.'.].pXBXkXhXuX'./.z.l.%.%.~ 8 / F.F.q.h.h.wXdXaXtXV.N.m.[ C V I D B b I :.,.n 6 A ,.@.N N I #X6X6X6X5X6X6X6X5X5X6X6X6X",
"'.tX(.'.'.(.`.pXkXBXjXpXuXP.H.M.M.-.#.( u &.Z.V.Z.j.V.tXpX).V.V.l.S C S C B B Z Y a.a.I I @.Y L Z D L n.6X7X6X6X5X6X6X6X6X6X6X6X",
"C.'.'.].'./.'.hXhXBXVXjXpX'.P.H.F.Z.q.&._ _ 8.0.3.1.t.].tXS.A.M.-.S C K V a b Y g.D.|.m.p.p.p.u.@.G G +X6X7X7X6X5X5X5X6X6X6X5X2X",
"C.C.S.'.pXuX'.hXhXVXVXAXgX'.P.I.F.Z.q.8.*.*.*.%. . .0.^.).S.S.M.-.S D Z b c Y n.+Xn.a.;.R @.U L L L Y :X7X0X6X5X5X6X5X6X6X5X1X5X",
"C.c.C.J.'.`.'.hXBXjXAXVXBXpX'.'.F.N.M.M.9.*.$.{ ~ ' | C.).J.V.<.@.S B c p m R T : % @ X + < 1 c L n u.1X6X8X6X6X5X5X6X6X6X1X1X1X",
"c.c.z.A.'.'.'.'.kXBXBXBXjXuXtX].P.H.F.M.8.*.| ' Q ^ | 0.S.Z.M.<.[ K c a s T H @ X     o   = , w v b n.5X6X6X4X4X5X5X1X6X1X6X1X1X",
"C.c.c.z.C.).'.'.'.jXAXVXgXuXJ.J.J.Z.Z.V.8.%.| ' ^ ..7.5.0.w.9.+.@.M a 9 m E = o X o o o X = 2 G b G #X6X5X6X1X6X1X6X5X1X1X<X1X<X",
"T.E.C.C.z.V.S.'.hXjXVXAXjXtXH.l.M.z.l.V.M.%.| } 1.|  .1.%.$.$.O.A a p p H H %     . o   % < b J v a.4X5X5X4X4X4X1X1X1X1X1X1X<X<X",
"c.x.C.C.z.l.V.'.uXhXBXBXhX'.'.J.l.9.0.| %.9.1.1.1.^ | %.%.#.#._ k j a a v 0 = @     . @ * p Y Z v n.4X5X5X4X1X1X1X1X<X,X,X<X<X<X",
"C.W.S.E.S.C.Z.I.'.fXBXBXhXP.S.J.J.z.4.%.*.l.0.1.| ^ | %.1.$.&.C g j 0 a 1 < p 1 = & & < v :.J 3 Y <X5X4X4X1X;X1X1X1X<X<X<X<X<X<X",
"c.c.0.5.z.x.N.Z./.uXaXhXuXP.S.Z.S.J.9.%.l.N.l.|  . .2.1.1.*.*.) j h 0 < * 1 m G B b J I I N 3 a +X,X3X5X4X1X1X4X,X,X,X=X=X,X=X=X",
"c.c.c.c.c.c.C.l.Z.>XuXgXuXP.P.H.M.Z.l.} &.l.l.| 2.2.2.5.4.e.<.S h 2 3 , * 2 0 w h b n b 3 4 < :.<X3X4X5X4X4X,X=X<X,X,X=X,X-X=X*X",
"!.W.x.x.z.l.l.q.l.D.yXhXgX>XH.P.N.l.V.8.&.M.B.} 6.t.r.t.e.j.<.A a 2 , * , 2 2 , , , , 4 4 , Y =X,X,X4X4X3X,X*X=X,X,X-X=X=X<X=X*X",
"A.S.S.W.C.x.l.8.-.B.I.tXgXuXI.P.P.B.B.Z.B.B.K.[ t._.U.j.e.h.<.Z a 3 * * , 2 2 2 4 3 , 4 4 I =X4X,X,X,X,X*X*X*X3X3X,X-X=X=X*X@X@X",
"S.W.S.C.c.x.0.| } <.F.>XdXgXyX$XK.F.Z.H.I.F.I.B.k.eXk.k.j.h.>.J q , * , < 2 2 9 q 2 2 h p.=X5X,X,X4X4X,X*X=X*X,X,X=X*X*X*X@X@XXX",
"A.A.A.C.z.z.l.9.8.<.l.D.sXgXuXyX$XI.K.H.I.>X%X%XeXeXk.k.h.j.>.L q , , , < 2 0 0 p v ;.+X<X1X4X<X,X5X4X*X*X*X*X<X,X=X*X*X*XOXXXoX",
"c.c.x.A.z.l.l.4.{ | { :.K.aXdXaXyX>X>XP.$XyX>X>XG.k.k.k.j.g.y.L 3 , < 2 0 q p H ;.n.=X=X#X=X<X=X,X4X,XXX@XoXOX,X-X*X*X*X*XXXXX|.",
"z.x.x.C.V.l.l.5.%.' x [ B.uXgXdXiXaXyX>XyXyX>X>XG.y._.k.y.j.>.o.q 2 p p f w R =X=X=X=X#X@X*X=X-X4X,X*XXXoX*X*X,X*XOXOXOXOXXXoX}.",
"7.c.z.x.l.0.9.4.%.( { ~ >.>XuXdXk.wXeXyX>X>XwX2X$Xk._.k.y.y.=.A a s v p 2 n <X1X2X<X=X@X*X4X<X,X,XOX@XXXoX*XXX<XXXXXOXOXOXXX}.b.",
"X.7.0.z.z.z.0.8.} %.$.( +.K.gXgXdXeXeXeXsX>X%X:X+Xj.y.y.y.y.:.:.U N v p 0 Y *X*X<X*X#XXX@X*XXX<XoXXXXXb.XXXXXXOXXXOXXXOXXX|.}.v.",
"X.X.X...5.4.4.-.-.8.*.[ [ >.yXgXdXdXdXeXeXsX:XwX+Xe.k.G.G.@Xn.g.T G s s N p.<X*X*X#X#X#XXXXXOXOX X}.|.}.XXXX X XXXXXXXXX Xb.v.v.",
"7.X.] ]  .%.4.*.} w.-.[ [ ) D.dXbXdXdXdXeXwX:X:XG.wXeXzX2X*X+Xg.R T U T U p.2X,X<X*X*X#X*X,X5X3X<X,XOX<XOXOX X XXXXXXXXXv.s.s.R ",
"6.X.] ]  .| | $.*._ x ` [ [ :.%XdXgXfXdXeXwXwXG.G.eXeX3X:X:Xn.g.;.Y ,.R H T XX<X*X=X#X@X<X,X,XOXOX,X,X-X-XOX-X-X-XOX*XOXv.s.R E ",
"c.7.X.] ! ^ %.*.O./ / C C O.<.B.%XdXaXdXsXwX:XG.a.b.+X+X+X|.n.b.p.u.;.U G G ;.#X<X=X*X<X@X*X,XXXOXOX-XOX-XOX-XOXOXOXXX Xb.v.R P ",
"c.6.X.X.^ ! | | / / [ [ +.O.>.<.K.aXdXsXsX%X:X#X+Xg.p.@.G n w L m m L L N H G u.*X#X*X@XOX<X,XXXOXOXOXOXOXOX XXXOXXXb.b.v.v.s.R ",
"c.c.c...] ^ ^ ~ ( #.[ $.&.O.&.<.h.:X>XwXsX%X%X#X+Xa.:.w w q q r s s m N m s m m u.@X#XXXXX,XOXXXXX XXXOXOXOX.X X.X.Xv.v.v.v.i.s.",
"r.x.z.6.3. .! ~ { { _ &.o.$.&.&.<.M.m.B.D.#XD.m.J b j j j a a h h a a s n p 0 s U n.oX|.XX,XOX}.|..X.XOXOX Xv.{.b..Xv.v.s.s.R v.",
"6.z.x.z.r.3. .~ ~ W ~ &.( *.-.&.>.<.@.&.:.:.:.K f 3 r k N b q p n c a v J N N n Y b.|.|.XX-XXX}.}. X X XOX Xv.v.b.v.v.v.s.v.R v.",
"c.t.z.z.r.5.1.^ W W ~ ~ W &.#.&.&.&.O.+.@.D D M 7 y g g M B v j J D J J ;.;.Y Y T b.n.}.oXOXXX}.}.b.{..XOX.Xv.v.v.v.v.v.v.v.R v.",
"c.z.V.z.t.w.4.| W W i i z { ( #.$.&.[ O.+.K k y 4 5 z y f B Z B U D J N ;.;.;.T T v.|.b.XXOXXXb.b.b.{..X X.Xv.f.v.v.s.s.R R u.b.",
"t.z.z.z.l.w.9.4.| ~ W ~ Q W W u ( { { x S x z y 5 5 y y 3 B Z V U U :.G U Y Y L U s.b.b. XOX Xb.b.b.f.b..X.Xv.f.s.v.s.i.v.R s.n.",
"z.z.w.z.t.h.q.*.4.} ( | Q W W W u u x y y y u y 5 y y y r V I U :.:.,.,.;.Y U T Y d.n.b. XOX.Xb.f.v.f.v..X.XR s.i.i.i.s.R E v.b.",
"C.V.z.V.V.9.4.*.q.$.~ =.' Q W W 5 5 i y u u u z u y y V M D K D @.:.,.;.,.;.G G U i.g.b..XOX{.f.d.i.s.f.{.{.i.u.R i.i.s.R R v.b.",
"C.C.V.w.V.w.9.M.<.#.} #.=.{ ~ W u u u u u x [ { C l y B I I I M D I ,.I D U G n L u.f.f..X.X{.f.i.i.i.f.{..XR R R R R R R T v.m."
};
