/* XPM */
static char *_b27537c24574471c6c2305d0b2882f5oZkEU2zfHf1Ofos7[] = {
/* columns rows colors chars-per-pixel */
"64 64 256 2 ",
"   c #090A08",
".  c #180B04",
"X  c #0A120C",
"o  c #151615",
"O  c #131010",
"+  c #230C00",
"@  c #290C00",
"#  c #2C1303",
"$  c #281608",
"%  c #331B0B",
"&  c #351A07",
"*  c #2B1914",
"=  c #35170E",
"-  c #3B240D",
";  c #382416",
":  c #27241F",
">  c #291D2C",
",  c #392925",
"<  c #302A2F",
"1  c #1D1520",
"2  c #491C06",
"3  c #48240D",
"4  c #442B15",
"5  c #4D2A14",
"6  c #4C2D19",
"7  c #452617",
"8  c #552D1C",
"9  c #542B15",
"0  c #4B331C",
"q  c #473218",
"w  c #54341C",
"e  c #5B351D",
"r  c #5A3A1C",
"t  c #563518",
"y  c #51280A",
"u  c #63371D",
"i  c #6B331C",
"p  c #492E21",
"a  c #4A3526",
"s  c #543522",
"d  c #5A3422",
"f  c #5C3B24",
"g  c #573A29",
"h  c #533429",
"j  c #633522",
"k  c #623B24",
"l  c #6B3B25",
"z  c #633D2B",
"x  c #6B3A2A",
"c  c #743C27",
"v  c #6C3F31",
"b  c #5B422A",
"n  c #5B4334",
"m  c #40433C",
"M  c #634226",
"N  c #64432B",
"B  c #6A452B",
"V  c #6B492D",
"C  c #684628",
"Z  c #74432C",
"A  c #7B452C",
"S  c #774829",
"D  c #79522D",
"F  c #644433",
"G  c #6B4533",
"H  c #644A34",
"J  c #6D4B34",
"K  c #6D4C3B",
"L  c #65493A",
"P  c #734C34",
"I  c #734D3B",
"U  c #7B4C3A",
"Y  c #794733",
"T  c #6C5238",
"R  c #745235",
"E  c #74533C",
"W  c #7C5A3D",
"Q  c #7A5538",
"!  c #78603D",
"~  c #6E401F",
"^  c #575A58",
"/  c #4B4A46",
"(  c #6C5343",
")  c #755541",
"_  c #7B5442",
"`  c #765A43",
"'  c #7C5C44",
"]  c #7C5E4A",
"[  c #76574B",
"{  c #6B534D",
"}  c #5C615E",
"|  c #7E624C",
" . c #7C6145",
".. c #7B6455",
"X. c #6C645C",
"o. c #46576A",
"O. c #546877",
"+. c #676866",
"@. c #74716F",
"#. c #3F576F",
"$. c #8A4E1A",
"%. c #834828",
"&. c #8A5428",
"*. c #965626",
"=. c #844C37",
"-. c #84543B",
";. c #865937",
":. c #985A34",
">. c #8A623C",
",. c #97643A",
"<. c #A36536",
"1. c #845443",
"2. c #825D44",
"3. c #8A5B45",
"4. c #875A48",
"5. c #935C47",
"6. c #835D53",
"7. c #844F41",
"8. c #846245",
"9. c #8C6443",
"0. c #83644C",
"q. c #8A654B",
"w. c #866A4D",
"e. c #8B6B4D",
"r. c #8C6A45",
"t. c #936D4B",
"y. c #966648",
"u. c #8A714E",
"i. c #96714B",
"p. c #846452",
"a. c #856A53",
"s. c #8B6C53",
"d. c #8A6A57",
"f. c #936D54",
"g. c #966B56",
"h. c #8D7254",
"j. c #8D725A",
"k. c #8D7757",
"l. c #937355",
"z. c #92755B",
"x. c #9A755C",
"c. c #957A5D",
"v. c #9A7A5D",
"b. c #9B7955",
"n. c #A36748",
"m. c #A57858",
"M. c #AB744E",
"N. c #8A7767",
"B. c #947762",
"V. c #957B62",
"C. c #9A7D63",
"Z. c #9C7E69",
"A. c #977868",
"S. c #847976",
"D. c #8F756A",
"F. c #A27E63",
"G. c #A67C67",
"H. c #A17C73",
"J. c #B2845B",
"K. c #9C8265",
"L. c #9D836A",
"P. c #998469",
"I. c #9B8677",
"U. c #90877A",
"Y. c #A28265",
"T. c #A2856B",
"R. c #A48A6C",
"E. c #AA8A6D",
"W. c #AA8468",
"Q. c #B68A67",
"!. c #A48C72",
"~. c #AB8D74",
"^. c #A88876",
"/. c #AB9275",
"(. c #A6937B",
"). c #AC957B",
"_. c #AD997C",
"`. c #A69175",
"'. c #B2957B",
"]. c #B6987A",
"[. c #B38F71",
"{. c #9E805E",
"}. c #C79978",
"|. c #CB9573",
" X c #CAA27C",
".X c #D5A07E",
"XX c #C18457",
"oX c #73788B",
"OX c #597187",
"+X c #837D83",
"@X c #788991",
"#X c #7394AC",
"$X c #50879C",
"%X c #7BA4C2",
"&X c #888887",
"*X c #968A87",
"=X c #899497",
"-X c #959A98",
";X c #928D8F",
":X c #AC9A82",
">X c #AA9487",
",X c #B39C84",
"<X c #B89B86",
"1X c #AD978F",
"2X c #9AA19E",
"3X c #BBA48D",
"4X c #B7A389",
"5X c #BCAA93",
"6X c #BBA597",
"7X c #ACA59D",
"8X c #96A8B4",
"9X c #A7A8A8",
"0X c #B5ABA5",
"qX c #B9B8B6",
"wX c #ACAFB3",
"eX c #939EAF",
"rX c #C29B85",
"tX c #C6A78A",
"yX c #D6A988",
"uX c #C2AC94",
"iX c #C9A996",
"pX c #C5B29A",
"aX c #CBB49B",
"sX c #D7B59B",
"dX c #D5AE96",
"fX c #EAB394",
"gX c #CDBAA3",
"hX c #CBB4A3",
"jX c #D3BCA4",
"kX c #D9BBA6",
"lX c #C4B7B1",
"zX c #EEBCA1",
"xX c #BEC0BD",
"cX c #D7C3AB",
"vX c #C4C3BC",
"bX c #DCCCB4",
"nX c #DBC9B5",
"mX c #D7CBB1",
"MX c #E4CAB6",
"NX c #E3D3BC",
"BX c #E7D5BC",
"VX c #E4C4AB",
"CX c #B9BDC3",
"ZX c #8FACCA",
"AX c #C3BDC6",
"SX c #B8C3C4",
"DX c #C8C8C7",
"FX c #D9D8D6",
"GX c #D4CDD0",
"HX c #EAD9C4",
"JX c #F4DCC7",
"KX c #EFD8D8",
"LX c #EFE3CF",
"PX c #E5DCE3",
"IX c #E5E4E5",
"UX c #DCE2E4",
/* pixels */
"J J K J K J H f N H K E ` ] ]  ... .E E Q R B f 6 7 7 7 8 z Y Q 1.Q J P Q U P ) I J J ) s.v.l.w.>.u.{. XdXsXsXzXdXrX_.I.&X+X+XoX",
"f f w f B _ j.C.L.T.!.~.).).).(.).4X,X'.E.Y.C.z.] F h h 5 & 9 G x.F.Y.W.^.~.^.'.[.^.W.f.' R R J Q >.u.i.g.g.g.x.s.d.k.I.;X;X=X+X",
"' 0.z.z.C.E.~.~.'.'.'.<X<X3XtXuXuXsXsXVXVXVXsX<XaXiXiX6XiXiXsXsXsXsXzXkXsXkXdXrX<X].~.Y.c.v.v.K.W.W.b.y.5.y.g.q.A...n : > > < < ",
"C.Z.Y.Y.C.C.x.l.q.0.' ' 2.8.6.] | 0.8.8.r.q.W B g H ( L F K J N ' ` | 0.p.B.d.G z f w 0 t w r w f I q.4.A Y 4.x.L.U.@.@.+.+.} o.",
"l.x.v.Y.F.C.x.s.f.0.W R J V N M w w t t t r D ! ) ] u.N.k.| d.P.k.k.K.R.!.].).z.E E J B k w 9 8 w 6 y i l c =.d.k.S.&X=X9XwXxXDX",
"s.l.v.C.v.v.l.f.e.q.8.4.8.q.8.2.w.8.W V S V C C a.| ....N.P.P.c.{.K.R.P.C.Y.Z.j.C.l.q.0.Q P v x z d i Z =.:.G.rX-X9XwXSXCX8X9XqX",
"E W Q V k r M C r k B Q q.t.e.e.s.e.! R >.,.! t @ # + & b k.P.a.T R N r b V G M N f d I f.W.rXyXp.G l y..XfXzXkX0X2X#X@XO.^ ^ +.",
"r V ' ' P r r e f C R q.x.x.b.f.b.v.t.D D i.>.M @ # + + - T P.(.c.u.V r R E V z G G P U U y.Q.dX^.6.i %.M.fXfXfX7X@X@.$XO.o.O.@X",
"B M 5 8.e.t r 9 C V 8.x.m.m.K.Y.{.J.{.D >.>.>.r.- q - . . - ( P.{.{.Q 8.[.l.P P k j j Z =.3.n.rXsXb.&.$.*.XXyXtX4X@XOXo.o.o.oXeX",
"f f R 9 B q.5 t C 2.c.m.Y.Y.W.W.E.E.{.D ;.>.>.>.V H b : . $ m | b.i.W i.[.[.x.2.j e 8 j =.7.5.G.yX].{.&.$.<.|.yX1XU.O.o.o.OX=XZX",
"P f J k 9 C B t R l.E.W.{.Q.[.R.E.E.Q.! D >.D >.T b H a $ . % H b.9.9.b.Y.[.[.e.e j i i c =.=.5.Q.yX.X<.$.$.M.tX4X*X@.o.OXoXZXZX",
") G d ' z 3 ' J 8.K.[.E.Y.R.[.R.R.R.}.>.D >.D ! C - a b ; . . b e.r.i.l.e.l.W.v.G x e j c A =.3.y. XyXJ.,.&.*.J.rX>XS.+.OXZXZXZX",
"f I J k P G N f.{.R.E.R.R.R.R.R./.]. X{.>.>.D Q ! - $ q m $ + a W i.i.i.8.! c.E.8.P e j B Z Y 3.1.m.}. XJ.*.*.,.|.[.>X+X+XZXZXZX",
"8 v I d G E I V.K.{.R.`.`.`.`./._.]. XE.>.>.D R ! q . ; , $ $ a W b.i.r.u.!  .P.z.' k e l Z Y U 4.4.W.}.Q.n.,.$.M.XXrX6XCXZX%X#X",
"z 8 d G z K z.c.K.{.{.`./.`.`._._.3X]. Xi.;.;.R E b . $ p $ * a  .{.i.u.w.! w.{.K.K.0.N d k Z Z 1.1.g.W.G.M.:.*.:.XX}.iXqX8X#XOX",
"d d 8 s F q.L.P.k.P.R.R._._./._.].uX4XtXb.>.9.W V ` % % , + * ; W b.{.u.! ! k.P.L.4X_.` w w z P U 1.5.g.G.m.<.:.$.M.|.yX6XeX#XOX",
"d d 9 9 F j.^.L.K.P.L.P.`./._.,X:X4XpXaX].i.>.r.R J w - & + $ 0 w.c.{.k.w.k.P.L.6X6XhXH.g f f u c %.-.e.g.A.g.n.:.:.J..XtX>XS.^ ",
"9 8 8 7 d p.^.,XR.P.P.I.)./.).)._.4XaXaXuX[.e.R D V t 6 q & # a h.{.{.{.{.`._.4XgXjXkX<X[ 7 d k S S -.5.5.g.g.5.;.%.,.XX}.G.6.[ ",
"d 8 3 7 K B.^.L.E.L.P.P.`.`.`.(.(.:X5XgXjXsXR.W ! J w q & . . n T.R.Y.R.`.5XaXcXkXcXjXjXZ.d f u Z A -.3.6.g.n.5.,.&.*.n.G.m.g.6.",
"8 7 9 d ) B.L.L.`.`.I.R.L.`.).`.(.:X4XpXcXVXuXY.T N f a 4 # a j.`.`.R._.5XcXVXmXnXkXhXkXdXG.' l A %.-.1.5.n.n.n.<.*.$.$.M.m.g.A.",
"e 9 5 f ' B.L.C.!._.,X).)._.,X).(.(._.5XmXMXVXsX`.u.b a g { A.1X)._.4XuXmXBXNXmXhXuXuXiXkXsXb.l Z =.7.5.5.n.n.:.*.*.$.$.<.M.{.E.",
") N w F w.C.P.V.P.:X3X4X,X4X,X,X4X4XpXmXbXMXBXBXBXaX`.k.d.H.iXdXaXjXcXbXBXHXbXmXuX5XaXtXtXkXW.S c c =.7.5.n.n.:.*.*.$.$.&.y.F.E.",
"B I 2.d.d.d.Z._.(._.4X3X4X4X3XuXgXgXmXmXBXBXBXBXBXBXBXHXnXnXMXJXJXLXJXLXLXBXmXcXgXgXsXiX XtX Xu.Y U =.7.5.n.n.:.*.*.&.&.S Y p.A.",
"3 k q.L.T.C.T._.3X,X,XuXuX3XaXcXmXmXNXmXBXBXBXLXLXNXBXHXJXJXKXJXJXLXLXLXHXmXcXcXjXaXtXtX[.[. XJ.3.4.4.3.7.n.n.*.*.$.%.&.k 8 L ..",
"f _ f.C.T.~.)./.,X3X5X,X4XpXjXgXHXmXNXBXNXbXbXmXLXNXbXBXHXVXnXJXJXJXHXHXKXbX5X5XaXjXtX[.[.Q.}.yXrXW.g.;.=.n.n.:.&.&.I k p ; , n ",
"E 8.z.z.c.K.)._.,X,X:X4X3X5XpXgXgXvXNXNXNXNXmXcXmXmXNXNXkXkXVXHXHXHXHXHXNXcX5X5XtXaX_.Y.{.{.J. XdX}.t.-.-.g.n.3.P Y z p = > > < ",
"8.s.l.l.z.K.`.4X:X).:X5XuX5X0XgX5XcXmXmXbXHXjXjXcXVXMXbXkXVXMXkXbXHXHXHXmX5X1X:X4X].R.l.,.>.,.Q.sX Xy.D 5.y.x.5.I g , * * > > > ",
"s.f.x.C.C.L./.4X4X(.(.5XpX5XuXhXcX5XgXgXnXMXhXjXBXMXMXMXMXJXJXVXkXNXnXNXmX5X4X(._.`.b.i.>.;.>.J. X Xi.-.9.9.m.H.A.g * o 1 > > > ",
"f.l.x.C.T.!./._.).(.(.:X5X5X5X4X5X5XpXaXmXbXrX^.zXiXiXiXdXkXMXMXkXjXhXkXHXpX3X:X!.{.h.e.,.>.,.i.J. X{.>.9.3.B.1XhX@.> O O O O 1 ",
"x.v.c.v.T./._.`.(.:X:X:X1X5X5X:X:X5XpXpXjXVX<Xv ^.E.T.G.F.E.tXcXhXiX1XaXnXkX3X).L.l.e.r.>.>.>.r.J.|.Q.M.5.1.x.iXGX-X/ X O O O   ",
"x.F.C.c.K./.).I.(.,X4X:X_._.:X:X(.7X4X5XaXVXiXx 1.x.G.g.f.z.Y.tX<X>X^.>XhXkX4X`.C.h.u.r.r.>.,.,.,.J..XJ.g.3.6.6XHX9X^   O O   . ",
"l.C.Y.c.K./._.P.(.:X4X:XI.I.(._.(.:X`.4XtXdXsX_ i 4.5.4.e.3.-.c.[.H.H.B.,XhX,XL.c.l.l.i.>.,.r.,.&.M..X|.M.g.4.1XnX9X/ X O     O ",
"c.V.P.c.P.(._.(.I.(._._.).).!.L.!.I.`.^.^.rXrXj.2 2 4.y.-.9.;.;.G.z.G.A.T.iX].Y.v.l.9.>.,.,.,.,.;.>. X.Xn.=.5.A.6X+Xm X X X   . ",
"V.K.P.P.P.P.`.I._.`.P.P.L.L.Z.L.K.K.!.!.T.~.H._ 2 & Z y.-.%.c %.4.g.B.z.T.3X].R.w.r.9.>.;.;.:.;.;.r.Q.M.*.=.5.g.>XD.< X X X   X ",
"V.C.P.P.P.P.P.P.(.P.j.P.Z.B.j.B.c.c.L.!.T.Z.j.G 3 9 Q -.A =.A c P f.x.x.Y.~.`.l.8.! D P S =.;.9.>.i.m.&.c =.5.6.H.S./ o o O   . ",
"Z.C.k.{.P.{.P.`.P.P.N.j.B.d.a.j.j.a.B.G.H.Z.4.v x =.y.=.c %.%.A Z q.x.v.l.K.R.E J b w w f B D D  .t.y.%.%.=.=.g.+XH.^ o   X O O ",
"L.Z.V.P.V.N.c.P.P.P.j...p.a.d.N.d.| 0.j.A.z.4.I 1.U U Y A c c %.Z S q.l.' f.T.s q 6 0 g N g f b W t.y.%.A =.-.g.`.@./ o     X   ",
"B.P.L.Z.K.d...` ....k...| p.d...a...' 6.g.d.4.I U x l c Y =.A S A C ;.>.B 8.d.# % 7 s g a 6 0 a M e.i.Z c =.7.4.P.X.} } ^ / < : ",
"B.Z.L.Z.N.j. .H g b ( | ....[ [ | | ` [ 6.' U G j v l c c %.Z Z D S =.~ k 8.T @ # = ; ; ; $ % - 4 R 9.A i =.7.6.@.N.;XqXqX9X&X@.",
"D.L.P.Z.P.V...T ; 4 a ( ..[ [ [ ( [ ) I I I v k j j l Z c y 9 S S S A t M s.F & % $ ; ; , ; $ . & t -.=.%.%.7.4...*XSXUXFXFXAXwX",
"K.P.P.!.L.V.d.| K p & % p L ( ( L ( _ G G v z 8 v j l l 2 @ 2 l ~ S i t B x._ % # $ * * : m ; + @ 2 v =.c Y 7.6...*XxXUXUXIXUXFX",
"K.L.!.!.L.V.B.d.] n 7 & & ; h ( [ L / ( v d 8 j j j x l 9 2 2 9 S D ~ ~ P F.] ; % % % $ . ; , - + @ x =.c =.7.6.N.7XDXGXUXIXPXPX",
"V.P.P.R.T.Z.B.d.] ) n 7 # @ % 7 z L v v p 2 8 v Z U U P Y P k y y u ~ D q.!.0.& - ; ; * . $ ; ; + @ 8 v =.7.7.6.*XlXDXSXGXGXFXIX",
"c.P.Y.R.T.L.V.B.p.] I n s ; # @ $ h g a = 7 j _ 1.6.q.4.q.g.8.J y t C  .C.'.q.- 7 7 0 4 % - ; q = @ 8 x c Y 6.6.6XqXDXCXZXwXAXPX",
"k.{.K.P.L.Y.C.z.z.p.) L n h ; * . = 7 ; 3 d v _ 4.f.g.g.f.C.B.s.! >.8.l.E.].B.g 4 4 s b q - - - = @ 3 j x =.7.6.;X1XAXAX-X;XCXGX",
"k.{.K.K.K.K.B.f.d.p.] K L L h a @ . @ 7 h v v I ) 4.f.V.B.z.V.L.`.P.K.K.'.<X~.q.f 0 w b r q - - = @ 7 8 x Y 7.7.{ X.-XwX-X+XwXAX",
"u.{.{.{.C.C.z.f.0.0.| ` T L g h a = @ p z L v ) E 4.d.V.A.B.V.P.R.Y._.`.].].].Z.T f r f M M r y 7 = 8 j x U 7.I h / +.+XeXwXAXAX",
"..{.K.K.v.C.z.j.d.0.' T L K ( h v p ; p h v I _ _ 4.q.f.l.V.K.L.R.`.]./.).`.,X'.a.J r w M J R b g h v x j U 7.{ n } ^ OXwXAXAXGX",
"{.{.{.P.K.K.c.z.p.0.] ) E K J F z n h 7 h ) I _ ] ' 0.j.V.V.K.K.^.~.~./._.].]./.P. .H 0 q r T T n n r e v c 7.H...^ } oX9XCXGXGX",
"..{.P.P.L.V.j.h.s.0.0.) E K J L g v h 7 z v ) _ ] ] 0.z.c.V.C.K.!.~.)./._.]._.].`.u.! b - - q q a g 6 e v v 6.+XS.oXoX=XwXAXAXKX",
"k.{.{.P.T.C.j.h.s.a. .` ) E E K z ( z p h K ) _ | | p.d.j.C.K.C.L.^.`././._././._.P. .H 0 - - - q q 5 9 x v 5.[.+X+X-X2XwXAXKXPX",
"k.{.P.P.K.P.j.h.a.0.' ` ) ) E E G L v d h G ) [ ' 0.0.0.h.V.K.V.L.L.E./././././.`.P.{.! H b ; - q 4 5 8 x 7.6.+X+X+X-XeXeXAXGXKX",
"| {.P.K.K.c.j.h.w.0.' ` E ) ) _ K L v g s z E ' ' ] 0.0.h.V.K.C.Z.L.!.~././.`.`.P.{.{. .T b a q ; - 3 8 x _ D.+XS.&X=X-X9XwXlXGX",
"| k.c.P.K.c.k.h.p.0.` ` ' ) ` E _ G G z s g I ` ' p.a.s.h.c.K.K.Z.Z.L.~./.`.R.R.{.P.{. . .H w q q 4 3 8 x _ H.1XS.&X=X-X-X;X;X>X",
"k.k.{.k.c.c.h.d.w.0.' ` ' ' ' ) ] I G N s d K ` ] 0.d.j.j.h.V.T.G.Z.L.~.`.R.P.{.P.{. .!  .E f 0 q 3 6 d x _ H.6X-X-X2X2X;X@.@.@.",
"k.k.{.K.V.c.h.h.0. .' ] 2.0.' ` 0.I K F s f I E ] 0.s.j.h.a.z.K.L.A.Z.!.P.P.{.| {.P. .T 0.| H b 4 4 8 f j [ H.hX0X0X9X2X&X+.{ X.",
"h.k.h.c.c.c.h.w.0.8.0.0.0.0. .] _ _ E G s 6 z ` ' | a.f.j.c.c.j.Z.T.Y.Z.~.~.l.w.e.c.e.T N T ` ` n s 8 f G _ H.0XgXvXDX9XU.^ n +.",
"k.h.l.c.c.c.h.s.a.s.0.0.0.0.0.8.] ] _ K f w g E  .0.p.s.c.V.c.z.C.T.T.K.E.E.v.w.e.w.0.8.R b f f E N e f G ] L.6XlXvXDXqX2X-XU.U.",
"h.h.u.h.c.c.h.w.h.s.e.w.q.0.0.' q.2.' E M f f J 0.0.0.j.j.V.V.z.z.G.!.K.V.W.Y.u.8.! 8.s.W N s 3 J M B K ' s.L.1X0XvXFXvXSXmXxX7X",
"h.u.w.h.k.c.c.h.l.s.s.w.a.0.8.0.0.p.4.' J g M H 0.0.a.j.j.z.B.V.z.V.T.Y.c.K.Y.b.8.8.e.q.W Q J 5 M b B W 8.f.B.D.U.0XFXGXFXFXDXvX",
"u.w.w.u.h.c.c.l.l.s.a.e.a.q.a.q.e.q.q.2.E J V J ' w.j.j.d.j.B.L.C.l.C.T.K.v.Y.b.e.e.t.e.8.q.2.B R V C C T 0.j.P.X.U.vXFXFXLXFXFX",
"u.w.w.w.h.h.h.h.s.h.e.s.s.s.s.s.s.s.s.q. .Q E E  .0.j.f.h.d.c.C.K.z.z.Y.Y.v.v.c.v.h.e.l.f.2.E Q 8.V r r H  .V.*XP.@.7XFXUXIXLXUX",
"u.u.k.u.h.h.h.h.l.h.s.s.s.h.s.s.f.s.f.e.0. .' E | 0.d.s.j.j.z.B.Z.v.v.v.Y.v.l.b.b.l.t.e.f.' V W ! C r r M ! P.5X-XU.9XFXIXUXFXDX",
"u.k.u.k.u.w.w.s.l.l.h.h.b.f.f.s.z.l.f.s.0.0.' ' 8.0.w.d.j.B.z.z.V.Y.C.c.K.v.s.b.e.v.f.' q.-.P W 9.D r t r T P.gX7XU.9XLXUXUXmXSX"
};
